<?xml version="1.0" encoding="UTF-8" standalone="no"?>
<!-- Created with Inkscape (http://www.inkscape.org/) -->

<svg
   xmlns:dc="http://purl.org/dc/elements/1.1/"
   xmlns:cc="http://creativecommons.org/ns#"
   xmlns:rdf="http://www.w3.org/1999/02/22-rdf-syntax-ns#"
   xmlns:svg="http://www.w3.org/2000/svg"
   xmlns="http://www.w3.org/2000/svg"
   xmlns:sodipodi="http://sodipodi.sourceforge.net/DTD/sodipodi-0.dtd"
   xmlns:inkscape="http://www.inkscape.org/namespaces/inkscape"
   inkscape:version="0.91 r13725"
   version="1.1"
   id="svg2"
   viewBox="0 0 744.09448819 1052.3622047"
   height="297mm"
   width="210mm"
   sodipodi:docname="hackster.svg">
  <sodipodi:namedview
     inkscape:window-maximized="1"
     inkscape:window-y="1"
     inkscape:window-x="0"
     inkscape:window-height="1035"
     inkscape:window-width="1920"
     showgrid="false"
     inkscape:current-layer="layer1"
     inkscape:document-units="px"
     inkscape:cy="713.247"
     inkscape:cx="352.42475"
     inkscape:zoom="2.0044965"
     inkscape:pageshadow="2"
     inkscape:pageopacity="0.0"
     borderopacity="1.0"
     bordercolor="#666666"
     pagecolor="#ffffff"
     id="base" />
  <defs
     id="defs4" />
  <metadata
     id="metadata7">
    <rdf:RDF>
      <cc:Work
         rdf:about="">
        <dc:format>image/svg+xml</dc:format>
        <dc:type
           rdf:resource="http://purl.org/dc/dcmitype/StillImage" />
        <dc:title />
      </cc:Work>
    </rdf:RDF>
  </metadata>
  <g
     inkscape:label="Layer 1"
     inkscape:groupmode="layer"
     id="layer1">
    <path
       style="fill:none;fill-opacity:1;stroke:#000000;stroke-opacity:1"
       d="M98.66894 265.26372L93.028321 265.68169L161.54199 302.18365L156.81738 295.37701L100.37402 265.30474L98.66894 265.26374L98.66894 265.26372M87.084961 266.80474L83.333001 267.67779L81.571291 268.1563L167.54394 313.95904L164.97949 308.30474L87.084961 266.80474L87.084961 266.80474M112.11816 267.27349L149.56152 287.22271L135.846195 276.5021125L120.3291 269.55865L112.11816 267.27349L112.11816 267.27349M76.409181 269.69537L71.618161 271.43169L170.87793 324.31451L170.80953 323.9981L169.47945 319.27935L76.409141 269.69537L76.409181 269.69537M67.192381 273.36333L63.063471 275.45122L115.34277 303.30474L120.73535 301.88872L67.192381 273.36333L67.192381 273.36333M59.211911 277.68951L55.620111 280.06451L108.29589 308.12896L108.37599 305.25005L110.06154 304.7813L59.211931 277.68951L59.211911 277.68951M52.274411 282.57232L49.172851 285.20708L108.07129 316.58794L108.08499 315.82232L108.18069 312.35747L52.274441 282.57232L52.274411 282.57232M46.276361 287.95513L43.581051 290.80669L83.977541 312.32818L84.708001 312.19732L88.749021 311.55083L88.487301 314.73247L108.09277 325.17583L108.01657 320.84966L46.276331 287.95513L46.276361 287.95513M41.067381 293.75787L38.729491 296.80083L73.967771 315.57622L78.313471 313.60161L41.067381 293.75787L41.067381 293.75787M36.555661 299.93169L35.038081 302.28326L34.538081 303.14654L75.321291 324.87505L80.745111 323.47466L73.733391 319.74029L72.571291 319.12115L36.555661 299.93169L36.555661 299.93169M124.76074 304.03326L125.01074 308.45513L172.03418 333.50982L171.65918 329.01958L124.76074 304.03326L124.76074 304.03326M32.733391 306.47466L31.135741 309.91216L64.563471 327.72271L69.950191 326.30279L32.733391 306.47466L32.733391 306.47466M124.93261 312.70318L124.87791 315.12701L124.83881 316.94341L172.1103 342.12701L172.1494 337.85943L124.9326 312.70318L124.93261 312.70318M29.694331 313.43365L28.383791 317.02544L53.596681 330.45708L54.483391 330.08013L59.084961 329.09185L29.694331 313.43365L29.694331 313.43365M88.151361 318.8438L88.102561 319.4356L81.665061 319.67583L86.321311 322.1563L87.307631 321.97076L88.292011 323.20708L105.7217 332.49224L113.72365 332.46684L88.151381 318.84379L88.151361 318.8438M27.223631 320.69537L26.192381 324.4356L74.838861 350.35357L80.532221 350.35357L82.891601 350.35357L74.379881 345.82037L72.272461 345.00787L72.254861 344.68755L27.223611 320.69537L27.223631 320.69537M124.75097 321.18365L124.66117 325.42583L171.52445 350.39458L171.91898 346.31451L124.75097 321.18365L124.75097 321.18365M88.639651 327.68169L89.875971 332.30669L97.76855 332.54497L88.639651 327.68169L88.639651 327.68169M25.301751 328.25005L24.594721 332.16216L72.389651 357.62701L72.389651 353.33599L25.301751 328.25005L25.301751 328.25005M122.62793 328.63287L116.72363 328.85552L115.05566 328.88672L122.37988 332.78906L124.68847 334.01953L169.92871 358.1211L170.41894 356.43555L170.89746 354.34961L122.62793 328.63282L122.62793 328.63287M60.153321 333.95122L72.057611 340.29302L72.018511 339.20318L71.922811 335.93169L69.221641 334.49224L62.770461 334.13482L60.153281 333.95122L60.153321 333.95122M24.096681 336.18755L23.926751 340.38482L72.389651 366.20513L72.389651 363.66021L72.389651 361.91607L24.096681 336.18755L24.096681 336.18755M125.09668 338.5274L125.10068 339.28326L125.10068 342.81841L129.73349 345.28521L134.22373 345.28521L137.88193 345.33791L125.09678 338.52737L125.09668 338.5274M24.303711 344.87701L25.018551 349.54497L72.389651 374.78326L72.389651 370.49419L24.303711 344.87701L24.303711 344.87701M83.473631 346.37505L108.30371 359.60357L108.37601 358.9688L115.16312 358.9688L110.12797 356.28716L108.34476 355.33794L91.870151 346.55865L89.876011 346.52745L83.473671 346.3751L83.473631 346.37505M100.16699 346.69146L107.60839 350.65435L107.3623 346.80474L100.16699 346.69146L100.16699 346.69146M142.458 347.7774L139.04004 349.21294L137.75293 349.55865L167.39746 365.35161L168.75097 361.78521L142.458 347.7774L142.458 347.7774M132.40332 350.9981L127.05175 352.4356L164.19824 372.22661L165.88769 368.83794L132.40332 350.9981L132.40332 350.9981M88.598631 353.39458L88.493161 357.62896L150.55175 390.69146L153.27832 387.85357L113.80371 366.82232L110.11816 367.58208L107.9541 363.70513L88.598631 353.39458L88.598631 353.39458M121.70215 353.87505L116.29785 355.28326L160.33886 378.7481L162.3623 375.53716L121.70215 353.87505L121.70215 353.87505M26.034181 354.37701L27.465821 359.42779L120.65918 409.07818L125.39355 407.31255L26.034181 354.37701L26.034181 354.37701M88.387691 361.85943L88.280271 366.0938L144.53808 396.06646L147.65136 393.43365L88.387691 361.85943L88.387691 361.85943M123.72949 363.53326L119.14941 365.38287L155.80175 384.90826L158.16504 381.87896L123.72949 363.53326L123.72949 363.53326M29.364251 364.72857L31.866211 370.34966L109.88379 411.91607L113.7705 411.07622L115.51269 410.62505L29.364251 364.72857L29.364251 364.72857M88.172851 370.32622L88.102551 373.1563L86.450201 373.69537L137.66895 400.98443L141.21387 398.58404L88.172861 370.32622L88.172851 370.32622M81.313471 375.25005L76.360351 376.33208L75.541991 376.46294L129.78027 405.35943L133.8623 403.24419L81.313471 375.25005L81.313471 375.25005M35.198241 376.41607L39.872071 383.19341L95.747071 412.96294L103.52246 412.81451L35.198241 376.41607L35.198241 376.41607M47.204101 391.39068L62.98529475 403.144395L81.803711 410.68755L84.745111 411.39068L47.204101 391.39068L47.204101 391.39068"
       id="use4604"
       inkscape:connector-curvature="0" />
    <path
       sodipodi:nodetypes="cccccccccc"
       inkscape:connector-curvature="0"
       id="path4846"
       d="M88.544554 315.81125L88.863194 311.92246L84.878007 312.55972L76.106006 314.82797L72.900677 317.99427L73.660112 319.94272L80.400677 319.99342L88.225914 319.7L88.544554 315.81122L88.544554 315.81122"
       style="fill:none;stroke:#000000;stroke-opacity:1" />
    <path
       sodipodi:nodetypes="cccccccccc"
       inkscape:connector-curvature="0"
       id="path4844"
       d="M124.50494 315.45003L123.70431 302.83776L114.22591 304.0333L108.22591 305.70653L107.93891 316.13567L108.17377 327.92476L116.46077 328.99237L124.22591 328.70003L124.50494 315.45003L124.50494 315.45003"
       style="fill:none;stroke:#000000;stroke-opacity:1" />
    <path
       sodipodi:nodetypes="ccccccccccccccccccccccccc"
       inkscape:connector-curvature="0"
       id="path4842"
       d="M123.22591 353.17624L138.47591 349.07539L142.72591 346.58132L133.72591 345.20003L124.72591 345.20003L124.72591 339.27949L124.33872 334.12228L121.97591 332.86003L105.22591 332.58491L89.975914 332.39738L88.725914 327.09304L87.442204 322.20003L71.349657 326.20003L55.060043 330.20003L53.912684 331.95003L63.236008 334.20003L72.225917 334.70003L72.359647 339.20003L72.609647 344.92642L89.975914 346.42642L107.22591 346.70003L107.5307 351.45003L109.82279 356.04959L123.22591 353.17624L123.22591 353.17624"
       style="fill:none;stroke:#000000;stroke-opacity:1" />
    <path
       sodipodi:nodetypes="ccccccccc"
       inkscape:connector-curvature="0"
       id="path4840"
       d="M117.72591 365.35507L124.22591 361.10897L123.14567 359.02531L116.22591 358.70003L108.22591 358.70003L107.90134 361.5345L109.94453 367.19613L117.72591 365.35507L117.72591 365.35507"
       style="fill:none;stroke:#000000;stroke-opacity:1" />
    <path
       sodipodi:nodetypes="ccccccccccc"
       inkscape:connector-curvature="0"
       id="path4838"
       d="M84.392467 373.94903L88.225914 372.69499L88.508664 361.44751L88.791414 350.20003L80.758667 350.20003L72.725917 350.20003L72.725917 363.32784L72.725917 376.45565L76.642467 375.82936L84.392467 373.94903L84.392467 373.94903"
       style="fill:none;stroke:#000000;stroke-opacity:1" />
    <path
       id="path4229"
       style="fill:none;stroke:#000000;stroke-opacity:1"
       d="M295.33566 365.84138L299.74432875 358.178215L298.92792 351.98715L282.34601 355.6156L280.13830375 359.72525875L280.86132 364.57261L287.03775 367.439175L295.33566 365.84138L295.33566 365.84138M277.33687 373.05143L271.82564 367.3819125L270.42294 360.19657L275.36813625 351.58548125L289.53168 347.03049L298.7163575 345.0847725L300.09601 341.53515L298.11318125 336.6233L292.1925 334.27327L285.1585725 335.05941875L280.88289 339.13419L279.18814 341.52941L275.59601 341.4139L271.16679 340.36035L277.28244 330.66172L285.582932656 326.84193375L294.48572125 326.637185L302.495921719 329.78715625L308.11865 336.03153L310.09601 356.94731L310.09601 373.98715L305.59601 373.98715L301.79601125 373.5982625L301.09601 371.48715L299.90891625 369.130275L295.43152 371.68041L286.3415875 374.85391375L277.33687 373.05143L277.33687 373.05143" />
    <path
       style="fill:none;stroke:#000000;stroke-opacity:1"
       d="M334.52515 372.60638L326.38534 366.37586L321.46261 357.14051L321.949456719 342.443666719L330.27408375 331.30705375L343.028726406 326.334883906L356.80562 330.13137L363.06551 336.92737L365.02212 340.76263L360.82286 341.82851L355.80154 341.42544L348.26365125 335.7506525L338.46023 336.63106L332.33246625 341.84361125L330.63793 350.31048L334.18513 362.22834625L345.20119 365.98715L354.04402 362.16247L357.606995 359.07137625L360.81741 359.41247L364.5739025 361.505265L362.99182 365.17957L353.59601 373.02004L344.33463 374.908185L334.52515 372.60638L334.52515 372.60638"
       id="path4227" />
    <path
       style="fill:none;stroke:#000000;stroke-opacity:1"
       d="M433.10408 372.80118L424.09601 362.88627L431.99374 361.19079L440.39922 367.51621L447.03752375 366.7508475L449.89657 361.89446L448.64087 357.2651825L440.72544 354.5534L431.57013125 351.1640975L426.65692 345.80879L425.18684875 340.690175L426.75232 335.29904L435.1206175 327.78640375L447.15055 327.00183L455.04432375 331.751715L458.85959 337.19646L455.15627 339.3988L450.96255 338.71313L447.57575625 334.990945L442.17957 333.98715L436.19827125 335.45330375L434.09601 339.62476L436.13001375 343.7791875L443.24673 346.32197L453.1511925 349.83628125L458.48955 355.40404L459.98681125 361.4636825L457.84601 366.99732L452.03057875 372.79088875L443.83524 374.75447L433.10408 372.80118L433.10408 372.80118"
       id="path4225" />
    <path
       id="path4221"
       style="fill:none;stroke:#000000;stroke-opacity:1"
       d="M538.09601 344.43749L532.52596 335.95179L524.76779375 334.662505L517.89348 336.64055L513.09601 345.45503L525.59601 345.98715L538.09601 344.43749L538.09601 344.43749M516.37376 372.43827L506.198687969 362.662957188L503.32926375 349.546625L507.577487656 336.637802813L518.75536 327.48502L531.07929625 326.8063175L542.37886 333.95685L546.8867225 340.92064125L548.085 349.73715L548.096 352.98715L530.46516 352.98715L512.83432 352.98715L513.43043 356.73715L519.29166625 364.8198425L530.47422 366.57597L539.21288 360.13652L543.10649 360.10412L546.99234 361.61527L544.80949 365.8439L539.370140781 371.189282188L532.19172625 374.21531L516.37375 372.43826L516.37376 372.43827" />
    <path
       id="path4217"
       style="fill:none;stroke:#000000;stroke-opacity:1"
       d="M663.06599 364.70784L668.253545 359.36322375L670.09601 350.77353L668.9604 342.67141L664.045099375 337.240399062L657.5217275 335.06142L650.771304375 336.238690937L645.17485 340.87643L643.09601 350.84941L643.62555875 357.48820875L646.94117 361.94504L655.69117 365.97241L663.06599 364.70784L663.06599 364.70784M646.55514 372.62028L637.467336719 365.275715156L633.02722625 355.05763875L633.588177656 343.912140469L639.50356 333.78531L647.39335625 328.189665L657.26583 326.56758L669.40667 330.23007L677.98685 340.08461L680.9224175 348.9966325L679.52873 357.90303L674.287977656 366.996063281L666.25454875 372.83296125L656.614812969 374.884206094L646.55514 372.62028L646.55514 372.62028" />
    <path
       style="fill:none;stroke:#000000;stroke-opacity:1"
       d="M217.09601 338.98715L217.09601 303.98715L222.09601 303.98715L227.09601 303.98715L227.09601 317.48715L227.97047375 330.3477275L233.17198 328.77286L241.38148 326.58474L249.8156625 328.4364575L255.8108 334.26565L258.19982 340.263675L258.91775 355.68989L259.3208 372.89263L256.82923 373.51797L251.46684 373.81523L248.59601 373.48715L248.09601 356.15408L245.59601 337.36065L237.4842125 335.1421925L230.00594 338.58094L227.25997 357.56563L226.92393 373.98715L222.00997 373.98715L217.09601 373.98715L217.09601 338.98715L217.09601 338.98715"
       id="path4215" />
    <path
       style="fill:none;stroke:#000000;stroke-opacity:1"
       d="M376.33305 339.23715L376.59601 304.48715L381.09601 304.48715L385.59601 304.48715L385.8663 325.23715L387.53081 345.98715L397.15069 336.98715L405.37636 327.98715L411.3177 327.98715L417.25904 327.98715L408.68029 337.23715L400.09878 347.34799L409.60221 361.09799L419.10841 373.98715L413.35221 373.96605L407.59601 373.94495L400.7715 364.46604L392.70859 354.98715L388.7831 357.79187L386.09601 367.29187L386.09601 373.98715L381.08305 373.98715L376.07009 373.98715L376.33305 339.23715L376.33305 339.23715"
       id="path4213" />
    <path
       style="fill:none;stroke:#000000;stroke-opacity:1"
       d="M483.19241 372.74659L478.69241 368.66777L476.27396 350.91777L475.95192 335.98715L471.52396 335.98715L467.09601 335.98715L467.09601 332.11215L467.59254375 328.74205875L470.28039 327.60027L475.6472675 324.84659625L477.09601 318.33216L477.09601 312.98715L481.59601 312.98715L486.09601 312.98715L486.09601 320.48715L486.09601 327.98715L491.09601 327.98715L496.09601 327.98715L496.09601 331.98715L496.09601 335.98715L491.09601 335.98715L486.09601 335.98715L486.11131 349.23715L486.96719 363.81298L492.00398 365.70163L495.60809375 366.6657375L495.8981 369.87581L494.9967625 373.05960125L490.596 373.74659L483.1924 372.74659L483.19241 372.74659"
       id="path4211" />
    <path
       style="fill:none;stroke:#000000;stroke-opacity:1"
       d="M560.09601 350.98715L560.09601 327.98715L565.07101 327.98715L570.04601 327.98715L569.44601 330.98715L570.21275875 334.007035L573.69102 331.84913L584.06389 326.98715L586.09601 331.98715L585.69442 336.3248975L583.06389 336.98715L571.80041 342.31553L570.09601 359.45197L570.09601 373.98715L565.09601 373.98715L560.09601 373.98715L560.09601 350.98715L560.09601 350.98715"
       id="path4209" />
    <path
       style="fill:none;stroke:#000000;stroke-opacity:1"
       d="M587.32497 373.31786L583.70391 365.70778L590.81807 359.98715L598.09601 367.17863L594.36189625 372.51837875L587.32497 373.31786L587.32497 373.31786"
       id="path4207" />
    <path
       style="fill:none;stroke:#000000;stroke-opacity:1"
       d="M611.09601 350.98715L611.09601 327.98715L616.09601 327.98715L621.09601 327.98715L621.09601 350.98715L621.09601 373.98715L616.09601 373.98715L611.09601 373.98715L611.09601 350.98715L611.09601 350.98715"
       id="path4205" />
    <path
       style="fill:none;stroke:#000000;stroke-opacity:1"
       d="M612.73087 314.91457L610.17946375 310.56340875L612.09601 305.98715L616.50227 304.08218625L620.9217 306.3016L622.97497 310.40830625L620.64146 314.5326L616.8433125 316.8535775L612.73087 314.91457L612.73087 314.91457"
       id="path4201" />
  </g>
</svg>
