<?xml version="1.0" encoding="UTF-8" standalone="no"?>
<!-- Created with Inkscape (http://www.inkscape.org/) -->

<svg
   xmlns:dc="http://purl.org/dc/elements/1.1/"
   xmlns:cc="http://creativecommons.org/ns#"
   xmlns:rdf="http://www.w3.org/1999/02/22-rdf-syntax-ns#"
   xmlns:svg="http://www.w3.org/2000/svg"
   xmlns="http://www.w3.org/2000/svg"
   xmlns:sodipodi="http://sodipodi.sourceforge.net/DTD/sodipodi-0.dtd"
   xmlns:inkscape="http://www.inkscape.org/namespaces/inkscape"
   width="210mm"
   height="297mm"
   viewBox="0 0 744.09448819 1052.3622047"
   id="svg4134"
   version="1.1"
   inkscape:version="0.91 r13725"
   sodipodi:docname="banksy_test_certified.svg">
  <sodipodi:namedview
     id="base"
     pagecolor="#ffffff"
     bordercolor="#666666"
     borderopacity="1.0"
     inkscape:pageopacity="0.0"
     inkscape:pageshadow="2"
     inkscape:zoom="1.1952646"
     inkscape:cx="366.25762"
     inkscape:cy="651.14199"
     inkscape:document-units="px"
     inkscape:current-layer="layer1"
     showgrid="false"
     inkscape:window-width="1440"
     inkscape:window-height="852"
     inkscape:window-x="0"
     inkscape:window-y="0"
     inkscape:window-maximized="1" />
  <defs
     id="defs4136" />
  <metadata
     id="metadata4139">
    <rdf:RDF>
      <cc:Work
         rdf:about="">
        <dc:format>image/svg+xml</dc:format>
        <dc:type
           rdf:resource="http://purl.org/dc/dcmitype/StillImage" />
        <dc:title></dc:title>
      </cc:Work>
    </rdf:RDF>
  </metadata>
  <g
     inkscape:label="Layer 1"
     inkscape:groupmode="layer"
     id="layer1">
    <path
       inkscape:connector-curvature="0"
       id="path4803"
       d="M241.35237 116.23468L237.57415 138.87075L237.68305 139.99781L237.93022 140.29648L238.77782 140.67557L239.52567 141.88948L238.88974 142.61499L237.61821 142.64039L236.98247 142.53428L228.3904 141.10017L227.75466 140.99405L226.50572 140.52818L226.21373 139.66759L227.31529 138.76237L228.24006 138.67907L228.55157 138.47365L229.02061 137.44306L232.79883 114.80699L241.35237 116.23467L241.35237 116.23468M248.01797 117.34725L246.70283 125.22652L246.2242 126.07731L245.3572 126.28902L244.59953 125.84573L244.34289 124.89202L244.34589 123.68473L243.74624 120.3966L242.56178 118.8326L242.95086 116.50157L248.01748 117.34725L248.01797 117.34725M226.17176 113.70086L231.23838 114.54654L230.84931 116.87757L229.22111 117.97211L227.58606 120.88723L227.19727 122.03022L226.62553 122.84566L225.78423 123.02206L225.01372 122.53703L224.85661 121.58014L226.17176 113.70086L226.17176 113.70086M260.90608 119.49842L256.51692 145.79479L247.94411 144.36389L247.44323 144.28029L246.4062 143.84979L246.16558 143.03737L247.1098 142.12569L247.88366 141.99744L248.15343 141.80485L248.54859 140.86094L251.76732 121.57693L251.70012 120.55584L251.50431 120.30534L250.81727 119.91344L250.22032 118.74453L250.70854 118.07357L251.83238 117.98397L252.33326 118.06757L260.90607 119.49847L260.90608 119.49842M262.62064 119.7846L270.38434 121.08045L269.24605 127.90017L268.87017 128.7285L268.0931 128.87601L267.50557 128.59973L267.25851 127.82585L265.67 124.05585L262.24443 122.03857L262.62064 119.7846L262.62064 119.7846M260.18339 133.79325L260.55639 131.55853L262.4093 130.65992L263.48212 129.09646L264.05388 128.16221L264.81491 127.99222L265.58217 128.61532L265.52727 129.77445L264.30216 137.11431L263.88124 138.33116L263.0913 138.55573L262.44279 138.17026L262.18936 137.19729L261.58623 134.99767L260.18335 133.79325L260.18339 133.79325M258.2507 146.08417L258.59797 144.00359L260.74933 143.80823L262.58295 143.02521L264.13733 141.77974L265.41893 139.9145L266.00029 139.16008L266.67461 139.03501L267.37127 139.48791L267.39987 140.62137L266.26479 147.42183L258.25066 146.08417L258.2507 146.08417M282.55015 122.57642L282.18036 124.79187L280.17979 125.50742L279.28357 127.08056L279.52076 128.86268L280.98776 130.51344L284.36508 132.81968L286.81459 134.63444L288.37466 136.43934L289.69932 142.50187L287.70752 146.84256L283.77672 149.5131L281.07301 150.05189L278.4497 149.99029L278.81626 147.79412L281.41086 147.07869L282.49017 145.2391L281.71371 142.77293L279.04914 140.70447L276.04099 138.67766L274.5386 137.35761L272.06477 129.87559L273.64547 125.98111L276.67076 123.39705L282.55015 122.57645L282.55015 122.57642M283.70228 125.0459L284.05599 122.92677L286.00807 123.56942L288.27147 124.83828L288.88148 125.09851L289.46269 124.93809L289.97977 124.45015L290.80183 124.15174L291.48885 124.66244L291.54315 125.87939L290.48203 132.23675L290.00019 133.1068L289.13319 133.31851L288.46219 132.9491L288.23432 132.53483L288.16712 131.75135L287.75982 129.68343L286.84519 127.68923L283.70233 125.0459L283.70228 125.0459M277.35215 147.54971L276.98558 149.74589L273.64979 148.25844L272.73803 147.67062L272.23395 147.48753L271.6335 147.52593L270.91414 148.03951L270.09207 148.33793L269.28978 146.50109L270.46022 139.48873L270.91958 138.63473L271.7577 138.35879L272.3709 138.71856L272.6436 139.69475L273.39737 143.00859L274.95401 145.7832L277.35214 147.54978L277.35215 147.54971M310.08896 127.70761L306.31074 150.34368L306.41965 151.47074L306.66682 151.76941L307.51441 152.1485L308.26227 153.36241L307.62633 154.08792L306.35481 154.11332L305.71906 154.00721L297.12699 152.5731L296.49126 152.46698L295.24232 152.00111L294.95032 151.14051L296.05189 150.2353L296.97665 150.152L297.28816 149.94658L297.7572 148.91599L301.53542 126.27992L310.08896 127.7076L310.08896 127.70761M316.75457 128.82018L315.43943 136.69945L314.96079 137.55023L314.0938 137.76195L313.33613 137.31866L313.07948 136.36495L313.08348 135.15765L312.48382 131.86953L311.29937 130.30553L311.68844 127.9745L316.75507 128.82018L316.75457 128.82018M294.90835 125.17379L299.97498 126.01947L299.5859 128.3505L297.95771 129.44504L296.32265 132.36016L295.93386 133.50315L295.36212 134.31859L294.52082 134.49499L293.75032 134.00996L293.59321 133.05307L294.90835 125.17379L294.90835 125.17379M339.67011 132.1104L339.28103 134.44144L337.41853 135.16024L336.46434 137.43655L333.80833 153.34923L333.67006 154.17761L333.68586 155.15052L334.02921 156.0593L334.59097 156.7273L335.49957 157.09678L335.10728 159.44707L328.93983 156.4177L326.04804 151.20248L325.96304 144.11918L327.65645 138.83763L330.7174 134.8536L334.89859 132.46247L339.23022 132.01718L339.6701 132.11038L339.67011 132.1104M340.79973 134.71473L341.18881 132.3837L342.65605 132.96522L344.67225 134.05419L345.92438 134.61962L346.85562 134.26021L347.18324 133.83966L348.12733 133.52201L348.86574 133.96208L349.00358 134.91575L347.66593 142.92989L347.13265 143.98937L346.28492 144.2043L345.58183 143.78992L345.30273 142.73346L344.9116 140.2128L343.51885 136.93091L342.2894 135.51781L340.79973 134.71473L340.79973 134.71473M336.68702 159.71074L337.07931 157.36045L340.42844 156.75116L342.25575 155.53146L343.6401 153.64376L344.22788 152.85081L344.96644 152.69686L345.67915 153.17224L345.84268 154.09061L344.81792 156.07792L342.7432 158.06819L339.80807 159.51883L336.68702 159.71074L336.68702 159.71074M362.54686 136.46344L358.15769 162.7598L349.58488 161.3289L349.084 161.2453L348.04697 160.81479L347.80634 160.00237L348.75057 159.09069L349.52443 158.96245L349.7942 158.76985L350.18936 157.82594L353.40809 138.54194L353.34089 137.52084L353.14507 137.27035L352.45803 136.87845L351.86108 135.70953L352.3493 135.03857L353.47315 134.94897L353.97403 135.03257L362.54684 136.46347L362.54686 136.46344M364.26142 136.74962L372.02511 138.04547L370.88682 144.86518L370.51095 145.69351L369.73387 145.84102L369.14634 145.56474L368.89928 144.79086L367.31078 141.02087L363.88521 139.00359L364.26142 136.74962L364.26142 136.74962M361.82416 150.75826L362.19716 148.52355L364.05008 147.62494L365.1229 146.06148L365.69467 145.12723L366.45569 144.95723L367.22295 145.58033L367.16805 146.73947L365.94295 154.07933L365.52202 155.29617L364.73209 155.52075L364.08357 155.13528L363.83013 154.16231L363.22701 151.96269L361.82412 150.75826L361.82416 150.75826M359.89148 163.04919L360.23875 160.9686L362.39011 160.77324L364.22373 159.99023L365.77812 158.74476L367.05972 156.87952L367.64107 156.1251L368.3154 156.00003L369.01206 156.45293L369.04066 157.58639L367.90559 164.38684L359.89146 163.04919L359.89148 163.04919M385.7416 140.33491L381.96338 162.97098L382.07229 164.09804L382.31946 164.3967L383.16705 164.7758L383.91491 165.98971L383.27896 166.71522L382.02671 166.74382L381.3717 166.63449L372.77963 165.20037L372.27874 165.11677L371.24172 164.68626L371.0011 163.87384L371.94532 162.96217L372.71919 162.83392L372.98895 162.64132L373.38412 161.69741L376.60284 142.41341L376.53564 141.39231L376.33984 141.14182L375.65279 140.74992L375.05584 139.581L375.54406 138.91004L376.6679 138.82044L377.16879 138.90404L385.74159 140.33494L385.7416 140.33491M389.41789 154.73033L392.03453 155.78092L393.62044 156.95649L394.61544 158.58788L394.76592 160.41492L394.10031 164.40273L394.40198 165.08672L394.66528 165.05152L395.03139 164.75621L396.12322 164.2652L396.72034 164.72129L396.93208 165.46949L396.10977 166.83714L394.44941 168.12432L392.58372 168.74358L390.35857 168.66918L386.63119 166.56193L385.88408 162.25912L386.42428 159.02265L386.61406 157.76723L386.29652 156.34793L384.82937 155.29118L385.17343 153.22986L386.74686 152.93804L387.39884 152.235L387.77161 150.95073L388.62372 145.84557L388.44436 143.9543L386.90662 142.72736L387.26354 140.58898L387.76442 140.67258L391.37974 141.43443L395.12316 143.56415L396.79473 149.09054L394.35665 153.25773L392.48126 154.1724L389.41792 154.73037L389.41789 154.73033M417.20092 145.58583L413.4227 168.2219L413.53161 169.34896L413.77878 169.64763L414.62637 170.02672L415.37423 171.24063L414.73829 171.96614L413.46677 171.99154L412.83102 171.88543L404.23895 170.45131L403.60322 170.3452L402.35427 169.87933L402.06228 169.01873L403.16384 168.11352L404.08861 168.03022L404.40012 167.8248L404.86916 166.79421L408.64738 144.15813L417.20092 145.58582L417.20092 145.58583M423.86653 146.6984L422.55139 154.57767L422.07275 155.42845L421.20575 155.64016L420.44809 155.19688L420.19144 154.24317L420.19444 153.03587L419.59478 149.74775L418.41033 148.18375L418.7994 145.85272L423.86603 146.6984L423.86653 146.6984M402.02031 143.05201L407.08694 143.89769L406.69786 146.22872L405.06967 147.32326L403.43461 150.23838L403.04582 151.38137L402.47408 152.19681L401.63278 152.37321L400.86228 151.88818L400.70517 150.93129L402.02031 143.05201L402.02031 143.05201M432.38473 175.14915L423.79267 173.71503L423.29178 173.63143L422.25475 173.20093L422.01413 172.38851L422.95836 171.47683L423.73222 171.34858L424.00198 171.15599L424.39715 170.21207L427.61587 150.92807L427.54867 149.90698L427.35287 149.65648L426.66583 149.26458L426.06887 148.09566L426.55709 147.42471L427.68093 147.33501L428.18182 147.41861L436.77389 148.85272L437.27478 148.93632L438.28931 149.38288L438.55243 150.17924L437.6082 151.09092L436.81186 151.23522L436.56458 151.41176L436.1694 152.35568L432.95068 171.63969L433.01788 172.66077L433.1912 172.92733L433.90073 173.30317L434.49768 174.47208L433.98698 175.1591L432.88562 175.2327L432.38473 175.1491L432.38473 175.14915M452.39761 151.46056L448.61939 174.09663L448.72829 175.22369L448.97546 175.52236L449.82305 175.90145L450.5709 177.11536L449.93497 177.84087L448.68271 177.86947L448.02771 177.76014L439.43563 176.32603L438.93475 176.24243L437.89773 175.81193L437.65709 174.99951L438.60132 174.08783L439.37518 173.95958L439.64495 173.76699L440.04012 172.82308L443.25884 153.53907L443.19164 152.51798L442.99583 152.26748L442.30878 151.87558L441.71183 150.70667L442.20005 150.03571L443.3239 149.94611L443.82478 150.02971L452.39759 151.46061L452.39761 151.46056M454.09291 151.74353L461.85659 153.03937L460.73438 159.76276L460.34565 160.66816L459.54609 160.83172L458.96178 160.53618L458.7115 159.78155L458.24957 157.92231L457.43436 156.40015L455.89668 154.9356L453.71669 153.99749L454.09291 151.74353L454.09291 151.74353M451.65565 165.75217L452.02865 163.51746L453.87835 162.63811L454.95438 161.05539L455.52615 160.12114L456.28718 159.95114L457.05444 160.57424L456.99954 161.73338L455.77443 169.07324L455.35351 170.29008L454.56356 170.51466L453.91506 170.12919L453.66162 169.15622L453.05849 166.9566L451.65561 165.75217L451.65565 165.75217M470.29774 181.47727L461.70568 180.04315L461.20479 179.95955L460.16776 179.52904L459.92714 178.71662L460.87137 177.80495L461.64523 177.6767L461.91499 177.4841L462.31016 176.54019L465.52888 157.25619L465.46168 156.23509L465.26588 155.9846L464.57884 155.5927L463.98188 154.42378L464.4701 153.75282L465.59394 153.66322L466.09483 153.74682L474.6869 155.18093L475.18779 155.26453L476.20232 155.71109L476.46544 156.50745L475.52121 157.41913L474.72487 157.56343L474.47759 157.73997L474.08241 158.68389L470.86369 177.9679L470.93089 178.98898L471.10421 179.25553L471.81374 179.63137L472.41069 180.80029L471.89999 181.48731L470.79863 181.56091L470.29774 181.47731L470.29774 181.47727M490.31062 157.78868L485.92145 184.08504L477.34864 182.65414L476.84776 182.57054L475.81074 182.14004L475.5701 181.32761L476.51433 180.41594L477.28819 180.28769L477.55796 180.0951L477.95313 179.15118L481.17185 159.86718L481.10465 158.84609L480.90884 158.59559L480.22179 158.20369L479.62484 157.03477L480.11306 156.36382L481.23691 156.27422L481.73779 156.35782L490.3106 157.78872L490.31062 157.78868M492.02518 158.07486L499.78887 159.37071L498.65058 166.19042L498.27471 167.01876L497.49763 167.16626L496.9101 166.88999L496.66304 166.1161L495.07454 162.34611L491.64897 160.32883L492.02518 158.07486L492.02518 158.07486M489.58793 172.08351L489.96092 169.84879L491.81384 168.95018L492.88666 167.38672L493.45843 166.45248L494.21945 166.28248L494.98672 166.90558L494.93182 168.06471L493.70672 175.40457L493.28579 176.62142L492.49586 176.84599L491.84734 176.46052L491.59391 175.48755L490.99078 173.28793L489.5879 172.08351L489.58793 172.08351M487.65524 184.37443L488.00251 182.29385L490.15387 182.09849L491.98749 181.31547L493.54188 180.07L494.82348 178.20476L495.40484 177.45034L496.07916 177.32527L496.77582 177.77817L496.80442 178.91163L495.66935 185.71208L487.65522 184.37443L487.65524 184.37443M513.50536 161.66015L509.1162 187.95651L500.54339 186.52561L500.0425 186.44201L499.00548 186.01151L498.76486 185.19909L499.70908 184.28741L500.48295 184.15916L500.75271 183.96657L501.14788 183.02265L504.3666 163.73865L504.2994 162.71756L504.1036 162.46706L503.41655 162.07516L502.8196 160.90624L503.30782 160.23529L504.43166 160.14559L504.93255 160.22919L513.50535 161.66009L513.50536 161.66015M513.92731 183.09634L516.46434 167.89645L516.43274 165.59422L515.9481 164.70146L514.86295 164.08472L515.21987 161.94633L516.94085 162.31276L521.33269 165.18437L523.94195 170.31282L524.02385 176.82137L521.41176 183.57332L516.46918 187.6789L513.82962 188.42641L510.83067 188.24267L511.17795 186.16209L512.35962 185.96329L513.00832 185.51713L513.55118 184.63747L513.92722 183.09632L513.92731 183.09634M261.99015 592.66323L257.58739 591.50012L245.78001 588.72698L234.97326 586.0744L220.9203 579.69998L212.37566 571.73159L214.33294 562.92779L217.22268 553.23495L215.86018 540.47402L214.79118 530.25085L215.92416 521.86239L225.39747 502.85049L232.41031 490.96139L242.32671 476.11144L250.08311 472.17425L254.89525 473.15075L262.79065 478.43554L278.80066 488.04632L295.44659 497.20074L303.76794 504.53314L307.59751 511.02572L309.32818 518.04318L308.93168 525.28372L306.37984 532.44576L304.36514 537.70754L304.12548 539.54394L305.98833 540.06555L318.22529 538.67184L327.11398 536.98327L332.18325 539.01907L333.05361 539.94549L332.0099 540.98919L323.80756 543.8323L307.01829 545.21279L296.01141 546.45992L283.91788 558.40048L283.03229 562.66262L285.30168 568.31133L287.824 577.78903L284.54438 583.6311L272.75222 590.26983L261.99015 592.66323L261.99015 592.66323M417.08704 588.23614L397.85812 584.72604L390.90279 581.14132L376.57911 574.06527L367.93156 569.84741L363.73992 565.54669L362.87798 559.28576L364.34493 549.27947L365.91148 541.87484L366.03585 539.87362L363.2438 539.21325L357.3941 538.06353L353.84382 537.22064L354.2478 536.07122L363.2504 533.23629L378.99767 528.02297L390.07017 522.17153L403.70887 513.6509L411.48354 504.32684L420.44143 490.86566L427.09261 485.11468L431.75829 484.04846L435.57943 485.96713L440.87377 498.94485L442.57485 512.77474L442.25393 533.15811L442.39327 549.44991L447.05929 563.40072L449.8142 575.42242L448.4594 580.61382L445.12954 584.30074L431.15234 588.10784L417.08704 588.23614L417.08704 588.23614M244.57926 470.39996L248.41064 461.20522L254.55965 446.41525L257.95313 438.07374L262.50076 429.78176L257.274 445.61474L244.57926 470.39996L244.57926 470.39996M435.44469 468.12875L435.32732 457.82235L434.17257 442.61282L433.01913 429.85302L435.58993 433.92724L437.92202 443.61349L437.96332 462.42523L436.4123 468.39602L435.76938 469.23712L435.44464 468.12875L435.44467 468.12875M267.41387 415.79606L267.9878 411.7936L268.17887 394.10287L266.85742 384.91306L263.85102 378.06829L258.27435 372.26379L249.24199 366.19462L232.97199 355.17175L218.96325 345.22918L213.02919 340.60868L202.34823 326.55795L199.40912 321.21549L195.71704 314.04041L190.09703 307.09545L186.61706 302.16762L186.7431 300.74812L190.15233 303.43784L197.35683 309.96813L203.93945 314.90377L208.54232 315.73155L213.28489 313.57189L216.71851 306.23819L220.138 297.09027L221.76498 292.13056L218.9333 288.50106L214.53125 284.43716L214.75885 282.30407L217.59207 280.9485L221.56036 280.31143L228.69024 283.78327L234.07267 286.07195L236.17399 286.34274L236.17399 284.914L235.54927 282.53181L237.21898 276.33434L240.58897 273.90743L241.93446 275.0081L240.58946 277.30953L238.62158 279.7973L238.38606 282.33335L238.91365 285.2212L240.5866 287.93434L254.44499 295.6232L262.5905 296.64372L267.84841 295.89631L272.12369 292.92035L275.01043 290.71791L279.76026 296.75714L285.85341 305.40138L290.04411 312.00553L294.3927 318.56848L300.00678 322.77111L308.01178 324.13293L326.43039 320.71176L337.08251 316.03865L355.4485 303.75257L373.30722 289.75953L377.39609 283.19903L379.0136 271.49759L381.26833 263.50092L387.02462 268.00181L391.26119 274.34396L396.54061 281.44048L401.63904 285.06841L405.78963 284.71063L404.13024 274.01136L402.02037 268.23593L401.75228 266.55919L402.92797 267.3964L411.70006 277.70283L422.85498 289.86826L429.54096 292.6575L437.72498 293.72459L460.11392 290.72752L481.62738 285.9149L483.92874 284.88593L481.76676 282.71293L480.92838 280.21135L480.11389 276.86205L480.17449 275.16099L481.31329 274.30766L489.46331 267.44341L491.4612 265.44256L494.04687 264.95719L503.68633 260.96076L515.14645 256.09648L531.08019 250.25888L545.26992 243.60105L547.56802 240.27395L551.36889 237.11522L555.32119 236.77876L559.17587 240.11157L556.26366 241.88741L554.77306 240.88677L551.31014 240.19247L550.56689 242.37002L547.82595 245.41134L519.24425 259.53914L513.73635 261.31188L499.44451 267.308L487.39022 274.87722L486.24871 276.73179L487.07153 279.82241L488.35339 285.61015L490.27306 288.67063L497.53728 290.38015L503.34097 291.72631L503.44582 293.32343L500.38378 296.99755L497.21679 299.07456L496.49789 302.12377L496.44069 306.45077L497.21974 315.67184L497.33748 323.61512L498.53819 324.57542L500.04811 325.5377L502.15547 323.88214L504.71217 322.91096L505.71141 324.55697L506.99525 326.04885L509.87971 325.49824L513.54759 323.72474L517.7502 321.33232L523.03963 318.04496L525.52717 316.28355L525.77739 317.28041L522.47951 322.52018L519.3607 326.69706L509.96745 337.94743L504.0497 342.71224L495.13606 346.31283L460.69758 359.54839L440.9022 370.77955L424.6776 389.27758L423.90855 396.18385L421.73192 405.85938L420.81024 406.93089L419.51037 406.0053L411.29002 395.57472L403.60528 384.8123L396.96948 379.75442L387.46879 377.1811L382.48196 378.98016L377.60528 384.91975L370.49821 393.56278L365.91638 394.26885L360.65602 391.87824L355.9321 388.67913L352.08327 387.18006L333.63516 390.38566L313.01065 395.15006L301.2149 396.57043L288.11221 398.14683L279.95783 400.79601L274.2185 405.9387L268.36103 414.99558L267.41414 415.79606L267.41385 415.79606M302.17819 316.3965L297.31724 310.94614L298.72282 308.29574L305.43684 307.05194L314.03473 308.0911L311.8625 313.77108L305.43355 317.53468L302.17819 316.3965L302.17819 316.3965M516.24898 315.25749L515.54851 313.19887L514.66527 310.76917L510.94563 309.93508L508.14387 309.7298L508.21777 307.92867L508.77547 302.38072L509.25933 298.63388L511.06265 297.57771L513.86266 295.69382L514.8594 294.86608L513.72997 293.97773L512.42361 287.54236L511.32464 281.57529L510.27395 280.03287L508.10476 279.0429L505.40304 278.514L504.74175 277.54311L511.36474 273.57361L520.55166 269.20865L531.55859 264.30256L544.93981 258.60594L553.14492 256.02452L557.67486 254.62155L560.37655 251.87136L561.70437 250.52012L563.97884 255.47004L561.77749 256.29641L559.57604 257.07826L557.47475 260.07216L547.36846 266.24409L538.68346 270.96389L537.97369 278.55433L539.45904 281.39548L540.43374 282.67967L539.48397 283.62939L535.74691 286.11668L530.15768 289.56119L524.55413 292.47844L521.01901 294.38975L521.77798 299.92368L523.06689 305.75261L522.53585 310.36092L519.66488 313.88695L516.24899 315.25749L516.24899 315.25749M189.34472 292.59555L188.75707 288.09274L188.15785 279.11065L188.14625 270.90553L189.34469 270.10504L190.54429 269.01141L186.09037 261.98607L184.99577 259.1421L186.54294 254.6463L188.14394 250.07661L186.47427 246.22101L179.83875 239.45895L173.33469 232.08823L172.69815 230.25013L170.21087 227.1283L168.37789 222.50439L169.13531 218.87303L169.87498 217.27203L170.16416 219.87365L170.84623 223.70908L185.63071 242.19049L189.80312 247.59387L188.6759 253.6639L187.80075 257.46188L190.37455 263.18399L200.84852 276.80667L206.2642 282.29713L205.5556 285.75109L205.21146 287.79048L205.12626 292.98951L201.2811 293.51968L198.16096 293.51968L197.57565 294.92056L196.99032 296.32142L193.16752 296.32142L189.34472 296.32142L189.34472 292.59555L189.34472 292.59555M333.63488 294.32732L329.80724 291.8832L325.31289 286.37895L320.76702 280.11129L319.90759 274.47833L322.2877 269.33146L328.06133 266.34026L336.50944 270.142L344.48739 278.87645L345.31992 283.66469L344.02421 288.67472L339.53286 293.65334L333.63488 294.32732L333.63488 294.32732M290.11721 290.33235L287.09161 281.40541L288.4502 270.12238L292.90331 265.50216L296.28559 267.53941L298.32284 269.57664L298.09246 272.44248L295.81786 279.91116L293.18218 287.28595L291.41347 291.11817L290.11721 290.33235L290.11721 290.33235M273.05738 280.58431L271.87472 273.66124L271.99637 271.30577L272.92593 274.10754L274.1419 279.79235L273.05738 280.58431L273.05738 280.58431M199.61313 269.17298L200.1048 267.50341L201.49062 268.38965L201.23711 269.58429L199.61313 269.17298L199.61313 269.17298M241.25592 268.29441L235.15152 260.61526L233.10276 259.10429L229.76997 256.68968L233.3525 255.09566L235.67707 255.09566L237.0209 258.35052L239.28556 262.20871L243.3785 268.67393L241.25592 268.29441L241.25592 268.29441M272.1965 267.94774L272.9714 263.82547L274.19964 256.47685L275.27111 251.29427L277.96368 247.98554L280.76051 243.83915L281.74473 241.11298L282.26913 243.14164L279.60111 249.49216L276.20483 258.86386L274.103 265.956L272.1965 267.94774L272.1965 267.94774M193.68481 263.39675L191.92385 260.19442L191.22617 257.9811L192.58688 256.59631L196.576 255.52222L198.76369 258.25641L196.82944 259.1762L195.14834 259.29829L194.94822 261.84205L194.7481 264.38578L193.68481 263.39675L193.68481 263.39675M212.15901 255.65641L199.9617 245.35259L175.73625 223.16165L178.46272 221.33642L200.52129 239.84267L221.2794 259.05468L219.15963 259.79599L217.16213 259.89349L212.15901 255.65645L212.15901 255.65645M397.02325 257.59728L393.45821 246.83269L393.1869 239.98835L394.49537 243.31884L396.97199 250.89308L399.27023 259.10745L397.02325 257.59728L397.02325 257.59728M223.96639 251.71858L204.75438 236.14134L184.88627 220.4278L182.85011 217.58541L181.90838 214.79996L178.2985 212.92682L174.69625 211.26948L176.73687 210.68542L185.04398 212.55311L186.70059 215.80299L187.0583 218.29701L203.31097 231.97235L226.96827 252.12834L223.96639 251.71858L223.96639 251.71858M380.70544 227.86299L377.67968 225.07695L365.33599 229.14004L358.61408 229.68165L354.70579 227.53403L348.84386 219.52889L351.83587 214.87733L355.26601 210.89966L352.15522 207.0456L349.0373 204.6399L345.84544 203.43294L343.09547 202.85104L347.89823 201.96787L352.90134 203.56678L359.1544 206.24681L363.71003 204.85734L375.28252 197.62935L380.61918 200.10505L382.40369 204.55361L381.61338 216.87639L380.5612 222.3208L381.82351 223.79893L384.30483 228.36264L383.52273 230.66474L380.70544 227.86299L380.70544 227.86299M286.22169 223.71926L285.46136 209.83745L287.11845 196.25894L289.59303 193.56119L293.50892 192.66328L297.74377 194.04638L301.57363 197.84875L303.46914 200.26144L307.06171 200.26144L317.42478 201.91652L311.8213 202.1485L304.41665 202.35139L300.8144 205.56582L296.11147 210.67846L293.81004 214.57411L289.86742 221.44606L286.64003 224.81955L286.22169 223.71926L286.22169 223.71926M180.59997 211.55396L178.90987 213.24406M170.4837 221.67023L168.73892 223.41501M173.744 232.55206L176.06423 230.23183M179.59745 226.69862L181.99563 224.30043M185.43459 220.86147L187.56918 218.72688M195.2492 225.189L193.33129 227.10691M189.68592 230.75228L186.97845 233.45975M182.34947 238.08873L180.40363 240.03458M187.04394 247.53639L188.57585 246.00448M194.35946 240.22088L197.37621 237.20412M201.22799 233.35235L202.92921 231.65113M210.56754 238.15493L209.07662 239.64585M204.86218 243.86029L201.80917 246.9133M188.8742 259.84827L186.34105 262.38142M188.15168 274.71292L194.41959 268.44502M209.47527 253.38933L212.20677 250.65784M216.88648 245.97813L218.20368 244.66092M225.83983 251.16691L225.12941 251.87733M219.55135 257.45539L217.13567 259.87108M200.56668 276.44006L188.7752 288.23153M187.59559 303.55329L188.78766 302.36121M194.82742 296.32146L205.59642 285.55246M232.48914 258.65974L235.787 255.36188M286.0382 205.11068L297.26037 193.88851M305.02956 200.26144L285.98023 219.31078M240.75739 264.53362L239.36957 265.92144M223.85984 281.43117L217.81881 287.4722M196.28992 309.00109L193.7193 311.57171M199.00432 320.42882L204.43942 314.99372M218.8219 300.61125L233.57344 285.85971M235.83019 283.60295L238.51776 280.91538M277.05372 256.52156L273.61795 259.95733M243.83735 289.73793L204.36469 329.21059M210.4723 337.24512L252.93304 294.78437M272.19302 275.52439L273.04646 274.67096M344.55709 203.16033L345.26539 202.45202M356.67529 205.18427L353.34272 208.51683M295.05896 266.8006L288.00027 273.85928M265.6508 296.20874L217.65163 344.20792M225.87028 350.13141L279.53321 296.46848M288.99131 287.01037L295.66629 280.3354M352.06879 223.9329L377.39318 198.6085M382.18533 207.9585L360.62412 229.5197M285.39407 304.74974L234.16428 355.97956M242.59478 361.69118L290.93535 313.35061M322.19955 282.08641L334.87806 269.4079M378.47588 225.81008L381.20789 223.07807M342.13122 276.29687L328.34083 290.08727M310.73568 307.69241L302.10908 316.31901M297.51916 320.90894L251.03121 367.39688M259.27005 373.30019L308.53431 324.03592M338.83736 293.73286L344.06915 288.50107M396.68795 250.02441L395.05579 251.65657M382.35879 264.35358L380.50535 266.20701M325.90252 320.80985L265.31377 381.39859M267.99945 392.85506L363.08672 297.76777M376.96712 283.88738L389.35863 271.49585M405.07623 269.92042L403.28875 271.70789M395.26746 279.72916L268.04006 406.95658M291.38574 397.75302L404.29966 284.8391M405.60683 283.53194L411.57861 277.56015M418.33837 284.94252L307.46276 395.81813M256.86227 446.41864L252.9187 450.36222M325.05535 392.36769L426.17126 291.25177M437.85839 293.70678L342.76609 388.79909M257.00333 474.56186L222.10298 509.46219M214.85417 530.85315L265.5908 480.11652M356.58561 389.12171L454.18624 291.52107M495.4909 264.35857L480.67599 279.17346M471.71767 288.13178L365.68549 394.16394M274.42799 485.42145L216.1993 543.65015M215.72157 558.27002L283.41022 490.58136M394.81948 379.17211L488.36419 285.62741M511.91589 262.07569L519.48431 254.50726M549.29461 238.8391L546.91653 241.21719M543.88091 244.2528L537.73385 250.39986M517.45251 270.68119L508.78179 279.35192M497.71282 290.42091L403.44419 384.68952M292.53447 495.59925L214.45913 573.67459M222.05923 580.21665L300.56498 501.71088M409.37838 392.89746L496.44897 305.82687M512.81341 289.46244L542.72845 259.54742M563.02462 253.39336L554.57473 261.84325M537.98507 278.43291L523.21603 293.20195M521.14074 295.27724L508.2062 308.2118M497.27129 319.1467L451.84942 364.56856M424.36904 392.04895L415.5006 400.91739M306.77933 509.6386L231.78827 584.62969M242.61097 587.94912L309.14344 521.41665M477.45007 353.11001L505.84634 324.71374M516.00875 314.55134L522.84023 307.71985M522.98476 321.71745L500.59408 344.10813M304.93235 539.76986L298.52738 546.17486M283.29264 561.4096L254.03616 590.66607M267.37974 591.46462L286.40128 572.44308M314.22407 544.62029L320.62917 538.21517M436.26315 436.72337L433.85763 439.12887M333.04751 539.93899L331.99061 540.9959M434.90243 452.22619L437.93429 449.19436M437.65374 463.61703L435.41875 465.85201M370.40215 530.86862L362.25237 539.0184M364.0377 551.37521L398.52082 516.89208M412.27422 503.1387L431.24776 484.16512M437.89989 491.65515L363.87241 565.68264M371.90951 571.78765L441.29858 502.39858M442.53503 515.30428L381.39497 576.44436M390.86085 581.1206L442.3088 529.67266M442.3448 543.7788L400.85119 585.27239M412.81028 587.45544L444.50428 555.76147M447.79533 566.61254L426.25535 588.15252M443.91972 584.63027L448.64421 579.90582M238.82226 156.47281L500.34481 200.12393L515.374879531 200.505131875L528.28447125 196.8510825L537.740629844 189.799799375L542.4104 179.9893L541.179974219 169.193989688L534.52650375 159.4538225L523.503471406 151.805139063L509.16436 147.28428L247.64181 103.63316L232.61173625 103.251959531L219.702145 106.90601125L210.24598875 113.957294844L205.57622 123.76779L206.806641562 134.563104531L213.4601125 144.30327125L224.483147187 151.951952344L238.82226 156.47281L238.82226 156.47281M189.05043 611.13379L196.92152 611.13379L202.35121 634.08301L202.70277 635.15722L203.48402 635.76269L204.18714 636.19238L204.38246 636.77832L202.85902 637.79394L193.11293 637.79394L192.17543 637.52051L191.82386 636.75879L191.98011 636.17285L192.68324 635.68457L193.23011 635.25488L193.38636 634.66894L193.32776 634.08301L192.70276 631.25097L187.25354 631.25097L187.78088 628.92676L192.15588 628.92676L188.56214 613.04785L189.05043 611.13379L189.05043 611.13379M187.70277 616.09472L188.69886 620.13769L185.24183 632.75488L185.08558 633.77051L186.23793 635.52832L186.92152 635.84082L187.56605 636.81738L186.14027 637.79394L181.17933 637.79394L180.02699 637.50097L179.61683 636.66113L180.47621 635.72363L181.64808 635.09863L182.39027 634.31738L183.28871 632.18847L187.70277 616.09472L187.70277 616.09472M217.03871 611.13379L227.42933 629.18066L227.42933 637.79394L222.0973 637.79394L208.83558 614.94238L208.13246 613.90722L207.42933 613.47754L206.68714 613.2041L206.21839 612.85254L206.04261 612.28613L206.21839 611.68066L206.68714 611.27051L208.48402 611.13379L217.03871 611.13379L217.03871 611.13379M208.85511 617.98926L210.92543 621.42676L210.92543 631.89551L211.37464 634.1416L212.83949 635.58691L213.42543 635.91894L213.93324 636.79785L213.56214 637.54004L212.27308 637.79394L207.76136 637.79394L205.98402 636.77832L206.1598 636.23144L206.98011 635.66504L208.85511 631.89551L208.85511 617.98926L208.85511 617.98926M227.42933 626.05566L225.35902 622.55957L225.35902 617.14941L224.87074 614.64941L223.19105 613.14551L222.62464 612.73535L222.46839 612.14941L222.80043 611.38769L223.91371 611.13379L228.79652 611.13379L230.10511 611.44629L230.43714 612.18847L230.24183 612.81347L229.36293 613.36035L227.80043 614.98144L227.42933 617.14941L227.42933 626.05566L227.42933 626.05566M247.21449 625.56738L247.21449 634.08301L247.50746 635.17676L247.80043 635.43066L248.69886 635.66504L249.63636 636.73926L249.10902 637.59863L247.89808 637.79394L247.23402 637.79394L238.52308 637.79394L237.87855 637.79394L236.64808 637.55957L236.14027 636.73926L237.07777 635.66504L237.97621 635.43066L238.24964 635.17676L238.54261 634.08301L238.54261 627.48144L233.01527 614.29785L232.13636 613.22363L231.45277 612.69629L231.31605 612.14941L232.80043 611.13379L242.37074 611.13379L243.42543 611.30957L243.91371 612.12988L243.3473 613.10644L242.78089 613.45801L242.44886 614.10254L242.66371 615.05957L247.21449 625.56738L247.21449 625.56738M247.97621 623.71191L246.88246 621.15332L248.93324 616.56347L249.18714 614.96191L247.93714 613.34082L247.03871 612.87207L246.84339 612.22754L247.19496 611.42676L247.7223 611.19238L248.73793 611.13378L253.56214 611.13378L254.92933 612.22753L254.73402 612.833L254.03089 613.28221L252.66371 614.14159L251.68714 615.56737L251.23793 616.56346L247.97621 623.7119L247.97621 623.71191M285.41761 635.56738L287.33168 636.29004L288.56214 636.03613L289.24574 635.82129L289.67543 636.09472L289.89027 636.66113L288.95277 637.96972L285.49574 639.16113L281.76527 637.71582L278.67933 638.34082L278.67933 636.17285L279.30433 635.97754L279.77308 635.60644L279.61683 635.45019L278.75746 634.57129L277.95668 634.23926L277.17543 634.06347L276.90199 633.80957L276.70668 633.24316L277.17543 632.38379L278.44496 632.07129L279.53871 632.18847L280.51527 632.59863L280.51527 615.45019L280.16371 613.80957L279.5973 613.16504L278.67933 612.71582L278.67933 610.60644L282.52699 611.46582L285.78871 613.69238L289.77308 624.51269L285.41761 635.56738L285.41761 635.56738M277.07777 612.71582L275.67152 613.67285L275.26136 615.45019L275.26136 632.91113L275.73011 635.33301L277.07777 636.17285L277.07777 638.32129L269.81214 635.05957L266.00355 624.49316L266.99964 618.36035L269.98793 613.69238L273.23011 611.46582L277.07777 610.60644L277.07777 612.71582L277.07777 612.71582M293.9723 630.00097L293.9723 614.68847L293.73793 613.69238L293.50355 613.47754L292.76136 613.2041L291.98011 612.16894L292.35121 611.40722L293.44496 611.13379L293.95277 611.13379L302.66371 611.13379L303.17152 611.13379L303.87464 611.21189L304.42152 611.56345L304.63636 612.16892L303.85511 613.20408L303.09339 613.47752L302.87855 613.69236L302.64418 614.68845L302.64418 631.07517L302.72228 633.39939L303.09337 634.57127L303.65978 635.27439L304.85119 635.76267L304.85119 638.32127L304.4215 638.32127L300.20275 637.87205L296.74572 636.30955L294.63634 633.98533L293.97228 630.00095L293.9723 630.00097M306.64808 638.32129L306.64808 635.76269L309.9098 634.16113L311.39418 629.72754L311.39418 616.99316L309.34339 613.26269L308.54261 612.73535L308.36683 612.07129L308.73793 611.34863L309.94886 611.13379L314.73402 611.13379L315.5348 611.17289L315.94496 611.30961L316.45277 612.11039L316.14027 612.83305L315.30043 613.36039L313.95277 614.8057L313.46449 616.9932L313.46449 629.74711L312.01918 635.13773L308.99183 637.63773L306.64808 638.32133L306.64808 638.32129M330.00746 611.13379L330.00746 637.79394L321.31605 637.79394L320.80824 637.79394L319.71449 637.54004L319.34339 636.77832L320.12464 635.72363L320.86683 635.46972L321.10121 635.23535L321.33558 634.23926L321.33558 614.68847L321.10121 613.69238L320.86683 613.47754L320.12464 613.2041L319.34339 612.14941L319.71449 611.40722L320.80824 611.13379L321.31605 611.13379L330.00746 611.13379L330.00746 611.13379M331.74574 611.13379L339.61683 611.13379L339.61683 618.04785L339.38246 618.92676L338.64027 619.20019L338.01527 619.02441L337.64418 618.30176L335.45668 614.84472L331.74574 613.41894L331.74574 611.13379L331.74574 611.13379M331.64804 625.35254L331.64804 623.08691L333.32773 621.89551L334.12851 620.17676L334.53867 619.16113L335.26132 618.86816L336.1207 619.35644L336.25742 620.50879L336.25742 627.95019L336.04257 629.21972L335.30039 629.57129L334.59726 629.29785L334.1871 628.37988L333.23007 626.30957L331.64804 625.35254L331.64804 625.35254M331.76523 637.79394L331.76523 635.68457L333.85507 635.13769L335.53476 634.06347L336.86289 632.5791L337.81992 630.52832L338.26914 629.68847L338.91367 629.4541L339.67539 629.78613L339.89023 630.89941L339.89023 637.79394L331.76523 637.79394L331.76523 637.79394M351.86293 610.60644L351.86293 612.85254L350.00746 613.88769L349.38246 615.58691L349.9098 617.30566L351.62855 618.69238L355.33949 620.41113L358.05433 621.79785L359.89027 623.32129L362.19496 629.08301L360.94496 633.69238L357.50746 636.97363L354.92933 637.95019L352.33168 638.32129L352.33168 636.09472L354.77308 634.96191L355.5348 632.96972L354.36293 630.66504L351.39418 629.06347L348.09339 627.55957L346.39418 626.50488L342.7223 619.53222L343.64027 615.43066L346.19886 612.38379L351.86293 610.60644L351.86293 610.60644M353.40589 612.85254L353.40589 610.7041L355.43714 611.0166L357.87855 611.89551L358.52308 612.05176L359.06996 611.79785L359.49964 611.23144L360.26136 610.80176L361.02308 611.19238L361.27699 612.38379L361.27699 618.8291L360.94496 619.7666L360.12464 620.11816L359.40199 619.86426L359.10902 619.49316L358.91371 618.73144L358.17152 616.75879L356.94105 614.94238L353.40589 612.85254L353.40589 612.85254M350.8473 636.09472L350.8473 638.32129L347.31214 637.40332L346.31605 636.97363L345.78871 636.87593L345.20277 637.01265L344.57777 637.63765L343.81605 638.06734L342.7223 636.38765L342.7223 629.27828L343.0348 628.36031L343.81605 627.95015L344.48011 628.20406L344.9098 629.12203L346.19886 632.26656L348.19105 634.74703L350.8473 636.09468L350.8473 636.09472M379.87074 611.13379L379.87074 634.08301L380.16371 635.17676L380.45668 635.43066L381.35511 635.66504L382.29261 636.73926L381.7848 637.55957L380.5348 637.79394L379.89027 637.79394L371.17933 637.79394L370.5348 637.79394L369.22621 637.54004L368.79652 636.73926L369.73402 635.66504L370.63246 635.43066L370.90589 635.17676L371.19886 634.08301L371.19886 611.13379L379.87074 611.13379L379.87074 611.13379M386.62855 611.13379L386.62855 619.12207L386.29652 620.04004L385.47621 620.3916L384.65589 620.0791L384.24574 619.18066L384.05043 617.98926L382.91761 614.84472L381.49183 613.49707L381.49183 611.13379L386.62855 611.13379L386.62855 611.13379M364.48011 611.13379L369.61683 611.13379L369.61683 613.49707L368.19105 614.84472L367.05824 617.98926L366.86293 619.18066L366.43324 620.0791L365.63246 620.3916L364.79261 620.04004L364.48011 619.12207L364.48011 611.13379L364.48011 611.13379M399.71449 637.79394L391.00355 637.79394L390.49574 637.79394L389.40199 637.54004L389.03089 636.77832L389.81214 635.72363L390.55433 635.46972L390.78871 635.23535L391.02308 634.23926L391.02308 614.68847L390.78871 613.69238L390.55433 613.47754L389.81214 613.2041L389.03089 612.14941L389.40199 611.40722L390.49574 611.13379L391.00355 611.13379L399.71449 611.13379L400.2223 611.13379L401.29652 611.40722L401.68714 612.14941L400.90589 613.2041L400.14418 613.47754L399.92933 613.69238L399.69496 614.68847L399.69496 634.23926L399.92933 635.23535L400.14418 635.46972L400.90589 635.72363L401.68714 636.77832L401.29652 637.54004L400.2223 637.79394L399.71449 637.79394L399.71449 637.79394M415.16371 612.71582L413.75746 613.67285L413.3473 615.45019L413.3473 632.91113L413.81605 635.33301L415.16371 636.17285L415.16371 638.32129L407.89808 635.05957L404.08949 624.49316L405.08558 618.36035L408.07386 613.69238L411.31605 611.46582L415.16371 610.60644L415.16371 612.71582L415.16371 612.71582M416.76527 612.71582L416.76527 610.60644L420.61293 611.46582L423.87464 613.69238L427.85902 624.49316L424.05043 635.05957L416.76527 638.32129L416.76527 636.17285L417.54652 635.87988L418.07386 635.33301L418.60121 632.91113L418.60121 615.45019L418.24964 613.80957L417.68324 613.16504L416.76527 612.71582L416.76527 612.71582M441.25746 611.13379L451.64808 629.18066L451.64808 637.79394L446.31605 637.79394L433.05433 614.94238L432.35121 613.90722L431.64808 613.47754L430.90589 613.2041L430.43714 612.85254L430.26136 612.28613L430.43714 611.68066L430.90589 611.27051L432.70277 611.13379L441.25746 611.13379L441.25746 611.13379M433.07386 617.98926L435.14418 621.42676L435.14418 631.89551L435.59339 634.1416L437.05824 635.58691L437.64418 635.91894L438.15199 636.79785L437.78089 637.54004L436.49183 637.79394L431.98011 637.79394L430.20277 636.77832L430.37855 636.23144L431.19886 635.66504L433.07386 631.89551L433.07386 617.98926L433.07386 617.98926M451.64808 626.05566L449.57777 622.55957L449.57777 617.14941L449.08949 614.64941L447.4098 613.14551L446.84339 612.73535L446.68714 612.14941L447.01918 611.38769L448.13246 611.13379L453.01527 611.13379L454.32386 611.44629L454.65589 612.18847L454.46058 612.81347L453.58168 613.36035L452.01918 614.98144L451.64808 617.14941L451.64808 626.05566L451.64808 626.05566M466.00355 610.60644L466.00355 612.85254L464.14808 613.88769L463.52308 615.58691L464.05043 617.30566L465.76918 618.69238L469.48011 620.41113L472.19496 621.79785L474.03089 623.32129L476.33558 629.08301L475.08558 633.69238L471.64808 636.97363L469.06996 637.95019L466.4723 638.32129L466.4723 636.09472L468.91371 634.96191L469.67543 632.96972L468.50355 630.66504L465.5348 629.06347L462.23402 627.55957L460.5348 626.50488L456.86293 619.53222L457.78089 615.43066L460.33949 612.38379L466.00355 610.60644L466.00355 610.60644M467.54652 612.85254L467.54652 610.7041L469.57777 611.0166L472.01918 611.89551L472.66371 612.05176L473.21058 611.79785L473.64027 611.23144L474.40199 610.80176L475.16371 611.19238L475.41761 612.38379L475.41761 618.8291L475.08558 619.7666L474.26527 620.11816L473.54261 619.86426L473.24964 619.49316L473.05433 618.73144L472.31214 616.75879L471.08168 614.94238L467.54652 612.85254L467.54652 612.85254M464.98793 636.09472L464.98793 638.32129L461.45277 637.40332L460.45668 636.97363L459.92933 636.87593L459.34339 637.01265L458.71839 637.63765L457.95668 638.06734L456.86293 636.38765L456.86293 629.27828L457.17543 628.36031L457.95668 627.95015L458.62074 628.20406L459.05043 629.12203L460.33949 632.26656L462.33168 634.74703L464.98793 636.09468L464.98793 636.09472M487.89808 610.60644L487.89808 612.75488L487.15589 612.98926L486.96058 613.49707L487.05828 614.10254L487.23406 614.55176L487.39031 615.48926L486.41375 617.71582L484.0114 618.61426L481.5114 617.63769L480.49578 615.27441L482.60515 611.89551L484.83172 610.95801L487.42937 610.60644L487.89812 610.60644L487.89808 610.60644M489.55824 612.87207L489.55824 610.68457L492.7223 611.70019L495.67152 614.61035L496.74574 618.49707L496.19886 621.38769L494.69496 623.90722L491.96058 625.93847L488.32777 626.9541L487.15589 627.30566L486.92152 628.26269L486.68714 629.18066L485.96449 629.4541L484.94886 628.30176L484.94886 621.44629L484.98796 620.89941L485.18327 620.7041L486.15983 620.56738L489.28483 619.37597L490.74967 615.80176L490.45671 614.08301L489.55827 612.87207L489.55824 612.87207M486.41371 630.72363L489.08949 631.83691L490.20277 634.51269L489.08949 637.20801L486.41371 638.32129L483.71839 637.20801L482.60511 634.51269L483.71839 631.83691L486.41371 630.72363L486.41371 630.72363M230.80853 161.05209L492.33108 204.70321L509.217058906 206.135412344L526.38878875 203.85142375L540.554929219 195.814850781L548.42414 179.9893L546.366102188 163.83507L535.979335 152.209895L520.855207813 144.5809375L504.58509 140.41536L243.06254 96.764245L227.495831875 97.4563109375L213.405645 103.47154875L202.768893125 112.884018438L197.56249 123.76778L198.792911563 135.27861L205.4463825 146.59291L216.469417188 155.8157225L230.80853 161.05209L230.80853 161.05209"
       style="fill:none;fill-opacity:1;stroke:#000000;stroke-width:0.8569839;stroke-miterlimit:4;stroke-dasharray:none;stroke-opacity:1" />
  </g>
</svg>
