<?xml version="1.0" encoding="UTF-8" standalone="no"?>
<!-- Created with Inkscape (http://www.inkscape.org/) -->

<svg
   xmlns:dc="http://purl.org/dc/elements/1.1/"
   xmlns:cc="http://creativecommons.org/ns#"
   xmlns:rdf="http://www.w3.org/1999/02/22-rdf-syntax-ns#"
   xmlns:svg="http://www.w3.org/2000/svg"
   xmlns="http://www.w3.org/2000/svg"
   xmlns:sodipodi="http://sodipodi.sourceforge.net/DTD/sodipodi-0.dtd"
   xmlns:inkscape="http://www.inkscape.org/namespaces/inkscape"
   id="svg4187"
   version="1.1"
   inkscape:version="0.91 r13725"
   width="600"
   height="600"
   viewBox="0 0 600 600"
   sodipodi:docname="3.svg">
  <sodipodi:namedview
     pagecolor="#ffffff"
     bordercolor="#666666"
     borderopacity="1"
     objecttolerance="10"
     gridtolerance="10"
     guidetolerance="10"
     inkscape:pageopacity="0"
     inkscape:pageshadow="2"
     inkscape:window-width="1276"
     inkscape:window-height="796"
     id="namedview4189"
     showgrid="false"
     inkscape:zoom="0.83972969"
     inkscape:cx="300"
     inkscape:cy="300"
     inkscape:window-x="48"
     inkscape:window-y="23"
     inkscape:window-maximized="0"
     inkscape:current-layer="svg4187" />
  <metadata
     id="metadata4193">
    <rdf:RDF>
      <cc:Work
         rdf:about="">
        <dc:format>image/svg+xml</dc:format>
        <dc:type
           rdf:resource="http://purl.org/dc/dcmitype/StillImage" />
        <dc:title></dc:title>
      </cc:Work>
    </rdf:RDF>
  </metadata>
  <defs
     id="defs4191" />
  <path
     inkscape:connector-curvature="0"
     id="path4737"
     d="M440.43547 484.05007L422.24192375 480.22462875L415.816073359 478.098663203L410.8352175 475.6214525L407.047640703 472.636185234L404.2016275 468.98605L402.045462422 464.514235391L400.32743 459.06393L398.08502 450.57548L395.01568 451.18935L375.72805 458.78508L362.617666563 464.150127344L352.9388275 467.21204375L344.581454688 468.477040781L335.43547 468.45133L312.441021406 465.382832188L279.34439625 458.0333925L236.868430469 446.582829063L185.73596 431.21096L124.40095525 410.88631375L101.397515188 402.538066719L89.932173 397.65117L86.7082944063 395.048933594L85.41898925 392.46775625L86.0458084687 389.760348281L88.570303 386.77942L91.16398925 383.50727375L92.094543 378.97836L92.055813 375.01135125L91.174923 372.95412L78.900683 368.70042L68.1057551875 365.186997656L60.7599105 361.69729875L56.0358595625 357.719490469L53.106313 352.74174L51.2443340938 346.078782656L50.92119675 339.53694375L52.0867100313 333.845130469L54.690683 329.73225L62.903233 315.47818L67.3569928438 306.971688438L71.91683175 301.905115L79.6029312813 298.087336563L93.435473 293.32723L139.105752875 279.580755L203.53085 262.83599L251.12623 251.01491L260.03085 245.02892L276.084417656 234.970921094L292.58646375 225.98620125L308.704552969 218.495205781L323.60625 212.91838L330.831695938 210.975186875L339.40687 209.488155L365.68547 207.1913L374.200675 206.35761125L375.933359375 205.806718906L376.43547 205.07744L373.47592 191.9469L368.582184688 174.779447344L366.159866055 168.773589785L363.45165 164.05417875L360.230838945 160.297114746L356.270735313 157.178298281L345.22586 151.55901L335.98163 147.57361L329.5121 148.95315L323.92053125 150.59976375L322.850039844 151.709305781L322.23851 153.43566L321.244582812 155.51628168L319.40790875 157.169782812L312.932675 159.236065L302.26551875 159.715789688L286.85915 158.69024L271.6276875 156.39044875L266.7116825 154.493952031L261.68707 151.55907L251.23769 146.0752L247.2037725 144.0890675L243.40447 141.34635L239.6463125 138.75513875L235.66125 137.40748L231.578452656 136.015444375L230.671186465 134.894190625L230.52666125 133.4440975L232.545791719 129.421346875L237.67576 123.6751L244.658658906 117.245582188L250.08437875 114.258855L255.558314219 114.277797813L262.68586 116.86529L268.300249531 118.842573125L273.48620625 119.5797725L278.526409844 119.083548125L283.70354 117.36056L287.49025375 114.5325475L291.34611 107.3271L294.6822275 101.08325875L297.2623 97.848065L299.897403281 96.9548689063L302.72772875 96.83122625L305.368632344 97.4428329688L307.43547 98.755385L308.771657031 100.625782266L309.32783375 103.273144375L308.2699 113.99988L307.69124 122.3445L336.11342 128.24649L365.623976094 134.344058438L383.79663875 139.7091225L389.707214434 142.54711793L394.074462031 145.718170313L397.328763301 149.394340664L399.9005 153.74769L409.93961 181.25539L418.05698 204.64852L418.320766406 204.782771563L418.97918125 203.038545L424.242 185.25539L429.83611125 165.16543125L431.41005 151.14199L434.24628 130.71258125L439.33938 111.53967L444.12563875 99.566514375L446.135686406 97.1145564844L448.42742 96.106995L451.142601094 95.1202038281L453.29987875 93.055670625L457.4676 83.57709L460.194803594 77.1424278125L463.33585625 73.65972625L467.611068281 72.6972425625L473.74075 73.823234L476.484687812 74.8328669844L477.878785 76.299808625L478.165934687 78.7967269531L477.58903 82.89629L476.94072 88.58887L484.60228 86.95461L492.526651875 84.97363875L498.32459 84.39228L504.748178125 85.27938375L514.5495 87.7038L532.161764375 92.38852875L543.366205 96.02221125L552.461240625 100.274758125L563.74529 106.81608L582.77712 118.32346L583.691756406 119.10946L583.74847625 119.979715L580.64746 123.5434L576.310535 126.93250375L571.30581 129.25816L565.955652969 131.285091094L562.02698875 133.53593375L559.134177656 136.293849531L556.89158 139.842L554.43289875 143.6448625L552.0016 145.32815L530.25984 143.84304L514.361750313 142.198654688L505.5346325 142.0242825L499.916685938 143.729069063L493.64611 147.72216L479.70316875 158.2984575L475.174410156 162.853002188L472.41836 166.78893L467.81472 180.23019L463.48608 191.94121L461.67342625 193.39832125L458.84594 191.44732L454.00501 184.9929325L449.4054 175.25539L448.3074625 173.03207L447.26303 174.09909L442.97564 177.30305L441.080301094 178.275293281L439.91150875 179.92493375L437.93847 189.73673L436.79919 201.45244L447.89624 202.67507L456.38038 203.47958875L459.64323 204.87813L461.149800625 205.738856875L464.7565625 206.382755L482.43547 207.49897L497.637185313 208.472406094L508.530145 210.22329875L518.455874687 213.569814531L530.7559 219.33012L548.045595313 229.227725469L554.946384414 234.389107207L560.821155 239.83465375L565.772422461 245.671199199L569.902702188 252.005577656L573.31450957 258.944623223L576.11036 266.59517L577.802285723 273.982502852L579.025743281 283.423463438L580.05773125 305.81179L579.187278594 328.451194063L578.032685371 338.206001523L576.39534 346.03272L573.364814688 352.187795781L568.293215 356.24813375L561.081910313 358.262514844L551.63227 358.27972L545.1361025 357.31626375L539.9459775 355.737425L536.10752875 353.56217875L533.66639 350.8095L531.14809 347.76171L509.59933375 363.42763625L487.23838 380.92324L486.357037656 382.536377969L485.85854125 385.61143375L485.6548 400.55083L484.77244875 423.41504375L483.262539531 433.274249219L480.79898 444.25539L477.735952656 454.515816406L474.01480125 463.16285875L469.554451719 470.353459219L464.27383 476.24456L454.76326 483.39179L448.417165 484.55588625L440.43547 484.05007L440.43547 484.05007M463.03071 459.10103L465.842863125 455.962633594L468.7111125 450.50655625L471.349325625 443.386305781L473.47137 435.25539L475.307421563 421.873068906L476.256675 405.63246125L476.209448437 390.364822969L475.05606 379.90141L473.346229063 374.533820156L471.3696025 370.74415625L469.101004687 368.496614219L466.51526 367.75539L463.044700625 368.488327031L459.6837725 370.62942375L456.533073125 374.092108594L453.6932 378.78981L451.361407969 383.961888125L450.53414875 387.4437325L451.199402656 389.658013125L453.34515 391.0274L456.25482 392.12568L453.88496 395.23273L449.488386406 402.874283594L446.47026875 412.25991625L444.929221719 422.955268281L444.96386 434.52598L446.19375875 444.5440625L447.568436094 445.177755625L450.16286 444.22521L454.762677656 441.607713594L458.44170625 437.99977375L461.170224219 433.439279531L462.91851 427.96412L463.15426125 425.23418625L461.10615 425.30191L459.069923281 425.2817325L457.60953625 424.060325L456.729786094 421.6451425L456.43547 418.04364L457.295627187 413.65113875L459.28841 410.5882L461.532285312 409.68091875L462.472903555 410.293804375L463.14572 411.75539L463.905972969 413.5600175L464.66705375 413.3703275L465.96023 407.36876L465.95668125 398.231145L463.08328 389.44516L460.91632875 385.61479L458.68547 385.05649L457.045002187 385.174282031L456.625465 384.45771875L459.68547 379.1184L462.737186875 375.396345859L465.40046 373.892073125L467.655211875 374.557645078L469.481365 377.345125L470.858841875 382.206576172L471.767565 389.094061875L472.09844 408.75539L471.458911094 421.360005781L470.29483125 431.12100125L468.457485781 438.907841094L465.79816 445.58999L462.33646 450.965690469L458.423845 453.74227625L454.0317175 453.929953906L449.13148 451.53893L446.2055 449.45545L446.90289 451.85542L449.524789687 457.225397656L453.3705225 460.35049125L458.014394062 461.039451719L463.03071 459.10103L463.03071 459.10103M391.43547 423.22384L406.33626125 420.278895L419.98864 418.76129L424.0418 418.75529L426.30508 411.50529L434.10268 387.25529L439.37519416 372.467487871L444.999055781 359.275209844L450.846392324 347.859450957L456.78933125 338.40120625L462.70000002 331.081470762L468.450526094 326.081239531L473.913036934 323.581507598L478.95966 323.76327L481.9730625 325.30438L484.38105 327.41324L486.35791 329.92641L495.60337 324.71456L508.2942025 317.204475L510.740084687 315.273180313L511.42309 313.99045L508.702117969 307.452365156L502.45551125 295.09931375L491.09115 275.25159L487.25819375 272.054875L480.58456 270.6281L469.954543125 269.933981406L456.622595 269.92618875L444.933686875 270.505479219L439.23279 271.57261L438.56303875 272.9160225L439.90457 274.34306L445.54720375 276.75213375L454.43547 278.62465L458.31094 279.6670175L459.2537 282.57756L458.934484063 286.337614375L457.1838275 288.3121175L454.148672187 288.436621875L449.97596 286.64668L447.14170125 285.390319687L445.0861 285.673985L443.50382375 287.690750312L442.08954 291.63369L440.75798 296.25529L422.34672 307.12835L390.43547 325.08526L376.93547 332.16901L381.43547 326.92236L390.045495 316.66132L391.18714 314.17373L382.26594 318.03904L367.47504 325.74585L361.01461 328.99663L363.7808 331.37601L366.7825875 333.15708625L370.24123 333.77792L372.128495781 333.894008438L372.16696375 334.4835475L364.93597 338.72592L357.3490625 343.37571625L355.906973125 345.051121406L355.25613 346.95338L353.8573 371.11986L353.13881 391.98432L355.53714 391.25068L413.65093 367.87306L438.84192 357.75539L440.189890469 358.043624844L440.89071125 358.88850875L440.31097 362.1293L436.436477656 365.371471719L427.50115125 370.75695125L400.18028 384.72959L393.943058906 388.097823594L390.16028875 391.60941875L388.119744219 396.263029531L387.1092 403.05731L385.93581375 409.61344125L383.84763 415.77178L381.863068594 421.150547969L382.23115125 423.95465125L385.304433281 424.530333906L391.43547 423.22384L391.43547 423.22384M297.40029 406.82113L298.39595 400.905295L298.05874125 397.732392812L297.18547 395.50321L291.878077813 393.553391094L281.5707675 391.41415125L271.070808438 389.924015781L265.18547 389.92151L263.83021875 391.66996625L263.46727 395.54057L263.876388906 399.900269062L265.82120125 402.5867575L270.488590469 404.409414687L279.06544 406.17762L293.82549125 408.5027L296.276729219 408.136973437L297.40029 406.82113L297.40029 406.82113M331.93547 391.96445L332.647774844 390.716832188L333.76912125 390.115L339.63523 390.34455L345.55292375 390.57915L346.500060156 389.87323125L346.99308 388.38189L347.421990312 385.394781406L346.6585975 383.45459875L344.360543437 382.204586719L340.18547 381.28799L336.43547 380.66476L336.43547 364.9536L336.43547 349.24244L318.22889 346.38826L298.70148 343.02723L298.05755875 343.410502969L297.69638 345.54904125L297.65806 357.34503L297.93547 372.16968L306.4059 373.48297L315.82312 375.74304L316.134656875 376.870081094L314.4842575 377.37004625L306.95698 376.37119L296.8148225 374.743575L294.279439375 375.201513438L293.62236 376.50539L294.5338225 377.8375475L296.25683 378.58295L298.9343875 380.16033375L299.505247813 381.316782969L299.22717 382.29703L278.2625425 379.01590375L229.93547 369.67993L146.127397875 351.7945375L115.497130016 344.285771875L90.103243 337.20355L77.7218251875 333.84443875L70.890608 332.7616675L69.7002338203 333.071944141L70.0701008125 333.9489475L75.720813 337.39999L83.4799167031 340.883054375L94.064435125 344.4450375L136.93547 355.77599L174.190209375 364.851606719L209.6315125 372.61228875L304.43547 390.22807L326.43547 394.18654L329.8986225 394.18141125L331.93547 391.96445L331.93547 391.96445M502.67207 363.41005L506.331399219 359.764055469L508.80008375 355.15936875L510.410496406 348.693982656L511.49501 339.46589L512.25849 325.37791L511.433733125 325.136776406L509.2185325 325.89648125L500.12921 330.62952L488.32295 337.25539L488.87921 344.65627L489.43547 362.45431L489.43547 372.85147L494.18547 369.61469L502.67207 363.41005L502.67207 363.41005M290.42016 357.00539L289.65235 347.07206L276.256255 343.592695L260.73772 340.75539L260.65052 350.98863L260.9355 361.22187L273.4355 363.3745L284.021457188 365.190290938L288.983095 365.2581975L290.010011133 364.390993555L290.417107813 362.791977813L290.42019 357.00539L290.42016 357.00539M100.35966 360.45478L100.656362875 355.398945L99.8612215781 353.199837813L98.563103 351.82523L85.86818425 347.1311325L75.339513 344.31469L74.47480425 348.54254125L75.301713 353.57326L86.0107155 358.5219175L98.210193 362.67457L99.367423875 362.05586125L100.35963 360.45478L100.35966 360.45478M185.23521 343.05624L185.92931 338.9159L174.21179 336.63886L160.24431 334.31598L157.6735825 334.55618625L155.49431 337.16019L153.6114 341.0674675L154.315158125 341.659950938L156.18547 341.81468L170.43547 344.23448L183.01769 346.67519L184.1155 345.64520125L185.23521 343.05624L185.23521 343.05624M571.54916 340.00539L574.419704687 328.005291562L575.5438875 313.73505L574.860949063 300.923843437L573.82282207 296.230746445L572.31013 293.30085L571.85493625 294.73628625L572.06194 299.86482L571.95962 320.17621L571.00260375 330.901445L569.32861 334.86225L567.51372375 338.36087875L567.699557969 340.073012344L568.63547 341.55539L570.24696875 342.56747125L571.54916 340.00539L571.54916 340.00539M344.24767 338.01877L342.69286625 336.056895L339.42435 333.77873L334.13304875 331.865670312L328.011985 331.103555L322.37093625 331.529784687L318.51968 333.18176L317.19894125 334.85135875L317.33852 336.05844L319.975384687 337.334128437L324.702265 338.4750175L336.75879 339.67034L343.20714875 339.44836125L344.174642344 338.934959844L344.24767 338.01877L344.24767 338.01877M311.43547 334.76979L309.296006406 332.822370781L303.36128875 329.85737125L283.00813 322.16174L271.950565 318.32774875L267.93547 316.67292L276.27135 316.8880275L291.03224 318.38751L304.129 319.96729L342.03224 300.23388L392.43547 273.87793L404.93547 267.25539L390.93547 266.55454L339.93547 264.27954L276.1937 261.16741L249.45192 259.62942L230.6937 263.77029L191.50137 272.43075L154.15868625 282.01723625L138.647124844 287.112004219L125.18547 292.42486L122.043856563 294.708011875L121.6571825 297.4257775L123.940339688 300.326044375L128.80822 303.1567L133.09271375 305.57941125L136.00329 308.13584L137.503357813 309.644234687L140.1565825 310.846965L153.43547 313.80244L217.19615375 324.67221125L280.93547 333.68013L302.9692125 335.5735125L309.213748437 335.520059062L311.43547 334.76979L311.43547 334.76979M105.22045 324.51122L104.93547 314.26704L98.685473 313.1508L92.435473 312.03455L92.435473 322.28146L92.435473 332.52837L98.185473 333.51352L104.72045 334.62703L105.22045 324.51122L105.22045 324.51122M89.221683 319.04802L88.935473 309.34066L85.435473 308.66605L76.185473 307.36468L70.435473 306.73792L70.435473 316.7276L70.7541855 325.37243125L71.4268370625 326.716887031L72.685473 327.21213L85.221683 328.60556L89.507893 328.75539L89.221683 319.04802L89.221683 319.04802M386.46961 311.14576L422.45645 291.16847L425.570761094 288.572185312L427.78640625 285.6759175L428.960993281 282.725240937L428.95213 279.96573L425.2209175 272.6173525L421.1488 267.75539L326.52226 316.54766L316.10905 322.08589L329.52226 325.29699L342.702255625 328.258215156L347.580531484 328.605082559L352.37149 327.93424625L357.865504141 326.049301035L364.852946875 322.753841719L386.46961 311.14576L386.46961 311.14576M553.12807 323.88897L556.674155938 319.801734531L559.5943875 314.24794625L562.230627812 306.403262344L564.92474 295.44334L566.114265781 289.688289062L566.14961375 287.102095L564.735232344 287.138238437L561.57557 289.2502L557.41004875 292.9471625L556.13202 297.49854L553.8309725 307.64038875L548.74522 325.00539L548.593483281 326.36715375L549.30020875 326.6281725L553.12807 323.88897L553.12807 323.88897M511.38467 281.98344L513.2777 270.50096875L512.632986875 267.810623906L510.8828 265.70591L508.61075875 264.01052875L507.32367 264.78159L506.621986563 270.257458281L506.8706225 279.74074625L507.766917187 288.428053594L508.363355117 290.972151934L509.00821 291.51598L511.38467 281.98344L511.38467 281.98344M563.72475 283.19237L567.41183 279.91442875L569.55112 276.96717L569.960466758 274.384243574L569.659669687 270.913661094L567.242015 262.17106375L562.926897812 252.462449531L557.34306 243.51089L553.424077187 239.123711875L548.3012 234.5702925L537.01222 227.04493L532.08897 224.54612L537.32673 230.40075L545.645941094 241.667776094L551.98307375 254.35986875L556.019219531 267.677407031L557.43547 280.82077L558.18547 286.7306L563.72475 283.19237L563.72475 283.19237M502.4682 256.16931L502.93372625 252.363350469L502.463005 247.35840625L501.31794375 242.717933906L499.76045 240.00539L497.09657625 238.586007969L495.7842325 239.61558875L495.683945 243.587987656L496.65624 250.99706L497.98933875 257.26104875L498.725251406 258.437459844L499.68099 258.75539L501.24864375 258.01075L502.4682 256.16931L502.4682 256.16931M410.93547 252.12036L425.320015 246.494875L429.398500313 245.985349688L433.09814 246.58766L438.2046 247.3196L438.284195 245.673055937L436.8631075 242.955645L430.86959 236.33161L425.43547 230.54181L430.6495975 229.858215L447.93547 230.13477L467.40926875 230.46893375L470.003769531 229.963282031L470.43547 228.86215L469.988281562 226.928215625L468.719455 225.292215L464.15332 223.3004L443.25386 221.73514L428.0632025 220.48556875L420.75386 218.54668L414.870770469 216.856198594L407.69124125 215.97450875L401.141803906 216.019082031L397.14899 217.10739L392.060505156 223.546806406L384.15877125 235.22252125L377.057079219 246.585982969L374.36872 252.08864L382.61363 254.867L389.877946406 256.165537969L396.72276625 256.16940625L403.593477969 254.835411406L410.93547 252.12036L410.93547 252.12036M337.87008 254.60323L342.70631375 249.20820625L350.7724525 238.307905L358.37703 227.10828625L361.82858 220.81531L359.949595625 219.239630156L354.588455 217.90089875L336.43547 216.45243L324.93547 216.25539L310.08125 223.49005L285.559445 236.3061225L264.43547 248.70122L258.93547 252.25539L284.93547 252.97774L316.93547 254.59662L329.6274775 255.586505L337.87008 254.60362L337.87008 254.60323M518.43547 230.62347L517.2809425 228.502084688L514.3812775 225.7870725L506.73004 221.27763L500.13885625 219.89976875L490.68547 219.02896L479.43547 218.47642L479.55378 221.36591L480.30893 227.25539L480.804444531 228.951259844L481.76615625 229.91611125L487.44061 230.83279L507.6466825 231.59713625L515.358264062 231.319854531L518.43547 230.62347L518.43547 230.62347M410.43397 205.50539L408.519456094 197.638172812L404.13384125 183.611845L396.06087 161.76552L390.985202344 156.441581094L383.85704625 151.97391625L375.760409531 148.899520781L367.7793 147.75539L362.19816 147.75539L365.40885 151.00539L370.223445156 157.592755781L374.69177375 167.21156625L378.770445469 179.749341094L382.41607 195.0936L384.98999 205.8436L389.353774844 206.629339531L398.05746375 206.79489375L406.588410781 206.400248594L410.43397 205.50539L410.43397 205.50539M472.71102 150.48678L481.53388 144.84168625L485.026262813 141.777484219L486.43547 139.70714L477.40304 134.1292L470.4695175 130.065285L469.143737188 128.788211875L468.97405 127.81109L470.13303 121.61294L470.23755875 117.6356525L468.55534 116.29343L463.685007031 116.289863906L456.91682625 117.81821125L450.569434844 120.189140469L446.96147 122.71332L444.753415 133.01524375L443.43684 146.44502L443.43584 152.63466L447.18584 153.08926L454.1346025 153.49459125L461.1890175 153.146615L467.62323125 152.11934125L472.71139 150.48678L472.71102 150.48678M566.23695 118.13308L564.970554219 114.436763281L561.18230875 110.37774375L556.236736406 107.101969844L551.49836 105.75539L549.5878925 106.49729125L547.82672 108.28101L546.693275 110.741055L548.05367 112.88742L551.43590375 115.565387969L556.1205575 118.09380125L560.8672175 119.902268906L564.43547 120.4204L565.58340625 119.672005L566.23695 118.13308L566.23695 118.13308"
     style="fill:#000000" />
</svg>
