<?xml version="1.0" encoding="UTF-8" standalone="no"?>
<!-- Created with Inkscape (http://www.inkscape.org/) -->

<svg
   xmlns:dc="http://purl.org/dc/elements/1.1/"
   xmlns:cc="http://creativecommons.org/ns#"
   xmlns:rdf="http://www.w3.org/1999/02/22-rdf-syntax-ns#"
   xmlns:svg="http://www.w3.org/2000/svg"
   xmlns="http://www.w3.org/2000/svg"
   xmlns:sodipodi="http://sodipodi.sourceforge.net/DTD/sodipodi-0.dtd"
   xmlns:inkscape="http://www.inkscape.org/namespaces/inkscape"
   id="svg4190"
   version="1.1"
   inkscape:version="0.91 r13725"
   width="447.5"
   height="632.5"
   viewBox="0 0 447.5 632.5"
   sodipodi:docname="brendan2.svg">
  <sodipodi:namedview
     pagecolor="#ffffff"
     bordercolor="#666666"
     borderopacity="1"
     objecttolerance="10"
     gridtolerance="10"
     guidetolerance="10"
     inkscape:pageopacity="0"
     inkscape:pageshadow="2"
     inkscape:window-width="1242"
     inkscape:window-height="759"
     id="namedview4192"
     showgrid="false"
     inkscape:zoom="1.026087"
     inkscape:cx="223.75"
     inkscape:cy="316.25"
     inkscape:window-x="0"
     inkscape:window-y="0"
     inkscape:window-maximized="0"
     inkscape:current-layer="svg4190" />
  <metadata
     id="metadata4196">
    <rdf:RDF>
      <cc:Work
         rdf:about="">
        <dc:format>image/svg+xml</dc:format>
        <dc:type
           rdf:resource="http://purl.org/dc/dcmitype/StillImage" />
        <dc:title></dc:title>
      </cc:Work>
    </rdf:RDF>
  </metadata>
  <defs
     id="defs4194" />
  <path
     inkscape:connector-curvature="0"
     id="path4200"
     d="M115.908905 66.249290L110.023392 72.134811M109.435379 79.793884L128.669907 60.559357M140.477005 55.823334L108.847374 87.452965M108.259361 95.112038L150.699478 52.671917M160.921967 49.520500L127.777283 82.665192M113.989235 96.453232L107.930206 102.512268M107.688812 109.824730L111.504059 106.009483M134.883057 82.630478L173.184769 44.328758M185.873077 38.711525L129.966858 94.617752M112.176376 112.408226L107.447418 117.137192M105.108864 126.546814L193.181580 38.474087M200.844406 37.882332L103.251038 135.475708M101.598709 144.199097L208.759674 37.038132M216.885010 35.983868L100.249107 152.619766M98.972420 160.967529L223.111389 36.828545M229.002304 38.008709L97.803238 169.207779M96.634056 177.448029L235.124634 38.957439M241.326065 39.827080L95.464882 185.688278M94.295700 193.928528L250.046616 38.177601M258.240051 37.055222L94.826279 200.469009M95.373451 206.992905L266.100250 36.266106M273.706116 35.731285L95.874962 213.562454M96.313797 220.194702L229.304672 87.203804M243.546310 72.962166L280.738983 35.769493M286.941498 36.638042L251.312531 72.267021M223.561417 100.018135L96.752632 226.826935M97.166412 233.484207L223.352676 107.297943M258.432037 72.218582L292.844849 37.805767M298.765015 38.956673L265.037109 72.684578M223.859192 113.862503L97.498955 240.222733M97.831505 246.961258L224.044952 120.747803M271.641083 73.151680L304.781097 40.011658M317.197449 34.666363L276.903259 74.960564M228.798599 123.065224L98.320229 253.543610M99.383636 259.551270L227.218765 131.716125M281.948151 76.986732L296.888763 62.046120M296.579926 62.354950L320.926483 38.008419M324.860718 41.145245L310.228851 55.777107M303.112885 62.893063L285.852509 80.153458M222.883118 143.122833L100.447052 265.558929M101.531143 271.545898L219.103851 153.973175M289.756866 83.320168L312.882599 60.194420M323.049255 50.027775L327.951599 45.125416M329.688324 50.459770L325.988068 54.160027M321.751221 58.396866L293.661194 86.486893M218.746872 161.401215L102.817696 277.330414M104.104263 283.114899L218.811600 168.407578M297.565552 89.653603L315.959930 71.259239M316.810089 70.409058L331.425049 55.794113M333.110352 61.179890L301.469910 92.820328M218.876312 175.413925L105.390808 288.899414M106.722244 294.639069L218.941025 182.420273M305.124664 96.236626L334.443817 66.917480M335.777283 72.655083L308.245575 100.186783M216.631409 191.800949L108.079979 300.352386M109.442314 306.061127L216.876526 198.626923M311.366486 104.136948L337.193329 78.310097M338.806458 83.768044L314.487396 108.087105M235.388519 187.185974L227.959549 194.614944M219.991272 202.583221L110.810043 311.764465M112.138992 317.506592L222.637848 207.007721M229.724045 199.921524L237.307159 192.338409M317.608307 112.037262L340.250427 89.395149M340.317627 96.399010L320.729218 115.987419M238.510345 198.206299L230.858109 205.858521M224.655136 212.061508L113.265312 323.451324M114.391640 329.396057L241.310501 202.477219M323.734070 120.053627L339.867310 103.920395M343.047516 107.811256L326.257202 124.601585M245.656952 205.201828L115.517967 335.340820M116.192833 341.737000L251.819031 206.110809M328.780304 129.149536L344.178772 113.751068M345.087524 119.913383L331.303406 133.697495M258.007751 206.993149L237.918839 227.082077M224.656555 240.344360L116.809036 348.191864M117.425247 354.646729L224.420166 247.651810M246.516510 225.555466L264.563202 207.508759M333.826508 138.245453L346.533661 125.538315M347.979797 131.163239L336.225586 142.917465M271.118652 208.024384L253.667786 225.475266M224.008118 255.134933L119.202896 359.940155M121.257881 364.956238L223.166245 263.047882M258.483917 227.730209L277.674103 208.540009M338.624146 147.589951L349.425934 136.788162M351.178131 142.107040L341.022736 152.262451M284.229553 209.055634L250.990631 242.294540M222.324371 270.960815L123.286194 369.998993M125.308479 375.047791L221.482498 278.873749M252.748138 247.608109L290.785004 209.571259M343.421295 156.934937L352.933044 147.423218M354.521515 152.905807L345.819885 161.607422M297.340454 210.086884L253.636673 253.790649M220.665771 286.761536L127.330750 380.096588M129.425156 385.073242L219.855896 294.642487M254.480087 260.018311L303.492126 211.006256M348.218475 166.279907L355.942383 158.555984M357.385864 164.183594L350.521790 171.047668M309.404083 212.165375L257.575562 263.993896M219.337158 302.232300L131.717819 389.851654M33.569458 488.000000L26.313562 495.255890M134.059189 394.581329L220.249725 308.390808M261.457153 267.183350L302.322205 226.318298M352.159821 176.480698L358.882324 169.758194M360.331573 175.380005L353.797852 181.913742M306.172150 229.539444L301.186340 234.525253M296.998932 238.712646L265.679382 270.032196M221.162292 314.549286L136.429413 399.282166M56.960281 478.751312L53.659397 482.052216M138.544846 404.237823L222.074875 320.707794M269.904755 272.877930L293.741699 249.040955M298.570312 244.212341L301.028259 241.754379M306.459412 236.323227L309.967834 232.814819M355.435883 187.346786L361.589783 181.192871M362.749359 187.104355L357.073914 192.779816M312.950043 236.903671L311.439667 238.414047M291.220184 258.633545L274.797913 275.055817M222.987457 326.866272L139.408249 410.445465M90.213287 459.640442L80.119537 469.734192M26.436306 530.488525L31.877045 525.047729M92.606743 464.318054L100.751060 456.173737M139.854874 417.069946L223.900024 333.024780M357.811127 199.113663L363.923431 193.001343M365.501770 198.494095L358.062988 205.932861M228.278381 335.717499L138.173477 425.822388M110.455139 453.540741L110.877632 453.118225M40.081039 523.914856L29.331715 534.664185M34.072880 536.994080L56.271343 514.795593M59.682259 511.384674L62.956383 508.110565M128.035461 443.031464L233.733368 337.333557M243.688919 327.378021L246.042801 325.024139M358.314880 212.752045L367.080078 203.986847M368.740906 209.397095L358.084381 220.053619M237.994278 340.143707L109.426277 468.711731M95.500664 482.637329L29.600506 548.537476M27.573530 557.635559L96.779228 488.429840M104.183975 481.025085L241.940475 343.268585M267.821045 317.388000L274.983887 310.225189M364.777954 220.431122L370.447235 214.761826M280.417999 311.862122L269.284149 322.995972M246.879501 345.400635L103.406845 488.873291M97.883743 494.396393L27.393343 564.886780M27.213137 572.138062L98.924393 500.426819M103.905128 495.446075L251.860062 347.491150M272.165680 327.185516L285.457245 313.893951M369.434204 229.917007L372.496399 226.854797M372.765137 233.657120L369.013550 237.408722M289.868866 316.553406L275.712067 330.710205M256.969452 349.452820L104.426872 501.995392M98.944443 507.477844L27.032928 579.389343M26.852720 586.640625L99.067314 514.426025M105.185081 508.308258L245.595657 367.897675M250.394363 363.098969L252.951416 360.541931M279.258453 334.234894L293.643433 319.849884M368.592896 244.900452L373.033905 240.459427M373.302673 247.261734L368.172241 252.392166M295.694580 324.869812L282.663452 337.900940M250.051697 370.512695L106.076279 514.488159M100.360641 520.203796L26.672535 593.891907M26.492327 601.143127L101.653992 525.981506M107.439781 520.195679L255.987869 371.647583M269.573059 358.062408L270.830719 356.804749M285.784485 341.850983L296.880951 330.754517M357.594421 270.041046L357.799591 269.835876M367.761749 259.873718L373.571411 254.064041M373.840179 260.866364L367.353973 267.352570M359.587189 275.119354L360.061615 274.644928M298.463074 336.243439L288.905518 345.801025M242.756134 391.950409L108.974709 525.731812M103.259544 531.447021L26.313608 608.392944M26.313608 615.463989L105.996155 535.781433M110.509636 531.268005L247.527771 394.249847M285.495087 356.282501L290.185394 351.592194M290.894440 350.883148L300.862030 340.915558M366.946228 274.831390L373.780273 267.997314M372.774811 276.073853L366.538452 282.310211M299.384308 349.464386L287.303467 361.545227M252.084717 396.763977L112.044563 536.804138M109.180077 539.668579L26.313608 622.535095M26.313608 629.606140L112.363998 543.555725M113.579491 542.340271L251.750977 404.168762M279.427460 376.492279L300.641968 355.277802M366.090790 289.828949L371.769348 284.150391M370.867249 292.123566L365.544281 297.446533M302.154968 360.835846L282.731903 380.258911M247.503250 415.487579L26.313608 636.677185M26.313610 643.748291L244.949265 425.112610M284.583282 385.478607L302.876495 367.185364M364.768829 305.293060L370.072449 299.989441M369.277618 307.855316L362.559540 314.573425M302.569550 374.563385L285.955780 391.177185M246.044220 431.088715L132.008682 545.124268M129.928955 547.203979L26.313610 650.819336M26.313610 657.890442L131.827744 552.376282M135.076889 549.127136L247.471634 436.732391M286.763306 397.440704L301.387482 382.816528M356.653015 327.550995L367.742310 316.461700M365.603363 325.671692L355.525238 335.749847M298.662109 392.612976L286.260712 405.014374M249.123993 442.151093L138.145111 553.130005M134.390121 556.884949L30.512402 660.762695M37.583469 660.762695L137.403107 560.943054M141.228668 557.117493L251.178452 447.167694M290.095764 408.250397L295.490234 402.855927M354.568573 343.777588L363.735901 334.610260M362.082550 343.334656L353.564667 351.852570M302.159515 403.257721L295.404388 410.012817M251.669342 453.747864L144.419617 560.997620M140.470810 564.946411L44.654537 660.762695M51.725605 660.762695L143.683151 568.805176M147.610596 564.877686L256.745178 455.743134M296.657440 415.830841L302.653870 409.834412M352.244354 360.243927L360.756439 351.731842M359.714813 359.844513L350.924072 368.635284M296.328339 423.231018L291.517151 428.042206M262.462463 457.096893L150.801575 568.757751M146.895493 572.663879L58.796673 660.762695M65.867722 660.762695L150.107834 576.522583M154.096039 572.534424L274.464386 452.166016M275.675476 450.954956L280.895935 445.734497M289.194946 437.435486L300.751129 425.879272M342.889130 383.741302L357.342224 369.288208M351.701508 381.999969L333.149200 400.552307M316.622803 417.078674L316.422485 417.278992M307.800171 425.901306L302.137085 431.564423M300.080048 433.621429L264.451721 469.249786M242.549774 491.151733L157.907547 575.793945M153.419693 580.281799L72.938789 660.762695M80.009857 660.762695L157.035751 583.736816M161.719055 579.053528L242.301285 498.471283M279.658295 461.114258L312.317963 428.454590M331.413635 409.358917L344.946106 395.826447M343.450500 404.393127L330.215149 417.628479M244.447708 503.395935L165.530563 582.313049M160.907913 586.935730L87.080925 660.762695M94.151993 660.762695L164.780060 590.134644M169.577820 585.336853L220.828491 534.086182M224.976593 529.938110L246.886978 508.027710M330.956116 423.958588L343.142609 411.772095M344.292145 417.693634L332.033142 429.952637M250.276672 511.709106L228.597244 533.388550M218.262482 543.723267L174.033798 587.951965M168.718002 593.267761L101.223061 660.762695M108.328911 660.727905L173.083389 595.973450M178.489777 590.567078L224.476669 544.580139M228.628296 540.428528L259.507629 509.549194M336.280884 432.775940L345.745117 423.311737M348.543823 427.584076L340.528656 435.599243M266.179199 509.948700L182.945740 593.182190M177.448746 598.679138L163.849487 612.278442M163.329315 612.798584L115.435219 660.692688M122.541527 660.657471L181.814133 601.384827M187.597824 595.601135L268.880219 514.318726M344.776428 438.422546L351.342529 431.856445M354.729553 435.540497L349.024170 441.245850M270.361542 519.908508L192.572052 597.697998M186.179489 604.090576L129.647827 660.622192M136.754135 660.586975L177.515091 619.826050M183.771927 613.569153L189.949615 607.391479M197.546280 599.794800L270.007690 527.333435M353.271942 444.069153L358.912750 438.428345M363.095947 441.316223L358.180725 446.231445M269.438843 534.973328L202.520508 601.891663M193.594467 610.817688L190.005295 614.406860M180.238739 624.173462L174.783554 629.628601M173.148514 631.263672L143.860443 660.551758M150.966751 660.516479L183.229507 628.253723M207.494720 603.988525L268.805450 542.677795M363.196808 448.286407L368.164246 443.319000M373.780273 444.774017L369.431793 449.122528M270.030029 548.524292L213.168900 605.385376M180.646957 637.907349L158.073044 660.481262M165.179367 660.446045L180.891968 644.733398M218.956558 606.668823L273.470032 552.155334M375.828156 449.797211L379.413391 446.211975M385.082703 447.613739L381.644867 451.051575M280.568451 552.127991L224.744202 607.952271M178.179596 654.516846L173.845764 658.850708M230.531815 609.235718L288.937286 550.830261M383.988953 455.778564L384.702301 455.065216M387.461548 452.305939L390.752014 449.015503M396.089325 450.749268L393.027161 453.811432M304.216095 542.622498L236.319473 610.519104M243.289917 610.619751L321.910828 531.998840M397.957153 455.952515L401.244110 452.665527M406.286591 454.694122L402.887115 458.093567M397.789978 463.190735L394.317871 466.662842M331.883423 529.097290L250.622559 610.358154M257.955200 610.096558L341.845795 526.205994M392.020111 476.031677L399.557861 468.493927M407.820953 460.230804L411.278168 456.773590M416.269775 458.853088L412.760712 462.362152M400.588684 474.534180L389.121460 486.001404M344.954926 530.167908L265.287872 609.834961M273.977997 608.215942L347.033997 535.159912M384.967621 497.226288L397.526459 484.667450M417.700439 464.493469L421.261353 460.932556M426.252960 463.012024L422.640167 466.624817M394.464264 494.800720L380.813782 508.451202M347.985474 541.279480L283.753632 605.511353M293.529266 602.806763L345.769104 550.566956M376.659912 519.676147L391.402069 504.933990M427.579926 468.756134L431.307281 465.028778M436.371582 467.035522L432.519653 470.887482M384.968597 518.438538L370.979065 532.428040M343.204529 560.202576L305.575470 597.831665M320.888916 589.589294L375.206024 535.272156M437.162384 473.315796L441.284637 469.193573M446.056824 471.492432L441.767456 475.781799M446.372528 478.247803L450.841980 473.778320M455.636353 476.055054L450.977600 480.713776M455.680695 483.081757L460.430695 478.331757M465.270111 480.563385L460.525818 485.307709M465.370941 487.533661L470.179504 482.725067M473.487396 486.488251L470.216064 489.759613"
        style="stroke:#000000;fill:#ffffff" />
</svg>
