<?xml version="1.0" encoding="UTF-8" standalone="no"?>
<!-- Created with Inkscape (http://www.inkscape.org/) -->

<svg
   xmlns:dc="http://purl.org/dc/elements/1.1/"
   xmlns:cc="http://creativecommons.org/ns#"
   xmlns:rdf="http://www.w3.org/1999/02/22-rdf-syntax-ns#"
   xmlns:svg="http://www.w3.org/2000/svg"
   xmlns="http://www.w3.org/2000/svg"
   xmlns:sodipodi="http://sodipodi.sourceforge.net/DTD/sodipodi-0.dtd"
   xmlns:inkscape="http://www.inkscape.org/namespaces/inkscape"
   width="744.09448819"
   height="1052.3622047"
   id="svg3114"
   version="1.1"
   inkscape:version="0.48.3.1 r9886"
   sodipodi:docname="New document 5">
  <sodipodi:namedview
     id="base"
     pagecolor="#ffffff"
     bordercolor="#666666"
     borderopacity="1.0"
     inkscape:pageopacity="0.0"
     inkscape:pageshadow="2"
     inkscape:zoom="0.35"
     inkscape:cx="375"
     inkscape:cy="520"
     inkscape:document-units="px"
     inkscape:current-layer="layer1"
     showgrid="false"
     inkscape:window-width="472"
     inkscape:window-height="415"
     inkscape:window-x="1206"
     inkscape:window-y="606"
     inkscape:window-maximized="0" />
  <defs
     id="defs3116" />
  <metadata
     id="metadata3119">
    <rdf:RDF>
      <cc:Work
         rdf:about="">
        <dc:format>image/svg+xml</dc:format>
        <dc:type
           rdf:resource="http://purl.org/dc/dcmitype/StillImage" />
        <dc:title></dc:title>
      </cc:Work>
    </rdf:RDF>
  </metadata>
  <g
     id="layer1"
     inkscape:groupmode="layer"
     inkscape:label="Layer 1">
    <path
       inkscape:connector-curvature="0"
       id="path3133"
       d="M157.5 788.75637L149.841555 783.33387625L144.30654 774.57647L141.86475875 766.754265L141.59599 748.07647L142.1530875 728.57733L144.34841 712.63409L155.1467275 663.96499125L170.53701 613.07647L177.094135 591.12905875L177.12893 580.8544L175.059947793 578.190061328L171.886727344 577.404810625L163.33433875 580.741825L153.685298281 589.405946875L145.15314 601.93768L139.8873975 614.288969844L136.364805 627.74576625L134.5332975 642.583217031L134.34081 659.07647L135.57191 676.87819L135.70981125 678.7168075L133.38016 678.47962L125.664501562 675.68669375L118.56914 671.3723925L112.574373437 665.895955L108.1605 659.61662L105.90762875 653.455375L105.55189 642.07647L106.0577675 630.39725L108.4212 622.07647L113.480885469 610.98296875L119.92793875 600.6738025L127.440372656 591.5961475L135.6962 584.19718L155.219197812 572.656277187L174.107015 567.0774075L182.691198242 566.61068293L190.370747187 567.738804062L196.897048789 570.496550039L202.02149 574.9187L206.62611 583.45616L207.959642344 594.303113594L206.48782875 610.56329625L195.00627 660.12763L176.748545 728.4469475L173.528099062 745.6278325L172.62718 758.61648L172.86718125 768.04688L174.27305 772.36648L178.4520025 774.97041875L184.67421 772.19751L191.785865312 764.826591719L199.3508675 753.47910125L206.168243437 740.210555156L211.03702 727.07647L213.77474375 707.6848825L212.38839 686.96419L210.938861562 676.015679063L211.18153 667.719065L213.222113437 661.397515938L217.16633 656.3742L223.4117075 652.361424531L229.1915525 651.96591875L233.94679625 655.045258594L237.11837 661.45702L237.6014875 676.46458125L234.97599 695.07647L228.793215 726.86297875L228.070084687 738.061461406L228.94815 745.94142L231.553431094 751.533944844L235.25390625 754.56536125L239.432448281 754.781317031L243.47193 751.92746L251.318920625 737.577016875L258.4444225 715.1429875L264.238265625 687.013446875L268.09028 655.57647L268.7189175 618.8893475L266.14468 586.07647L261.70712 566.5586175L256.03941 550.65671L254.06674125 543.24352625L256.245455156 542.272913281L261.0 542.3459L270.82521875 544.890455L280.06219 552.11132L286.656566328 560.373348438L291.927916875 570.438105L295.869966484 582.259027813L298.47644 595.789555L299.657558125 627.793175L295.42107 666.07647L291.010473223 687.473871074L285.396657656 706.952922969L278.748777949 724.225552441L271.23598875 739.00368625L263.027444707 750.999251152L254.292300469 759.924173906L245.199710684 765.49038127L235.91883 767.4098L230.055846094 766.553248125L225.14071125 763.9797325L221.165935781 759.683463125L218.12403 753.65865L216.28424 748.74084L212.2038 755.72752L202.143279844 770.575009063L191.67301125 781.3665975L180.792187031 788.102947188L169.5 790.78472L162.8695275 790.6612525L157.5 788.75637L157.5 788.75637M321.90728 720.75382L313.047732188 712.584664062L306.9646 699.9020625L304.236210313 684.546254687L305.44089 668.35748L310.153093594 652.439217187L317.19406875 637.369075L326.034922031 624.091095312L336.14676 613.54932L349.974633438 604.622684375L362.600255 601.468285L368.141149258 602.062837578L372.996194063 604.109045625L377.036960586 607.609774609L380.13502 612.56789L381.97257875 623.597105L380.54679 634.61873L379.57384 637.43686375L380.85944 637.1517L386.94537 631.47586875L392.48788 624.0999L393.64175375 621.08950125L392.42688 618.99567L390.107434531 611.840613125L391.37131375 601.462645L395.621428594 590.204641875L402.26069 580.40948L408.894795 574.7432625L415.20034 573.09178L419.3853675 573.81702L421.8503 576.76073L423.103937656 581.098350469L422.39171375 585.96431875L414.64172 598.57647L408.52745125 607.47905125L408.15525 612.96713L409.8450775 614.91331L415.76789 614.58891L428.5 613.70344L433.71233125 613.9612275L434.80714 616.23029L430.60578 627.23029L425.215689688 639.174577031L420.75682 653.09245625L415.38146 684.05442L415.206496875 692.279342656L416.43439 696.48329875L419.127603125 696.737302969L423.3486 693.11237L429.21690375 684.47578375L435.02166 670.57647L437.87870125 660.3882225L439.04846 645.07647L441.16539375 620.3265675L446.12983 591.07647L460.33023 530.92974L462.75404 522.28301L455.12702 521.14009L416.13354875 516.01998125L387.5 514.67409L369.09063625 514.9512925L358.74642 516.39548L341.967784531 522.872436719L329.80214875 532.50691875L325.886188848 538.011231074L323.647858594 543.708523906L323.26195123 549.399996973L324.90326 554.88685L327.7838275 558.976847344L331.7412825 561.65598125L344.5 563.48982L361.384078281 560.785155156L378.70440625 553.78497875L394.137811094 543.701040469L405.36112 531.74509L407.92105 527.91372L408.71052 530.74509L409.5 543.60008L409.00252875 553.1108075L406.22589 560.27177L397.588771875 571.674304062L384.5635275 580.75376L368.180229375 586.974238437L349.46895 589.79984L334.251195 589.31082375L322.60383 585.48823L312.711871094 578.264476094L306.59079875 568.75449625L304.544257031 557.721988281L306.87589 545.93065L311.07409957 537.191401387L316.603663438 529.133860469L331.4802 515.19060625L351.152191563 504.354296406L375.26633 496.87834L387.97045125 495.02550375L410.5 494.67008L439.05795125 495.69762L467.52051 500.60668L470.26963625 500.57909125L471.82813 497.67523L475.81943 489.827770312L481.4158425 482.5378325L487.37390875 477.167838437L492.45017 475.08021L497.986024531 477.104692031L502.69367375 482.63082375L506.107443594 490.869358594L507.76166 501.03105L508.26355 509.83334L520.38177 512.42933L543.28496375 516.8178625L560.5 518.71509L570.5 519.3081L573.95554 511.50574L584.6050225 493.03272L598.1056225 478.134155L613.22486875 467.8926625L621.006336953 464.856636406L628.73029 463.39086L640.2395525 464.37182L644.283499375 466.408689375L647.08092 469.44151L648.84020875 476.1759925L645.89948 484.96171L638.253107969 495.607830312L626.66590875 506.1199575L612.711272656 515.285913437L597.96259 521.89352L592.5 523.73329L590.76343 531.15488L570.081165 622.184595L563.0 660.15766L564.08480375 666.048585L567.23612 668.07647L570.748372813 666.302459375L575.48657 661.720775L584.66948 648.57647L590.95964125 633.45978625L594.0 621.52485L594.874737656 619.244773281L596.93618625 620.92170125L601.24263 631.49731L601.290205469 643.83339875L597.04184375 656.2492575L589.314627656 667.1537575L578.92564 674.95577L569.995399219 678.099154688L561.20382125 678.81613L553.308435156 677.149792812L547.06677 673.14324L543.31248 669.38895L540.59711 673.68104L532.057977188 682.920221406L521.8949725 687.35570625L511.340104062 686.759202969L501.62538 680.90242L497.27363625 677.1594625L495.62403 677.81425L486.65824 687.77870625L475.27211 696.26327L469.0704925 698.7780925L463.54902 698.17485L453.94337375 693.21621125L446.46271 683.76202L443.63572 678.36253L439.28838 687.07136L431.944352031 698.611095625L423.75717125 706.0026225L415.275962344 708.906760625L407.04985 706.98433L400.514509219 700.416362812L396.92942375 690.10055L396.404988906 676.674667187L399.0516 660.77649L405.5464775 643.702415L414.02167 627.32647L416.1964 624.07647L411.79747 624.07647L407.695475 624.71801875L405.14577 628.71332L400.39215 636.62899L392.90943875 643.20152375L383.70517 648.20319L379.91034 649.51067L380.54925 654.62438L379.926115469 668.835667656L375.30396875 684.23500125L367.431785156 699.013374219L357.05854 711.36178L347.859753125 718.318020625L338.70573 722.2633525L329.940296875 723.105908125L321.90728 720.75382L321.90728 720.75382M343.95341 707.10024L349.649201094 702.632113125L355.14103625 695.2613325L364.88447 672.84033L368.62833 656.16566L369.2732 649.22712L365.28764 648.15392L358.984785781 645.524031875L354.16456625 641.575385L351.083973594 636.598308125L350.0 630.88313L350.5127275 626.44861L352.57347 623.41209L355.3153225 621.44986625L358.58297 621.39622L364.9393 624.03324L368.22246375 625.1064725L369.64007 619.6858L368.91853875 613.14392125L365.01094 609.57994L359.443891562 609.991166641L353.48452375 614.152710625L347.451256563 621.443469297L341.66251 631.24234L332.09225875 655.880006875L328.947594063 669.476597734L327.32113 683.09689L327.781222813 696.544851563L330.82746 705.2024375L336.278602187 708.808087188L343.95341 707.10024L343.95341 707.10024M480.0 680.32444L488.3569 668.81947L490.65474375 663.0318325L490.1069 656.76892L489.13316875 643.03321375L491.42199 628.78516L499.770767031 606.232723125L511.92291875 587.3770025L526.764516094 573.566025625L534.845754043 568.973574687L543.18163 566.14782L550.173385 565.6635825L556.18285 567.21657L557.378729063 567.644311563L558.371765 566.0262425L562.47591 548.57647L566.54582 530.94292L563.7931975 529.59388375L547.28043 529.44292L516.40382 528.78248L505.30763 527.9885L504.12362 535.28248L497.8064725 563.145345L488.04258 596.07647L475.717775 628.98011625L463.1605 654.46099L457.04714 664.94088L458.96776 672.4504L462.49654 683.06979L465.558196406 686.630603594L469.54235375 687.35271125L474.379469219 685.247020781L480.0 680.32444L480.0 680.32444M528.06938 671.54059L534.0054675 665.7978L539.03407 656.25587L547.61039 615.35353L544.57359 616.04849L537.0 616.58151L541.90011 610.00557L548.19248625 600.7324725L552.613215 591.3222075L554.68682625 583.06804125L553.93785 577.26324L551.9293375 575.0727L548.46815 574.30407L540.855034688 576.462802656L533.3846275 583.82230625L526.239019063 596.137466719L519.6003 613.16317L513.072062656 640.093210469L512.54153125 660.41266375L514.41570166 667.33723123L517.657654219 671.701725156L522.22350748 673.203669941L528.06938 671.54059L528.06938 671.54059M466.8611 616.07647L483.5900525 561.939655L491.92976 526.72222L487.74298 525.6625L485.078243438 525.365889844L483.056735 527.77773875L475.38033 553.05168L462.6810825 604.38914125L457.086 638.20481L458.02952375 637.433815938L460.3167325 632.7111225L466.8611 616.07647L466.8611 616.07647M607.68545 507.91653L617.570453437 501.914429844L625.613485 494.75186875L631.021136563 487.291405781L633.0 480.3956L631.0304725 474.95472625L626.50298 471.66657L620.901913594 472.236501875L614.51756125 475.9058125L608.312670781 481.932976875L603.24999 489.57647L595.0 512.33145L597.88047375 512.29165125L607.68545 507.91653L607.68545 507.91653M497.30663 501.39447L496.74301625 494.3032425L492.91784 499.44984L491.1295375 504.6365075L492.75 506.38714L496.182745 506.346635L497.30663 501.39447L497.30663 501.39447M216.76939 554.01833L209.436404062 548.449206875L203.769185 540.387095L199.791528437 529.877815625L197.52723 516.96719L196.87095 510.3579L191.71308 507.96719L181.10951375 502.055304687L171.682465 494.8511375L163.98463125 486.845576562L158.56871 478.52951L156.12652625 472.029035L155.19683 463.83572L155.2519775 455.6222375L157.41821 449.65412L163.743933437 441.122436719L173.170095 434.90893875L185.564059062 431.074701406L200.79319 429.6808L212.08638 429.57647L214.71295 421.07647L239.85219 352.38678L241.92327 347.19709L235.51565 351.67633L222.033927031 359.390546875L204.82197125 366.480655L184.702942344 372.654188125L162.5 377.61868L135.387055 385.1973125L125.28568625 390.282093437L117.38628 396.27246L112.00818125 402.77061125L108.31648 412.07647L107.203785156 412.4830325L105.35978125 410.7129975L101.92642 403.81052L101.138735578 396.467576406L102.662086625 389.05741875L106.447799359 381.715299219L112.4472 374.57647L121.861874375 366.888127812L132.710365 361.8139875L146.890363125 358.735938437L166.29956 357.03587L202.0014175 353.0065825L215.641030625 349.382424687L227.95266 344.38158L240.10363375 336.25095L246.51938 327.98823L247.70561 325.5472925L251.17946 325.07647L255.10370625 325.76513375L258.72733 328.6038L262.25465 332.13112L261.75098 342.8538L260.20296 355.32213125L253.6978 376.07647L243.57267625 409.52343625L238.73416 431.54437L238.5 435.25504L247.19818 439.02995L263.63112875 447.71442625L278.88357 459.09612L287.38633 464.85935L292.41144 430.07647L303.13763375 364.30511125L314.56069 318.97477L319.990681875 304.196136719L325.382915 294.12740875L331.102875625 288.243911406L337.51605 286.02097L342.797005 286.5847875L340.8443 294.18377L335.02338125 314.19113875L329.61155 339.07647L324.6230725 371.3682325L319.49436 429.57647L315.618115781 466.530797656L310.49718375 493.20723875L303.504092344 511.958840469L294.01137 525.13865L285.8941325 531.38801375L280.37872 532.78853L281.02942 521.73188L281.161366875 505.356980156L277.915685 490.40006875L271.334940625 476.984052969L261.4617 465.23184L246.45594375 453.9586425L235.88169 448.82004L231.78447 482.07647L231.5 487.57647L239.0 487.40823L250.75 485.77519L254.32349625 484.80341625L254.99921 485.94344L251.50628875 494.76204125L244.85565 504.61724L235.79015 511.68281L231.0 514.11016L231.0 521.68605L232.12964 541.16053L232.0072 554.5678L225.4320775 556.0320975L216.76939 554.01833L216.76939 554.01833M201.95705 469.78522L208.61653 441.82647L207.89186375 440.371375L202.27749 440.07647L189.74129 441.61959375L179.71648 445.65679L173.952554844 452.281923125L174.21331125 459.997035L180.217157031 468.091489375L191.6825 475.85465L199.72707 479.68274L201.95705 469.78522L201.95705 469.78522M347.83625 487.74008L342.420324551 484.813659355L337.702890156 480.460834219L330.67547625 468.30746125L327.377971719 452.942942656L328.43434 436.03026L334.7314625 415.944493438L344.6786025 397.5835525L357.14502625 382.628200313L371.0 372.7592L379.516167812 369.381981719L386.567895 368.17935375L392.478789687 369.145408906L397.57246 372.27424L403.105322969 379.478008125L405.43119625 388.367945L404.527481406 398.639576875L400.37158 409.98843L393.331461875 420.349591719L383.4469275 429.32156875L371.594389375 436.262761406L358.65026 440.53157L351.2772 442.46594L350.24934 451.83804L351.1286125 465.3402325L355.08218 473.65046L359.671753145 475.55619791L365.688403906 474.737992656L372.709918027 471.531879512L380.31408125 466.27389375L395.581497969 450.946445469L408.11294 431.44393L411.56715 422.773705L413.05153 411.94393L417.414478906 378.836162812L424.36720875 344.86697L432.913724219 314.190539687L442.05803 290.96106L450.417741562 278.203768125L458.7443125 272.6375025L462.730979414 272.589943594L466.512332187 274.386868125L473.19639 283.57647L475.11982 290.1123225L475.45202 303.07647L473.15668 329.57647L466.193449531 360.92031875L457.59684375 389.539995L447.506791094 415.03031125L436.06322 436.98608L431.0 447.42036L433.4195475 454.279335L438.05275 459.60375L443.164365 460.92750625L449.81438 458.48168L455.722693437 454.304218125L461.05352 447.97306L469.82834 429.07647L473.2189725 416.35661125L475.62571 399.57647L483.209855 355.7680975L496.03434 304.91325L502.724352813 284.236568594L509.4768425 268.45018625L516.299580937 257.538820781L523.20034 251.48719L527.804078926 250.189575488L532.055817656 251.085312656L535.827867871 253.932823809L538.99254125 258.49053125L542.989004219 271.770224219L543.0237 288.99177L535.979347031 326.213547344L524.53731375 365.54548625L510.524946094 401.577299531L495.76959 428.8987L493.4813725 433.10132L493.48622 436.8987L495.340062813 442.445730625L498.418875 446.3556725L502.504442188 448.445773125L507.37855 448.53328L513.387253125 446.078035156L519.1873175 441.16276875L524.514780625 434.072275469L529.10568 425.09135L531.66012125 417.579855L532.09072 409.97398L533.872751719 393.043539844L539.47011875 375.44666375L548.230106406 358.742735781L559.5 344.49114L567.6247175 337.1415325L576.1219 332.11934L584.2543 328.66389875L590.72818 327.87647L599.055219531 329.369346406L605.09384875 333.78240875L608.762108594 341.017306719L609.97804 350.97569L608.03262 361.81376L606.10917 366.05105L608.30458 364.59508L614.034782344 358.644568281L619.73070875 348.99644875L624.752930781 336.945267344L628.46202 323.78557L630.21535125 321.86515625L633.59301 327.44901L635.588853594 333.573547969L636.14046625 340.05712875L632.94236 352.8759L625.00378875 363.28432625L613.3633 371.36578L607.22659 374.394L606.78109 386.98523L605.89516 398.6896125L603.61003 407.57647L594.611976719 425.923399375L582.39683125 439.9117975L575.606948652 444.823825469L568.641712656 448.108954375L561.710763145 449.588095469L555.02374 449.08216L546.231345 444.44624875L539.07155 435.87811L536.23808 430.91689L532.93501 436.74668L523.37893375 448.6305425L511.79038 457.32647L501.73099375 460.0307975L492.3151 459.01514L485.46937 453.96071625L479.59498 444.89632L476.45539 438.21618L472.16335 446.59818L463.1450875 459.263014375L451.8620875 468.02645L439.99142125 471.968218125L434.359798047 471.843392891L429.21016 470.16805L424.093621562 466.454300156L419.738095 461.08104875L413.95765 446.36658L412.87486 441.15669L405.73269 451.86658L389.31778625 471.85375625L380.642623594 479.825030781L373.02535 485.05812L366.35026125 487.85378125L359.02535 488.77097L347.83625 487.74008L347.83625 487.74008M571.61592 433.45444L577.605815937 428.735383906L583.895395 420.63070875L589.754084062 410.251971719L594.45131 398.71073L596.60695 388.16300625L596.57949 378.93316L594.92323625 375.63940875L589.69819 372.57647L584.34541375 369.3632325L581.26645 365.57647L579.1013275 357.69009125L580.98904 350.32647L583.277445 347.68873375L586.58093 347.07647L593.1532 349.18556L596.67484 350.73496L597.74511 345.64546L596.6327775 338.46495125L594.429231563 336.673119531L591.12483 336.07647L583.92204 338.35003L574.230775938 349.33972L565.4028275 367.138465L558.675085313 388.622725L555.28444 410.66896L555.714784688 423.308602187L558.7026425 431.4903025L564.064269062 434.957701562L571.61592 433.45444L571.61592 433.45444M362.84166 427.46808L371.281024687 421.725577812L379.374285 413.5050625L386.208745312 403.896615937L390.87171 393.99032L392.96688125 382.464935L391.878667969 378.994964375L389.36404 377.02478L384.183465 376.835621563L378.4830725 379.7255675L372.64241125 385.412552188L367.04103 393.61451L358.95622125 412.27193875L354.00438 428.32647L356.12012625 429.9669525L362.84166 427.46808L362.84166 427.46808M435.27613 410.77238L449.1312725 370.11952L461.60286 322.08957L465.84826875 296.50939L465.398482031 291.577348125L463.20981 292.32647L454.05202375 315.94676875L442.07432 357.83925L433.39645375 398.75941L431.023952656 414.026084062L431.08596 419.52335L435.27613 410.77238L435.27613 410.77238M498.36694 396.40754L511.359235937 359.275087344L523.5140575 317.42025125L531.544565313 283.226292031L532.986064258 272.871910098L532.16392 269.07647L529.466643145 272.309295684L525.481106406 281.187681094L515.18744125 310.96058125L504.367300469 348.554070781L496.10506 384.12705L493.53796125 400.7049975L493.31747 408.03894L498.36694 396.40754L498.36694 396.40754"
       style="fill:#000000" />
  </g>
</svg>
