<?xml version="1.0" encoding="UTF-8" standalone="no"?>
<!-- Created with Inkscape (http://www.inkscape.org/) -->

<svg
   xmlns:dc="http://purl.org/dc/elements/1.1/"
   xmlns:cc="http://creativecommons.org/ns#"
   xmlns:rdf="http://www.w3.org/1999/02/22-rdf-syntax-ns#"
   xmlns:svg="http://www.w3.org/2000/svg"
   xmlns="http://www.w3.org/2000/svg"
   xmlns:sodipodi="http://sodipodi.sourceforge.net/DTD/sodipodi-0.dtd"
   xmlns:inkscape="http://www.inkscape.org/namespaces/inkscape"
   width="744.09448819"
   height="1052.3622047"
   id="svg2"
   version="1.1"
   inkscape:version="0.48.3.1 r9886"
   sodipodi:docname="notes_splines.svg">
  <sodipodi:namedview
     id="base"
     pagecolor="#ffffff"
     bordercolor="#666666"
     borderopacity="1.0"
     inkscape:pageopacity="0.0"
     inkscape:pageshadow="2"
     inkscape:zoom="0.97110203"
     inkscape:cx="307.01882"
     inkscape:cy="719.93789"
     inkscape:document-units="px"
     inkscape:current-layer="layer1"
     showgrid="false"
     inkscape:window-width="1399"
     inkscape:window-height="921"
     inkscape:window-x="65"
     inkscape:window-y="100"
     inkscape:window-maximized="0" />
  <defs
     id="defs4" />
  <metadata
     id="metadata7">
    <rdf:RDF>
      <cc:Work
         rdf:about="">
        <dc:format>image/svg+xml</dc:format>
        <dc:type
           rdf:resource="http://purl.org/dc/dcmitype/StillImage" />
        <dc:title></dc:title>
      </cc:Work>
    </rdf:RDF>
  </metadata>
  <g
     id="layer1"
     inkscape:groupmode="layer"
     inkscape:label="Layer 1">
    <path
       sodipodi:nodetypes="sscssssssssssssssssscsssssssssscsssssssssssscssssscsssscsscsssssscccc"
       inkscape:connector-curvature="0"
       id="path3007"
       d="M582.49999 443.74253L566.04816 436.75489L560.09634 434.07944L555.04816 436.07259L526.0237275 441.83737L496.49999 437.52722L479.722609375 429.659519844L465.7237875 418.46469125L455.252309375 404.706297031L449.05696 389.1479L448.830440156 364.413661719L458.92938125 342.03441875L477.771396719 324.208446406L503.7741 313.13402L522.7234825 311.18142L541.64285 312.59062L560.700131875 319.141305312L576.94296 329.7693975L589.556133125 343.778868437L597.72445 360.47369L599.696295 374.7921975L598.57208 389.6479L587.28846 412.37434L584.84478 417.07807L591.03266 431.59849L595.72164375 444.06458375L593.92855 447.79179L582.49999 443.74253L582.49999 443.74253M528.99999 418.88221L537.62201375 412.4719725L542.51443 405.09755L542.46483 331.08216L538.8555875 329.19166125L534.32875 330.80289L532.49999 361.63516L532.49999 390.81245L527.1415 390.36808L514.903967344 392.049603281L505.21620125 397.99251125L500.010062031 406.342853594L501.21741 415.24668L505.902060938 419.617428438L512.81742 421.774925L528.99999 418.88221L528.99999 418.88221M184.74999 377.61356L183.1516325 370.08781125L192.50989 346.12504L204.13707 319.8291L205.03298 317.32542L197.04204125 308.83124875L185.60663 289.14536L176.6908175 261.44909375L175.42664 233.4596L181.96913 204.56753L183.66675 200.1479L191.75692 184.6479L216.3889025 155.47348L249.69297 133.77164L278.230386562 123.172378594L307.9278 118.11398875L338.209553437 118.639969531L368.49999 124.79382L390.072270469 133.074023438L409.94599125 144.3645075L427.441531406 158.208167813L441.87927 174.1479L459.89299125 207.002465L464.209455469 224.26015875L465.59859 242.6479L460.71185125 275.82099375L445.25942 306.84509L429.94040375 324.69147875L417.87914 334.7399L416.95244 335.07096L400.31649375 347.05043875L375.56374 358.52975L371.27169 359.96205L336.04018 366.7828275L296.99999 366.29649L260.2974 356.56504L251.5948 353.085L245.2974 355.94038L238.49999 358.85395L234.49999 360.38603L198.49999 375.60465L189.62118875 378.583555L184.74999 377.61356L184.74999 377.61356M318.55751 327.63299L328.70186 324.27569L333.49999 322.51147L349.15675 309.05859L353.848984531 302.921476719L356.15990625 292.99648375L356.99999 226.31156L356.99999 157.97521L354.13489 155.51051L345.95841 153.33705L341.03363 154.01488L339.96011 157.22502L338.49999 216.09824L337.69999 272.1479L335.79527 271.04318L311.49999 270.47606L292.02183875 278.8473575L278.49196 291.66089L275.27725375 305.20397L278.41246 318.02492L284.61739 323.58168L300.1286075 328.83845875L318.55755 327.63299L318.55751 327.63299"
       style="fill:#000000" />
  </g>
</svg>
