<?xml version="1.0" encoding="UTF-8" standalone="no"?>
<!-- Created with Inkscape (http://www.inkscape.org/) -->

<svg
   xmlns:dc="http://purl.org/dc/elements/1.1/"
   xmlns:cc="http://creativecommons.org/ns#"
   xmlns:rdf="http://www.w3.org/1999/02/22-rdf-syntax-ns#"
   xmlns:svg="http://www.w3.org/2000/svg"
   xmlns="http://www.w3.org/2000/svg"
   xmlns:sodipodi="http://sodipodi.sourceforge.net/DTD/sodipodi-0.dtd"
   xmlns:inkscape="http://www.inkscape.org/namespaces/inkscape"
   inkscape:version="0.91 r13725"
   version="1.1"
   id="svg2"
   viewBox="0 0 744.09448819 1052.3622047"
   height="297mm"
   width="210mm"
   sodipodi:docname="drawing.svg">
  <sodipodi:namedview
     inkscape:window-maximized="1"
     inkscape:window-y="-8"
     inkscape:window-x="2552"
     inkscape:window-height="1537"
     inkscape:window-width="2560"
     showgrid="false"
     inkscape:current-layer="layer1"
     inkscape:document-units="px"
     inkscape:cy="507.23917"
     inkscape:cx="681.78656"
     inkscape:zoom="1.4"
     inkscape:pageshadow="2"
     inkscape:pageopacity="0.0"
     borderopacity="1.0"
     bordercolor="#666666"
     pagecolor="#ffffff"
     id="base" />
  <defs
     id="defs4" />
  <metadata
     id="metadata7">
    <rdf:RDF>
      <cc:Work
         rdf:about="">
        <dc:format>image/svg+xml</dc:format>
        <dc:type
           rdf:resource="http://purl.org/dc/dcmitype/StillImage" />
        <dc:title></dc:title>
      </cc:Work>
    </rdf:RDF>
  </metadata>
  <g
     id="layer1"
     inkscape:groupmode="layer"
     inkscape:label="Layer 1">
    <g
       style="fill:#040302;stroke:none"
       transform="matrix(0.1,0,0,0.1,104.77642,196.9877)"
       id="g3338">
      <path
         inkscape:connector-curvature="0"
         d="M2710.0 5861.0L2715.875 5822.625L2730.0 5770.0L2744.125 5713.125L2750.0 5663.0L2747.890625 5640.46679688L2742.125 5613.984375L2723.0 5557.375L2699.375 5509.578125L2687.984375 5494.11132813L2678.0 5487.0L2666.171875 5475.171875L2647.125 5446.375L2596.0 5351.0L2557.625 5276.140625L2534.25 5237.375L2525.4921875 5227.92382813L2517.25 5223.171875L2498.0 5222.0L2478.96875 5221.96875L2464.25 5212.75L2447.65625 5187.40625L2423.0 5139.0L2373.125 5055.375L2315.0 4974.0L2217.0 4853.0L2185.0 4812.0L2115.0 4817.0L2061.125 4825.0L2029.0 4836.0L2011.671875 4846.734375L1993.125 4849.125L1974.015625 4843.453125L1955.0 4830.0L1921.234375 4804.78125L1881.375 4783.5L1846.578125 4771.21875L1834.56445313 4770.03515625L1828.0 4773.0L1822.953125 4777.84375L1816.125 4778.75L1793.0 4768.0L1776.8125 4759.28125L1763.25 4757.5L1746.3125 4763.21875L1720.0 4777.0L1667.0 4810.0L1667.515625 4816.8125L1675.625 4830.0L1709.0 4868.0L1736.796875 4897.078125L1752.125 4918.375L1758.640625 4938.734375L1760.0 4965.0L1763.25 5003.625L1771.0 5031.0L1779.75 5065.375L1787.0 5120.0L1789.296875 5156.328125L1788.125 5181.875L1782.640625 5201.984375L1772.0 5222.0L1755.5 5257.0L1745.0 5295.0L1734.375 5329.125L1720.0 5355.0L1705.25 5376.875L1695.0 5401.0L1689.453125 5415.71875L1675.375 5424.25L1643.109375 5429.40625L1583.0 5434.0L1446.21875 5439.15625L1352.0 5436.25L1319.97265625 5431.59765625L1297.53125 5424.71875L1284.32421875 5415.54296875L1280.0 5404.0L1287.25 5383.875L1305.0 5354.0L1323.84375 5321.28125L1338.0 5285.75L1346.90625 5249.09375L1350.0 5213.0L1346.43945313 5195.7890625L1336.328125 5174.125L1299.875 5121.75L1247.484375 5064.5L1186.0 5011.0L1158.5 4988.296875L1139.25 4968.125L1126.375 4948.140625L1118.0 4926.0L1108.25 4874.140625L1106.0 4819.375L1111.25 4768.921875L1116.6875 4747.56835938L1124.0 4730.0L1154.0 4673.0L1186.0 4628.125L1248.0 4551.0L1305.875 4475.5L1323.515625 4449.46875L1330.0 4436.0L1334.96875 4414.4375L1351.0 4387.25L1379.78125 4352.1875L1423.0 4307.0L1454.90625 4274.28125L1475.0 4250.0L1484.59375 4232.46875L1485.0 4220.0L1484.0 4205.25L1489.0 4195.0L1497.29296875 4185.96679688L1507.90625 4168.859375L1531.5 4120.875L1550.59375 4071.953125L1555.58203125 4053.67382813L1556.0 4043.0L1557.34375 4028.53125L1567.5 4011.25L1582.15625 3996.59375L1597.0 3990.0L1615.0 3978.0L1648.0 3951.0L1670.59375 3928.875L1683.25 3911.25L1688.78125 3892.5L1690.0 3867.0L1686.875 3832.75L1680.0 3815.0L1671.515625 3805.53125L1672.17773438 3799.70703125L1676.625 3792.5L1698.421875 3771.96875L1740.0 3740.0L1789.625 3700.625L1810.0 3680.0L1821.3125 3661.171875L1854.75 3618.625L1985.0 3465.0L2034.0 3408.0L1990.0 3369.0L1950.25 3336.625L1918.0 3314.0L1898.0 3300.125L1890.0 3287.0L1884.0546875 3276.55078125L1867.5625 3257.03125L1811.0 3198.75L1736.4375 3128.09375L1660.0 3061.0L1633.546875 3037.125L1618.625 3020.0L1612.890625 3005.875L1614.0 2991.0L1624.3125 2943.578125L1628.25 2912.375L1625.8125 2895.234375L1622.203125 2891.26367188L1617.0 2890.0L1601.875 2897.125L1586.0 2914.0L1526.0 2993.0L1501.625 3024.09375L1490.0 3043.75L1488.875 3058.53125L1496.0 3075.0L1506.84375 3102.09375L1509.25 3127.5L1503.03125 3152.90625L1488.0 3180.0L1457.140625 3214.1875L1415.875 3246.5L1373.671875 3270.5625L1355.17773438 3277.5078125L1340.0 3280.0L1309.609375 3275.5625L1276.875 3264.75L1250.703125 3251.3125L1242.86132813 3244.78125L1240.0 3239.0L1232.25 3222.125L1214.0 3197.0L1200.296875 3178.375L1192.875 3160.5L1190.515625 3137.375L1192.0 3103.0L1199.09375 3055.828125L1205.74609375 3037.16992188L1215.0 3021.125L1227.25390625 3007.18945313L1242.90625 2994.859375L1286.0 2973.0L1308.109375 2962.75L1323.375 2951.75L1333.953125 2938.125L1342.0 2920.0L1357.5 2883.625L1379.0 2845.0L1392.21875 2820.765625L1400.0 2795.125L1404.03125 2759.921875L1406.0 2707.0L1410.25 2628.125L1415.0 2605.609375L1422.0 2592.0L1438.125 2566.375L1455.0 2528.0L1471.625 2491.0L1486.0 2469.0L1494.0 2453.125L1493.0 2429.0L1491.796875 2413.359375L1494.625 2398.375L1502.140625 2382.453125L1515.0 2364.0L1542.0 2328.0L1512.0 2287.0L1490.171875 2253.453125L1476.875 2220.375L1467.140625 2169.859375L1456.0 2084.0L1447.5 2003.171875L1446.5 1953.375L1449.046875 1937.62304688L1453.75 1926.640625L1460.703125 1919.43164063L1470.0 1915.0L1504.109375 1913.8125L1556.875 1920.5L1612.453125 1932.4375L1655.0 1947.0L1679.40625 1961.046875L1685.76171875 1967.75976563L1688.25 1974.625L1686.89453125 1981.91210938L1681.71875 1989.890625L1660.0 2009.0L1630.0 2031.0L1671.0 2091.0L1702.5 2132.625L1714.59375 2144.578125L1722.0 2148.0L1736.5 2126.375L1757.0 2080.0L1768.125 2046.96875L1774.75 2018.25L1777.25 1991.40625L1776.0 1964.0L1774.203125 1929.734375L1777.375 1908.125L1787.109375 1894.953125L1805.0 1886.0L1812.28125 1880.734375L1807.0 1872.375L1749.0 1837.0L1687.625 1800.75L1645.0 1772.0L1601.0 1744.875L1536.0 1711.0L1467.625 1675.125L1418.0 1643.0L1390.30859375 1625.42382813L1353.03125 1608.515625L1309.61328125 1593.13085938L1263.5 1580.125L1218.13671875 1570.35351563L1176.96875 1564.671875L1143.44140625 1563.93554688L1121.0 1569.0L1109.703125 1574.296875L1103.375 1574.625L1100.609375 1569.140625L1100.0 1557.0L1101.12695313 1543.99414063L1105.828125 1531.703125L1116.08398438 1518.59179688L1133.875 1503.125L1199.984375 1458.984375L1320.0 1387.0L1387.75 1350.75L1445.0 1325.0L1506.0 1299.0L1558.875 1280.75L1671.0 1249.0L1825.0 1207.0L2052.0 1202.0L2280.0 1198.0L2343.0 1111.0L2437.5 976.0L2535.0 820.0L2590.625 733.5L2698.0 581.0L2743.0 518.0L2754.0 505.25L2765.0 500.0L2786.125 480.5L2823.0 434.0L2862.25 386.125L2888.0 363.0L2906.125 353.75L2925.0 340.0L2983.0625 296.984375L3070.0 239.625L3158.4375 185.453125L3221.0 152.0L3271.28125 133.65625L3287.41015625 131.85546875L3298.5 135.75L3305.27734375 145.92578125L3308.46875 162.96875L3307.0 220.0L3294.578125 294.390625L3272.125 380.125L3246.109375 455.546875L3233.78710938 482.623046875L3223.0 499.0L3203.125 527.75L3175.0 579.0L3134.625 649.75L3083.0 725.0L3003.625 838.625L2871.0 1049.0L2818.0 1133.0L2934.0 1126.0L3031.875 1123.625L3058.734375 1126.984375L3078.0 1134.0L3103.625 1142.375L3114.140625 1141.734375L3124.0 1138.0L3147.80859375 1134.69335938L3198.40625 1132.921875L3345.0 1133.375L3493.84375 1138.140625L3547.25390625 1141.75976563L3575.0 1146.0L3613.0 1176.9375L3678.0 1241.25L3748.25 1316.4375L3802.0 1380.0L3904.0 1525.0L4006.0 1666.0L4032.0 1704.625L4049.0 1741.0L4054.734375 1756.78125L4056.40039063 1759.24609375L4057.375 1757.75L4056.0 1707.0L4055.875 1659.625L4057.828125 1645.265625L4061.0 1640.0L4072.125 1649.75L4087.0 1673.0L4096.5625 1699.65625L4102.0 1751.25L4105.0 2020.0L4101.75 2287.0L4096.5625 2350.75L4088.0 2392.0L4069.78125 2438.328125L4044.25 2481.375L4014.59375 2516.734375L3984.0 2540.0L3956.0 2563.125L3922.0 2599.0L3860.9375 2666.890625L3792.0 2731.875L3726.8125 2783.921875L3699.2578125 2801.95898438L3677.0 2813.0L3666.125 2820.75L3665.0 2830.0L3670.8359375 2834.265625L3681.3125 2837.3125L3710.0 2839.75L3738.6875 2837.3125L3749.1640625 2834.265625L3755.0 2830.0L3766.671875 2820.984375L3781.625 2820.125L3794.515625 2826.203125L3798.51757813 2831.46289063L3800.0 2838.0L3792.53125 2860.40625L3774.0 2892.0L3750.21875 2924.34375L3727.0 2949.0L3715.125 2960.625L3710.0 2970.0L3752.5 2996.625L3855.0 3051.0L3957.5 3106.875L3988.59375 3127.078125L4000.0 3138.0L4006.859375 3154.46875L4023.375 3170.75L4043.453125 3182.15625L4061.0 3184.0L4069.890625 3184.5L4078.875 3191.0L4099.0 3225.0L4113.65625 3257.84375L4118.75 3277.75L4114.46875 3290.53125L4101.0 3302.0L4091.359375 3314.25L4081.625 3337.0L4060.0 3420.0L4040.625 3501.5L4025.0 3550.0L3990.0 3645.0L3970.125 3701.875L3954.0 3740.0L3914.125 3833.0L3897.046875 3880.625L3890.0 3908.0L3886.125 3923.875L3877.0 3939.0L3854.875 3984.25L3820.0 4070.0L3754.0 4239.0L3737.125 4281.625L3730.0 4310.0L3726.66601563 4320.79101563L3717.578125 4333.703125L3687.625 4361.625L3651.109375 4385.234375L3633.81835938 4392.75585938L3619.0 4396.0L3591.0 4403.25L3563.0 4418.0L3528.609375 4439.1875L3480.4375 4464.875L3357.75 4523.0L3224.9375 4578.875L3112.0 4619.0L3039.0 4641.0L3011.0 4613.0L2988.625 4587.125L2973.0 4565.0L2961.82421875 4533.00585938L2949.78125 4479.671875L2926.0 4330.875L2907.46875 4162.390625L2901.98828125 4084.44726563L2900.0 4018.0L2898.0 3969.75L2893.0 3950.0L2881.3359375 3955.93359375L2860.25 3971.96875L2801.25 4023.75L2738.875 4084.15625L2696.0 4132.0L2653.0 4182.0L2640.0 4198.875L2621.0 4236.0L2604.875 4281.0L2603.421875 4297.3125L2606.0 4311.0L2612.375 4351.375L2615.0 4415.0L2616.234375 4460.6875L2621.875 4496.25L2634.828125 4533.6875L2658.0 4585.0L2689.5 4658.125L2696.25 4682.734375L2697.0 4699.0L2696.5625 4715.49804688L2700.625 4735.359375L2718.5 4778.375L2743.125 4814.453125L2755.625 4825.64257813L2767.0 4830.0L2780.65625 4832.375L2790.0 4842.25L2797.09375 4863.75L2804.0 4901.0L2812.65625 4927.171875L2832.0 4954.375L2865.59375 4986.640625L2917.0 5028.0L2949.25 5050.75L2968.0 5060.0L2982.421875 5066.921875L2998.625 5087.625L3016.515625 5122.015625L3036.0 5170.0L3058.625 5228.75L3076.0 5265.0L3088.5 5295.375L3101.0 5340.0L3107.8125 5365.984375L3116.5 5387.375L3127.4375 5404.828125L3141.0 5419.0L3155.234375 5433.234375L3164.125 5447.375L3168.703125 5463.578125L3170.0 5484.0L3173.375 5536.875L3182.0 5610.0L3193.0 5698.0L3161.0 5748.0L3134.25 5787.25L3115.0 5810.0L3106.875 5822.25L3107.0 5836.0L3107.09375 5842.828125L3100.25 5847.125L3059.0 5850.0L2998.625 5855.875L2930.0 5870.0L2855.75 5884.125L2783.0 5890.0L2710.0 5890.0L2710.0 5861.0L2710.0 5861.0M2935.0 5800.0L2981.125 5785.875L3010.0 5780.0L3026.125 5775.5L3040.0 5765.0L3045.0 5756.453125L3042.5 5749.125L3031.0 5741.234375L3009.0 5731.0L2963.0 5715.0L2914.0 5705.0L2863.0 5698.0L2848.0 5759.0L2832.0 5820.0L2855.0 5820.0L2887.5 5814.125L2935.0 5800.0L2935.0 5800.0M3103.0 5678.0L3112.37890625 5661.41992188L3118.78125 5641.359375L3122.23046875 5618.46289063L3122.75 5593.375L3115.09375 5539.203125L3096.0 5484.0L3077.75 5440.0L3070.0 5414.0L3066.75 5404.0L3059.0 5400.0L3046.25 5386.375L3029.0 5354.0L3012.5 5323.375L3002.0 5313.0L2942.0 5340.0L2902.75 5362.25L2895.3125 5371.21875L2895.0 5380.0L2927.0 5474.0L2952.0 5552.0L2925.0 5574.0L2898.0 5595.0L2947.0 5609.0L2995.0 5622.0L2960.0 5635.0L2925.0 5648.0L2975.0 5669.0L3045.0 5700.0L3062.21875 5705.84375L3075.5 5704.75L3088.03125 5695.78125L3103.0 5678.0L3103.0 5678.0M1617.0 5350.0L1658.0 5350.0L1688.0 5223.0L1709.75 5110.25L1714.4375 5065.78125L1715.0 5029.0L1713.03125 4991.625L1708.25 4967.75L1697.84375 4950.25L1679.0 4932.0L1638.0 4899.0L1622.5 4908.625L1595.0 4937.0L1559.0 4979.0L1590.0 5046.0L1610.625 5102.0L1615.03125 5124.890625L1615.5 5144.5L1612.03125 5160.921875L1604.625 5174.25L1593.28125 5184.578125L1578.0 5192.0L1548.0 5203.0L1601.0 5229.0L1636.0625 5249.546875L1657.25 5267.375L1661.234375 5273.71679688L1660.0625 5277.515625L1653.171875 5278.15039063L1640.0 5275.0L1628.796875 5272.125L1623.125 5273.0L1622.140625 5278.375L1625.0 5289.0L1628.140625 5307.734375L1624.625 5319.625L1615.296875 5323.453125L1601.0 5318.0L1591.03125 5313.75L1581.25 5313.25L1570.34375 5316.875L1557.0 5325.0L1538.09375 5339.96875L1531.0 5351.75L1531.94140625 5355.68359375L1535.90625 5357.90625L1553.0 5356.0L1580.875 5351.875L1617.0 5350.0L1617.0 5350.0M2824.0 5335.0L2883.328125 5322.046875L2934.875 5305.625L2973.484375 5287.890625L2994.0 5271.0L2989.0 5241.625L2969.0 5183.0L2950.078125 5136.84375L2933.875 5110.0L2911.484375 5092.15625L2874.0 5073.0L2825.875 5052.75L2813.953125 5051.0625L2810.0 5055.0L2806.1875 5065.671875L2796.75 5072.875L2784.6875 5075.390625L2773.0 5072.0L2757.375 5042.125L2735.0 4980.0L2706.21875 4907.734375L2665.25 4821.875L2626.15625 4750.078125L2611.70703125 4728.09570313L2603.0 4720.0L2549.0 4745.0L2520.6875 4756.53125L2486.75 4766.0L2393.0 4781.0L2282.0 4795.0L2288.6875 4812.375L2310.0 4844.75L2334.3125 4876.0L2350.0 4890.0L2357.921875 4898.4375L2372.875 4921.5L2416.0 4998.0L2464.703125 5087.71875L2496.625 5136.0L2510.42382813 5149.34765625L2524.984375 5158.03125L2563.0 5169.0L2612.328125 5182.671875L2629.28710938 5190.46289063L2641.875 5199.625L2650.66601563 5210.70898438L2656.234375 5224.265625L2660.0 5261.0L2657.25 5295.625L2654.09375 5306.140625L2650.0 5310.0L2642.453125 5314.3125L2640.625 5324.25L2644.234375 5335.3125L2653.0 5343.0L2677.328125 5348.078125L2714.875 5348.375L2764.234375 5343.984375L2824.0 5335.0L2824.0 5335.0M1433.0 5005.0L1469.0 4996.375L1480.8125 4990.515625L1487.0 4984.0L1494.0 4974.0L1504.0 4970.0L1526.0 4955.75L1563.0 4922.0L1597.75 4880.875L1604.34375 4867.015625L1604.0 4857.0L1596.984375 4844.46875L1586.125 4841.5L1568.703125 4848.28125L1542.0 4865.0L1517.546875 4879.921875L1497.875 4888.375L1484.765625 4889.890625L1481.22851563 4887.90039063L1480.0 4884.0L1487.4375 4871.484375L1510.25 4845.375L1605.0 4749.0L1665.0 4690.0L1600.0 4631.0L1466.0 4512.75L1432.65625 4487.5625L1416.0 4480.0L1407.38671875 4483.8515625L1394.34375 4494.5L1359.75 4530.75L1321.78125 4577.875L1290.0 4625.0L1263.25 4664.375L1232.0 4703.0L1200.375 4743.25L1171.0 4785.0L1143.0 4829.0L1174.0 4894.0L1190.4375 4926.125L1205.0 4947.75L1219.5625 4961.5L1236.0 4970.0L1264.0 4983.625L1286.0 5001.0L1298.0 5012.3125L1316.75 5016.5L1356.875 5013.9375L1433.0 5005.0L1433.0 5005.0M2230.0 4730.0L2367.25 4714.625L2470.0 4694.0L2535.25 4677.125L2572.0 4670.0L2591.625 4666.875L2615.0 4660.0L2641.0 4650.0L2622.0 4622.0L2604.5 4590.5L2590.0 4553.0L2582.109375 4530.5L2574.875 4518.5L2565.953125 4514.75L2553.0 4517.0L2528.0 4523.0L2534.0 4454.0L2546.0 4339.0L2551.0 4293.0L2434.0 4286.0L2349.875 4278.734375L2271.0 4268.375L2192.125 4254.078125L2108.0 4235.0L2070.3125 4226.28125L2039.0 4224.5L1999.4375 4230.21875L1937.0 4244.0L1819.0 4270.0L1809.5703125 4266.16796875L1795.6875 4255.65625L1760.0 4220.5L1722.8125 4176.34375L1695.0 4135.0L1682.734375 4109.515625L1675.625 4088.625L1673.203125 4070.171875L1675.0 4052.0L1677.0 4025.0L1672.75 4021.34375L1664.0 4022.0L1655.59375 4025.6875L1648.5 4033.5L1639.0 4060.0L1624.125 4102.875L1598.0 4157.0L1573.625 4210.75L1573.390625 4222.8125L1580.0 4230.0L1586.875 4236.09375L1587.75 4242.0L1570.0 4260.0L1461.125 4351.0L1424.171875 4384.3125L1410.0 4400.0L1416.625 4407.75L1433.0 4417.0L1466.28125 4439.234375L1520.0 4480.125L1578.96875 4527.953125L1628.0 4571.0L1670.875 4600.875L1728.0 4630.0L1894.0 4707.0L1948.359375 4733.53125L1983.875 4747.5L2009.453125 4751.71875L2034.0 4749.0L2108.75 4740.25L2230.0 4730.0L2230.0 4730.0M3180.0 4499.0L3242.890625 4476.203125L3305.875 4445.625L3380.671875 4400.984375L3479.0 4336.0L3573.125 4267.375L3599.234375 4244.171875L3608.0 4231.0L3626.25 4171.25L3670.0 4050.0L3762.0 3805.0L3805.0 3695.0L3847.359375 3589.046875L3898.625 3445.125L3941.828125 3312.640625L3955.10351563 3266.12695313L3960.0 3241.0L3956.75 3233.25L3949.0 3230.0L3927.875 3219.625L3894.0 3195.0L3829.875 3150.65625L3742.5 3099.0L3661.125 3056.34375L3631.828125 3043.48828125L3615.0 3039.0L3528.0 3048.0L3519.46875 3053.703125L3522.75 3062.125L3536.15625 3071.484375L3558.0 3080.0L3589.875 3093.875L3615.0 3110.0L3662.5 3139.75L3749.0 3186.0L3831.546875 3230.28125L3856.80664063 3247.69921875L3873.125 3264.25L3881.80273438 3281.64453125L3884.140625 3301.59375L3881.43945313 3325.80859375L3875.0 3356.0L3845.140625 3464.453125L3798.125 3614.625L3752.796875 3748.484375L3736.65429688 3791.16210938L3728.0 3808.0L3722.5 3816.125L3720.0 3831.0L3706.375 3873.375L3674.0 3948.0L3600.0 4105.0L3573.75 4152.75L3560.34375 4170.53125L3549.0 4181.0L3461.15625 4226.65625L3333.0 4284.5L3210.09375 4334.84375L3164.84765625 4351.05078125L3138.0 4358.0L3112.296875 4359.578125L3096.625 4357.125L3086.390625 4348.859375L3077.0 4333.0L3066.9296875 4307.43359375L3055.875 4268.90625L3033.25 4166.0L3014.0 4050.34375L3003.0 3948.0L2997.0 3839.0L2972.0 3863.0L2947.0 3888.0L2964.0 4032.0L2990.0 4259.0L3004.75 4345.75L3027.0 4437.0L3054.0 4532.0L3085.0 4526.0L3180.0 4499.0L3180.0 4499.0M3603.0 4312.0L3680.0 4255.0L3706.15625 4203.8125L3746.75 4102.75L3796.71875 3965.3125L3851.0 3805.0L3948.0 3510.0L4012.0 3332.0L4027.671875 3279.015625L4029.73632813 3256.67773438L4027.875 3236.625L4022.02929688 3218.49414063L4012.140625 3201.921875L3998.15039063 3186.54492188L3980.0 3172.0L3846.625 3094.75L3770.890625 3054.71875L3726.0 3034.0L3702.625 3023.125L3677.0 3007.0L3652.125 2994.75L3643.671875 2994.90625L3637.0 2999.0L3634.875 3005.328125L3641.0 3012.875L3681.0 3035.0L3738.234375 3064.953125L3809.625 3107.375L3987.0 3224.0L3964.0 3315.0L3924.125 3448.375L3864.0 3605.0L3755.0 3914.0L3688.625 4104.625L3662.1875 4171.0625L3638.0 4222.5L3614.375 4262.125L3589.625 4293.125L3562.0625 4318.6875L3530.0 4342.0L3502.375 4362.875L3501.734375 4366.328125L3510.0 4365.0L3547.875 4346.375L3603.0 4312.0L3603.0 4312.0M3158.0 4242.0L3209.0 4070.0L3239.875 3980.75L3273.0 3899.0L3299.796875 3835.15625L3324.625 3767.75L3342.890625 3709.71875L3350.0 3674.0L3346.484375 3666.6875L3336.875 3657.5L3305.0 3638.0L3260.0 3616.0L3231.0 3645.0L3204.515625 3684.953125L3172.875 3751.625L3140.296875 3834.984375L3111.0 3925.0L3091.421875 4001.484375L3080.375 4067.375L3077.390625 4127.078125L3082.0 4185.0L3091.171875 4233.9375L3103.625 4277.25L3117.015625 4308.1875L3123.33007813 4316.90625L3129.0 4320.0L3139.75 4297.125L3158.0 4242.0L3158.0 4242.0M3235.0 4280.0L3267.0 4259.0L3290.0 4250.0L3302.93945313 4248.06054688L3315.140625 4241.609375L3327.17773438 4229.69726563L3339.625 4211.375L3368.046875 4151.703125L3405.0 4055.0L3454.0 3923.125L3491.0 3831.0L3511.5 3782.375L3520.0 3754.0L3515.359375 3747.08789063L3502.9375 3736.953125L3463.75 3712.125L3420.4375 3689.734375L3391.0 3680.0L3384.6875 3688.4375L3374.25 3711.5L3347.0 3788.0L3310.625 3890.25L3272.0 3985.0L3235.875 4078.125L3205.0 4175.0L3173.0 4293.0L3171.60351563 4301.30078125L3173.265625 4306.71875L3177.76367188 4309.27734375L3184.875 4309.0L3206.046875 4300.03125L3235.0 4280.0L3235.0 4280.0M2544.0 4218.0L2552.46875 4192.78125L2553.10546875 4184.35546875L2551.0 4178.25L2537.53125 4171.59375L2510.0 4170.0L2474.625 4166.75L2443.0 4159.0L2408.875 4151.625L2365.0 4148.0L2321.5 4143.125L2287.0 4133.0L2250.125 4120.375L2202.0 4110.0L2155.625 4097.625L2140.828125 4089.609375L2131.0 4080.0L2118.5625 4065.171875L2108.75 4061.125L2102.3125 4067.765625L2100.0 4085.0L2095.375 4112.75L2084.0 4142.0L2074.6875 4165.8125L2076.6171875 4173.921875L2084.5 4180.25L2122.8125 4189.8125L2199.0 4199.0L2280.125 4211.625L2309.671875 4218.546875L2326.0 4225.0L2345.046875 4233.375L2375.625 4239.5L2492.0 4248.0L2512.640625 4248.234375L2525.875 4244.625L2535.171875 4235.203125L2544.0 4218.0L2544.0 4218.0M3533.0 4108.0L3551.125 4095.0L3555.078125 4088.3125L3555.0 4082.0L3566.625 4040.375L3600.0 3959.0L3635.5 3877.375L3650.0 3837.0L3638.0625 3819.421875L3611.5 3795.375L3581.9375 3774.140625L3561.0 3765.0L3554.09375 3769.734375L3544.75 3782.625L3524.0 3825.0L3447.125 4023.375L3418.390625 4105.828125L3404.0 4155.0L3397.0 4192.0L3451.0 4156.0L3497.25 4126.75L3533.0 4108.0L3533.0 4108.0M1917.0 4172.0L1930.75390625 4162.34765625L1949.59375 4142.21875L1994.0 4083.0L2033.15625 4019.28125L2045.43359375 3993.52734375L2050.0 3976.0L2045.484375 3957.03125L2031.125 3938.25L2005.703125 3918.34375L1968.0 3896.0L1932.0 3876.0L1875.0 3920.0L1835.140625 3951.96875L1814.125 3975.5L1809.07226563 3986.73828125L1806.796875 3999.03125L1808.0 4031.0L1812.0 4073.0L1868.0 4067.0L1908.984375 4060.921875L1921.94726563 4056.75195313L1930.375 4051.375L1934.63085938 4044.45117188L1935.078125 4035.640625L1926.0 4011.0L1910.75 3989.25L1895.5 3981.0L1888.109375 3981.9375L1881.0 3986.25L1868.0 4005.0L1858.015625 4020.53125L1847.375 4026.5L1838.046875 4022.71875L1832.0 4009.0L1832.79492188 3995.05078125L1839.484375 3982.15625L1850.65039063 3970.99609375L1864.875 3962.25L1880.74023438 3956.59765625L1896.828125 3954.71875L1911.72070313 3957.29296875L1924.0 3965.0L1939.140625 3988.4375L1949.875 4018.25L1953.671875 4045.4375L1952.17773438 4055.234375L1948.0 4061.0L1914.0 4074.6875L1865.75 4086.5L1820.875 4093.0625L1805.2109375 4093.3203125L1797.0 4091.0L1788.375 4067.375L1782.0 4025.0L1781.078125 3986.046875L1783.59960938 3971.36914063L1788.875 3958.625L1809.984375 3935.140625L1849.0 3908.0L1877.625 3887.375L1879.796875 3882.265625L1874.0 3881.0L1850.390625 3884.390625L1829.125 3895.375L1805.796875 3917.421875L1776.0 3954.0L1742.765625 4002.796875L1734.35742188 4022.78320313L1731.375 4041.375L1733.78320313 4059.73242188L1741.546875 4079.015625L1773.0 4125.0L1796.640625 4154.09375L1814.375 4170.25L1831.921875 4177.03125L1855.0 4178.0L1889.75 4176.125L1917.0 4172.0L1917.0 4172.0M2686.0 4044.0L2688.921875 4036.25L2699.625 4023.25L2738.0 3989.0L2827.20898438 3916.078125L2919.921875 3836.125L3101.375 3669.0L3182.87304688 3588.765625L3253.390625 3515.375L3309.30664063 3452.296875L3347.0 3403.0L3403.0 3320.0L3397.0 3162.0L3390.09375 3039.796875L3379.25 2956.875L3372.05859375 2928.82617188L3363.53125 2909.015625L3353.55078125 2896.91601563L3342.0 2892.0L3321.125 2893.125L3304.0 2901.0L3296.34375 2907.96875L3294.5 2913.25L3298.65625 2918.15625L3309.0 2924.0L3312.21875 2926.76953125L3310.375 2929.09375L3290.0 2932.5L3172.0 2935.0L3044.25 2938.0L2957.0 2944.0L2919.859375 2951.59375L2891.625 2962.75L2875.578125 2975.78125L2873.15039063 2982.47265625L2875.0 2989.0L2873.328125 2993.40625L2866.125 2998.75L2840.0 3010.0L2817.28710938 3018.421875L2804.171875 3025.8125L2801.06445313 3032.359375L2808.375 3038.25L2855.890625 3048.8125L2950.0 3059.0L3004.4375 3064.375L3037.5 3071.25L3060.8125 3083.75L3086.0 3106.0L3117.73828125 3138.81640625L3147.90625 3174.84375L3200.25 3251.0L3220.78515625 3288.36328125L3236.46875 3323.40625L3246.48046875 3354.74609375L3250.0 3381.0L3248.4375 3400.03125L3242.75 3415.5L3231.4375 3430.21875L3213.0 3447.0L3189.37304688 3463.39257813L3161.796875 3476.140625L3125.47851563 3485.72460938L3075.625 3492.625L2916.140625 3500.296875L2645.0 3503.0L2305.0 3505.0L2208.0 3458.0L2136.875 3427.5L2117.015625 3422.0L2110.0 3424.0L2098.125 3443.875L2069.0 3475.0L2010.5 3537.875L1928.0 3633.0L1854.375 3715.5L1828.859375 3740.71875L1816.0 3750.0L1806.63867188 3751.78320313L1797.546875 3756.765625L1781.625 3774.125L1771.140625 3797.671875L1769.0 3823.0L1772.03125 3845.96875L1776.0 3857.5L1782.21875 3859.28125L1792.0 3853.0L1821.875 3843.25L1875.0 3835.0L1945.0 3829.0L2028.0 3890.0L2072.53125 3923.125L2097.0 3945.0L2106.46875 3960.875L2106.0 3976.0L2104.375 3990.5625L2111.75 4002.5L2133.0 4015.9375L2173.0 4035.0L2250.328125 4066.8125L2329.625 4090.75L2413.609375 4107.5625L2505.0 4118.0L2615.0 4126.0L2653.0 4091.0L2678.125 4062.625L2684.921875 4051.484375L2686.0 4044.0L2686.0 4044.0M3079.0 3940.0L3126.0 3807.0L3150.25 3743.375L3158.0 3715.0L3140.125 3725.875L3102.0 3757.0L3050.0 3802.0L3050.0 3903.0L3051.578125 3963.484375L3056.625 3989.375L3060.59570313 3989.55273438L3065.609375 3981.328125L3079.0 3940.0L3079.0 3940.0M3691.0 3734.0L3698.0 3705.0L3650.0 3680.0L3610.25 3658.625L3578.0 3638.0L3562.328125 3628.1875L3548.625 3624.0L3532.859375 3625.0625L3511.0 3631.0L3489.453125 3636.40625L3473.625 3637.5L3460.234375 3634.09375L3446.0 3626.0L3423.0 3614.75L3403.0 3611.0L3400.89648438 3611.77148438L3401.921875 3613.984375L3412.375 3622.125L3460.0 3649.0L3600.0 3723.0L3648.125 3749.0L3673.0 3760.0L3681.25 3752.25L3691.0 3734.0L3691.0 3734.0M3739.0 3620.0L3743.59375 3603.84375L3743.5 3592.75L3738.15625 3584.28125L3727.0 3576.0L3697.109375 3559.328125L3676.125 3554.375L3668.12304688 3556.32226563L3661.328125 3561.234375L3650.0 3580.0L3642.125 3602.625L3641.0 3614.0L3659.40625 3627.15625L3684.75 3641.25L3708.21875 3651.96875L3721.0 3655.0L3729.25 3642.375L3739.0 3620.0L3739.0 3620.0M3561.0 3542.0L3635.0 3504.0L3632.0 3435.0L3626.171875 3371.125L3615.375 3327.5L3607.73242188 3312.34375L3598.390625 3301.125L3587.19726563 3293.46875L3574.0 3289.0L3541.125 3276.875L3506.0 3255.0L3479.375 3236.625L3467.0 3231.0L3456.359375 3255.03125L3444.875 3291.25L3425.0 3383.0L3417.625 3422.21875L3409.5 3450.75L3399.125 3472.15625L3385.0 3490.0L3367.75 3512.75L3363.90625 3522.0625L3364.0 3528.0L3381.125 3536.75L3414.0 3544.0L3448.75 3553.375L3470.0 3565.0L3485.0 3580.0L3561.0 3542.0L3561.0 3542.0M3768.0 3509.0L3767.71875 3496.671875L3763.5 3486.125L3754.78125 3476.515625L3741.0 3467.0L3718.5625 3454.765625L3706.25 3451.625L3701.0625 3458.421875L3700.0 3476.0L3705.921875 3497.1875L3720.375 3518.0L3738.390625 3532.8125L3747.18164063 3536.2109375L3755.0 3536.0L3763.0 3527.375L3768.0 3509.0L3768.0 3509.0M2975.0 3430.0L3014.5 3426.75L3066.0 3419.0L3119.25 3413.125L3136.3125 3414.921875L3150.0 3420.0L3170.41210938 3426.95507813L3177.72290039 3426.1940918L3183.171875 3422.953125L3188.68945313 3410.06835938L3187.375 3390.375L3179.63867188 3365.94726563L3165.890625 3338.859375L3146.54101563 3311.18554688L3122.0 3285.0L3075.625 3236.875L3030.0 3182.0L2985.0 3122.0L2895.0 3102.0L2829.5 3090.0L2797.0 3087.0L2749.625 3091.0L2646.0 3095.0L2535.125 3100.75L2500.171875 3105.40625L2482.0 3111.0L2470.546875 3116.40625L2457.125 3117.5L2415.0 3106.0L2366.75 3094.625L2320.0 3090.0L2282.140625 3085.828125L2263.45117188 3079.29492188L2242.875 3068.625L2189.921875 3031.359375L2111.0 2967.0L2040.46875 2905.484375L1980.25 2848.375L1932.40625 2797.828125L1899.0 2756.0L1880.75 2730.625L1870.0 2721.0L1796.0 2778.0L1759.421875 2809.34375L1736.625 2833.75L1723.015625 2857.03125L1714.0 2885.0L1700.0 2960.0L1705.10546875 2978.875L1719.28125 3004.875L1768.0 3070.0L1832.46875 3138.875L1866.33203125 3169.5625L1899.0 3195.0L1948.75 3235.625L1963.96875 3251.671875L1970.0 3262.0L1976.828125 3272.53125L1997.625 3287.75L2083.0 3333.0L2191.21875 3382.890625L2236.03515625 3398.93554688L2281.25 3410.375L2331.80859375 3418.20507813L2392.65625 3423.421875L2565.0 3430.0L2760.75 3434.25L2880.0 3434.0L2975.0 3430.0L2975.0 3430.0M3805.0 3403.0L3811.125 3368.75L3815.0 3327.0L3815.21875 3301.53125L3812.25 3284.5L3805.15625 3272.71875L3793.0 3263.0L3775.375 3252.875L3766.0 3251.0L3735.375 3316.375L3710.0 3381.0L3720.6875 3391.890625L3745.25 3408.125L3772.4375 3423.046875L3791.0 3430.0L3798.0 3422.125L3805.0 3403.0L3805.0 3403.0M3734.0 3228.0L3710.25 3211.75L3661.0 3185.0L3605.25 3161.25L3590.125 3159.125L3581.0 3163.0L3571.40625 3178.15625L3573.25 3195.0L3587.46875 3215.59375L3615.0 3242.0L3646.875 3272.75L3660.0 3290.0L3671.0 3327.0L3682.0 3355.0L3711.0 3296.0L3729.25 3251.5L3734.0 3228.0L3734.0 3228.0M1281.0 3184.0L1269.3125 3165.99023438L1262.6875 3148.109375L1261.03125 3130.58007813L1264.25 3113.625L1272.25 3097.46679688L1284.9375 3082.328125L1302.21875 3068.43164063L1324.0 3056.0L1358.828125 3045.109375L1374.74804688 3044.41601563L1389.625 3046.875L1403.42382813 3052.47460938L1416.109375 3061.203125L1438.0 3088.0L1456.5 3115.75L1459.375 3112.75L1460.0 3100.0L1455.3125 3072.953125L1441.25 3050.125L1417.8125 3031.234375L1385.0 3016.0L1350.734375 3007.59375L1322.375 3008.75L1294.578125 3020.78125L1262.0 3045.0L1248.125 3058.9609375L1238.0 3074.375L1231.625 3090.9140625L1229.0 3108.25L1230.125 3126.0546875L1235.0 3144.0L1243.625 3161.7578125L1256.0 3179.0L1277.0625 3201.015625L1291.0 3209.625L1294.0078125 3208.69726563L1293.6875 3204.171875L1281.0 3184.0L1281.0 3184.0M3560.0 3144.0L3545.8125 3130.421875L3514.0 3111.875L3480.6875 3096.890625L3468.5078125 3093.40039063L3462.0 3094.0L3460.3671875 3099.7890625L3461.875 3109.0L3472.25 3133.75L3489.0 3160.375L3508.0 3181.0L3534.0 3201.0L3547.0 3178.0L3560.0 3144.0L3560.0 3144.0M1414.0 3168.0L1423.66992188 3150.58203125L1428.171875 3133.28125L1427.86914063 3116.77734375L1423.125 3101.75L1414.30273438 3088.87890625L1401.765625 3078.84375L1385.87695313 3072.32421875L1367.0 3070.0L1345.75 3072.78125L1328.0625 3080.4375L1314.40625 3091.9375L1305.25 3106.25L1301.0625 3122.34375L1302.3125 3139.1875L1309.46875 3155.75L1323.0 3171.0L1347.625 3184.875L1373.0 3189.0L1396.125 3183.375L1405.90625 3176.90625L1414.0 3168.0L1414.0 3168.0M2671.0 3039.0L2697.265625 3026.96875L2722.875 3010.25L2742.296875 2993.15625L2750.0 2980.0L2732.59375 2971.0625L2693.25 2959.5L2651.28125 2950.1875L2626.0 2948.0L2616.625 2946.625L2605.0 2940.0L2594.8125 2934.1875L2586.5 2938.5L2577.4375 2956.3125L2565.0 2991.0L2556.375 3022.375L2556.0 3041.0L2561.26953125 3045.1796875L2571.15625 3048.0L2600.75 3049.75L2636.71875 3046.625L2671.0 3039.0L2671.0 3039.0M2520.0 3015.0L2524.625 2985.875L2536.0 2950.0L2546.5 2914.5L2545.0 2903.59375L2539.0 2894.0L2519.109375 2874.46875L2499.125 2866.75L2475.578125 2870.65625L2445.0 2886.0L2415.796875 2906.34375L2407.04882813 2916.62109375L2401.875 2928.0L2400.02929688 2941.25390625L2401.265625 2957.15625L2412.0 3000.0L2420.390625 3022.703125L2429.625 3034.625L2445.046875 3039.234375L2472.0 3040.0L2498.0625 3039.328125L2512.5 3036.125L2518.6875 3028.609375L2520.0 3015.0L2520.0 3015.0M1470.0 2966.0L1460.875 2954.5L1439.0 2943.0L1422.1875 2937.15625L1411.75 2936.75L1404.6875 2942.71875L1398.0 2956.0L1392.765625 2968.828125L1392.125 2978.375L1396.171875 2986.234375L1405.0 2994.0L1415.640625 3000.734375L1424.875 3002.875L1434.671875 3000.328125L1447.0 2993.0L1463.375 2978.375L1470.0 2966.0L1470.0 2966.0M2336.0 2973.0L2338.234375 2954.25L2337.375 2937.75L2333.328125 2922.375L2326.0 2907.0L2316.0 2883.875L2315.0 2869.0L2335.75 2858.0L2376.0 2844.0L2431.0 2828.0L2388.0 2780.0L2326.59375 2704.578125L2301.97265625 2668.04492188L2280.75 2631.125L2262.43359375 2592.93945313L2246.53125 2552.609375L2220.0 2462.0L2208.0 2409.0L2176.0 2435.0L2141.09375 2460.03125L2100.0 2481.5L2051.40625 2499.96875L1994.0 2516.0L1923.0 2533.0L1905.0 2581.0L1893.0 2628.53125L1892.2734375 2649.30859375L1895.25 2668.75L1902.0703125 2687.34765625L1912.875 2705.59375L1947.0 2743.0L1984.0 2774.5L2009.0 2791.0L2034.125 2807.875L2072.0 2839.0L2107.0 2867.75L2127.0 2880.0L2142.0 2889.125L2166.0 2911.0L2200.765625 2942.765625L2243.875 2974.625L2284.546875 2999.171875L2312.0 3009.0L2320.109375 3007.453125L2326.625 3001.125L2336.0 2973.0L2336.0 2973.0M3629.0 2953.0L3664.96875 2925.859375L3684.25 2906.125L3687.57421875 2899.12304688L3686.65625 2894.078125L3681.47265625 2891.02539063L3672.0 2890.0L3651.125 2884.125L3628.0 2870.0L3603.0 2851.0L3570.0 2885.0L3549.96875 2903.96875L3532.0 2914.5L3509.53125 2919.03125L3476.0 2920.0L3415.0 2921.0L3458.0 2961.0L3482.453125 2982.921875L3500.625 2994.625L3517.484375 2998.265625L3538.0 2996.0L3579.75 2981.25L3629.0 2953.0L3629.0 2953.0M1514.0 2921.0L1522.484375 2910.109375L1522.625 2902.125L1512.453125 2893.578125L1490.0 2881.0L1461.21875 2868.140625L1442.75 2865.875L1436.85546875 2868.86132813L1432.90625 2874.671875L1430.0 2895.0L1432.37890625 2909.52929688L1438.90625 2921.421875L1448.66796875 2930.38476563L1460.75 2936.125L1474.23828125 2938.34960938L1488.21875 2936.765625L1501.77734375 2931.08007813L1514.0 2921.0L1514.0 2921.0M2876.0 2899.0L2889.421875 2887.375L2909.875 2881.75L2948.140625 2881.0L3015.0 2884.0L3185.0 2895.0L3232.640625 2895.875L3274.375 2887.75L3291.29882813 2880.8984375L3304.671875 2872.5L3313.80273438 2862.7890625L3318.0 2852.0L3319.328125 2837.140625L3315.125 2831.375L3302.109375 2834.421875L3277.0 2846.0L3255.921875 2854.1875L3232.875 2855.25L3196.140625 2847.6875L3134.0 2830.0L3036.875 2806.25L2957.0 2793.0L2911.625 2786.75L2899.484375 2782.875L2897.0 2779.0L2927.875 2765.0L2991.0 2742.0L3063.578125 2713.890625L3138.125 2680.625L3204.609375 2646.796875L3253.0 2617.0L3267.828125 2605.609375L3275.625 2594.875L3277.609375 2581.703125L3275.0 2563.0L3253.25 2507.875L3209.0 2422.0L3165.25 2340.0L3144.0 2294.0L3138.25976563 2280.92382813L3128.640625 2270.203125L3115.29492188 2261.84960938L3098.375 2255.875L3054.421875 2251.109375L2998.0 2256.0L2960.0 2263.0L2979.0 2289.0L3013.34375 2344.40625L3046.0 2408.25L3070.40625 2466.46875L3080.0 2505.0L3077.25 2529.625L3074.09375 2537.203125L3070.0 2540.0L3063.125 2536.75L3060.0 2529.0L3055.95703125 2515.9140625L3044.90625 2495.375L3008.25 2440.75L2962.96875 2382.75L2922.0 2339.0L2875.0 2298.0L2870.0 2377.0L2866.03125 2418.140625L2859.25 2451.875L2848.34375 2483.171875L2832.0 2517.0L2800.0 2585.0L2818.375 2588.75L2863.0 2591.0L2905.875 2593.625L2908.703125 2596.203125L2900.0 2600.0L2861.515625 2607.359375L2814.875 2608.625L2768.796875 2604.078125L2732.0 2594.0L2698.359375 2575.3125L2664.625 2548.75L2634.828125 2518.0625L2613.0 2487.0L2603.5 2463.5L2607.65625 2461.6875L2618.0 2464.0L2628.171875 2465.671875L2635.625 2460.125L2641.765625 2445.015625L2648.0 2418.0L2665.0 2348.0L2667.609375 2334.46875L2665.22851563 2331.58203125L2660.375 2331.25L2643.203125 2338.15625L2616.0 2355.0L2588.734375 2370.609375L2582.68945313 2371.25976563L2581.625 2367.375L2594.203125 2346.703125L2626.0 2310.0L2673.0 2260.0L2618.0 2260.0L2576.375 2263.375L2561.046875 2267.171875L2552.0 2272.0L2546.3125 2275.828125L2541.0 2274.875L2530.0 2256.0L2522.6875 2229.015625L2520.25 2204.375L2522.6875 2187.796875L2525.734375 2184.31835938L2530.0 2185.0L2537.25 2195.0L2540.0 2211.0L2541.75 2220.71875L2548.75 2226.5L2563.625 2229.28125L2589.0 2230.0L2660.65625 2226.09375L2740.0 2214.5L2826.09375 2195.40625L2918.0 2169.0L3012.5 2141.625L3068.0 2130.0L3093.4375 2127.34375L3102.734375 2123.35546875L3110.25 2117.0L3121.4375 2095.40625L3130.0 2059.0L3144.5 2007.375L3165.0 1958.0L3179.375 1923.875L3181.0 1910.0L3074.0 1952.0L2975.0 1993.0L2785.0 1997.0L2642.5 1997.125L2566.0 1992.0L2536.0 1984.0L2591.0 1953.0L2633.625 1926.5L2659.0 1906.0L2664.265625 1897.59375L2659.875 1892.75L2609.0 1890.0L2556.234375 1887.78125L2501.125 1882.0L2452.203125 1873.96875L2418.0 1865.0L2408.4375 1863.421875L2403.0 1870.375L2400.5625 1889.890625L2400.0 1926.0L2405.375 1996.875L2416.0 2070.0L2429.171875 2144.703125L2436.625 2208.625L2437.515625 2253.234375L2435.23632813 2265.63085938L2431.0 2270.0L2423.25 2263.5L2420.0 2248.0L2416.875 2227.125L2410.0 2210.0L2405.46875 2205.40625L2402.25 2208.5L2399.0 2240.0L2395.625 2280.875L2390.0 2315.0L2386.1875 2326.96875L2384.7265625 2328.18359375L2383.5 2326.0L2380.0 2280.0L2376.84375 2230.203125L2371.25 2193.625L2364.53125 2175.234375L2361.16015625 2174.41210938L2358.0 2180.0L2340.0 2239.0L2325.25 2276.5L2306.0 2305.0L2283.0 2328.0L2304.0 2338.0L2314.921875 2344.03125L2317.125 2348.0L2292.0 2355.0L2274.015625 2359.90625L2265.125 2366.5L2263.171875 2378.34375L2266.0 2399.0L2278.00390625 2450.79296875L2294.53125 2501.15625L2315.60546875 2550.06640625L2341.25 2597.5L2371.48828125 2643.43359375L2406.34375 2687.84375L2445.83984375 2730.70703125L2490.0 2772.0L2547.296875 2819.21875L2595.125 2851.25L2645.390625 2874.65625L2710.0 2896.0L2774.328125 2912.5L2821.125 2918.5L2839.03320313 2917.5625L2853.859375 2914.0L2866.03710938 2907.8125L2876.0 2899.0L2876.0 2899.0M1557.0 2873.0L1508.0 2848.0L1465.0 2830.0L1493.0 2855.0L1519.0 2872.75L1542.0 2880.0L1555.125 2878.0L1557.609375 2875.78125L1557.0 2873.0L1557.0 2873.0M3495.0 2851.0L3524.25 2834.890625L3549.75 2814.375L3574.875 2786.171875L3603.0 2747.0L3617.03125 2728.828125L3636.5 2708.875L3682.0 2673.0L3726.34375 2640.265625L3771.25 2602.375L3806.03125 2568.796875L3820.0 2549.0L3814.05664063 2543.57617188L3797.765625 2540.671875L3743.375 2541.625L3675.296875 2550.265625L3612.0 2565.0L3551.375 2582.75L3514.0 2590.0L3496.6875 2593.078125L3483.5 2602.625L3474.0625 2619.109375L3468.0 2643.0L3466.375 2664.5L3470.671875 2666.90625L3479.0 2665.0L3605.25 2619.25L3653.9375 2605.09375L3676.0 2602.0L3679.0234375 2607.1875L3678.4375 2612.9375L3667.0 2625.75L3642.8125 2639.6875L3607.0 2654.0L3578.578125 2664.625L3559.625 2676.0L3546.109375 2691.125L3534.0 2713.0L3516.375 2744.0625L3501.75 2758.25L3496.6171875 2758.546875L3493.5 2754.0625L3495.0 2730.0L3502.0 2699.0L3460.0 2720.0L3419.25 2746.75L3380.0 2781.0L3342.0 2821.0L3368.0 2846.0L3393.609375 2862.671875L3422.875 2869.125L3456.453125 2865.265625L3495.0 2851.0L3495.0 2851.0M1680.0 2846.0L1687.265625 2828.9375L1704.375 2807.0L1724.296875 2788.0625L1740.0 2780.0L1757.0 2774.125L1780.0 2760.0L1794.890625 2747.390625L1804.625 2732.625L1810.796875 2712.046875L1815.0 2682.0L1825.75 2632.75L1841.0 2594.0L1853.20898438 2570.6796875L1858.984375 2550.875L1858.17382813 2534.4453125L1850.625 2521.25L1836.18554688 2511.1484375L1814.703125 2504.0L1786.02539063 2499.6640625L1750.0 2498.0L1718.015625 2496.34375L1695.125 2489.25L1671.671875 2471.28125L1638.0 2437.0L1591.0 2393.625L1575.5625 2384.546875L1565.0 2384.0L1558.65625 2387.953125L1554.75 2393.875L1555.0 2412.0L1556.5 2443.25L1552.0 2485.0L1547.5 2509.6875L1542.25 2525.0L1535.125 2532.8125L1525.0 2535.0L1515.71875 2537.03125L1508.5 2543.75L1502.78125 2556.09375L1498.0 2575.0L1479.0 2652.0L1472.19335938 2682.98828125L1471.796875 2712.59375L1477.47070313 2740.27734375L1488.875 2765.5L1505.66992188 2787.72265625L1527.515625 2806.40625L1554.07226563 2821.01171875L1585.0 2831.0L1623.75 2842.25L1635.625 2847.59375L1640.0 2852.0L1645.875 2857.5L1660.0 2860.0L1674.125 2856.0L1678.421875 2851.5625L1680.0 2846.0L1680.0 2846.0M3316.0 2752.0L3372.703125 2711.0625L3412.625 2672.75L3440.734375 2631.0625L3462.0 2580.0L3480.25 2535.0L3487.3125 2527.6875L3494.0 2529.0L3501.671875 2532.9375L3512.625 2534.25L3544.0 2529.0L3582.0 2518.0L3578.0 2322.0L3574.84375 2213.46875L3570.0 2143.75L3561.40625 2093.90625L3547.0 2045.0L3513.90625 1951.453125L3478.0 1859.875L3446.59375 1788.359375L3427.0 1755.0L3421.140625 1745.375L3414.625 1726.0L3403.0 1670.0L3388.0 1593.125L3367.0 1510.25L3344.5 1438.25L3325.0 1394.0L3304.75 1372.5L3277.0 1354.0L3224.75 1320.375L3141.0 1253.0L3097.0 1221.75L3044.0 1192.0L2985.0 1163.0L2895.0 1177.0L2803.0 1187.125L2708.0 1192.0L2638.75 1194.5L2610.0 1200.0L2614.29101563 1204.87695313L2625.953125 1210.890625L2664.125 1224.125L2709.984375 1235.296875L2749.0 1240.0L2785.0 1241.0L2740.0 1265.0L2702.375 1282.0L2676.0 1290.0L2634.625 1299.875L2561.0 1324.0L2410.609375 1374.46875L2245.875 1424.0L2098.203125 1463.78125L1999.0 1485.0L1952.0 1491.0L2066.0 1602.0L2125.9375 1659.046875L2171.25 1697.625L2209.4375 1723.640625L2248.0 1743.0L2304.375 1765.0L2345.0 1775.0L2372.375 1778.75L2396.0 1787.0L2440.25 1803.0L2519.0 1825.0L2575.1875 1838.09375L2619.0 1845.0L2661.3125 1846.65625L2713.0 1844.0L2761.953125 1839.96875L2794.875 1834.25L2818.609375 1825.15625L2840.0 1811.0L2888.0 1776.5L2897.375 1773.3125L2900.0 1778.0L2894.3984375 1787.015625L2879.1875 1802.3125L2829.5 1844.25L2770.0625 1888.8125L2720.0 1921.0L2675.0 1945.0L2725.0 1948.0L2770.93554688 1948.46484375L2825.671875 1944.96875L2949.125 1928.25L3070.515625 1902.15625L3122.67382813 1886.94140625L3165.0 1871.0L3206.375 1856.25L3250.0 1846.0L3295.0 1839.0L3254.0 1874.0L3221.56640625 1907.64648438L3195.71875 1946.671875L3176.76171875 1989.33007813L3165.0 2033.875L3160.73828125 2078.56054688L3164.28125 2121.640625L3175.93359375 2161.36914063L3196.0 2196.0L3255.0 2279.0L3282.0 2323.0L3257.0 2316.0L3217.0 2304.0L3209.125 2302.84375L3206.5 2309.0L3217.0 2356.0L3235.46875 2416.375L3253.75 2455.0L3262.29296875 2465.453125L3270.15625 2469.625L3277.12890625 2467.234375L3283.0 2458.0L3285.203125 2458.8125L3287.125 2470.5L3289.0 2519.0L3289.96875 2561.109375L3293.0 2582.125L3296.05078125 2586.68554688L3300.53125 2588.328125L3315.0 2586.0L3333.38671875 2583.79882813L3337.80322266 2585.56713867L3339.28125 2589.015625L3334.16015625 2600.25585938L3319.5 2616.125L3267.46875 2656.171875L3195.0 2698.0L3127.5 2729.625L3078.0 2750.0L3051.125 2760.375L3040.0 2770.0L3058.703125 2776.921875L3104.875 2785.625L3220.0 2799.0L3235.421875 2795.734375L3257.875 2786.375L3316.0 2752.0L3316.0 2752.0M3865.0 2583.0L3926.8125 2527.3125L3965.75 2481.75L3978.984375 2459.25L3989.3125 2435.0625L4005.0 2376.0L4015.46289063 2303.22460938L4020.828125 2218.109375L4021.43554688 2125.84570313L4017.625 2031.625L4009.73632813 1940.63867188L3998.109375 1858.078125L3983.08398438 1789.13476563L3965.0 1739.0L3900.484375 1624.15625L3823.875 1504.25L3753.078125 1405.71875L3725.45507813 1372.73046875L3706.0 1355.0L3630.0 1309.0L3589.625 1280.75L3556.0 1251.0L3537.375 1233.5L3518.75 1224.25L3490.75 1220.625L3444.0 1220.0L3360.625 1215.5L3275.0 1205.0L3211.625 1195.375L3182.0 1194.0L3190.375 1202.875L3216.0 1217.0L3254.828125 1240.78125L3303.125 1278.25L3348.609375 1319.09375L3379.0 1353.0L3386.21679688 1367.33789063L3393.421875 1389.703125L3406.625 1451.625L3416.265625 1524.984375L3420.0 1596.0L3420.78125 1634.625L3424.0 1658.25L3430.96875 1672.5L3443.0 1683.0L3454.0 1693.296875L3466.5 1710.625L3490.0 1757.0L3576.5 1985.5L3599.96875 2057.65625L3615.0 2115.0L3631.375 2174.25L3639.890625 2194.59375L3647.0 2205.0L3654.234375 2215.0L3656.125 2235.5L3642.0 2341.0L3614.0 2493.0L3608.0 2520.0L3666.0 2520.0L3728.875 2516.0L3797.0 2506.0L3855.3125 2497.296875L3871.25 2498.07226563L3878.75 2503.125L3878.09375 2513.09960938L3869.5625 2528.640625L3830.0 2579.0L3796.625 2622.25L3788.515625 2635.25L3788.0 2640.0L3814.5 2623.125L3865.0 2583.0L3865.0 2583.0M2055.0 2455.0L2092.921875 2442.03125L2122.875 2427.0L2145.140625 2409.71875L2160.0 2390.0L2163.59375 2379.15625L2161.75 2367.75L2153.53125 2353.71875L2138.0 2335.0L2106.0 2298.0L2091.0 2332.0L2081.8203125 2346.79296875L2070.25 2358.84375L2056.6171875 2368.03515625L2041.25 2374.25L2024.4765625 2377.37109375L2006.625 2377.28125L1988.0234375 2373.86328125L1969.0 2367.0L1918.0 2346.0L1908.859375 2340.8125L1903.375 2329.25L1900.0 2275.0L1897.25 2228.25L1894.09375 2214.8125L1890.0 2210.0L1865.125 2218.625L1820.0 2240.0L1761.0 2270.0L1708.0 2214.0L1667.75 2166.671875L1626.0 2109.875L1593.25 2058.890625L1580.0 2029.0L1585.875 2017.375L1600.0 2002.0L1610.046875 1991.390625L1611.19726563 1987.70898438L1609.125 1984.625L1593.390625 1978.796875L1559.0 1971.0L1515.125 1963.125L1496.0 1962.0L1501.0 2072.0L1510.5 2161.375L1517.3125 2188.859375L1526.0 2208.0L1564.75 2263.359375L1608.75 2320.875L1648.625 2368.453125L1675.0 2394.0L1688.78125 2402.65625L1695.25 2403.25L1696.09375 2393.71875L1693.0 2372.0L1682.0 2337.375L1665.0 2305.0L1642.234375 2270.765625L1620.875 2232.125L1606.078125 2199.671875L1603.0 2184.0L1606.625 2184.578125L1612.5 2190.125L1628.0 2212.0L1652.5 2245.0L1683.0 2278.0L1701.859375 2295.09375L1715.375 2303.75L1726.453125 2305.28125L1738.0 2301.0L1762.5 2293.25L1793.0 2290.0L1809.8125 2288.8125L1823.25 2285.0L1834.0625 2278.1875L1843.0 2268.0L1855.640625 2252.921875L1860.41992188 2250.65039063L1863.875 2251.625L1865.921875 2262.515625L1860.0 2284.0L1855.796875 2299.03125L1855.625 2311.25L1860.140625 2323.09375L1870.0 2337.0L1884.125 2359.25L1890.0 2377.0L1891.92382813 2383.875L1897.515625 2390.1875L1918.625 2400.75L1951.171875 2407.9375L1993.0 2411.0L2031.625 2413.0L2031.390625 2416.0625L2020.0 2421.0L1983.25 2427.5L1930.0 2428.0L1895.75 2426.84375L1875.75 2428.5L1865.875 2433.90625L1862.0 2444.0L1863.25 2459.75L1872.0 2471.0L1881.75 2474.20898438L1898.0625 2475.671875L1944.75 2473.875L2000.8125 2466.640625L2055.0 2455.0L2055.0 2455.0M1831.0 2430.0L1839.52929688 2422.8828125L1845.609375 2412.625L1850.375 2386.25L1845.203125 2358.0L1838.86132813 2345.3984375L1830.0 2335.0L1819.5625 2327.671875L1808.75 2323.625L1796.8125 2322.765625L1783.0 2325.0L1757.86328125 2334.11132813L1738.84375 2347.078125L1726.15234375 2362.59960938L1720.0 2379.375L1720.59765625 2396.10351563L1728.15625 2411.484375L1742.88671875 2424.21679688L1765.0 2433.0L1803.25 2438.25L1817.03125 2435.8125L1831.0 2430.0L1831.0 2430.0M2061.0 2274.0L2072.0 2243.0L2077.875 2233.5L2083.0 2230.0L2106.375 2245.125L2147.0 2282.0L2200.0 2334.0L2200.0 2300.0L2206.0 2213.0L2209.078125 2177.90625L2207.45898438 2167.89453125L2202.875 2162.5L2194.68164063 2161.41796875L2182.234375 2164.34375L2142.0 2181.0L2096.1875 2205.21875L2059.0 2231.5L2030.0625 2260.03125L2009.0 2291.0L1995.75 2323.625L1998.59375 2329.671875L2008.0 2333.0L2025.5625 2332.640625L2039.75 2323.375L2051.3125 2304.171875L2061.0 2274.0L2061.0 2274.0M2284.0 2121.0L2299.0 2066.5L2297.21875 2060.53125L2290.0 2060.0L2284.11914063 2065.41601563L2276.703125 2080.078125L2260.125 2127.625L2245.984375 2183.609375L2240.0 2229.0L2242.0 2261.75L2247.0 2290.0L2251.015625 2298.296875L2254.375 2294.125L2261.0 2245.0L2270.625 2180.0L2284.0 2121.0L2284.0 2121.0M2018.0 2214.0L2044.109375 2184.359375L2067.875 2162.125L2090.703125 2146.078125L2114.0 2135.0L2139.23242188 2122.17382813L2156.484375 2106.640625L2165.83789063 2089.06835938L2167.375 2070.125L2161.17773438 2050.47851563L2147.328125 2030.796875L2125.90820313 2011.74804688L2097.0 1994.0L2079.109375 1985.0L2073.25195313 1984.578125L2068.625 1988.0L2060.578125 2009.75L2050.0 2057.0L2030.25 2112.75L2000.0 2173.0L1970.25 2226.625L1954.0 2266.0L1950.921875 2284.03125L1952.54101563 2286.63671875L1957.125 2284.25L2018.0 2214.0L2018.0 2214.0M1984.0 2152.0L2013.375 2087.859375L2033.0 2033.375L2041.375 1992.953125L2040.875 1979.39257813L2037.0 1971.0L2022.734375 1961.90625L2006.125 1964.25L1983.703125 1979.71875L1952.0 2010.0L1907.453125 2060.1875L1864.125 2116.0L1833.734375 2161.3125L1827.05273438 2174.9921875L1828.0 2180.0L1880.0 2165.0L1929.75 2150.875L1937.9375 2153.609375L1939.0 2163.0L1939.0 2199.75L1941.53125 2214.1875L1945.0 2220.0L1958.5 2200.25L1984.0 2152.0L1984.0 2152.0M2217.0 2133.0L2212.0 2132.75L2210.0 2140.0L2212.0 2147.25L2217.0 2147.0L2219.25 2140.0L2217.0 2133.0L2217.0 2133.0M2291.0 1945.0L2312.3125 1893.234375L2319.0 1861.625L2316.7421875 1851.59179688L2310.6875 1844.453125L2287.0 1836.0L2259.90039063 1823.953125L2221.515625 1797.5625L2175.46679688 1760.203125L2125.375 1715.25L2027.546875 1616.0625L1987.05273438 1568.578125L1957.0 1527.0L1937.0 1504.125L1914.0 1488.0L1897.59375 1478.296875L1890.75 1469.625L1894.03125 1463.390625L1908.0 1461.0L1935.578125 1458.265625L1962.125 1452.625L1982.109375 1445.671875L1990.0 1439.0L1991.921875 1435.859375L1997.125 1434.125L2014.0 1436.0L2030.75 1435.453125L2058.0 1429.375L2141.0 1401.0L2353.0 1322.0L2426.75 1293.125L2447.78125 1282.765625L2454.0 1277.0L2437.96875 1271.296875L2413.5 1270.375L2389.03125 1273.765625L2373.0 1281.0L2361.84375 1286.0625L2340.0 1287.75L2253.0 1281.0L2159.78125 1275.40625L2045.0 1276.75L1908.46875 1285.21875L1750.0 1301.0L1645.65625 1319.140625L1535.5 1348.625L1431.34375 1385.796875L1385.20703125 1406.12304688L1345.0 1427.0L1228.0 1494.0L1201.125 1510.875L1190.0 1521.0L1211.5 1527.125L1263.0 1534.0L1305.28125 1539.390625L1347.0 1550.875L1399.96875 1572.671875L1476.0 1609.0L1595.625 1670.125L1686.0 1720.0L1794.875 1777.125L1960.0 1856.0L2112.75 1928.375L2192.0 1970.0L2215.75 1984.125L2235.0 1990.0L2245.5 1993.125L2250.0 2000.0L2252.46875 2010.109375L2260.0 2004.375L2291.0 1945.0L2291.0 1945.0M1955.0 1956.0L1965.265625 1947.90625L1966.625 1941.5L1957.671875 1934.34375L1937.0 1924.0L1916.90625 1915.359375L1902.25 1911.875L1889.46875 1913.453125L1875.0 1920.0L1857.25 1933.0L1850.0 1946.0L1853.32226563 1954.18164063L1862.328125 1960.640625L1891.625 1967.875L1926.359375 1966.671875L1942.16210938 1962.58398438L1955.0 1956.0L1955.0 1956.0M2340.0 1949.0L2337.25 1936.75L2334.09375 1934.375L2330.0 1935.0L2323.125 1943.625L2320.0 1956.0L2323.125 1966.0L2330.0 1970.0L2337.25 1964.0L2340.0 1949.0L2340.0 1949.0M2519.0 1206.0L2523.953125 1197.9375L2523.375 1191.0L2516.609375 1184.0625L2503.0 1176.0L2487.390625 1166.328125L2484.625 1160.875L2495.546875 1158.984375L2521.0 1160.0L2536.265625 1158.046875L2550.125 1148.125L2566.421875 1126.390625L2589.0 1089.0L2638.25 1010.0L2698.0 922.0L2790.0 790.0L2861.0 699.0L2909.75 635.875L2963.0 560.0L3032.0 463.25L3119.0 350.0L3188.875 261.25L3216.0 222.0L3189.578125 230.71875L3132.875 258.75L3066.234375 295.40625L3010.0 330.0L2948.15625 377.625L2888.0 435.75L2828.59375 505.5L2769.0 588.0L2606.0 817.0L2524.78125 930.625L2437.75 1057.75L2368.34375 1163.5L2340.0 1213.0L2364.75 1218.0L2424.0 1220.0L2491.0 1216.75L2509.21875 1212.40625L2519.0 1206.0L2519.0 1206.0M2730.0 1142.0L2747.625 1113.625L2790.0 1056.0L2856.5 962.25L2932.0 849.0L2991.875 757.875L3021.0 720.0L3037.875 699.125L3066.0 649.0L3096.375 597.5L3108.609375 580.65625L3117.0 573.0L3132.0 559.5L3150.0 534.0L3179.140625 466.578125L3218.875 356.875L3251.671875 255.984375L3259.99023438 224.810546875L3260.0 215.0L3228.375 251.875L3166.0 333.0L3005.0 545.0L2926.5 652.25L2845.0 770.0L2676.0 1018.0L2590.0 1145.0L2610.75 1148.625L2660.0 1150.0L2709.625 1147.5L2730.0 1142.0L2730.0 1142.0"
         id="path3340" />
      <path
         inkscape:connector-curvature="0"
         d="m 2622,2747 c -6,-7 -42,-30 -79,-50 -38,-21 -93,-60 -123,-88 l -55,-51 51,36 c 29,20 57,36 64,36 6,0 38,15 70,34 32,19 66,36 76,38 12,2 20,13 22,31 4,29 -9,35 -26,14 z"
         id="path3342" />
      <path
         inkscape:connector-curvature="0"
         d="m 2933,2583 c 4,-3 10,-3 14,0 3,4 0,7 -7,7 -7,0 -10,-3 -7,-7 z"
         id="path3344" />
      <path
         inkscape:connector-curvature="0"
         d="m 2360,2492 -25,-20 28,-13 c 33,-15 38,-11 29,25 l -8,28 -24,-20 z"
         id="path3346" />
      <path
         inkscape:connector-curvature="0"
         d="m 1753,2384 c -8,-23 12,-38 41,-30 39,10 36,46 -4,46 -19,0 -33,-6 -37,-16 z"
         id="path3348" />
    </g>
  </g>
</svg>
