  0
SECTION
  2
HEADER
  9
$ACADVER
  1
AC1014
  9
$HANDSEED
  5
FFFF
  9
$MEASUREMENT
 70
     1
  0
ENDSEC
  0
SECTION
  2
TABLES
  0
TABLE
  2
VPORT
  5
8
330
0
100
AcDbSymbolTable
 70
     4
  0
VPORT
  5
2E
330
8
100
AcDbSymbolTableRecord
100
AcDbViewportTableRecord
  2
*ACTIVE
 70
     0
 10
0.0
 20
0.0
 11
1.0
 21
1.0
 12
210.0
 22
148.5
 13
0.0
 23
0.0
 14
10.0
 24
10.0
 15
10.0
 25
10.0
 16
0.0
 26
0.0
 36
1.0
 17
0.0
 27
0.0
 37
0.0
 40
341.0
 41
1.24
 42
50.0
 43
0.0
 44
0.0
 50
0.0
 51
0.0
 71
     0
 72
   100
 73
     1
 74
     3
 75
     0
 76
     0
 77
     0
 78
     0
  0
ENDTAB
  0
TABLE
  2
LTYPE
  5
5
330
0
100
AcDbSymbolTable
 70
     1
  0
LTYPE
  5
14
330
5
100
AcDbSymbolTableRecord
100
AcDbLinetypeTableRecord
  2
BYBLOCK
 70
     0
  3

 72
    65
 73
     0
 40
0.0
  0
LTYPE
  5
15
330
5
100
AcDbSymbolTableRecord
100
AcDbLinetypeTableRecord
  2
BYLAYER
 70
     0
  3

 72
    65
 73
     0
 40
0.0
  0
LTYPE
  5
16
330
5
100
AcDbSymbolTableRecord
100
AcDbLinetypeTableRecord
  2
CONTINUOUS
 70
     0
  3
Solid line
 72
    65
 73
     0
 40
0.0
  0
ENDTAB
  0
TABLE
  2
LAYER
  5
2
100
AcDbSymbolTable
 70
2
  0
LAYER
  5
50
100
AcDbSymbolTableRecord
100
AcDbLayerTableRecord
  2
0
 70
0
  6
CONTINUOUS
  0
LAYER
  5
51
100
AcDbSymbolTableRecord
100
AcDbLayerTableRecord
  2
Layer_1
 70
0
  6
CONTINUOUS
  0
ENDTAB
  0
TABLE
  2
STYLE
  5
3
330
0
100
AcDbSymbolTable
 70
     1
  0
STYLE
  5
11
330
3
100
AcDbSymbolTableRecord
100
AcDbTextStyleTableRecord
  2
STANDARD
 70
     0
 40
0.0
 41
1.0
 50
0.0
 71
     0
 42
2.5
  3
txt
  4

  0
ENDTAB
  0
TABLE
  2
VIEW
  5
6
330
0
100
AcDbSymbolTable
 70
     0
  0
ENDTAB
  0
TABLE
  2
UCS
  5
7
330
0
100
AcDbSymbolTable
 70
     0
  0
ENDTAB
  0
TABLE
  2
APPID
  5
9
330
0
100
AcDbSymbolTable
 70
     2
  0
APPID
  5
12
330
9
100
AcDbSymbolTableRecord
100
AcDbRegAppTableRecord
  2
ACAD
 70
     0
  0
ENDTAB
  0
TABLE
  2
DIMSTYLE
  5
A
330
0
100
AcDbSymbolTable
 70
     1
  0
DIMSTYLE
105
27
330
A
100
AcDbSymbolTableRecord
100
AcDbDimStyleTableRecord
  2
ISO-25
 70
     0
  3

  4

  5

  6

  7

 40
1.0
 41
2.5
 42
0.625
 43
3.75
 44
1.25
 45
0.0
 46
0.0
 47
0.0
 48
0.0
140
2.5
141
2.5
142
0.0
143
0.03937007874016
144
1.0
145
0.0
146
1.0
147
0.625
 71
     0
 72
     0
 73
     0
 74
     0
 75
     0
 76
     0
 77
     1
 78
     8
170
     0
171
     3
172
     1
173
     0
174
     0
175
     0
176
     0
177
     0
178
     0
270
     2
271
     2
272
     2
273
     2
274
     3
340
11
275
     0
280
     0
281
     0
282
     0
283
     0
284
     8
285
     0
286
     0
287
     3
288
     0
  0
ENDTAB
  0
TABLE
  2
BLOCK_RECORD
  5
1
330
0
100
AcDbSymbolTable
 70
     1
  0
BLOCK_RECORD
  5
1F
330
1
100
AcDbSymbolTableRecord
100
AcDbBlockTableRecord
  2
*MODEL_SPACE
  0
BLOCK_RECORD
  5
1B
330
1
100
AcDbSymbolTableRecord
100
AcDbBlockTableRecord
  2
*PAPER_SPACE
  0
ENDTAB
  0
ENDSEC
  0
SECTION
  2
BLOCKS
  0
BLOCK
  5
20
330
1F
100
AcDbEntity
  8
0
100
AcDbBlockBegin
  2
*MODEL_SPACE
 70
     0
 10
0.0
 20
0.0
 30
0.0
  3
*MODEL_SPACE
  1

  0
ENDBLK
  5
21
330
1F
100
AcDbEntity
  8
0
100
AcDbBlockEnd
  0
BLOCK
  5
1C
330
1B
100
AcDbEntity
 67
     1
  8
0
100
AcDbBlockBegin
  2
*PAPER_SPACE
  1

  0
ENDBLK
  5
1D
330
1B
100
AcDbEntity
 67
     1
  8
0
100
AcDbBlockEnd
  0
ENDSEC
  0
SECTION
  2
ENTITIES
  0
LWPOLYLINE
  5
100
100
AcDbEntity
  8
Layer_1
 62
7
100
AcDbPolyline
 90
13
 70
0
 10
126.569192
 20
617.613860
 30
0.0
 10
129.725440
 20
617.613860
 30
0.0
 10
129.725440
 20
608.051364
 30
0.0
 10
141.194192
 20
608.051364
 30
0.0
 10
141.194192
 20
617.613860
 30
0.0
 10
144.350440
 20
617.613860
 30
0.0
 10
144.350440
 20
594.285732
 30
0.0
 10
141.194192
 20
594.285732
 30
0.0
 10
141.194192
 20
605.395108
 30
0.0
 10
129.725440
 20
605.395108
 30
0.0
 10
129.725440
 20
594.285732
 30
0.0
 10
126.569192
 20
594.285732
 30
0.0
 10
126.569192
 20
617.613860
 30
0.0
  0
SPLINE
  5
101
100
AcDbEntity
  8
Layer_1
 62
7
100
AcDbSpline
 70
8
 71
3
 72
8
 73
4
 74
0
 40
0
 40
0
 40
0
 40
0
 40
1
 40
1
 40
1
 40
1
 10
162.600440
 20
604.598236
 30
0.0
 10
162.579560
 20
606.171140
 30
0.0
 10
162.136880
 20
607.426348
 30
0.0
 10
161.272312
 20
608.363860
 30
0.0
  0
SPLINE
  5
102
100
AcDbEntity
  8
Layer_1
 62
7
100
AcDbSpline
 70
8
 71
3
 72
8
 73
4
 74
0
 40
0
 40
0
 40
0
 40
0
 40
1
 40
1
 40
1
 40
1
 10
161.272312
 20
608.363860
 30
0.0
 10
160.418136
 20
609.301348
 30
0.0
 10
159.282720
 20
609.770092
 30
0.0
 10
157.866064
 20
609.770108
 30
0.0
  0
SPLINE
  5
103
100
AcDbEntity
  8
Layer_1
 62
7
100
AcDbSpline
 70
8
 71
3
 72
8
 73
4
 74
0
 40
0
 40
0
 40
0
 40
0
 40
1
 40
1
 40
1
 40
1
 10
157.866064
 20
609.770108
 30
0.0
 10
156.261888
 20
609.770092
 30
0.0
 10
154.975432
 20
609.316972
 30
0.0
 10
154.006688
 20
608.410732
 30
0.0
  0
SPLINE
  5
104
100
AcDbEntity
  8
Layer_1
 62
7
100
AcDbSpline
 70
8
 71
3
 72
8
 73
4
 74
0
 40
0
 40
0
 40
0
 40
0
 40
1
 40
1
 40
1
 40
1
 10
154.006688
 20
608.410732
 30
0.0
 10
153.048352
 20
607.504476
 30
0.0
 10
152.496264
 20
606.228436
 30
0.0
 10
152.350440
 20
604.582612
 30
0.0
  0
LWPOLYLINE
  5
105
100
AcDbEntity
  8
Layer_1
 62
7
100
AcDbPolyline
 90
16
 70
0
 10
165.475440
 20
603.754484
 30
0.0
 10
165.475440
 20
602.348236
 30
0.0
 10
152.256688
 20
602.348236
 30
0.0
 10
154.037936
 20
597.816988
 30
0.0
 10
158.506688
 20
596.270108
 30
0.0
 10
161.709816
 20
596.676364
 30
0.0
 10
164.803568
 20
597.895108
 30
0.0
 10
164.803568
 20
595.176364
 30
0.0
 10
161.631688
 20
594.176364
 30
0.0
 10
158.334816
 20
593.832612
 30
0.0
 10
151.694192
 20
596.270108
 30
0.0
 10
149.256688
 20
602.863860
 30
0.0
 10
151.569192
 20
609.676364
 30
0.0
 10
157.834816
 20
612.207612
 30
0.0
 10
163.412936
 20
609.926364
 30
0.0
 10
165.475440
 20
603.754484
 30
0.0
  0
LWPOLYLINE
  5
106
100
AcDbEntity
  8
Layer_1
 62
7
100
AcDbPolyline
 90
2
 70
0
 10
152.350440
 20
604.582612
 30
0.0
 10
162.600440
 20
604.598212
 30
0.0
  0
LWPOLYLINE
  5
107
100
AcDbEntity
  8
Layer_1
 62
7
100
AcDbPolyline
 90
5
 70
0
 10
170.194192
 20
618.598236
 30
0.0
 10
173.069192
 20
618.598236
 30
0.0
 10
173.069192
 20
594.285732
 30
0.0
 10
170.194192
 20
594.285732
 30
0.0
 10
170.194192
 20
618.598236
 30
0.0
  0
LWPOLYLINE
  5
108
100
AcDbEntity
  8
Layer_1
 62
7
100
AcDbPolyline
 90
5
 70
0
 10
179.069192
 20
618.598236
 30
0.0
 10
181.944192
 20
618.598236
 30
0.0
 10
181.944192
 20
594.285732
 30
0.0
 10
179.069192
 20
594.285732
 30
0.0
 10
179.069192
 20
618.598236
 30
0.0
  0
LWPOLYLINE
  5
109
100
AcDbEntity
  8
Layer_1
 62
7
100
AcDbPolyline
 90
9
 70
0
 10
194.725440
 20
609.770108
 30
0.0
 10
191.069192
 20
607.957612
 30
0.0
 10
189.725440
 20
603.020108
 30
0.0
 10
191.053568
 20
598.066988
 30
0.0
 10
194.725440
 20
596.270108
 30
0.0
 10
198.366064
 20
598.082612
 30
0.0
 10
199.709816
 20
603.020108
 30
0.0
 10
198.366064
 20
607.941988
 30
0.0
 10
194.725440
 20
609.770108
 30
0.0
  0
LWPOLYLINE
  5
10a
100
AcDbEntity
  8
Layer_1
 62
7
100
AcDbPolyline
 90
9
 70
0
 10
194.725440
 20
612.207612
 30
0.0
 10
200.616064
 20
609.770108
 30
0.0
 10
202.756688
 20
603.020108
 30
0.0
 10
200.616064
 20
596.270108
 30
0.0
 10
194.725440
 20
593.832612
 30
0.0
 10
188.819192
 20
596.270108
 30
0.0
 10
186.694192
 20
603.020108
 30
0.0
 10
188.819192
 20
609.770108
 30
0.0
 10
194.725440
 20
612.207612
 30
0.0
  0
LWPOLYLINE
  5
10b
100
AcDbEntity
  8
Layer_1
 62
7
100
AcDbPolyline
 90
14
 70
0
 10
215.741064
 20
617.613860
 30
0.0
 10
218.928568
 20
617.613860
 30
0.0
 10
223.834816
 20
597.895108
 30
0.0
 10
228.725440
 20
617.613860
 30
0.0
 10
232.272312
 20
617.613860
 30
0.0
 10
237.178568
 20
597.895108
 30
0.0
 10
242.069192
 20
617.613860
 30
0.0
 10
245.272312
 20
617.613860
 30
0.0
 10
239.412936
 20
594.285732
 30
0.0
 10
235.444192
 20
594.285732
 30
0.0
 10
230.522312
 20
614.535732
 30
0.0
 10
225.553568
 20
594.285732
 30
0.0
 10
221.584816
 20
594.285732
 30
0.0
 10
215.741064
 20
617.613860
 30
0.0
  0
LWPOLYLINE
  5
10c
100
AcDbEntity
  8
Layer_1
 62
7
100
AcDbPolyline
 90
9
 70
0
 10
254.225440
 20
609.770108
 30
0.0
 10
250.569192
 20
607.957612
 30
0.0
 10
249.225440
 20
603.020108
 30
0.0
 10
250.553568
 20
598.066988
 30
0.0
 10
254.225440
 20
596.270108
 30
0.0
 10
257.866064
 20
598.082612
 30
0.0
 10
259.209816
 20
603.020108
 30
0.0
 10
257.866064
 20
607.941988
 30
0.0
 10
254.225440
 20
609.770108
 30
0.0
  0
LWPOLYLINE
  5
10d
100
AcDbEntity
  8
Layer_1
 62
7
100
AcDbPolyline
 90
9
 70
0
 10
254.225440
 20
612.207612
 30
0.0
 10
260.116064
 20
609.770108
 30
0.0
 10
262.256688
 20
603.020108
 30
0.0
 10
260.116064
 20
596.270108
 30
0.0
 10
254.225440
 20
593.832612
 30
0.0
 10
248.319192
 20
596.270108
 30
0.0
 10
246.194192
 20
603.020108
 30
0.0
 10
248.319192
 20
609.770108
 30
0.0
 10
254.225440
 20
612.207612
 30
0.0
  0
LWPOLYLINE
  5
10e
100
AcDbEntity
  8
Layer_1
 62
7
100
AcDbPolyline
 90
15
 70
0
 10
277.147312
 20
609.098236
 30
0.0
 10
276.084816
 20
609.504484
 30
0.0
 10
274.834816
 20
609.645108
 30
0.0
 10
271.084816
 20
608.051364
 30
0.0
 10
269.787936
 20
603.504484
 30
0.0
 10
269.787936
 20
594.285732
 30
0.0
 10
266.897312
 20
594.285732
 30
0.0
 10
266.897312
 20
611.785732
 30
0.0
 10
269.787936
 20
611.785732
 30
0.0
 10
269.787936
 20
609.066988
 30
0.0
 10
272.147312
 20
611.426364
 30
0.0
 10
275.678568
 20
612.207612
 30
0.0
 10
276.334816
 20
612.160732
 30
0.0
 10
277.131688
 20
612.051364
 30
0.0
 10
277.147288
 20
609.098236
 30
0.0
  0
LWPOLYLINE
  5
10f
100
AcDbEntity
  8
Layer_1
 62
7
100
AcDbPolyline
 90
5
 70
0
 10
280.194192
 20
618.598236
 30
0.0
 10
283.069192
 20
618.598236
 30
0.0
 10
283.069192
 20
594.285732
 30
0.0
 10
280.194192
 20
594.285732
 30
0.0
 10
280.194192
 20
618.598236
 30
0.0
  0
LWPOLYLINE
  5
110
100
AcDbEntity
  8
Layer_1
 62
7
100
AcDbPolyline
 90
14
 70
0
 10
300.584816
 20
609.129484
 30
0.0
 10
300.584816
 20
618.598236
 30
0.0
 10
303.459816
 20
618.598236
 30
0.0
 10
303.459816
 20
594.285732
 30
0.0
 10
300.584816
 20
594.285732
 30
0.0
 10
300.584816
 20
596.910732
 30
0.0
 10
298.287936
 20
594.582612
 30
0.0
 10
294.975440
 20
593.832612
 30
0.0
 10
289.803568
 20
596.363860
 30
0.0
 10
287.819192
 20
603.020108
 30
0.0
 10
289.803568
 20
609.676364
 30
0.0
 10
294.975440
 20
612.207612
 30
0.0
 10
298.287936
 20
611.441988
 30
0.0
 10
300.584816
 20
609.129484
 30
0.0
  0
LWPOLYLINE
  5
111
100
AcDbEntity
  8
Layer_1
 62
7
100
AcDbPolyline
 90
9
 70
0
 10
290.787936
 20
603.020108
 30
0.0
 10
292.084816
 20
598.035732
 30
0.0
 10
295.678568
 20
596.238860
 30
0.0
 10
299.272312
 20
598.035732
 30
0.0
 10
300.584816
 20
603.020108
 30
0.0
 10
299.272312
 20
607.988860
 30
0.0
 10
295.678568
 20
609.801364
 30
0.0
 10
292.084816
 20
607.988860
 30
0.0
 10
290.787936
 20
603.020108
 30
0.0
  0
ENDSEC
  0
SECTION
  2
OBJECTS
  0
DICTIONARY
  5
C
330
0
100
AcDbDictionary
  3
ACAD_GROUP
350
D
  3
ACAD_MLINESTYLE
350
17
  0
DICTIONARY
  5
D
330
C
100
AcDbDictionary
  0
DICTIONARY
  5
1A
330
C
100
AcDbDictionary
  0
DICTIONARY
  5
17
330
C
100
AcDbDictionary
  3
STANDARD
350
18
  0
DICTIONARY
  5
19
330
C
100
AcDbDictionary
  0
ENDSEC
  0
EOF
