<?xml version="1.0" encoding="UTF-8" standalone="no"?>
<!-- Created with Inkscape (http://www.inkscape.org/) -->

<svg
   xmlns:dc="http://purl.org/dc/elements/1.1/"
   xmlns:cc="http://creativecommons.org/ns#"
   xmlns:rdf="http://www.w3.org/1999/02/22-rdf-syntax-ns#"
   xmlns:svg="http://www.w3.org/2000/svg"
   xmlns="http://www.w3.org/2000/svg"
   xmlns:sodipodi="http://sodipodi.sourceforge.net/DTD/sodipodi-0.dtd"
   xmlns:inkscape="http://www.inkscape.org/namespaces/inkscape"
   width="744.09448819"
   height="1052.3622047"
   id="svg2"
   version="1.1"
   inkscape:version="0.48.3.1 r9886"
   sodipodi:docname="New document 1">
  <defs
     id="defs4" />
  <sodipodi:namedview
     id="base"
     pagecolor="#ffffff"
     bordercolor="#666666"
     borderopacity="1.0"
     inkscape:pageopacity="0.0"
     inkscape:pageshadow="2"
     inkscape:zoom="1.979899"
     inkscape:cx="265.90926"
     inkscape:cy="765.01942"
     inkscape:document-units="px"
     inkscape:current-layer="layer1"
     showgrid="false"
     inkscape:window-width="980"
     inkscape:window-height="835"
     inkscape:window-x="281"
     inkscape:window-y="63"
     inkscape:window-maximized="0" />
  <metadata
     id="metadata7">
    <rdf:RDF>
      <cc:Work
         rdf:about="">
        <dc:format>image/svg+xml</dc:format>
        <dc:type
           rdf:resource="http://purl.org/dc/dcmitype/StillImage" />
        <dc:title></dc:title>
      </cc:Work>
    </rdf:RDF>
  </metadata>
  <g
     inkscape:label="Layer 1"
     inkscape:groupmode="layer"
     id="layer1">
    <g
       style="font-size:40px;font-style:normal;font-weight:normal;line-height:125%;letter-spacing:0px;word-spacing:0px;fill:#000000;fill-opacity:1;stroke:none;font-family:Sans"
       id="text2985">
      <path
         d="m 158.21149,280.34488 3.94531,0 0,11.95312 14.33594,0 0,-11.95312 3.94531,0 0,29.16016 -3.94531,0 0,-13.88672 -14.33594,0 0,13.88672 -3.94531,0 0,-29.16016"
         style="fill:none;stroke:#000000;stroke-opacity:1"
         id="path2990" />
      <path
         d="m 206.8443,297.6691 0,1.75781 -16.52344,0 2.22656,5.66406 5.58594,1.9336 4.00391,-0.50782 3.86719,-1.52343 0,3.39843 -3.96485,1.25 -4.12109,0.42969 -8.30078,-3.04687 -3.04688,-8.24219 2.89063,-8.51563 7.83203,-3.16406 6.97265,2.85156 2.57813,7.71485 m -3.59375,-1.05469 c -0.0261,-1.96613 -0.57945,-3.53514 -1.66016,-4.70703 -1.06772,-1.17186 -2.48699,-1.75779 -4.25781,-1.75781 -2.00522,2e-5 -3.61329,0.56642 -4.82422,1.69922 -1.19792,1.13282 -1.88803,2.72787 -2.07031,4.78515 l 12.8125,-0.0195"
         id="path2992"
         inkscape:connector-curvature="0"
         sodipodi:nodetypes="cccccccccccccccccccccc"
         style="stroke:#000000;stroke-opacity:1;fill:none" />
      <path
         d="m 212.74274,279.11441 3.59375,0 0,30.39063 -3.59375,0 0,-30.39063"
         style="stroke:#000000;stroke-opacity:1;fill:none"
         id="path2994" />
      <path
         d="m 223.83649,279.11441 3.59375,0 0,30.39063 -3.59375,0 0,-30.39063"
         style="stroke:#000000;stroke-opacity:1;fill:none"
         id="path2996" />
      <path
         d="m 243.4068,290.14957 -4.57031,2.26562 -1.67969,6.17188 1.66016,6.1914 4.58984,2.2461 4.55078,-2.26563 1.67969,-6.17187 -1.67969,-6.15235 -4.55078,-2.28515 m 0,-3.04688 7.36328,3.04688 2.67578,8.4375 -2.67578,8.4375 -7.36328,3.04687 -7.38281,-3.04687 -2.65625,-8.4375 2.65625,-8.4375 7.38281,-3.04688"
         id="path2998"
         inkscape:connector-curvature="0"
         sodipodi:nodetypes="cccccccccccccccccc"
         style="stroke:#000000;stroke-opacity:1;fill:none" />
      <path
         d="m 269.67633,280.34488 3.98438,0 6.13281,24.64844 6.11328,-24.64844 4.43359,0 6.13282,24.64844 6.11328,-24.64844 4.0039,0 -7.32422,29.16016 -4.96093,0 -6.15235,-25.3125 -6.21093,25.3125 -4.96094,0 -7.30469,-29.16016"
         style="stroke:#000000;stroke-opacity:1;fill:none"
         id="path3000" />
      <path
         d="m 317.7818,290.14957 -4.57031,2.26562 -1.67969,6.17188 1.66016,6.1914 4.58984,2.2461 4.55078,-2.26563 1.67969,-6.17187 -1.67969,-6.15235 -4.55078,-2.28515 m 0,-3.04688 7.36328,3.04688 2.67578,8.4375 -2.67578,8.4375 -7.36328,3.04687 -7.38281,-3.04687 -2.65625,-8.4375 2.65625,-8.4375 7.38281,-3.04688"
         id="path3002"
         inkscape:connector-curvature="0"
         sodipodi:nodetypes="cccccccccccccccccc"
         style="stroke:#000000;stroke-opacity:1;fill:none" />
      <path
         d="m 346.43414,290.98941 -1.32812,-0.50781 -1.5625,-0.17578 -4.6875,1.99218 -1.6211,5.6836 0,11.52344 -3.61328,0 0,-21.875 3.61328,0 0,3.39843 2.94922,-2.94922 4.41407,-0.97656 0.82031,0.0586 0.99609,0.13671 0.0195,3.69141"
         id="path3004"
         inkscape:connector-curvature="0"
         sodipodi:nodetypes="ccccccccccccccc"
         style="stroke:#000000;stroke-opacity:1;fill:none" />
      <path
         d="m 350.24274,279.11441 3.59375,0 0,30.39063 -3.59375,0 0,-30.39063"
         style="stroke:#000000;stroke-opacity:1;fill:none"
         id="path3006" />
      <path
         d="m 375.73102,290.95035 0,-11.83594 3.59375,0 0,30.39063 -3.59375,0 0,-3.28125 -2.8711,2.91015 -4.14062,0.9375 -6.46484,-3.16406 -2.48047,-8.32031 2.48047,-8.32032 6.46484,-3.16406 4.14062,0.95703 2.8711,2.89063 m -12.2461,7.63672 1.6211,6.23047 4.49219,2.24609 4.49218,-2.24609 1.64063,-6.23047 -1.64063,-6.21094 -4.49218,-2.26563 -4.49219,2.26563 -1.6211,6.21094"
         id="path3008"
         inkscape:connector-curvature="0"
         sodipodi:nodetypes="ccccccccccccccccccccccc"
         style="stroke:#000000;stroke-opacity:1;fill:none" />
    </g>
  </g>
</svg>
