<?xml version="1.0" encoding="UTF-8" standalone="no"?>
<!-- Created with Inkscape (http://www.inkscape.org/) -->

<svg
   xmlns:dc="http://purl.org/dc/elements/1.1/"
   xmlns:cc="http://creativecommons.org/ns#"
   xmlns:rdf="http://www.w3.org/1999/02/22-rdf-syntax-ns#"
   xmlns:svg="http://www.w3.org/2000/svg"
   xmlns="http://www.w3.org/2000/svg"
   xmlns:sodipodi="http://sodipodi.sourceforge.net/DTD/sodipodi-0.dtd"
   xmlns:inkscape="http://www.inkscape.org/namespaces/inkscape"
   width="744.09448819"
   height="1052.3622047"
   id="svg2"
   version="1.1"
   inkscape:version="0.48.3.1 r9886"
   sodipodi:docname="New document 1">
  <defs
     id="defs4" />
  <sodipodi:namedview
     id="base"
     pagecolor="#ffffff"
     bordercolor="#666666"
     borderopacity="1.0"
     inkscape:pageopacity="0.0"
     inkscape:pageshadow="2"
     inkscape:zoom="0.97110203"
     inkscape:cx="307.01882"
     inkscape:cy="719.93789"
     inkscape:document-units="px"
     inkscape:current-layer="layer1"
     showgrid="false"
     inkscape:window-width="1399"
     inkscape:window-height="921"
     inkscape:window-x="65"
     inkscape:window-y="100"
     inkscape:window-maximized="0" />
  <metadata
     id="metadata7">
    <rdf:RDF>
      <cc:Work
         rdf:about="">
        <dc:format>image/svg+xml</dc:format>
        <dc:type
           rdf:resource="http://purl.org/dc/dcmitype/StillImage" />
        <dc:title></dc:title>
      </cc:Work>
    </rdf:RDF>
  </metadata>
  <g
     inkscape:label="Layer 1"
     inkscape:groupmode="layer"
     id="layer1">
    <path
       style="fill:#000000"
       d="m 582.49999,443.74253 c -5.775,-2.37171 -13.17832,-5.51614 -16.45183,-6.98764 l -5.95182,-2.67545 -5.04818,1.99315 c -18.17629,7.17648 -39.70614,7.71139 -58.54817,1.45463 -23.88942,-7.93282 -42.36611,-26.77415 -47.44303,-48.37932 -7.88895,-33.57197 15.97636,-66.72602 54.71714,-76.01388 9.94218,-2.38358 27.96659,-2.64222 37.86875,-0.5434 26.9237,5.70663 48.51606,24.14242 56.0816,47.88307 2.28255,7.16265 2.69316,21.2953 0.84763,29.17421 -1.54053,6.57677 -7.60201,18.78527 -11.28362,22.72644 -1.62102,1.73531 -2.71158,3.83449 -2.44368,4.70373 0.26611,0.86341 3.05065,7.39759 6.18788,14.52042 5.52131,12.53571 6.01735,15.30944 2.89589,16.1933 -0.51071,0.14461 -5.65356,-1.67756 -11.42856,-4.04926 z m -53.5,-24.86032 c 6.26149,-3.20778 12.22576,-9.2913 13.51444,-13.78466 1.35168,-4.71302 1.30691,-71.48068 -0.0496,-74.01539 -1.28421,-2.39956 -5.62841,-2.54868 -8.13608,-0.27927 -1.69207,1.53129 -1.82876,3.83578 -1.82876,30.83227 l 0,29.17729 -5.35849,-0.44437 c -17.15795,-1.42287 -32.66815,13.46182 -25.92409,24.8786 4.27681,7.24006 17.39569,8.95675 27.78258,3.63553 z m -344.25,-41.26865 c -3.92511,-2.75467 -2.92381,-6.81782 7.7599,-31.48852 5.50544,-12.71311 10.73767,-24.54628 11.62718,-26.29594 0.8895,-1.74966 1.29266,-2.87632 0.89591,-2.50368 -1.72819,1.62316 -13.10553,-14.88093 -19.42635,-28.18006 -8.34766,-17.56364 -12.03451,-37.73115 -10.17999,-55.68576 1.06301,-10.29161 3.7753,-22.26926 6.54249,-28.89207 0.90075,-2.1558 1.66468,-4.14463 1.69762,-4.41963 0.0774,-0.64656 6.46744,-12.88917 8.09017,-15.5 13.76447,-22.14582 32.6088,-38.69388 57.93605,-50.87626 37.02071,-17.80693 78.66983,-20.9542 118.80702,-8.97782 29.59336,8.83026 56.46955,26.90688 73.37928,49.35408 16.37799,21.74134 23.75216,43.0375 23.71932,68.5 -0.0306,23.76189 -6.22098,43.30063 -20.33917,64.19719 -6.47268,9.58031 -25.25127,28.71179 -27.38028,27.89481 -0.81567,-0.313 -1.23268,-0.16402 -0.9267,0.33106 1.5564,2.51832 -32.12269,21.60736 -41.3887,23.45879 -0.86006,0.17185 -2.79149,0.81638 -4.29205,1.4323 -15.64712,6.42247 -53.54634,9.65479 -74.2717,6.33444 -12.32151,-1.97399 -27.10666,-5.89418 -36.70259,-9.73145 l -8.7026,-3.48004 -6.2974,2.85538 c -3.46358,1.57046 -6.52241,2.88157 -6.79741,2.91357 -0.275,0.032 -2.075,0.72144 -4,1.53208 -11.70955,4.931 -31.30754,13.21585 -36,15.21862 -7.98792,3.40931 -11.10555,3.8648 -13.75,2.00891 z m 133.80752,-49.98057 c 3.21542,-0.83319 7.78038,-2.34398 10.14435,-3.3573 2.36397,-1.01331 4.52831,-1.69587 4.79813,-1.76422 1.43727,-0.36411 11.82878,-8.98139 15.65676,-13.45288 8.21743,-9.59882 7.84324,-5.65112 7.84324,-82.74703 l 0,-68.33635 -2.8651,-2.4647 c -2.4005,-2.06501 -3.72642,-2.41747 -8.17648,-2.17346 -2.92125,0.16018 -5.1374,0.4652 -4.92478,0.67783 0.21263,0.21262 -0.27046,1.65719 -1.07352,3.21014 -1.22921,2.37703 -1.46012,11.68759 -1.46012,58.87322 0,30.82731 -0.36,56.04966 -0.8,56.04966 -0.44,0 -1.29712,-0.49712 -1.90472,-1.10472 -1.91069,-1.91069 -17.1017,-2.2653 -24.29528,-0.56712 -13.57173,3.20386 -27.36733,12.05799 -33.00803,21.18483 -4.25256,6.88079 -4.29349,20.44608 -0.0795,26.36403 2.67473,3.25597 2.6549,3.27028 6.20493,5.55676 8.10558,5.50788 21.94428,7.15976 33.94016,4.05131 z"
       id="path3007"
       inkscape:connector-curvature="0"
       sodipodi:nodetypes="sscssssssssssssssssscsssssssssscsssssssssssscssssscsssscsscsssssscccc" />
  </g>
</svg>
