<?xml version="1.0" encoding="UTF-8" standalone="no"?>
<!-- Created with Inkscape (http://www.inkscape.org/) -->

<svg
   xmlns:dc="http://purl.org/dc/elements/1.1/"
   xmlns:cc="http://creativecommons.org/ns#"
   xmlns:rdf="http://www.w3.org/1999/02/22-rdf-syntax-ns#"
   xmlns:svg="http://www.w3.org/2000/svg"
   xmlns="http://www.w3.org/2000/svg"
   xmlns:sodipodi="http://sodipodi.sourceforge.net/DTD/sodipodi-0.dtd"
   xmlns:inkscape="http://www.inkscape.org/namespaces/inkscape"
   width="744.09448819"
   height="1052.3622047"
   id="svg2"
   version="1.1"
   inkscape:version="0.48.3.1 r9886"
   sodipodi:docname="New document 1">
  <sodipodi:namedview
     id="base"
     pagecolor="#ffffff"
     bordercolor="#666666"
     borderopacity="1.0"
     inkscape:pageopacity="0.0"
     inkscape:pageshadow="2"
     inkscape:zoom="0.98994949"
     inkscape:cx="375"
     inkscape:cy="520"
     inkscape:document-units="px"
     inkscape:current-layer="layer1"
     showgrid="false"
     inkscape:window-width="691"
     inkscape:window-height="748"
     inkscape:window-x="132"
     inkscape:window-y="71"
     inkscape:window-maximized="0" />
  <defs
     id="defs4" />
  <metadata
     id="metadata7">
    <rdf:RDF>
      <cc:Work
         rdf:about="">
        <dc:format>image/svg+xml</dc:format>
        <dc:type
           rdf:resource="http://purl.org/dc/dcmitype/StillImage" />
        <dc:title></dc:title>
      </cc:Work>
    </rdf:RDF>
  </metadata>
  <g
     inkscape:label="Layer 1"
     inkscape:groupmode="layer"
     id="layer1">
    <path
       style="fill:#000000"
       d="M333.53737 679.45318L333.53737 653.95318L337.03737 653.95318L341.28737 653.70318L342.35692 655.70318L343.22551 657.75512375L347.24296 655.36214L351.38410125 653.306285L356.77202 653.17484L363.797900469 654.9790475L369.12171125 659.1082475L372.508476406 665.28444125L373.72322 673.22963L372.57496 681.342470469L369.190275 687.66095375L363.8136575 691.890737656L356.6896 693.73748L351.40015625 693.604215L347.36871 691.62955L343.11871 689.70518L342.53737 697.61985L342.53737 704.95318L338.03737 704.95318L333.53737 704.95318L333.53737 679.45318L333.53737 679.45318M359.87841 682.89956L363.5425275 676.9250025L363.29688 669.40651L359.280800781 663.605374844L353.54745875 661.71664375L347.772677344 663.723163281L343.63228 669.60778L342.93981625 675.9690375L346.12597 681.87611L349.03384625 684.371915L352.9914 684.95318L359.87841 682.89956L359.87841 682.89956M488.78737 703.92202L486.688425 702.42498125L488.11922 698.79489L489.94759625 696.37196L492.70109 696.33592L497.48872625 695.89705125L499.53737 693.04343L493.94745 677.82861L487.82077 663.15187L483.16069 662.15187L480.462494062 662.400102031L479.1688175 664.01484625L478.64367 679.70318L478.53737 692.95318L474.06342 692.95318L469.58946 692.95318L469.31342 677.70318L468.7764475 664.42674375L468.075025625 662.595151406L466.78737 662.13363L464.95375125 661.1587225L464.53737 657.95318L464.9531725 654.74934L466.77842 653.77273L468.72428625 652.59225375L469.70905 648.60857L472.12681 641.85435L477.8022775 638.94078375L485.17381 638.7348L488.51958875 640.0114775L489.33915 643.62577L489.64093 647.71918L485.18798 647.21727L481.31344875 647.191735L479.55919 648.91241L478.681054219 651.358198437L479.43384875 652.902455L487.08552 654.16025L494.72939 654.45318L499.38338 666.62496L504.75939 679.51365L506.33848 677.84187L510.97524 664.70318L514.75494 653.95318L519.64616 653.95318L524.53737 654.48461L510.36588 691.22388L504.13696125 702.48135125L500.731187344 704.438826094L496.15251 704.88979L488.78737 703.92202L488.78737 703.92202M300.01646 692.15176L291.75345 688.10704L288.51135 685.79846L290.47768 683.03701L293.93577375 679.070025L295.53737 678.74129L300.73371 682.36373L310.49564625 684.98709625L314.595477656 684.560679219L317.53737 682.95318L319.518825 679.817392656L319.008555 676.95534125L316.0598625 674.449736719L310.72605 672.38329L296.003545 666.528655L292.603273125 662.976622188L290.95778 658.38061L292.00980375 650.45366625L296.37442 644.06921L303.94295875 640.91373375L312.46627 640.42282L322.029495 643.5049625L327.50141 647.27673L325.04671 651.41278L322.62798 654.37239L318.37379 651.9814L309.5985275 649.5041L302.6438 651.35817L300.487290156 654.466717656L301.49239875 657.29808125L313.80631 662.98192L324.4741475 667.69751125L329.067 674.04655L328.95793125 680.9060175L326.31525 687.50843L321.595063906 691.300902812L315.14053375 693.4268775L307.698664219 693.754460937L300.01646 692.15176L300.01646 692.15176M389.54451 692.3602L384.127978594 689.039954219L380.31263625 684.52238875L378.159010781 678.910218906L377.72763 672.30616L378.65100625 666.4271175L381.08345 661.80053L388.323532812 655.350927656L397.2162725 652.92164875L406.353613438 654.573410469L414.3275 660.36693L418.121190312 666.627594531L419.3701325 673.48059125L418.076233437 680.344397344L414.2414 686.63749L409.015181719 690.880443906L402.70277875 693.35378875L395.985463906 693.899661719L389.54451 692.3602L389.54451 692.3602M406.03737 681.81552L408.52218 678.457575L409.03737 673.35192L408.5094625 668.21665L405.77159 664.87115L400.562446094 662.115102031L395.12710125 662.17688375L390.471158281 664.789946094L387.60022 669.68774L387.395132656 676.110787969L389.97543375 681.43173625L394.602415469 684.763708906L400.53737 685.21983L406.03737 681.81552L406.03737 681.81552M430.64744 692.55767L428.070834531 690.543902031L426.53410875 687.42089625L425.57281 674.20318L425.53741 661.95318L423.03741 661.95318L420.94642375 661.31013375L420.53741 658.02273L420.9508475 654.7557875L422.78741 653.77273L424.699855 652.59869625L425.33967 648.20318L425.64193 642.95318L430.58967 642.95318L435.53741 642.95318L435.53741 648.45318L435.53741 653.95318L440.53741 653.95318L445.53741 653.95318L445.53741 657.95318L445.53741 661.95318L440.50466 661.95318L435.47191 661.95318L435.75466 673.20318L436.03741 684.45318L440.78741 684.39038L445.53741 684.32758L445.53741 687.9799L445.03362875 691.1393725L442.99036 692.79274L436.6763075 693.86923375L430.64748 692.55775L430.64744 692.55767M449.53737 673.45318L449.53737 653.95318L454.53737 653.95318L459.53737 653.95318L459.53737 673.45318L459.53737 692.95318L454.53737 692.95318L449.53737 692.95318L449.53737 673.45318L449.53737 673.45318M449.98739 645.51724L448.849012969 641.762239063L449.98198375 638.4877125L452.836735156 636.428699688L456.8637 636.32024L460.34367375 639.75086125L460.16883 645.07833L458.139370625 647.153487813L455.251165 647.9405525L452.276431875 647.406233438L449.98739 645.51724L449.98739 645.51724M389.53737 612.88529L370.212676406 607.857335625L351.08968125 598.95652L333.463020469 586.920419375L318.62733 572.48661L309.47361875 559.60442125L301.71235 545.83832L293.7705075 521.3394775L290.57495 496.95318L294.37964 467.95318L301.246323437 448.685563125L311.161995 430.9258325L323.889934062 415.025873125L339.19342 401.33757L356.32577875 391.3599175L375.53737 383.40323L400.814427656 378.810239063L426.36930125 379.8967525L451.354229219 386.533224688L474.92145 398.59011L491.80371625 413.1834125L506.73824 430.45318L514.735485078 444.283663691L520.748594375 458.766708906L524.765708984 473.720799355L526.77497 488.96441875L526.764518516 504.316050801L524.722495625 519.594179219L520.637042422 534.617287715L514.4963 549.20386L500.32799 571.10252L481.69242 589.4661425L461.94682 601.72103L449.03252625 607.415064063L436.6080425 611.196885L423.8034025 613.268330938L409.74864 613.83124L389.53737 612.88529L389.53737 612.88529M460.99257 552.332L463.93112 549.075535L465.53737 544.56456L464.182377031 541.572004824L460.41400125 538.203891719L447.41672 531.12297125L430.10476375 524.885757656L412.03737 521.05621L395.154796094 520.064757969L376.16162375 520.54775625L358.359689531 522.304241406L345.05083 525.13325L340.812948906 527.942353594L338.89159375 532.08594625L339.465164219 536.439315781L342.71206 539.87775L346.9143925 540.716425L357.68056 538.96682L384.43911 536.207535L408.27653 536.85208L427.07091125 541.15875375L443.48081 547.60943L454.7618275 552.34001L460.99257 552.332L460.99257 552.332M476.19298 519.40229L478.97778125 516.481675L479.53737 512.09085L479.138885156 508.233032969L477.42113625 505.27307375L466.89408 498.73678L450.62753375 491.37329125L434.27587 486.48766L411.752012656 482.415080781L389.22823125 480.95843125L367.293644219 482.121601094L346.53737 485.90848L337.20461125 489.56523875L333.94404 495.72336L333.946445 499.03693875L335.67229 502.46754L338.206392031 505.2013325L341.45922375 506.4845575L352.53731 505.07252L372.01285625 501.63898625L394.53737 501.25922L412.159384688 502.606814375L427.9577275 505.4855675L442.670891563 510.076266875L457.03737 516.5597L469.94298 521.85008L476.19298 519.40229L476.19298 519.40229M491.40449 483.21466L495.354605 479.22063125L496.53737 472.7742L495.8563775 468.814635L492.91319 465.27129L480.843020312 457.677051563L462.329655 450.5693625L439.801442187 444.715152188L415.68673 440.88135L389.934550312 439.920100625L363.2560775 441.629005L341.117260937 445.395046875L333.45833293 447.857926797L328.98405 450.60521L326.016004062 456.726219531L326.8716925 463.03172625L330.875824687 467.960662344L337.35311 469.95196L343.52407 468.9603L349.20833 467.39033L362.03737 465.42762L391.338301406 463.341702969L421.44714875 465.46726375L449.726106719 471.438507656L473.53737 480.88964L483.80342125 484.76157375L491.40449 483.21466L491.40449 483.21466"
       id="path2996"
       inkscape:connector-curvature="0" />
  </g>
</svg>
