<?xml version="1.0" encoding="UTF-8" standalone="no"?>
<svg
   xmlns:dc="http://purl.org/dc/elements/1.1/"
   xmlns:cc="http://creativecommons.org/ns#"
   xmlns:rdf="http://www.w3.org/1999/02/22-rdf-syntax-ns#"
   xmlns:svg="http://www.w3.org/2000/svg"
   xmlns="http://www.w3.org/2000/svg"
   xmlns:sodipodi="http://sodipodi.sourceforge.net/DTD/sodipodi-0.dtd"
   xmlns:inkscape="http://www.inkscape.org/namespaces/inkscape"
   width="744.094488189"
   height="1052.36220472"
   id="svg3004"
   version="1.1"
   inkscape:version="0.48.3.1 r9886"
   sodipodi:docname="ink_ext_XXXXXX.svgK2XCRX">
  <sodipodi:namedview
     pagecolor="#ffffff"
     bordercolor="#666666"
     borderopacity="1"
     objecttolerance="10"
     gridtolerance="10"
     guidetolerance="10"
     inkscape:pageopacity="0"
     inkscape:pageshadow="2"
     inkscape:window-width="1346"
     inkscape:window-height="834"
     id="namedview3052"
     showgrid="false"
     inkscape:zoom="0.77254772"
     inkscape:cx="725.42347"
     inkscape:cy="1521.5889"
     inkscape:window-x="72"
     inkscape:window-y="24"
     inkscape:window-maximized="0"
     inkscape:current-layer="g3024" />
  <metadata
     id="metadata3054">
    <rdf:RDF>
      <cc:Work
         rdf:about="">
        <dc:format>image/svg+xml</dc:format>
        <dc:type
           rdf:resource="http://purl.org/dc/dcmitype/StillImage" />
      </cc:Work>
    </rdf:RDF>
  </metadata>
  <desc
     id="desc3006">/home/fredrik/Documents/whiteboardplotter/spotify.dxf - scale = 1.000000</desc>
  <defs
     id="defs3008">
    <marker
       orient="auto"
       id="DistanceX"
       style="overflow:visible"
       refX="0.0"
       refY="0.0">
      <path
         id="path3011"
         d="M 3,-3 L -3,3 M 0,-5 L  0,5"
         style="stroke:#000000; stroke-width:0.5" />
    </marker>
    <pattern
       id="Hatch"
       x="0"
       y="0"
       patternUnits="userSpaceOnUse"
       width="8"
       height="8">
      <path
         id="path3014"
         d="M8 4 l-4,4"
         stroke-width="0.25"
         stroke="#000000"
         linecap="square" />
      <path
         id="path3016"
         d="M6 2 l-4,4"
         stroke-width="0.25"
         stroke="#000000"
         linecap="square" />
      <path
         id="path3018"
         d="M4 0 l-4,4"
         stroke-width="0.25"
         stroke="#000000"
         linecap="square" />
    </pattern>
    <symbol
       id="*MODEL_SPACE" />
    <symbol
       id="*PAPER_SPACE" />
  </defs>
  <g
     id="g3022"
     inkscape:groupmode="layer"
     inkscape:label="0" />
  <g
     id="g3024"
     inkscape:groupmode="layer"
     inkscape:label="Layer_1">
    <path
       id="path3026"
       d="M 1259.338564,260.952591 L 1240.881024,252.931649 L 1245.930321,240.307611 L 1252.057376,229.122074 L 1259.338564,230.548748 L 1276.505603,231.493819 L 1284.381978,222.745195 L 1264.681304,171.277894 L 1244.029465,121.767066 L 1230.967587,121.591885 L 1217.905767,121.416704 L 1217.905767,170.997775 L 1217.235572,221.831107 L 1200.472781,223.083340 L 1183.987191,222.059324 L 1183.594224,171.239400 L 1183.594224,121.443520 L 1175.894844,121.443520 L 1167.802498,120.419476 L 1168.079726,92.915929 L 1176.072038,91.663696 L 1183.394268,91.663696 L 1183.795852,83.409491 L 1191.343978,56.870692 L 1211.228617,43.702569 L 1248.083688,45.204109 L 1250.598841,46.027658 L 1250.773455,59.692521 L 1250.194489,73.591933 L 1243.970844,73.625655 L 1226.975301,72.235658 L 1217.387112,86.646430 L 1217.100189,92.311072 L 1242.348180,92.311072 L 1268.225603,93.120307 L 1284.569433,135.038650 L 1301.231112,178.413605 L 1302.178309,180.679479 L 1306.301131,168.868276 L 1310.614980,155.920521 L 1311.173093,154.460282 L 1332.708718,92.754808 L 1349.918419,92.311072 L 1367.128743,92.634761 L 1367.335106,94.087431 L 1314.882595,231.175687 L 1303.591720,249.614575 L 1300.625376,253.795989 L 1300.447928,254.070950 L 1296.239896,256.241324 L 1273.905043,261.703857 L 1259.338819,260.952817 L 1259.338564,260.952591"
       style="stroke:#000000;fill:none" />
    <path
       id="path3028"
       d="M 739.281430,260.858480 L 738.838970,176.710011 L 740.091175,92.333863 L 771.726246,92.440446 L 772.503109,100.615054 L 772.503109,108.012883 L 777.282491,103.472972 L 806.490964,89.710087 L 833.188929,92.778009 L 856.094117,107.626266 L 872.025279,136.947954 L 873.184620,172.702446 L 862.001865,200.524465 L 840.523096,219.159425 L 812.818658,225.672789 L 775.416359,210.820351 L 772.826797,208.130017 L 772.503109,234.542707 L 772.179420,260.955397 L 755.951641,261.128027 L 739.281430,260.858169 L 739.281430,260.858480"
       style="stroke:#000000;fill:none" />
    <path
       id="path3030"
       d="M 813.794457,194.915183 L 828.402024,187.121505 L 837.669458,172.570153 L 838.866586,147.143239 L 817.312847,121.291498 L 799.525134,120.116509 L 783.956144,128.526452 L 774.102501,144.285094 L 772.703330,165.238080 L 780.505455,182.769516 L 795.029088,193.716266 L 813.794457,194.915183 L 813.794457,194.915183"
       style="stroke:#000000;fill:none" />
    <path
       id="path3032"
       d="M 943.598296,225.608556 L 910.554718,212.949085 L 907.641468,211.821973 L 907.316872,211.754792 L 902.128422,205.338997 L 883.203165,164.526052 L 894.829181,118.898575 L 912.112980,101.374654 L 916.701420,98.786197 L 946.310404,89.702943 L 977.881011,93.624506 L 1007.143430,114.190200 L 1021.769915,146.862354 L 1020.547134,174.642987 L 994.520920,212.874647 L 960.676413,225.628370 L 943.598296,225.608528 L 943.598296,225.608556"
       style="stroke:#000000;fill:none" />
    <path
       id="path3034"
       d="M 961.732431,194.929044 L 977.370300,186.073083 L 986.959361,170.321258 L 986.595392,145.073154 L 964.449507,121.809930 L 933.109313,125.293139 L 917.494381,150.338229 L 923.737266,180.523460 L 944.236998,194.962833 L 961.732431,194.929101 L 961.732431,194.929044"
       style="stroke:#000000;fill:none" />
    <path
       id="path3036"
       d="M 653.383814,224.992701 L 631.696337,220.056364 L 624.251367,217.695784 L 622.956586,217.205135 L 616.159020,213.456061 L 593.665200,197.059989 L 602.419039,184.563794 L 615.606236,173.535350 L 617.422706,174.020896 L 617.669603,174.426619 L 636.243250,187.502924 L 662.799600,194.405457 L 688.362293,187.713198 L 693.602759,175.553447 L 686.926081,162.571015 L 658.818142,152.566342 L 619.649802,137.951107 L 605.633386,123.467269 L 600.488872,102.992981 L 607.994135,72.755249 L 630.709172,54.093132 L 664.071647,48.520361 L 714.589739,64.298565 L 723.120831,72.216298 L 705.717383,96.522137 L 698.596129,92.916978 L 669.103087,80.327806 L 644.861735,82.319740 L 638.205335,87.836216 L 637.901348,88.426757 L 636.228028,90.368915 L 635.693499,92.311072 L 635.386422,93.087935 L 635.825906,103.640357 L 672.339628,121.167283 L 703.066422,132.119589 L 718.893634,144.386674 L 726.937342,160.675441 L 726.601351,186.505951 L 711.606203,210.942953 L 683.145156,224.071526 L 653.383814,224.992701 L 653.383814,224.992701"
       style="stroke:#000000;fill:none" />
    <path
       id="path3038"
       d="M 1071.919871,225.040039 L 1057.227732,220.696398 L 1044.362636,207.333198 L 1040.532831,157.879148 L 1040.521493,121.483545 L 1032.590976,121.301844 L 1024.660488,121.120143 L 1024.485591,107.283472 L 1025.050365,92.555391 L 1033.145036,91.664008 L 1040.500006,91.664008 L 1040.672636,74.670080 L 1040.845266,57.676153 L 1056.984576,57.502672 L 1073.644894,58.150049 L 1074.175824,75.317428 L 1074.184328,91.663951 L 1090.207191,91.672455 L 1107.052214,92.204206 L 1107.699591,106.922367 L 1107.524693,121.118669 L 1090.831918,121.291583 L 1074.139172,121.464496 L 1074.323424,154.308487 L 1075.919698,189.418238 L 1079.392847,192.897567 L 1101.516746,191.621835 L 1106.830970,191.082940 L 1107.838346,204.516241 L 1107.339874,217.700546 L 1093.466608,223.687828 L 1071.918255,225.038934 L 1071.919871,225.040039"
       style="stroke:#000000;fill:none" />
    <path
       id="path3040"
       d="M 1121.190576,222.059466 L 1120.797609,157.019797 L 1122.049871,92.334005 L 1138.188274,91.663838 L 1154.091855,92.681135 L 1155.109153,157.614109 L 1154.332290,222.306647 L 1137.569499,223.083510 L 1121.190576,222.059466 L 1121.190576,222.059466"
       style="stroke:#000000;fill:none" />
    <path
       id="path3042"
       d="M 1132.418608,75.932263 L 1118.731861,64.149803 L 1118.626980,46.914789 L 1128.889928,36.535224 L 1137.676224,34.694178 L 1145.602970,35.724317 L 1156.922135,45.953306 L 1158.666661,55.410080 L 1152.989008,70.477951 L 1132.418580,75.932263 L 1132.418608,75.932263"
       style="stroke:#000000;fill:none" />
    <path
       id="path3044"
       d="M 971.898491,-23.643057 L 877.379896,-37.931683 L 863.773370,-41.308257 L 862.154901,-41.801060 L 853.426573,-44.601123 L 751.786724,-89.587772 L 728.157061,-104.761290 L 649.464828,-171.078679 L 586.664050,-252.566348 L 580.750271,-261.467929 L 580.435427,-261.971646 L 575.423433,-271.844320 L 536.990893,-363.561148 L 518.392913,-459.262984 L 517.621776,-466.384266 L 517.769178,-539.215356 L 525.193767,-594.243283 L 527.456551,-606.219945 L 527.965285,-608.162102 L 530.353502,-617.549230 L 574.384762,-731.217472 L 647.035172,-831.510808 L 704.885184,-883.578600 L 770.294920,-925.760140 L 777.834198,-930.197778 L 778.319745,-930.393369 L 784.641827,-933.069529 L 853.436516,-960.466553 L 927.600718,-977.120490 L 996.175559,-981.381047 L 1039.550542,-980.140521 L 1054.764142,-978.845740 L 1058.001080,-978.413740 L 1070.275039,-976.833000 L 1071.213307,-976.621535 L 1074.980494,-975.603728 L 1106.555159,-969.342874 L 1179.596778,-945.765563 L 1247.835129,-910.848582 L 1309.729663,-865.541633 L 1363.739839,-810.794424 L 1392.847540,-772.465224 L 1397.368573,-766.476893 L 1397.663773,-765.924364 L 1400.253987,-761.230814 L 1425.883323,-715.952169 L 1450.307452,-657.508635 L 1455.082838,-645.512244 L 1455.186302,-645.006969 L 1457.126277,-635.963287 L 1467.488551,-592.948531 L 1468.409981,-587.769435 L 1469.422942,-582.266650 L 1474.050784,-545.689261 L 1475.214917,-504.903841 L 1472.940992,-449.228509 L 1462.203865,-388.374080 L 1460.380961,-380.605450 L 1459.824576,-378.339576 L 1457.777991,-369.898937 L 1457.575597,-369.169583 L 1455.572891,-363.773353 L 1442.283902,-325.634216 L 1439.119162,-315.923400 L 1438.995855,-315.693510 L 1434.573553,-307.352055 L 1402.884765,-247.996134 L 1397.728517,-238.989472 L 1397.327074,-238.503926 L 1393.656265,-233.810376 L 1339.290907,-167.376515 L 1260.761978,-102.408644 L 1171.376741,-56.023721 L 1074.100482,-29.381850 L 971.898491,-23.643142 L 971.898491,-23.643057"
       style="stroke:#000000;fill:none;fill-opacity:1" />
    <path
       id="path3046"
       d="M 1202.609735,-279.155636 L 1216.493309,-292.337908 L 1219.853877,-310.440005 L 1213.423115,-324.905683 L 1203.849213,-332.088109 L 1203.311877,-332.330187 L 1175.825565,-348.451044 L 1096.687644,-381.085228 L 1010.489584,-400.662383 L 998.117688,-402.279633 L 985.817310,-403.523532 L 928.523509,-406.498918 L 839.831414,-401.940468 L 734.449465,-382.530827 L 720.411906,-368.538626 L 718.440860,-349.008449 L 728.860093,-332.690446 L 746.849424,-326.548446 L 761.767767,-328.812619 L 880.940523,-346.094546 L 962.187676,-346.094546 L 1041.190894,-334.609243 L 1052.520180,-332.084197 L 1086.486066,-321.872357 L 1098.786444,-317.781198 L 1100.404913,-317.164294 L 1111.734198,-312.595753 L 1129.725298,-304.910745 L 1138.465020,-301.708502 L 1138.762488,-301.622613 L 1148.473304,-295.783384 L 1168.380595,-284.775151 L 1191.741647,-276.909378 L 1202.609735,-279.158357 L 1202.609735,-279.155636"
       style="stroke:#000000;fill:none;fill-opacity:1" />
    <path
       id="path3048"
       d="M 1251.800192,-404.613907 L 1275.313096,-422.685595 L 1277.494668,-427.217315 L 1278.264728,-429.483161 L 1279.612346,-435.805157 L 1269.852520,-465.784569 L 1175.943969,-515.001472 L 1163.534910,-519.677872 L 1161.785537,-520.311076 L 1125.653017,-532.477998 L 1026.602731,-554.722427 L 1022.394699,-555.398376 L 968.661553,-561.204638 L 878.998365,-562.185198 L 827.531065,-557.608181 L 815.679609,-556.058877 L 718.129701,-533.475737 L 702.089490,-517.662468 L 697.737203,-500.048405 L 708.399039,-474.170230 L 733.983562,-463.504153 L 753.023197,-466.969876 L 834.652318,-483.568965 L 846.305291,-484.825677 L 921.911191,-488.307954 L 999.042973,-483.167324 L 1078.070031,-468.307970 L 1114.323732,-457.955476 L 1210.460797,-416.462839 L 1233.508904,-404.612688 L 1251.800192,-404.612688 L 1251.800192,-404.613907"
       style="stroke:#000000;fill:none;fill-opacity:1" />
    <path
       id="path3050"
       d="M 1310.158488,-551.531126 L 1333.854539,-564.107769 L 1342.418117,-575.792745 L 1346.043628,-605.995469 L 1335.700573,-625.195290 L 1315.661272,-639.356556 L 1297.919820,-648.469772 L 1297.534422,-648.727724 L 1290.898687,-652.469854 L 1281.349729,-657.057869 L 1221.096331,-680.964477 L 1220.495301,-681.258827 L 1164.819969,-698.516858 L 1156.216394,-700.735337 L 1087.457159,-714.932008 L 937.665493,-727.909207 L 790.953676,-718.472962 L 750.815631,-711.431617 L 744.341754,-710.050861 L 713.268255,-702.592257 L 678.565474,-686.527923 L 670.001924,-674.842946 L 665.273169,-652.450663 L 674.415202,-628.261894 L 695.387764,-613.077435 L 709.706523,-611.098427 L 727.510479,-613.813082 L 818.276995,-632.161658 L 825.235512,-633.458197 L 826.111389,-633.630260 L 840.516661,-634.637551 L 993.909657,-636.291709 L 1028.544888,-633.104631 L 1113.093907,-619.302823 L 1191.018784,-597.538587 L 1205.814813,-593.077762 L 1206.071631,-592.855243 L 1210.665175,-590.392843 L 1278.436479,-558.041315 L 1310.158488,-551.530899 L 1310.158488,-551.531126"
       style="stroke:#000000;fill:none;fill-opacity:1" />
    <path
       id="path3933"
       d="M 675.42347,-425.925425091 L 775.42347,-425.925425091 L 725.42347,-512.527965469 L 675.42347,-425.925425091 z"
       style="stroke:#000000;stroke-width:2;fill:none"
       inkscape:label="Triangle" />
  </g>
</svg>
