  0
SECTION
  2
HEADER
  9
$ACADVER
  1
AC1014
  9
$HANDSEED
  5
FFFF
  9
$MEASUREMENT
 70
     1
  0
ENDSEC
  0
SECTION
  2
TABLES
  0
TABLE
  2
VPORT
  5
8
330
0
100
AcDbSymbolTable
 70
     4
  0
VPORT
  5
2E
330
8
100
AcDbSymbolTableRecord
100
AcDbViewportTableRecord
  2
*ACTIVE
 70
     0
 10
0.0
 20
0.0
 11
1.0
 21
1.0
 12
210.0
 22
148.5
 13
0.0
 23
0.0
 14
10.0
 24
10.0
 15
10.0
 25
10.0
 16
0.0
 26
0.0
 36
1.0
 17
0.0
 27
0.0
 37
0.0
 40
341.0
 41
1.24
 42
50.0
 43
0.0
 44
0.0
 50
0.0
 51
0.0
 71
     0
 72
   100
 73
     1
 74
     3
 75
     0
 76
     0
 77
     0
 78
     0
  0
ENDTAB
  0
TABLE
  2
LTYPE
  5
5
330
0
100
AcDbSymbolTable
 70
     1
  0
LTYPE
  5
14
330
5
100
AcDbSymbolTableRecord
100
AcDbLinetypeTableRecord
  2
BYBLOCK
 70
     0
  3

 72
    65
 73
     0
 40
0.0
  0
LTYPE
  5
15
330
5
100
AcDbSymbolTableRecord
100
AcDbLinetypeTableRecord
  2
BYLAYER
 70
     0
  3

 72
    65
 73
     0
 40
0.0
  0
LTYPE
  5
16
330
5
100
AcDbSymbolTableRecord
100
AcDbLinetypeTableRecord
  2
CONTINUOUS
 70
     0
  3
Solid line
 72
    65
 73
     0
 40
0.0
  0
ENDTAB
  0
TABLE
  2
LAYER
  5
2
100
AcDbSymbolTable
 70
2
  0
LAYER
  5
50
100
AcDbSymbolTableRecord
100
AcDbLayerTableRecord
  2
0
 70
0
  6
CONTINUOUS
  0
LAYER
  5
51
100
AcDbSymbolTableRecord
100
AcDbLayerTableRecord
  2
Layer_1
 70
0
  6
CONTINUOUS
  0
ENDTAB
  0
TABLE
  2
STYLE
  5
3
330
0
100
AcDbSymbolTable
 70
     1
  0
STYLE
  5
11
330
3
100
AcDbSymbolTableRecord
100
AcDbTextStyleTableRecord
  2
STANDARD
 70
     0
 40
0.0
 41
1.0
 50
0.0
 71
     0
 42
2.5
  3
txt
  4

  0
ENDTAB
  0
TABLE
  2
VIEW
  5
6
330
0
100
AcDbSymbolTable
 70
     0
  0
ENDTAB
  0
TABLE
  2
UCS
  5
7
330
0
100
AcDbSymbolTable
 70
     0
  0
ENDTAB
  0
TABLE
  2
APPID
  5
9
330
0
100
AcDbSymbolTable
 70
     2
  0
APPID
  5
12
330
9
100
AcDbSymbolTableRecord
100
AcDbRegAppTableRecord
  2
ACAD
 70
     0
  0
ENDTAB
  0
TABLE
  2
DIMSTYLE
  5
A
330
0
100
AcDbSymbolTable
 70
     1
  0
DIMSTYLE
105
27
330
A
100
AcDbSymbolTableRecord
100
AcDbDimStyleTableRecord
  2
ISO-25
 70
     0
  3

  4

  5

  6

  7

 40
1.0
 41
2.5
 42
0.625
 43
3.75
 44
1.25
 45
0.0
 46
0.0
 47
0.0
 48
0.0
140
2.5
141
2.5
142
0.0
143
0.03937007874016
144
1.0
145
0.0
146
1.0
147
0.625
 71
     0
 72
     0
 73
     0
 74
     0
 75
     0
 76
     0
 77
     1
 78
     8
170
     0
171
     3
172
     1
173
     0
174
     0
175
     0
176
     0
177
     0
178
     0
270
     2
271
     2
272
     2
273
     2
274
     3
340
11
275
     0
280
     0
281
     0
282
     0
283
     0
284
     8
285
     0
286
     0
287
     3
288
     0
  0
ENDTAB
  0
TABLE
  2
BLOCK_RECORD
  5
1
330
0
100
AcDbSymbolTable
 70
     1
  0
BLOCK_RECORD
  5
1F
330
1
100
AcDbSymbolTableRecord
100
AcDbBlockTableRecord
  2
*MODEL_SPACE
  0
BLOCK_RECORD
  5
1B
330
1
100
AcDbSymbolTableRecord
100
AcDbBlockTableRecord
  2
*PAPER_SPACE
  0
ENDTAB
  0
ENDSEC
  0
SECTION
  2
BLOCKS
  0
BLOCK
  5
20
330
1F
100
AcDbEntity
  8
0
100
AcDbBlockBegin
  2
*MODEL_SPACE
 70
     0
 10
0.0
 20
0.0
 30
0.0
  3
*MODEL_SPACE
  1

  0
ENDBLK
  5
21
330
1F
100
AcDbEntity
  8
0
100
AcDbBlockEnd
  0
BLOCK
  5
1C
330
1B
100
AcDbEntity
 67
     1
  8
0
100
AcDbBlockBegin
  2
*PAPER_SPACE
  1

  0
ENDBLK
  5
1D
330
1B
100
AcDbEntity
 67
     1
  8
0
100
AcDbBlockEnd
  0
ENDSEC
  0
SECTION
  2
ENTITIES
  0
LWPOLYLINE
  5
100
100
AcDbEntity
  8
Layer_1
 62
7
100
AcDbPolyline
 90
53
 70
0
 10
355.413328
 20
223.353380
 30
0.0
 10
350.204200
 20
225.617068
 30
0.0
 10
351.629224
 20
229.179852
 30
0.0
 10
353.358415
 20
232.336659
 30
0.0
 10
355.413328
 20
231.934020
 30
0.0
 10
360.258248
 20
231.667300
 30
0.0
 10
362.481136
 20
234.136356
 30
0.0
 10
356.921168
 20
248.661572
 30
0.0
 10
351.092760
 20
262.634628
 30
0.0
 10
347.406408
 20
262.684068
 30
0.0
 10
343.720072
 20
262.733508
 30
0.0
 10
343.720072
 20
248.740628
 30
0.0
 10
343.530928
 20
234.394332
 30
0.0
 10
338.800096
 20
234.040924
 30
0.0
 10
334.147496
 20
234.329924
 30
0.0
 10
334.036592
 20
248.672436
 30
0.0
 10
334.036592
 20
262.725940
 30
0.0
 10
331.863656
 20
262.725940
 30
0.0
 10
329.579816
 20
263.014948
 30
0.0
 10
329.658056
 20
270.777060
 30
0.0
 10
331.913664
 20
271.130468
 30
0.0
 10
333.980160
 20
271.130468
 30
0.0
 10
334.093496
 20
273.459988
 30
0.0
 10
336.223745
 20
280.949827
 30
0.0
 10
341.835632
 20
284.666164
 30
0.0
 10
352.236952
 20
284.242396
 30
0.0
 10
352.946784
 20
284.009972
 30
0.0
 10
352.996064
 20
280.153444
 30
0.0
 10
352.832667
 20
276.230721
 30
0.0
 10
351.076216
 20
276.221204
 30
0.0
 10
346.279696
 20
276.613492
 30
0.0
 10
343.573696
 20
272.546452
 30
0.0
 10
343.492720
 20
270.947764
 30
0.0
 10
350.618264
 20
270.947764
 30
0.0
 10
357.921448
 20
270.719380
 30
0.0
 10
362.534040
 20
258.889092
 30
0.0
 10
367.236336
 20
246.647716
 30
0.0
 10
367.503656
 20
246.008236
 30
0.0
 10
368.667208
 20
249.341620
 30
0.0
 10
369.884672
 20
252.995764
 30
0.0
 10
370.042184
 20
253.407876
 30
0.0
 10
376.120016
 20
270.822532
 30
0.0
 10
380.976976
 20
270.947764
 30
0.0
 10
385.834112
 20
270.856412
 30
0.0
 10
385.892352
 20
270.446436
 30
0.0
 10
371.089088
 20
231.757084
 30
0.0
 10
367.902552
 20
226.553220
 30
0.0
 10
367.065384
 20
225.373132
 30
0.0
 10
367.015304
 20
225.295532
 30
0.0
 10
365.827704
 20
224.683004
 30
0.0
 10
359.524312
 20
223.141356
 30
0.0
 10
355.413400
 20
223.353316
 30
0.0
 10
355.413328
 20
223.353380
 30
0.0
  0
LWPOLYLINE
  5
101
100
AcDbEntity
  8
Layer_1
 62
7
100
AcDbPolyline
 90
22
 70
0
 10
208.641648
 20
223.379940
 30
0.0
 10
208.516776
 20
247.128508
 30
0.0
 10
208.870176
 20
270.941332
 30
0.0
 10
217.798296
 20
270.911252
 30
0.0
 10
218.017544
 20
268.604196
 30
0.0
 10
218.017544
 20
266.516364
 30
0.0
 10
219.366392
 20
267.797628
 30
0.0
 10
227.609672
 20
271.681820
 30
0.0
 10
235.144431
 20
270.815984
 30
0.0
 10
241.608784
 20
266.625476
 30
0.0
 10
246.104912
 20
258.350244
 30
0.0
 10
246.432104
 20
248.259532
 30
0.0
 10
243.276082
 20
240.407540
 30
0.0
 10
237.214296
 20
235.148340
 30
0.0
 10
229.395488
 20
233.310124
 30
0.0
 10
218.839728
 20
237.501812
 30
0.0
 10
218.108896
 20
238.261084
 30
0.0
 10
218.017544
 20
230.806836
 30
0.0
 10
217.926192
 20
223.352588
 30
0.0
 10
213.346352
 20
223.303868
 30
0.0
 10
208.641648
 20
223.380028
 30
0.0
 10
208.641648
 20
223.379940
 30
0.0
  0
LWPOLYLINE
  5
102
100
AcDbEntity
  8
Layer_1
 62
7
100
AcDbPolyline
 90
13
 70
0
 10
229.670880
 20
241.990604
 30
0.0
 10
233.793460
 20
244.190153
 30
0.0
 10
236.408936
 20
248.296868
 30
0.0
 10
236.746792
 20
255.472908
 30
0.0
 10
230.663848
 20
262.768844
 30
0.0
 10
225.643760
 20
263.100452
 30
0.0
 10
221.249845
 20
260.726979
 30
0.0
 10
218.468928
 20
256.279540
 30
0.0
 10
218.074051
 20
250.366142
 30
0.0
 10
220.275984
 20
245.418381
 30
0.0
 10
224.374876
 20
242.328965
 30
0.0
 10
229.670880
 20
241.990604
 30
0.0
 10
229.670880
 20
241.990604
 30
0.0
  0
LWPOLYLINE
  5
103
100
AcDbEntity
  8
Layer_1
 62
7
100
AcDbPolyline
 90
18
 70
0
 10
266.304408
 20
233.328252
 30
0.0
 10
256.978776
 20
236.901036
 30
0.0
 10
256.156592
 20
237.219132
 30
0.0
 10
256.064984
 20
237.238092
 30
0.0
 10
254.600688
 20
239.048772
 30
0.0
 10
249.259560
 20
250.567092
 30
0.0
 10
252.540680
 20
263.444180
 30
0.0
 10
257.418552
 20
268.389820
 30
0.0
 10
258.713512
 20
269.120340
 30
0.0
 10
267.069825
 20
271.683836
 30
0.0
 10
275.979752
 20
270.577084
 30
0.0
 10
284.238257
 20
264.772988
 30
0.0
 10
288.366176
 20
255.552180
 30
0.0
 10
288.021080
 20
247.711868
 30
0.0
 10
280.675904
 20
236.922044
 30
0.0
 10
271.124232
 20
233.322660
 30
0.0
 10
266.304408
 20
233.328260
 30
0.0
 10
266.304408
 20
233.328252
 30
0.0
  0
LWPOLYLINE
  5
104
100
AcDbEntity
  8
Layer_1
 62
7
100
AcDbPolyline
 90
11
 70
0
 10
271.422264
 20
241.986692
 30
0.0
 10
275.835618
 20
244.486041
 30
0.0
 10
278.541864
 20
248.931556
 30
0.0
 10
278.439144
 20
256.057132
 30
0.0
 10
272.189083
 20
262.622531
 30
0.0
 10
263.344184
 20
261.639492
 30
0.0
 10
258.937303
 20
254.571211
 30
0.0
 10
260.699184
 20
246.052268
 30
0.0
 10
266.484664
 20
241.977156
 30
0.0
 10
271.422264
 20
241.986676
 30
0.0
 10
271.422264
 20
241.986692
 30
0.0
  0
LWPOLYLINE
  5
105
100
AcDbEntity
  8
Layer_1
 62
7
100
AcDbPolyline
 90
43
 70
0
 10
184.399432
 20
233.502060
 30
0.0
 10
178.278744
 20
234.895204
 30
0.0
 10
176.177608
 20
235.561412
 30
0.0
 10
175.812192
 20
235.699884
 30
0.0
 10
173.893768
 20
236.757956
 30
0.0
 10
167.545512
 20
241.385292
 30
0.0
 10
170.016040
 20
244.911996
 30
0.0
 10
173.737760
 20
248.024468
 30
0.0
 10
174.250408
 20
247.887436
 30
0.0
 10
174.320088
 20
247.772932
 30
0.0
 10
179.561984
 20
244.082508
 30
0.0
 10
187.056776
 20
242.134460
 30
0.0
 10
194.271136
 20
244.023164
 30
0.0
 10
195.750112
 20
247.454916
 30
0.0
 10
193.865805
 20
251.118847
 30
0.0
 10
185.933120
 20
253.942388
 30
0.0
 10
174.878944
 20
258.067132
 30
0.0
 10
170.923200
 20
262.154793
 30
0.0
 10
169.471304
 20
267.933092
 30
0.0
 10
171.589456
 20
276.466852
 30
0.0
 10
178.000144
 20
281.733716
 30
0.0
 10
187.415776
 20
283.306476
 30
0.0
 10
201.673104
 20
278.853516
 30
0.0
 10
204.080768
 20
276.618956
 30
0.0
 10
199.169128
 20
269.759308
 30
0.0
 10
197.159352
 20
270.776764
 30
0.0
 10
188.835760
 20
274.329708
 30
0.0
 10
181.994312
 20
273.767540
 30
0.0
 10
180.115728
 20
272.210668
 30
0.0
 10
180.029936
 20
272.044004
 30
0.0
 10
179.557688
 20
271.495884
 30
0.0
 10
179.406832
 20
270.947764
 30
0.0
 10
179.320168
 20
270.728516
 30
0.0
 10
179.444200
 20
267.750388
 30
0.0
 10
189.749184
 20
262.803900
 30
0.0
 10
198.420968
 20
259.712916
 30
0.0
 10
202.887759
 20
256.250872
 30
0.0
 10
205.157872
 20
251.653820
 30
0.0
 10
205.063048
 20
244.363876
 30
0.0
 10
200.831084
 20
237.467211
 30
0.0
 10
192.798744
 20
233.762036
 30
0.0
 10
184.399432
 20
233.502060
 30
0.0
 10
184.399432
 20
233.502060
 30
0.0
  0
LWPOLYLINE
  5
106
100
AcDbEntity
  8
Layer_1
 62
7
100
AcDbPolyline
 90
33
 70
0
 10
302.519608
 20
233.488700
 30
0.0
 10
298.373160
 20
234.714572
 30
0.0
 10
294.742344
 20
238.485964
 30
0.0
 10
293.661488
 20
252.442996
 30
0.0
 10
293.658288
 20
262.714644
 30
0.0
 10
291.420120
 20
262.765924
 30
0.0
 10
289.181960
 20
262.817204
 30
0.0
 10
289.132600
 20
266.722220
 30
0.0
 10
289.291992
 20
270.878812
 30
0.0
 10
291.576488
 20
271.130380
 30
0.0
 10
293.652224
 20
271.130380
 30
0.0
 10
293.700944
 20
275.926444
 30
0.0
 10
293.749664
 20
280.722508
 30
0.0
 10
298.304536
 20
280.771468
 30
0.0
 10
303.006448
 20
280.588764
 30
0.0
 10
303.156288
 20
275.743748
 30
0.0
 10
303.158688
 20
271.130396
 30
0.0
 10
307.680696
 20
271.127996
 30
0.0
 10
312.434736
 20
270.977924
 30
0.0
 10
312.617440
 20
266.824132
 30
0.0
 10
312.568080
 20
262.817620
 30
0.0
 10
307.857008
 20
262.768820
 30
0.0
 10
303.145944
 20
262.720020
 30
0.0
 10
303.197944
 20
253.450716
 30
0.0
 10
303.648448
 20
243.541964
 30
0.0
 10
304.628648
 20
242.560020
 30
0.0
 10
310.872504
 20
242.920060
 30
0.0
 10
312.372296
 20
243.072148
 30
0.0
 10
312.656600
 20
239.280972
 30
0.0
 10
312.515920
 20
235.560068
 30
0.0
 10
308.600576
 20
233.870324
 30
0.0
 10
302.519152
 20
233.489012
 30
0.0
 10
302.519608
 20
233.488700
 30
0.0
  0
LWPOLYLINE
  5
107
100
AcDbEntity
  8
Layer_1
 62
7
100
AcDbPolyline
 90
10
 70
0
 10
316.424896
 20
234.329884
 30
0.0
 10
316.313992
 20
252.685524
 30
0.0
 10
316.667408
 20
270.941292
 30
0.0
 10
321.222024
 20
271.130428
 30
0.0
 10
325.710368
 20
270.843324
 30
0.0
 10
325.997472
 20
252.517796
 30
0.0
 10
325.778224
 20
234.260124
 30
0.0
 10
321.047392
 20
234.040876
 30
0.0
 10
316.424896
 20
234.329884
 30
0.0
 10
316.424896
 20
234.329884
 30
0.0
  0
LWPOLYLINE
  5
108
100
AcDbEntity
  8
Layer_1
 62
7
100
AcDbPolyline
 90
11
 70
0
 10
319.593696
 20
275.570228
 30
0.0
 10
315.730992
 20
278.895500
 30
0.0
 10
315.701392
 20
283.759604
 30
0.0
 10
318.597824
 20
286.688948
 30
0.0
 10
321.077512
 20
287.208532
 30
0.0
 10
323.314616
 20
286.917804
 30
0.0
 10
326.509136
 20
284.030956
 30
0.0
 10
327.001480
 20
281.362044
 30
0.0
 10
325.399120
 20
277.109556
 30
0.0
 10
319.593688
 20
275.570228
 30
0.0
 10
319.593696
 20
275.570228
 30
0.0
  0
LWPOLYLINE
  5
109
100
AcDbEntity
  8
Layer_1
 62
7
100
AcDbPolyline
 90
76
 70
0
 10
274.291352
 20
303.672596
 30
0.0
 10
247.616104
 20
307.705164
 30
0.0
 10
243.776040
 20
308.658108
 30
0.0
 10
243.319272
 20
308.797188
 30
0.0
 10
240.855944
 20
309.587428
 30
0.0
 10
212.170920
 20
322.283660
 30
0.0
 10
205.502104
 20
326.565964
 30
0.0
 10
183.293407
 20
345.282205
 30
0.0
 10
165.569632
 20
368.279836
 30
0.0
 10
163.900632
 20
370.792060
 30
0.0
 10
163.811776
 20
370.934220
 30
0.0
 10
162.397280
 20
373.720508
 30
0.0
 10
151.550763
 20
399.605035
 30
0.0
 10
146.302000
 20
426.614220
 30
0.0
 10
146.084368
 20
428.624004
 30
0.0
 10
146.125968
 20
449.178556
 30
0.0
 10
148.221352
 20
464.708660
 30
0.0
 10
148.859960
 20
468.088740
 30
0.0
 10
149.003536
 20
468.636860
 30
0.0
 10
149.677544
 20
471.286116
 30
0.0
 10
162.104144
 20
503.365820
 30
0.0
 10
182.607704
 20
531.670828
 30
0.0
 10
198.934263
 20
546.365516
 30
0.0
 10
217.394344
 20
558.270084
 30
0.0
 10
219.522096
 20
559.522484
 30
0.0
 10
219.659128
 20
559.577684
 30
0.0
 10
221.443360
 20
560.332956
 30
0.0
 10
240.858750
 20
568.065005
 30
0.0
 10
261.789536
 20
572.765116
 30
0.0
 10
281.142880
 20
573.967540
 30
0.0
 10
293.384264
 20
573.617436
 30
0.0
 10
297.677880
 20
573.252020
 30
0.0
 10
298.591416
 20
573.130100
 30
0.0
 10
302.055400
 20
572.683980
 30
0.0
 10
302.320200
 20
572.624300
 30
0.0
 10
303.383384
 20
572.337052
 30
0.0
 10
312.294456
 20
570.570100
 30
0.0
 10
332.908424
 20
563.916059
 30
0.0
 10
352.166803
 20
554.061711
 30
0.0
 10
369.634816
 20
541.275083
 30
0.0
 10
384.877688
 20
525.824204
 30
0.0
 10
393.092528
 20
515.006852
 30
0.0
 10
394.368464
 20
513.316812
 30
0.0
 10
394.451776
 20
513.160876
 30
0.0
 10
395.182792
 20
511.836252
 30
0.0
 10
402.415960
 20
499.057612
 30
0.0
 10
409.308992
 20
482.563548
 30
0.0
 10
410.656712
 20
479.177900
 30
0.0
 10
410.685912
 20
479.035300
 30
0.0
 10
411.233416
 20
476.482972
 30
0.0
 10
414.157880
 20
464.343252
 30
0.0
 10
414.417928
 20
462.881596
 30
0.0
 10
414.703808
 20
461.328588
 30
0.0
 10
416.009888
 20
451.005636
 30
0.0
 10
416.338432
 20
439.495084
 30
0.0
 10
415.696680
 20
423.782268
 30
0.0
 10
412.666424
 20
406.607796
 30
0.0
 10
412.151960
 20
404.415316
 30
0.0
 10
411.994936
 20
403.775836
 30
0.0
 10
411.417344
 20
401.393700
 30
0.0
 10
411.360224
 20
401.187860
 30
0.0
 10
410.795016
 20
399.664924
 30
0.0
 10
407.044568
 20
388.901212
 30
0.0
 10
406.151408
 20
386.160604
 30
0.0
 10
406.116608
 20
386.095724
 30
0.0
 10
404.868536
 20
383.741580
 30
0.0
 10
395.925256
 20
366.990020
 30
0.0
 10
394.470048
 20
364.448140
 30
0.0
 10
394.356752
 20
364.311108
 30
0.0
 10
393.320768
 20
362.986484
 30
0.0
 10
377.977656
 20
344.237372
 30
0.0
 10
355.815047
 20
325.901995
 30
0.0
 10
330.588547
 20
312.811139
 30
0.0
 10
303.135025
 20
305.292211
 30
0.0
 10
274.291352
 20
303.672620
 30
0.0
 10
274.291352
 20
303.672596
 30
0.0
  0
LWPOLYLINE
  5
10a
100
AcDbEntity
  8
Layer_1
 62
7
100
AcDbPolyline
 90
35
 70
0
 10
339.403192
 20
375.783924
 30
0.0
 10
343.321445
 20
379.504254
 30
0.0
 10
344.269872
 20
384.613068
 30
0.0
 10
342.454968
 20
388.695604
 30
0.0
 10
339.753000
 20
390.722644
 30
0.0
 10
339.601352
 20
390.790964
 30
0.0
 10
331.844104
 20
395.340628
 30
0.0
 10
309.509624
 20
404.550720
 30
0.0
 10
285.182616
 20
410.075828
 30
0.0
 10
281.690992
 20
410.532252
 30
0.0
 10
278.219552
 20
410.883308
 30
0.0
 10
262.049968
 20
411.723028
 30
0.0
 10
237.019088
 20
410.436532
 30
0.0
 10
207.277960
 20
404.958700
 30
0.0
 10
203.316249
 20
401.009790
 30
0.0
 10
202.759976
 20
395.497940
 30
0.0
 10
205.700515
 20
390.892637
 30
0.0
 10
210.777504
 20
389.159228
 30
0.0
 10
214.987792
 20
389.798228
 30
0.0
 10
248.620992
 20
394.675572
 30
0.0
 10
271.550744
 20
394.675572
 30
0.0
 10
293.847208
 20
391.434164
 30
0.0
 10
297.044584
 20
390.721540
 30
0.0
 10
306.630512
 20
387.839532
 30
0.0
 10
310.101952
 20
386.684916
 30
0.0
 10
310.558720
 20
386.510812
 30
0.0
 10
313.756096
 20
385.221468
 30
0.0
 10
318.833584
 20
383.052588
 30
0.0
 10
321.300128
 20
382.148844
 30
0.0
 10
321.384080
 20
382.124604
 30
0.0
 10
324.124688
 20
380.476644
 30
0.0
 10
329.742968
 20
377.369876
 30
0.0
 10
336.335976
 20
375.149980
 30
0.0
 10
339.403192
 20
375.784692
 30
0.0
 10
339.403192
 20
375.783924
 30
0.0
  0
LWPOLYLINE
  5
10b
100
AcDbEntity
  8
Layer_1
 62
7
100
AcDbPolyline
 90
32
 70
0
 10
353.285832
 20
411.191036
 30
0.0
 10
359.921696
 20
416.291268
 30
0.0
 10
360.537384
 20
417.570220
 30
0.0
 10
360.754712
 20
418.209692
 30
0.0
 10
361.135040
 20
419.993900
 30
0.0
 10
358.380600
 20
428.454756
 30
0.0
 10
331.877520
 20
442.344860
 30
0.0
 10
328.375408
 20
443.664644
 30
0.0
 10
327.881696
 20
443.843348
 30
0.0
 10
317.684296
 20
447.277124
 30
0.0
 10
289.730104
 20
453.554996
 30
0.0
 10
288.542504
 20
453.745764
 30
0.0
 10
273.377816
 20
455.384420
 30
0.0
 10
248.072872
 20
455.661156
 30
0.0
 10
233.547656
 20
454.369420
 30
0.0
 10
230.202912
 20
453.932172
 30
0.0
 10
202.672160
 20
447.558708
 30
0.0
 10
198.145256
 20
443.095852
 30
0.0
 10
196.916944
 20
438.124772
 30
0.0
 10
199.925951
 20
430.821376
 30
0.0
 10
207.146472
 20
427.811172
 30
0.0
 10
212.519880
 20
428.789276
 30
0.0
 10
235.557432
 20
433.473908
 30
0.0
 10
238.846160
 20
433.828580
 30
0.0
 10
260.183825
 20
434.811356
 30
0.0
 10
281.952128
 20
433.360556
 30
0.0
 10
304.255320
 20
429.166916
 30
0.0
 10
314.486920
 20
426.245212
 30
0.0
 10
341.618936
 20
414.535068
 30
0.0
 10
348.123624
 20
411.190692
 30
0.0
 10
353.285832
 20
411.190692
 30
0.0
 10
353.285832
 20
411.191036
 30
0.0
  0
LWPOLYLINE
  5
10c
100
AcDbEntity
  8
Layer_1
 62
7
100
AcDbPolyline
 90
41
 70
0
 10
369.755840
 20
452.654340
 30
0.0
 10
376.443392
 20
456.203748
 30
0.0
 10
378.860224
 20
459.501508
 30
0.0
 10
379.883424
 20
468.025388
 30
0.0
 10
376.964384
 20
473.444004
 30
0.0
 10
371.308848
 20
477.440628
 30
0.0
 10
366.301816
 20
480.012580
 30
0.0
 10
366.193048
 20
480.085380
 30
0.0
 10
364.320296
 20
481.141492
 30
0.0
 10
361.625368
 20
482.436332
 30
0.0
 10
344.620520
 20
489.183308
 30
0.0
 10
344.450896
 20
489.266380
 30
0.0
 10
328.738080
 20
494.136980
 30
0.0
 10
326.309960
 20
494.763084
 30
0.0
 10
306.904576
 20
498.769700
 30
0.0
 10
264.630039
 20
502.432154
 30
0.0
 10
223.224704
 20
499.769036
 30
0.0
 10
211.896856
 20
497.781812
 30
0.0
 10
210.069784
 20
497.392132
 30
0.0
 10
201.300152
 20
495.287148
 30
0.0
 10
191.506256
 20
490.753436
 30
0.0
 10
189.089432
 20
487.455676
 30
0.0
 10
187.754872
 20
481.136076
 30
0.0
 10
190.334957
 20
474.309468
 30
0.0
 10
196.253880
 20
470.024076
 30
0.0
 10
200.294952
 20
469.465556
 30
0.0
 10
205.319624
 20
470.231692
 30
0.0
 10
230.935952
 20
475.410068
 30
0.0
 10
232.899800
 20
475.775980
 30
0.0
 10
233.146992
 20
475.824540
 30
0.0
 10
237.212480
 20
476.108820
 30
0.0
 10
280.503392
 20
476.575660
 30
0.0
 10
290.278224
 20
475.676196
 30
0.0
 10
314.139836
 20
471.781019
 30
0.0
 10
336.131968
 20
465.638668
 30
0.0
 10
340.307736
 20
464.379724
 30
0.0
 10
340.380216
 20
464.316924
 30
0.0
 10
341.676616
 20
463.621980
 30
0.0
 10
360.803184
 20
454.491660
 30
0.0
 10
369.755840
 20
452.654276
 30
0.0
 10
369.755840
 20
452.654340
 30
0.0
  0
ENDSEC
  0
SECTION
  2
OBJECTS
  0
DICTIONARY
  5
C
330
0
100
AcDbDictionary
  3
ACAD_GROUP
350
D
  3
ACAD_MLINESTYLE
350
17
  0
DICTIONARY
  5
D
330
C
100
AcDbDictionary
  0
DICTIONARY
  5
1A
330
C
100
AcDbDictionary
  0
DICTIONARY
  5
17
330
C
100
AcDbDictionary
  3
STANDARD
350
18
  0
DICTIONARY
  5
19
330
C
100
AcDbDictionary
  0
ENDSEC
  0
EOF
