  0
SECTION
  2
HEADER
  9
$ACADVER
  1
AC1014
  9
$HANDSEED
  5
FFFF
  9
$MEASUREMENT
 70
     1
  0
ENDSEC
  0
SECTION
  2
TABLES
  0
TABLE
  2
VPORT
  5
8
330
0
100
AcDbSymbolTable
 70
     4
  0
VPORT
  5
2E
330
8
100
AcDbSymbolTableRecord
100
AcDbViewportTableRecord
  2
*ACTIVE
 70
     0
 10
0.0
 20
0.0
 11
1.0
 21
1.0
 12
210.0
 22
148.5
 13
0.0
 23
0.0
 14
10.0
 24
10.0
 15
10.0
 25
10.0
 16
0.0
 26
0.0
 36
1.0
 17
0.0
 27
0.0
 37
0.0
 40
341.0
 41
1.24
 42
50.0
 43
0.0
 44
0.0
 50
0.0
 51
0.0
 71
     0
 72
   100
 73
     1
 74
     3
 75
     0
 76
     0
 77
     0
 78
     0
  0
ENDTAB
  0
TABLE
  2
LTYPE
  5
5
330
0
100
AcDbSymbolTable
 70
     1
  0
LTYPE
  5
14
330
5
100
AcDbSymbolTableRecord
100
AcDbLinetypeTableRecord
  2
BYBLOCK
 70
     0
  3

 72
    65
 73
     0
 40
0.0
  0
LTYPE
  5
15
330
5
100
AcDbSymbolTableRecord
100
AcDbLinetypeTableRecord
  2
BYLAYER
 70
     0
  3

 72
    65
 73
     0
 40
0.0
  0
LTYPE
  5
16
330
5
100
AcDbSymbolTableRecord
100
AcDbLinetypeTableRecord
  2
CONTINUOUS
 70
     0
  3
Solid line
 72
    65
 73
     0
 40
0.0
  0
ENDTAB
  0
TABLE
  2
LAYER
  5
2
100
AcDbSymbolTable
 70
2
  0
LAYER
  5
50
100
AcDbSymbolTableRecord
100
AcDbLayerTableRecord
  2
0
 70
0
  6
CONTINUOUS
  0
LAYER
  5
51
100
AcDbSymbolTableRecord
100
AcDbLayerTableRecord
  2
Layer_1
 70
0
  6
CONTINUOUS
  0
ENDTAB
  0
TABLE
  2
STYLE
  5
3
330
0
100
AcDbSymbolTable
 70
     1
  0
STYLE
  5
11
330
3
100
AcDbSymbolTableRecord
100
AcDbTextStyleTableRecord
  2
STANDARD
 70
     0
 40
0.0
 41
1.0
 50
0.0
 71
     0
 42
2.5
  3
txt
  4

  0
ENDTAB
  0
TABLE
  2
VIEW
  5
6
330
0
100
AcDbSymbolTable
 70
     0
  0
ENDTAB
  0
TABLE
  2
UCS
  5
7
330
0
100
AcDbSymbolTable
 70
     0
  0
ENDTAB
  0
TABLE
  2
APPID
  5
9
330
0
100
AcDbSymbolTable
 70
     2
  0
APPID
  5
12
330
9
100
AcDbSymbolTableRecord
100
AcDbRegAppTableRecord
  2
ACAD
 70
     0
  0
ENDTAB
  0
TABLE
  2
DIMSTYLE
  5
A
330
0
100
AcDbSymbolTable
 70
     1
  0
DIMSTYLE
105
27
330
A
100
AcDbSymbolTableRecord
100
AcDbDimStyleTableRecord
  2
ISO-25
 70
     0
  3

  4

  5

  6

  7

 40
1.0
 41
2.5
 42
0.625
 43
3.75
 44
1.25
 45
0.0
 46
0.0
 47
0.0
 48
0.0
140
2.5
141
2.5
142
0.0
143
0.03937007874016
144
1.0
145
0.0
146
1.0
147
0.625
 71
     0
 72
     0
 73
     0
 74
     0
 75
     0
 76
     0
 77
     1
 78
     8
170
     0
171
     3
172
     1
173
     0
174
     0
175
     0
176
     0
177
     0
178
     0
270
     2
271
     2
272
     2
273
     2
274
     3
340
11
275
     0
280
     0
281
     0
282
     0
283
     0
284
     8
285
     0
286
     0
287
     3
288
     0
  0
ENDTAB
  0
TABLE
  2
BLOCK_RECORD
  5
1
330
0
100
AcDbSymbolTable
 70
     1
  0
BLOCK_RECORD
  5
1F
330
1
100
AcDbSymbolTableRecord
100
AcDbBlockTableRecord
  2
*MODEL_SPACE
  0
BLOCK_RECORD
  5
1B
330
1
100
AcDbSymbolTableRecord
100
AcDbBlockTableRecord
  2
*PAPER_SPACE
  0
ENDTAB
  0
ENDSEC
  0
SECTION
  2
BLOCKS
  0
BLOCK
  5
20
330
1F
100
AcDbEntity
  8
0
100
AcDbBlockBegin
  2
*MODEL_SPACE
 70
     0
 10
0.0
 20
0.0
 30
0.0
  3
*MODEL_SPACE
  1

  0
ENDBLK
  5
21
330
1F
100
AcDbEntity
  8
0
100
AcDbBlockEnd
  0
BLOCK
  5
1C
330
1B
100
AcDbEntity
 67
     1
  8
0
100
AcDbBlockBegin
  2
*PAPER_SPACE
  1

  0
ENDBLK
  5
1D
330
1B
100
AcDbEntity
 67
     1
  8
0
100
AcDbBlockEnd
  0
ENDSEC
  0
SECTION
  2
ENTITIES
  0
LWPOLYLINE
  5
100
100
AcDbEntity
  8
Layer_1
 62
7
100
AcDbPolyline
 90
383
 70
0
 10
148.081792
 20
-23.134636
 30
0.0
 10
146.488704
 20
-22.554956
 30
0.0
 10
139.453224
 20
-15.142796
 30
0.0
 10
130.569172
 20
-5.637996
 30
0.0
 10
123.482264
 20
6.158804
 30
0.0
 10
117.828872
 20
27.657204
 30
0.0
 10
118.761536
 20
67.460548
 30
0.0
 10
125.679610
 20
91.638352
 30
0.0
 10
136.980552
 20
110.870116
 30
0.0
 10
146.364325
 20
119.374636
 30
0.0
 10
158.784056
 20
125.652676
 30
0.0
 10
167.606806
 20
129.795306
 30
0.0
 10
167.625120
 20
134.891156
 30
0.0
 10
166.400304
 20
157.483876
 30
0.0
 10
165.692056
 20
166.113556
 30
0.0
 10
164.936040
 20
180.497812
 30
0.0
 10
166.131408
 20
188.262788
 30
0.0
 10
169.295746
 20
202.029782
 30
0.0
 10
176.600216
 20
212.057156
 30
0.0
 10
189.301392
 20
219.983421
 30
0.0
 10
203.639800
 20
222.217156
 30
0.0
 10
210.317960
 20
222.217156
 30
0.0
 10
210.811680
 20
228.737156
 30
0.0
 10
210.965328
 20
250.800740
 30
0.0
 10
190.114272
 20
260.906684
 30
0.0
 10
167.824152
 20
274.320604
 30
0.0
 10
155.761217
 20
289.450553
 30
0.0
 10
149.884576
 20
304.650924
 30
0.0
 10
149.961376
 20
317.450780
 30
0.0
 10
156.199099
 20
333.077664
 30
0.0
 10
168.166792
 20
343.194796
 30
0.0
 10
175.832190
 20
348.208150
 30
0.0
 10
179.312072
 20
353.834836
 30
0.0
 10
187.473616
 20
367.729812
 30
0.0
 10
194.726095
 20
372.333132
 30
0.0
 10
202.576048
 20
373.736916
 30
0.0
 10
210.572528
 20
376.898156
 30
0.0
 10
223.328096
 20
388.893444
 30
0.0
 10
223.376016
 20
393.383516
 30
0.0
 10
223.542559
 20
401.277151
 30
0.0
 10
227.198072
 20
410.821068
 30
0.0
 10
230.584864
 20
417.311068
 30
0.0
 10
229.053208
 20
419.484116
 30
0.0
 10
224.914280
 20
434.422356
 30
0.0
 10
226.191224
 20
443.755620
 30
0.0
 10
227.095240
 20
449.742868
 30
0.0
 10
222.818288
 20
448.596924
 30
0.0
 10
213.314280
 20
446.088004
 30
0.0
 10
203.769072
 20
443.977556
 30
0.0
 10
192.769072
 20
442.857156
 30
0.0
 10
185.714272
 20
441.725148
 30
0.0
 10
175.424912
 20
433.457156
 30
0.0
 10
164.166896
 20
433.409956
 30
0.0
 10
159.313064
 20
432.056324
 30
0.0
 10
151.417933
 20
429.338782
 30
0.0
 10
142.892904
 20
430.784196
 30
0.0
 10
139.043368
 20
432.487028
 30
0.0
 10
136.178824
 20
430.573436
 30
0.0
 10
128.615512
 20
426.358508
 30
0.0
 10
118.458148
 20
418.927453
 30
0.0
 10
114.119656
 20
408.457164
 30
0.0
 10
112.916200
 20
404.057164
 30
0.0
 10
111.719024
 20
400.457164
 30
0.0
 10
101.244864
 20
381.348948
 30
0.0
 10
92.465801
 20
374.042223
 30
0.0
 10
80.114272
 20
368.949516
 30
0.0
 10
64.673790
 20
365.151152
 30
0.0
 10
51.348008
 20
364.703068
 30
0.0
 10
31.868457
 20
368.308996
 30
0.0
 10
15.807371
 20
376.500385
 30
0.0
 10
3.774731
 20
388.831637
 30
0.0
 10
-3.619480
 20
404.857156
 30
0.0
 10
-8.117951
 20
436.978775
 30
0.0
 10
-6.963548
 20
451.590951
 30
0.0
 10
-3.541080
 20
464.457156
 30
0.0
 10
7.499435
 20
485.229951
 30
0.0
 10
25.942912
 20
505.956516
 30
0.0
 10
32.171552
 20
511.968332
 30
0.0
 10
26.336264
 20
514.027996
 30
0.0
 10
17.403480
 20
518.105064
 30
0.0
 10
10.514728
 20
524.208956
 30
0.0
 10
2.288199
 20
538.061939
 30
0.0
 10
1.709144
 20
553.788836
 30
0.0
 10
4.134363
 20
561.424245
 30
0.0
 10
9.184864
 20
567.360148
 30
0.0
 10
19.666615
 20
575.637972
 30
0.0
 10
27.027664
 20
578.672252
 30
0.0
 10
37.856852
 20
576.074694
 30
0.0
 10
49.276632
 20
566.913820
 30
0.0
 10
61.125556
 20
555.718703
 30
0.0
 10
73.416248
 20
552.141876
 30
0.0
 10
81.457720
 20
551.133948
 30
0.0
 10
81.817720
 20
555.277668
 30
0.0
 10
84.186322
 20
566.162326
 30
0.0
 10
89.381896
 20
573.204116
 30
0.0
 10
98.048952
 20
575.032636
 30
0.0
 10
103.441931
 20
575.309840
 30
0.0
 10
106.584976
 20
577.738452
 30
0.0
 10
113.012677
 20
582.669575
 30
0.0
 10
122.199280
 20
583.484020
 30
0.0
 10
132.514264
 20
584.684908
 30
0.0
 10
140.313504
 20
586.052228
 30
0.0
 10
145.712736
 20
586.057028
 30
0.0
 10
150.710216
 20
581.257028
 30
0.0
 10
157.310976
 20
576.466964
 30
0.0
 10
179.687554
 20
583.395004
 30
0.0
 10
203.427728
 20
595.654116
 30
0.0
 10
214.314264
 20
605.427988
 30
0.0
 10
220.914264
 20
614.375124
 30
0.0
 10
223.252963
 20
625.502643
 30
0.0
 10
227.931464
 20
635.057028
 30
0.0
 10
227.227576
 20
636.457028
 30
0.0
 10
220.833683
 20
639.477728
 30
0.0
 10
215.716848
 20
644.974244
 30
0.0
 10
214.531155
 20
655.155206
 30
0.0
 10
216.189648
 20
667.657028
 30
0.0
 10
218.272120
 20
675.472324
 30
0.0
 10
216.547400
 20
680.550452
 30
0.0
 10
212.116168
 20
693.557612
 30
0.0
 10
215.316168
 20
701.565004
 30
0.0
 10
218.294148
 20
706.754341
 30
0.0
 10
217.339704
 20
709.704124
 30
0.0
 10
216.139704
 20
712.727348
 30
0.0
 10
212.965216
 20
713.665636
 30
0.0
 10
205.233210
 20
715.383974
 30
0.0
 10
201.714272
 20
721.435164
 30
0.0
 10
201.114272
 20
723.562420
 30
0.0
 10
192.971872
 20
726.887012
 30
0.0
 10
188.885792
 20
730.116868
 30
0.0
 10
186.248816
 20
728.105540
 30
0.0
 10
175.180917
 20
713.076453
 30
0.0
 10
167.238424
 20
688.686940
 30
0.0
 10
166.131018
 20
679.890086
 30
0.0
 10
167.496632
 20
675.066756
 30
0.0
 10
170.404248
 20
675.536580
 30
0.0
 10
178.672440
 20
677.214564
 30
0.0
 10
187.461405
 20
670.692583
 30
0.0
 10
189.686736
 20
661.161188
 30
0.0
 10
190.358088
 20
658.296020
 30
0.0
 10
195.627547
 20
653.503611
 30
0.0
 10
197.714264
 20
645.350308
 30
0.0
 10
195.378509
 20
638.055749
 30
0.0
 10
189.849296
 20
631.920564
 30
0.0
 10
186.961184
 20
625.893100
 30
0.0
 10
183.977702
 20
614.521873
 30
0.0
 10
176.573192
 20
608.023420
 30
0.0
 10
166.328963
 20
608.651366
 30
0.0
 10
159.286208
 20
617.011836
 30
0.0
 10
157.786124
 20
620.588814
 30
0.0
 10
155.500712
 20
620.007612
 30
0.0
 10
145.000192
 20
620.012412
 30
0.0
 10
141.640095
 20
624.240685
 30
0.0
 10
139.680272
 20
631.413380
 30
0.0
 10
138.762961
 20
636.623478
 30
0.0
 10
136.818456
 20
638.102236
 30
0.0
 10
129.209656
 20
643.815284
 30
0.0
 10
127.041932
 20
650.453020
 30
0.0
 10
128.284511
 20
657.519857
 30
0.0
 10
132.286105
 20
663.407005
 30
0.0
 10
138.395424
 20
666.505676
 30
0.0
 10
142.526472
 20
667.321004
 30
0.0
 10
148.090240
 20
678.056844
 30
0.0
 10
139.732632
 20
705.256844
 30
0.0
 10
136.498440
 20
719.256844
 30
0.0
 10
133.845960
 20
730.993252
 30
0.0
 10
133.005672
 20
744.193252
 30
0.0
 10
134.299081
 20
763.174611
 30
0.0
 10
138.550088
 20
782.456848
 30
0.0
 10
140.491280
 20
791.256848
 30
0.0
 10
144.140456
 20
804.856848
 30
0.0
 10
147.693152
 20
814.410248
 30
0.0
 10
159.011463
 20
838.880176
 30
0.0
 10
175.714264
 20
861.971041
 30
0.0
 10
192.688118
 20
880.628809
 30
0.0
 10
207.494928
 20
892.643766
 30
0.0
 10
228.396998
 20
903.773362
 30
0.0
 10
251.841904
 20
910.090401
 30
0.0
 10
280.302784
 20
911.646208
 30
0.0
 10
303.702784
 20
910.856848
 30
0.0
 10
329.872470
 20
903.690528
 30
0.0
 10
349.219112
 20
892.697791
 30
0.0
 10
370.233584
 20
876.224568
 30
0.0
 10
375.952896
 20
870.657184
 30
0.0
 10
381.033584
 20
871.376296
 30
0.0
 10
390.075627
 20
871.308720
 30
0.0
 10
396.786904
 20
867.980264
 30
0.0
 10
400.420040
 20
865.642185
 30
0.0
 10
406.340856
 20
865.256849
 30
0.0
 10
418.474244
 20
863.011977
 30
0.0
 10
425.659336
 20
855.582625
 30
0.0
 10
427.745963
 20
849.333700
 30
0.0
 10
427.335432
 20
842.945096
 30
0.0
 10
427.107348
 20
837.825067
 30
0.0
 10
430.597920
 20
832.667352
 30
0.0
 10
434.189703
 20
823.806477
 30
0.0
 10
431.143992
 20
815.474568
 30
0.0
 10
428.756808
 20
812.919080
 30
0.0
 10
430.635536
 20
811.419808
 30
0.0
 10
434.964632
 20
805.788688
 30
0.0
 10
439.897032
 20
801.411200
 30
0.0
 10
452.608792
 20
807.214648
 30
0.0
 10
451.621672
 20
810.984640
 30
0.0
 10
450.242662
 20
817.997671
 30
0.0
 10
452.241352
 20
825.846904
 30
0.0
 10
453.854422
 20
830.250624
 30
0.0
 10
453.141352
 20
835.846904
 30
0.0
 10
452.358752
 20
845.777124
 30
0.0
 10
454.064472
 20
853.474817
 30
0.0
 10
463.533312
 20
863.641025
 30
0.0
 10
477.314232
 20
871.365408
 30
0.0
 10
481.578152
 20
872.895296
 30
0.0
 10
480.628072
 20
874.987440
 30
0.0
 10
476.745832
 20
887.808144
 30
0.0
 10
478.064632
 20
897.389492
 30
0.0
 10
478.627912
 20
906.280150
 30
0.0
 10
469.822312
 20
915.959025
 30
0.0
 10
465.714232
 20
921.005381
 30
0.0
 10
463.608392
 20
925.903204
 30
0.0
 10
461.453302
 20
933.448623
 30
0.0
 10
462.807192
 20
940.943828
 30
0.0
 10
468.819672
 20
947.473574
 30
0.0
 10
477.668952
 20
952.194692
 30
0.0
 10
493.018952
 20
952.198281
 30
0.0
 10
509.627992
 20
944.914540
 30
0.0
 10
519.383312
 20
937.282671
 30
0.0
 10
525.240312
 20
929.151068
 30
0.0
 10
528.537592
 20
923.026524
 30
0.0
 10
533.520552
 20
925.991916
 30
0.0
 10
563.171272
 20
941.346644
 30
0.0
 10
569.314232
 20
943.671020
 30
0.0
 10
575.714232
 20
945.701052
 30
0.0
 10
581.885752
 20
947.733068
 30
0.0
 10
608.914232
 20
949.321292
 30
0.0
 10
625.714232
 20
946.467164
 30
0.0
 10
632.114232
 20
943.583884
 30
0.0
 10
635.108152
 20
942.077388
 30
0.0
 10
647.809912
 20
929.564876
 30
0.0
 10
655.058152
 20
915.557674
 30
0.0
 10
657.702472
 20
901.392546
 30
0.0
 10
654.169832
 20
884.556600
 30
0.0
 10
651.408952
 20
878.718872
 30
0.0
 10
643.276642
 20
867.227738
 30
0.0
 10
631.763512
 20
856.737633
 30
0.0
 10
612.914232
 20
846.448048
 30
0.0
 10
598.956312
 20
841.296008
 30
0.0
 10
580.273912
 20
832.919064
 30
0.0
 10
582.093672
 20
827.588248
 30
0.0
 10
587.808532
 20
811.980756
 30
0.0
 10
586.241192
 20
798.842864
 30
0.0
 10
581.976552
 20
785.550760
 30
0.0
 10
578.788062
 20
776.060788
 30
0.0
 10
567.914232
 20
766.337093
 30
0.0
 10
564.975822
 20
762.510689
 30
0.0
 10
566.158392
 20
756.057156
 30
0.0
 10
569.016392
 20
738.368652
 30
0.0
 10
565.518522
 20
714.729325
 30
0.0
 10
552.524872
 20
674.191676
 30
0.0
 10
547.729862
 20
653.422888
 30
0.0
 10
549.660312
 20
636.045588
 30
0.0
 10
555.699042
 20
620.991793
 30
0.0
 10
566.956872
 20
606.872276
 30
0.0
 10
595.866152
 20
568.057156
 30
0.0
 10
608.439672
 20
542.457156
 30
0.0
 10
612.411272
 20
512.457156
 30
0.0
 10
615.448182
 20
487.354798
 30
0.0
 10
623.940952
 20
469.181588
 30
0.0
 10
633.296282
 20
451.478634
 30
0.0
 10
635.892072
 20
435.725140
 30
0.0
 10
634.044272
 20
425.403971
 30
0.0
 10
629.717272
 20
417.747084
 30
0.0
 10
627.052472
 20
412.147084
 30
0.0
 10
626.658312
 20
398.023412
 30
0.0
 10
628.786792
 20
392.576828
 30
0.0
 10
633.492152
 20
388.389524
 30
0.0
 10
636.033512
 20
385.869484
 30
0.0
 10
641.381592
 20
382.470012
 30
0.0
 10
653.675362
 20
373.533638
 30
0.0
 10
660.439352
 20
356.777332
 30
0.0
 10
661.601922
 20
347.036345
 30
0.0
 10
660.052312
 20
338.457156
 30
0.0
 10
657.977152
 20
328.572087
 30
0.0
 10
659.751352
 20
321.657156
 30
0.0
 10
662.353092
 20
311.437042
 30
0.0
 10
661.072232
 20
301.565516
 30
0.0
 10
656.229582
 20
290.406255
 30
0.0
 10
650.844232
 20
284.057980
 30
0.0
 10
644.486952
 20
274.442620
 30
0.0
 10
636.626472
 20
263.602292
 30
0.0
 10
632.336792
 20
260.252044
 30
0.0
 10
631.802632
 20
251.317108
 30
0.0
 10
628.317852
 20
228.635260
 30
0.0
 10
620.989112
 20
207.527764
 30
0.0
 10
618.514232
 20
201.251260
 30
0.0
 10
617.019192
 20
198.180652
 30
0.0
 10
615.043012
 20
193.809116
 30
0.0
 10
617.807432
 20
190.626612
 30
0.0
 10
622.053842
 20
185.657954
 30
0.0
 10
623.314232
 20
177.972316
 30
0.0
 10
623.780342
 20
173.260832
 30
0.0
 10
626.464232
 20
169.618788
 30
0.0
 10
632.018052
 20
161.422840
 30
0.0
 10
633.714232
 20
152.474996
 30
0.0
 10
631.977832
 20
143.145556
 30
0.0
 10
620.411032
 20
131.145636
 30
0.0
 10
616.849352
 20
125.286756
 30
0.0
 10
614.471162
 20
117.538186
 30
0.0
 10
610.383032
 20
111.931796
 30
0.0
 10
607.583672
 20
107.868516
 30
0.0
 10
626.514232
 20
104.960596
 30
0.0
 10
646.514232
 20
101.251156
 30
0.0
 10
660.003572
 20
95.412626
 30
0.0
 10
670.800712
 20
87.696756
 30
0.0
 10
681.084392
 20
73.021428
 30
0.0
 10
682.508232
 20
69.657188
 30
0.0
 10
685.408632
 20
58.976434
 30
0.0
 10
684.466872
 20
46.857180
 30
0.0
 10
676.463932
 20
31.638581
 30
0.0
 10
662.914232
 20
20.282884
 30
0.0
 10
649.415578
 20
14.487148
 30
0.0
 10
632.029802
 20
10.823774
 30
0.0
 10
612.386241
 20
9.511695
 30
0.0
 10
592.114232
 20
10.769844
 30
0.0
 10
570.406612
 20
14.667974
 30
0.0
 10
553.836792
 20
20.655364
 30
0.0
 10
534.582792
 20
32.996484
 30
0.0
 10
530.598022
 20
35.897754
 30
0.0
 10
528.571352
 20
33.670404
 30
0.0
 10
524.854172
 20
30.041464
 30
0.0
 10
515.181032
 20
30.821684
 30
0.0
 10
497.137542
 20
35.779811
 30
0.0
 10
484.914232
 20
42.268700
 30
0.0
 10
475.126872
 20
54.457180
 30
0.0
 10
473.690232
 20
68.784228
 30
0.0
 10
472.854392
 20
78.516388
 30
0.0
 10
472.083142
 20
92.110090
 30
0.0
 10
477.792072
 20
102.685636
 30
0.0
 10
479.955302
 20
106.108546
 30
0.0
 10
477.827272
 20
109.942036
 30
0.0
 10
474.593272
 20
115.772356
 30
0.0
 10
468.678072
 20
123.127076
 30
0.0
 10
464.889272
 20
131.031476
 30
0.0
 10
462.893352
 20
136.057156
 30
0.0
 10
461.014472
 20
141.673446
 30
0.0
 10
462.533032
 20
148.100996
 30
0.0
 10
466.198152
 20
159.167316
 30
0.0
 10
469.742622
 20
168.953184
 30
0.0
 10
473.789592
 20
173.574444
 30
0.0
 10
476.114232
 20
175.578396
 30
0.0
 10
469.262712
 20
180.112684
 30
0.0
 10
461.680812
 20
181.166045
 30
0.0
 10
454.047912
 20
179.387940
 30
0.0
 10
422.656312
 20
173.242052
 30
0.0
 10
416.459552
 20
171.042052
 30
0.0
 10
405.659552
 20
163.905476
 30
0.0
 10
393.665472
 20
155.816436
 30
0.0
 10
366.104776
 20
141.821396
 30
0.0
 10
332.514200
 20
131.051076
 30
0.0
 10
327.714200
 20
130.455236
 30
0.0
 10
327.314200
 20
120.456196
 30
0.0
 10
325.183784
 20
108.057156
 30
0.0
 10
315.221928
 20
99.331956
 30
0.0
 10
311.799168
 20
94.808196
 30
0.0
 10
309.130173
 20
88.775520
 30
0.0
 10
303.917832
 20
85.288308
 30
0.0
 10
296.514200
 20
83.013348
 30
0.0
 10
286.216216
 20
81.593268
 30
0.0
 10
280.619612
 20
81.123208
 30
0.0
 10
278.775720
 20
79.061588
 30
0.0
 10
272.252042
 20
74.102268
 30
0.0
 10
262.707664
 20
71.657188
 30
0.0
 10
258.961625
 20
71.270598
 30
0.0
 10
257.388552
 20
68.911748
 30
0.0
 10
253.351544
 20
42.457180
 30
0.0
 10
250.091701
 20
18.201761
 30
0.0
 10
242.622504
 20
-1.142796
 30
0.0
 10
233.954979
 20
-12.101116
 30
0.0
 10
223.114200
 20
-21.156236
 30
0.0
 10
219.314200
 20
-24.141436
 30
0.0
 10
212.222513
 20
-27.664296
 30
0.0
 10
185.112168
 20
-30.597596
 30
0.0
 10
157.180865
 20
-28.193476
 30
0.0
 10
149.697952
 20
-23.942796
 30
0.0
 10
148.081792
 20
-23.134636
 30
0.0
  0
LWPOLYLINE
  5
101
100
AcDbEntity
  8
Layer_1
 62
7
100
AcDbPolyline
 90
29
 70
0
 10
202.075808
 20
-16.596236
 30
0.0
 10
221.293413
 20
-8.488406
 30
0.0
 10
235.234288
 20
5.112724
 30
0.0
 10
243.003873
 20
22.090704
 30
0.0
 10
246.110120
 20
40.457204
 30
0.0
 10
250.262080
 20
68.316548
 30
0.0
 10
251.188288
 20
72.820308
 30
0.0
 10
246.914280
 20
75.093828
 30
0.0
 10
238.608176
 20
80.361428
 30
0.0
 10
232.860768
 20
82.828548
 30
0.0
 10
219.064600
 20
83.392468
 30
0.0
 10
203.479680
 20
93.590996
 30
0.0
 10
193.401960
 20
109.642116
 30
0.0
 10
187.650491
 20
118.352486
 30
0.0
 10
173.622760
 20
125.887636
 30
0.0
 10
167.310544
 20
121.708436
 30
0.0
 10
155.745976
 20
114.498516
 30
0.0
 10
141.048049
 20
102.074560
 30
0.0
 10
132.176656
 20
84.057188
 30
0.0
 10
127.879739
 20
62.565350
 30
0.0
 10
126.961896
 20
41.657204
 30
0.0
 10
127.834889
 20
23.760234
 30
0.0
 10
131.910496
 20
11.873524
 30
0.0
 10
140.019686
 20
2.348854
 30
0.0
 10
152.968200
 20
-7.228076
 30
0.0
 10
179.714280
 20
-17.024636
 30
0.0
 10
190.207180
 20
-18.229136
 30
0.0
 10
202.075808
 20
-16.596236
 30
0.0
 10
202.075808
 20
-16.596236
 30
0.0
  0
LWPOLYLINE
  5
102
100
AcDbEntity
  8
Layer_1
 62
7
100
AcDbPolyline
 90
16
 70
0
 10
228.332560
 20
49.038380
 30
0.0
 10
220.925552
 20
58.179684
 30
0.0
 10
209.017632
 20
66.404788
 30
0.0
 10
190.507599
 20
72.128208
 30
0.0
 10
173.550408
 20
72.228308
 30
0.0
 10
167.629216
 20
72.020468
 30
0.0
 10
167.092965
 20
73.372508
 30
0.0
 10
172.114280
 20
75.333668
 30
0.0
 10
186.914280
 20
76.822628
 30
0.0
 10
202.552249
 20
75.195458
 30
0.0
 10
216.918728
 20
68.043428
 30
0.0
 10
225.957030
 20
58.935774
 30
0.0
 10
231.497008
 20
49.289980
 30
0.0
 10
230.486811
 20
47.078850
 30
0.0
 10
228.332552
 20
49.038380
 30
0.0
 10
228.332560
 20
49.038380
 30
0.0
  0
LWPOLYLINE
  5
103
100
AcDbEntity
  8
Layer_1
 62
7
100
AcDbPolyline
 90
48
 70
0
 10
644.114240
 20
21.956244
 30
0.0
 10
657.384320
 20
26.429524
 30
0.0
 10
660.203760
 20
27.657204
 30
0.0
 10
670.551840
 20
35.944004
 30
0.0
 10
674.446110
 20
43.618852
 30
0.0
 10
675.677760
 20
56.457180
 30
0.0
 10
673.334400
 20
69.954068
 30
0.0
 10
665.234020
 20
80.363894
 30
0.0
 10
654.421760
 20
88.607876
 30
0.0
 10
632.914240
 20
96.817956
 30
0.0
 10
622.175820
 20
98.747716
 30
0.0
 10
612.778880
 20
97.597796
 30
0.0
 10
591.632240
 20
87.949876
 30
0.0
 10
587.889080
 20
86.140000
 30
0.0
 10
586.514240
 20
87.195316
 30
0.0
 10
601.914240
 20
98.221956
 30
0.0
 10
606.514240
 20
100.882916
 30
0.0
 10
604.408400
 20
102.309476
 30
0.0
 10
596.608400
 20
100.961396
 30
0.0
 10
583.167520
 20
98.636356
 30
0.0
 10
575.942310
 20
98.391176
 30
0.0
 10
571.766960
 20
95.972916
 30
0.0
 10
563.259490
 20
90.968716
 30
0.0
 10
555.259440
 20
89.264996
 30
0.0
 10
540.514240
 20
92.388596
 30
0.0
 10
534.914240
 20
94.732436
 30
0.0
 10
526.722700
 20
96.925666
 30
0.0
 10
515.685600
 20
96.035796
 30
0.0
 10
501.079040
 20
96.066196
 30
0.0
 10
490.998640
 20
99.845236
 30
0.0
 10
486.637500
 20
101.699016
 30
0.0
 10
484.297280
 20
100.714196
 30
0.0
 10
479.923300
 20
94.609990
 30
0.0
 10
477.839040
 20
85.860228
 30
0.0
 10
479.594960
 20
76.250468
 30
0.0
 10
486.917580
 20
66.239017
 30
0.0
 10
500.162320
 20
58.082460
 30
0.0
 10
508.114240
 20
54.143020
 30
0.0
 10
516.483200
 20
51.282860
 30
0.0
 10
526.573880
 20
47.443420
 30
0.0
 10
532.663280
 20
42.745980
 30
0.0
 10
546.913920
 20
32.414561
 30
0.0
 10
567.169600
 20
24.795364
 30
0.0
 10
593.279200
 20
20.519364
 30
0.0
 10
599.279200
 20
19.956964
 30
0.0
 10
618.914240
 20
19.947364
 30
0.0
 10
644.114240
 20
21.956164
 30
0.0
 10
644.114240
 20
21.956244
 30
0.0
  0
LWPOLYLINE
  5
104
100
AcDbEntity
  8
Layer_1
 62
7
100
AcDbPolyline
 90
14
 70
0
 10
525.228720
 20
38.522644
 30
0.0
 10
525.196190
 20
41.947282
 30
0.0
 10
519.514240
 20
44.336620
 30
0.0
 10
511.714240
 20
46.815740
 30
0.0
 10
498.514240
 20
52.276700
 30
0.0
 10
481.363760
 20
64.213348
 30
0.0
 10
478.523550
 20
65.905458
 30
0.0
 10
478.960720
 20
61.081268
 30
0.0
 10
481.886790
 20
54.565995
 30
0.0
 10
487.093340
 20
49.042774
 30
0.0
 10
505.314240
 20
40.207044
 30
0.0
 10
520.628720
 20
37.377044
 30
0.0
 10
525.228720
 20
38.522644
 30
0.0
 10
525.228720
 20
38.522644
 30
0.0
  0
LWPOLYLINE
  5
105
100
AcDbEntity
  8
Layer_1
 62
7
100
AcDbPolyline
 90
49
 70
0
 10
269.714280
 20
82.111828
 30
0.0
 10
275.159232
 20
85.994228
 30
0.0
 10
278.158929
 20
88.037650
 30
0.0
 10
282.979104
 20
87.969636
 30
0.0
 10
295.782873
 20
89.532956
 30
0.0
 10
304.514280
 20
94.816996
 30
0.0
 10
305.719648
 20
98.042756
 30
0.0
 10
311.319648
 20
103.898676
 30
0.0
 10
318.199379
 20
110.450066
 30
0.0
 10
320.584288
 20
115.363156
 30
0.0
 10
320.971016
 20
116.609396
 30
0.0
 10
322.224944
 20
122.081076
 30
0.0
 10
321.624952
 20
128.307386
 30
0.0
 10
316.694496
 20
128.585956
 30
0.0
 10
284.514280
 20
128.950276
 30
0.0
 10
272.834471
 20
131.566746
 30
0.0
 10
266.222256
 20
135.680036
 30
0.0
 10
261.193872
 20
138.057156
 30
0.0
 10
252.386976
 20
142.609316
 30
0.0
 10
247.142072
 20
147.021316
 30
0.0
 10
243.568024
 20
151.353556
 30
0.0
 10
237.840304
 20
155.686756
 30
0.0
 10
233.140880
 20
157.563876
 30
0.0
 10
218.972528
 20
180.857156
 30
0.0
 10
214.156323
 20
193.151628
 30
0.0
 10
211.774888
 20
206.857156
 30
0.0
 10
210.914280
 20
215.257156
 30
0.0
 10
206.114280
 20
215.791428
 30
0.0
 10
194.615088
 20
213.791428
 30
0.0
 10
182.478704
 20
206.241148
 30
0.0
 10
175.519185
 20
197.872788
 30
0.0
 10
173.265520
 20
189.271844
 30
0.0
 10
172.226592
 20
182.605076
 30
0.0
 10
172.945976
 20
166.556036
 30
0.0
 10
174.577688
 20
162.194916
 30
0.0
 10
172.900504
 20
157.216276
 30
0.0
 10
171.999656
 20
147.251076
 30
0.0
 10
176.283937
 20
135.876046
 30
0.0
 10
184.323672
 20
128.567876
 30
0.0
 10
192.746680
 20
121.925346
 30
0.0
 10
201.955904
 20
109.843156
 30
0.0
 10
212.143086
 20
97.505666
 30
0.0
 10
223.718104
 20
90.788196
 30
0.0
 10
232.706128
 20
89.643556
 30
0.0
 10
240.676792
 20
87.715716
 30
0.0
 10
258.114272
 20
80.865108
 30
0.0
 10
264.368529
 20
80.293358
 30
0.0
 10
269.714272
 20
82.111828
 30
0.0
 10
269.714280
 20
82.111828
 30
0.0
  0
LWPOLYLINE
  5
106
100
AcDbEntity
  8
Layer_1
 62
7
100
AcDbPolyline
 90
41
 70
0
 10
563.364880
 20
100.409476
 30
0.0
 10
569.364880
 20
104.052836
 30
0.0
 10
573.314240
 20
106.957716
 30
0.0
 10
583.714240
 20
107.158356
 30
0.0
 10
596.548720
 20
108.988916
 30
0.0
 10
606.541700
 20
118.162956
 30
0.0
 10
612.114240
 20
128.003236
 30
0.0
 10
616.314240
 20
134.470916
 30
0.0
 10
624.416840
 20
147.294486
 30
0.0
 10
625.636960
 20
158.095636
 30
0.0
 10
620.738800
 20
166.635476
 30
0.0
 10
616.514240
 20
170.913740
 30
0.0
 10
616.514240
 20
176.471884
 30
0.0
 10
616.123080
 20
181.599432
 30
0.0
 10
613.843600
 20
184.643588
 30
0.0
 10
611.174800
 20
187.257156
 30
0.0
 10
609.445440
 20
184.928348
 30
0.0
 10
593.229294
 20
165.265151
 30
0.0
 10
578.370010
 20
152.814005
 30
0.0
 10
562.716101
 20
146.232912
 30
0.0
 10
544.116080
 20
144.179876
 30
0.0
 10
518.516080
 20
147.786836
 30
0.0
 10
502.834990
 20
155.338835
 30
0.0
 10
484.684240
 20
167.449388
 30
0.0
 10
479.998960
 20
170.049388
 30
0.0
 10
473.432000
 20
163.109716
 30
0.0
 10
471.693760
 20
157.019716
 30
0.0
 10
468.458080
 20
149.019716
 30
0.0
 10
466.623510
 20
142.163486
 30
0.0
 10
469.983920
 20
135.826916
 30
0.0
 10
471.474560
 20
131.670676
 30
0.0
 10
472.488260
 20
128.737766
 30
0.0
 10
480.516080
 20
122.552196
 30
0.0
 10
480.589680
 20
120.238276
 30
0.0
 10
480.589680
 20
117.062916
 30
0.0
 10
496.916240
 20
106.239236
 30
0.0
 10
519.316240
 20
104.197476
 30
0.0
 10
534.516240
 20
102.885876
 30
0.0
 10
551.981120
 20
99.368036
 30
0.0
 10
563.366800
 20
100.409476
 30
0.0
 10
563.364880
 20
100.409476
 30
0.0
  0
LWPOLYLINE
  5
107
100
AcDbEntity
  8
Layer_1
 62
7
100
AcDbPolyline
 90
38
 70
0
 10
301.765144
 20
134.490036
 30
0.0
 10
314.914280
 20
136.089556
 30
0.0
 10
327.314280
 20
138.495796
 30
0.0
 10
337.714280
 20
140.976356
 30
0.0
 10
359.148470
 20
148.052936
 30
0.0
 10
378.923264
 20
157.685876
 30
0.0
 10
393.712693
 20
168.874932
 30
0.0
 10
400.431600
 20
176.416156
 30
0.0
 10
380.914272
 20
183.464468
 30
0.0
 10
364.514272
 20
184.940404
 30
0.0
 10
334.703152
 20
187.982348
 30
0.0
 10
319.314280
 20
195.276524
 30
0.0
 10
301.714280
 20
198.860812
 30
0.0
 10
282.895938
 20
202.442344
 30
0.0
 10
267.917176
 20
212.014324
 30
0.0
 10
262.274189
 20
216.271281
 30
0.0
 10
258.754560
 20
216.707924
 30
0.0
 10
251.153880
 20
217.621924
 30
0.0
 10
233.882256
 20
228.128596
 30
0.0
 10
222.412912
 20
239.069396
 30
0.0
 10
219.307800
 20
223.851556
 30
0.0
 10
220.190819
 20
203.524821
 30
0.0
 10
223.985752
 20
186.553940
 30
0.0
 10
226.903248
 20
179.257156
 30
0.0
 10
234.755008
 20
164.257156
 30
0.0
 10
239.902792
 20
161.257156
 30
0.0
 10
245.679215
 20
159.919386
 30
0.0
 10
249.451800
 20
154.987556
 30
0.0
 10
254.173616
 20
149.790596
 30
0.0
 10
258.288848
 20
147.365636
 30
0.0
 10
263.789528
 20
144.623156
 30
0.0
 10
269.284293
 20
143.152016
 30
0.0
 10
273.093400
 20
139.382516
 30
0.0
 10
276.725182
 20
136.103676
 30
0.0
 10
282.759880
 20
134.857156
 30
0.0
 10
285.314280
 20
134.057156
 30
0.0
 10
301.765144
 20
134.490036
 30
0.0
 10
301.765144
 20
134.490036
 30
0.0
  0
LWPOLYLINE
  5
108
100
AcDbEntity
  8
Layer_1
 62
7
100
AcDbPolyline
 90
28
 70
0
 10
555.501680
 20
150.020836
 30
0.0
 10
566.149522
 20
152.462146
 30
0.0
 10
576.000520
 20
157.685116
 30
0.0
 10
595.571760
 20
178.057156
 30
0.0
 10
605.278116
 20
193.986678
 30
0.0
 10
613.732850
 20
213.031861
 30
0.0
 10
619.889839
 20
232.439691
 30
0.0
 10
622.702960
 20
249.457156
 30
0.0
 10
622.152160
 20
254.824396
 30
0.0
 10
612.445520
 20
248.057156
 30
0.0
 10
606.549520
 20
242.475180
 30
0.0
 10
579.212880
 20
218.417796
 30
0.0
 10
563.955660
 20
210.487752
 30
0.0
 10
547.161360
 20
206.161740
 30
0.0
 10
531.266790
 20
202.669676
 30
0.0
 10
520.614000
 20
197.598220
 30
0.0
 10
512.918640
 20
192.783428
 30
0.0
 10
507.693120
 20
189.383428
 30
0.0
 10
504.818400
 20
187.657156
 30
0.0
 10
500.326320
 20
185.337436
 30
0.0
 10
491.156080
 20
181.199788
 30
0.0
 10
485.797840
 20
179.381860
 30
0.0
 10
488.238560
 20
176.300220
 30
0.0
 10
501.314240
 20
164.111796
 30
0.0
 10
524.514240
 20
153.226916
 30
0.0
 10
531.714240
 20
150.793476
 30
0.0
 10
555.501680
 20
150.020836
 30
0.0
 10
555.501680
 20
150.020836
 30
0.0
  0
LWPOLYLINE
  5
109
100
AcDbEntity
  8
Layer_1
 62
7
100
AcDbPolyline
 90
97
 70
0
 10
439.885920
 20
187.581380
 30
0.0
 10
453.314240
 20
191.252844
 30
0.0
 10
466.114240
 20
192.789092
 30
0.0
 10
485.462160
 20
192.535180
 30
0.0
 10
498.645060
 20
196.064699
 30
0.0
 10
512.785440
 20
203.121348
 30
0.0
 10
529.486820
 20
211.830355
 30
0.0
 10
548.914240
 20
216.898676
 30
0.0
 10
564.419250
 20
222.290458
 30
0.0
 10
580.299920
 20
230.604132
 30
0.0
 10
603.413680
 20
250.538868
 30
0.0
 10
617.952840
 20
265.116312
 30
0.0
 10
626.863760
 20
271.204956
 30
0.0
 10
635.758140
 20
277.446051
 30
0.0
 10
639.581920
 20
284.209524
 30
0.0
 10
645.994720
 20
292.965356
 30
0.0
 10
652.465090
 20
300.725752
 30
0.0
 10
654.037600
 20
309.657156
 30
0.0
 10
651.413200
 20
319.900644
 30
0.0
 10
649.223440
 20
331.100644
 30
0.0
 10
650.366440
 20
350.489824
 30
0.0
 10
648.998080
 20
359.761636
 30
0.0
 10
643.432290
 20
370.610734
 30
0.0
 10
634.486640
 20
374.422492
 30
0.0
 10
626.319360
 20
371.887244
 30
0.0
 10
612.117920
 20
354.857156
 30
0.0
 10
605.890960
 20
346.857156
 30
0.0
 10
593.608640
 20
337.878708
 30
0.0
 10
584.795760
 20
332.376151
 30
0.0
 10
576.904240
 20
324.287852
 30
0.0
 10
568.776570
 20
318.589923
 30
0.0
 10
560.621120
 20
316.766812
 30
0.0
 10
556.496980
 20
321.534738
 30
0.0
 10
554.247600
 20
328.918532
 30
0.0
 10
554.247600
 20
332.269708
 30
0.0
 10
547.861520
 20
329.083076
 30
0.0
 10
527.314320
 20
321.016748
 30
0.0
 10
504.690560
 20
314.782948
 30
0.0
 10
498.731280
 20
313.781612
 30
0.0
 10
497.382320
 20
310.030292
 30
0.0
 10
494.213470
 20
304.706298
 30
0.0
 10
488.914320
 20
300.813484
 30
0.0
 10
469.499760
 20
297.325188
 30
0.0
 10
460.313040
 20
296.376581
 30
0.0
 10
456.719760
 20
294.110404
 30
0.0
 10
440.317680
 20
286.016340
 30
0.0
 10
424.385306
 20
285.578201
 30
0.0
 10
399.714280
 20
289.150564
 30
0.0
 10
378.114280
 20
293.217220
 30
0.0
 10
362.975472
 20
300.117412
 30
0.0
 10
357.775472
 20
302.347580
 30
0.0
 10
352.701880
 20
301.437212
 30
0.0
 10
341.901880
 20
304.493428
 30
0.0
 10
327.736559
 20
310.629396
 30
0.0
 10
316.514280
 20
312.196364
 30
0.0
 10
304.623090
 20
313.777534
 30
0.0
 10
292.514280
 20
318.444396
 30
0.0
 10
283.714280
 20
322.063116
 30
0.0
 10
278.914280
 20
323.637924
 30
0.0
 10
271.714280
 20
324.348516
 30
0.0
 10
259.714280
 20
327.668156
 30
0.0
 10
248.114280
 20
335.643412
 30
0.0
 10
235.314280
 20
343.355924
 30
0.0
 10
226.590472
 20
347.167756
 30
0.0
 10
221.237328
 20
354.612380
 30
0.0
 10
215.013799
 20
361.995316
 30
0.0
 10
207.454592
 20
363.657156
 30
0.0
 10
195.595342
 20
360.841550
 30
0.0
 10
188.891856
 20
352.571788
 30
0.0
 10
185.037790
 20
345.757239
 30
0.0
 10
176.644592
 20
339.358724
 30
0.0
 10
167.919761
 20
332.467085
 30
0.0
 10
162.499688
 20
324.149828
 30
0.0
 10
159.495687
 20
308.777986
 30
0.0
 10
164.575120
 20
291.657156
 30
0.0
 10
170.792776
 20
282.483568
 30
0.0
 10
177.593440
 20
276.563372
 30
0.0
 10
195.674272
 20
266.750932
 30
0.0
 10
197.575320
 20
266.057156
 30
0.0
 10
211.226448
 20
259.030756
 30
0.0
 10
229.314280
 20
244.428748
 30
0.0
 10
245.440005
 20
233.126678
 30
0.0
 10
259.075592
 20
227.757948
 30
0.0
 10
264.467303
 20
226.613569
 30
0.0
 10
271.498088
 20
221.819444
 30
0.0
 10
286.161166
 20
212.618855
 30
0.0
 10
300.647760
 20
210.459404
 30
0.0
 10
311.883511
 20
209.630123
 30
0.0
 10
321.828344
 20
205.188236
 30
0.0
 10
333.776910
 20
199.791991
 30
0.0
 10
354.369952
 20
195.741948
 30
0.0
 10
365.577832
 20
195.830236
 30
0.0
 10
374.064075
 20
195.907676
 30
0.0
 10
382.914272
 20
193.216404
 30
0.0
 10
416.514272
 20
187.035204
 30
0.0
 10
439.885920
 20
187.581380
 30
0.0
 10
439.885920
 20
187.581380
 30
0.0
  0
LWPOLYLINE
  5
10a
100
AcDbEntity
  8
Layer_1
 62
7
100
AcDbPolyline
 90
52
 70
0
 10
436.660560
 20
293.313884
 30
0.0
 10
448.914320
 20
297.246164
 30
0.0
 10
457.324800
 20
302.329900
 30
0.0
 10
466.114320
 20
304.058036
 30
0.0
 10
475.314320
 20
306.016316
 30
0.0
 10
482.785600
 20
307.273540
 30
0.0
 10
489.785600
 20
309.328468
 30
0.0
 10
491.082580
 20
312.271316
 30
0.0
 10
485.914320
 20
313.451580
 30
0.0
 10
474.791520
 20
316.797140
 30
0.0
 10
464.779120
 20
323.725605
 30
0.0
 10
458.541920
 20
330.790396
 30
0.0
 10
456.459760
 20
333.567364
 30
0.0
 10
436.014800
 20
331.995692
 30
0.0
 10
370.914280
 20
332.006092
 30
0.0
 10
357.714280
 20
333.627956
 30
0.0
 10
346.114280
 20
335.647996
 30
0.0
 10
336.914280
 20
337.541644
 30
0.0
 10
324.893136
 20
340.331004
 30
0.0
 10
308.493136
 20
344.846500
 30
0.0
 10
294.514280
 20
348.962020
 30
0.0
 10
287.714280
 20
351.350412
 30
0.0
 10
278.114280
 20
355.024036
 30
0.0
 10
246.901080
 20
369.982036
 30
0.0
 10
242.101080
 20
373.004820
 30
0.0
 10
234.748416
 20
377.570452
 30
0.0
 10
228.982552
 20
381.188452
 30
0.0
 10
224.156912
 20
376.241668
 30
0.0
 10
219.331264
 20
371.294892
 30
0.0
 10
222.839824
 20
367.676036
 30
0.0
 10
230.045720
 20
358.226548
 30
0.0
 10
235.128656
 20
351.967476
 30
0.0
 10
249.542054
 20
344.553145
 30
0.0
 10
260.590832
 20
335.372660
 30
0.0
 10
267.223456
 20
332.192900
 30
0.0
 10
297.394200
 20
323.206492
 30
0.0
 10
308.684296
 20
321.257180
 30
0.0
 10
321.871641
 20
319.732589
 30
0.0
 10
332.177504
 20
316.017260
 30
0.0
 10
335.707960
 20
314.057180
 30
0.0
 10
341.733464
 20
310.333428
 30
0.0
 10
347.010419
 20
307.237301
 30
0.0
 10
350.524688
 20
307.565788
 30
0.0
 10
361.673012
 20
307.763507
 30
0.0
 10
372.114272
 20
302.893068
 30
0.0
 10
377.818075
 20
299.042337
 30
0.0
 10
386.099088
 20
297.920508
 30
0.0
 10
401.314272
 20
296.054356
 30
0.0
 10
414.814848
 20
294.348884
 30
0.0
 10
428.745800
 20
292.551276
 30
0.0
 10
436.660560
 20
293.313908
 30
0.0
 10
436.660560
 20
293.313884
 30
0.0
  0
LWPOLYLINE
  5
10b
100
AcDbEntity
  8
Layer_1
 62
7
100
AcDbPolyline
 90
23
 70
0
 10
501.551360
 20
324.866708
 30
0.0
 10
538.387700
 20
333.161087
 30
0.0
 10
553.459940
 20
339.929545
 30
0.0
 10
564.639440
 20
347.840252
 30
0.0
 10
570.090560
 20
354.474316
 30
0.0
 10
573.016560
 20
358.722732
 30
0.0
 10
572.672000
 20
367.389948
 30
0.0
 10
567.330880
 20
395.881172
 30
0.0
 10
561.306670
 20
409.506399
 30
0.0
 10
553.593760
 20
420.167596
 30
0.0
 10
542.114240
 20
425.663948
 30
0.0
 10
511.891120
 20
425.208572
 30
0.0
 10
503.714240
 20
424.034036
 30
0.0
 10
489.314240
 20
420.377092
 30
0.0
 10
477.314240
 20
416.696868
 30
0.0
 10
455.492640
 20
405.873188
 30
0.0
 10
451.213320
 20
395.819004
 30
0.0
 10
450.632640
 20
380.702644
 30
0.0
 10
458.487680
 20
348.857156
 30
0.0
 10
467.852590
 20
331.676267
 30
0.0
 10
478.773600
 20
324.808748
 30
0.0
 10
501.551360
 20
324.866748
 30
0.0
 10
501.551360
 20
324.866708
 30
0.0
  0
LWPOLYLINE
  5
10c
100
AcDbEntity
  8
Layer_1
 62
7
100
AcDbPolyline
 90
25
 70
0
 10
495.838560
 20
346.095756
 30
0.0
 10
490.325200
 20
348.201668
 30
0.0
 10
484.922080
 20
359.885300
 30
0.0
 10
486.298310
 20
364.110876
 30
0.0
 10
489.709920
 20
366.456196
 30
0.0
 10
496.114320
 20
372.373596
 30
0.0
 10
494.313000
 20
375.163716
 30
0.0
 10
489.741840
 20
376.958556
 30
0.0
 10
485.217720
 20
378.609567
 30
0.0
 10
483.314640
 20
382.855572
 30
0.0
 10
484.535760
 20
389.756412
 30
0.0
 10
492.700780
 20
396.199408
 30
0.0
 10
507.314240
 20
401.926988
 30
0.0
 10
524.179380
 20
404.117894
 30
0.0
 10
539.394880
 20
403.581284
 30
0.0
 10
544.892230
 20
399.537970
 30
0.0
 10
550.177120
 20
391.263972
 30
0.0
 10
553.803840
 20
376.715396
 30
0.0
 10
554.671280
 20
367.773644
 30
0.0
 10
552.179280
 20
364.151636
 30
0.0
 10
542.259710
 20
354.652704
 30
0.0
 10
528.514240
 20
348.732124
 30
0.0
 10
510.737270
 20
345.687473
 30
0.0
 10
495.838560
 20
346.095756
 30
0.0
 10
495.838560
 20
346.095756
 30
0.0
  0
LWPOLYLINE
  5
10d
100
AcDbEntity
  8
Layer_1
 62
7
100
AcDbPolyline
 90
22
 70
0
 10
509.314240
 20
352.475740
 30
0.0
 10
530.254180
 20
357.470571
 30
0.0
 10
544.714240
 20
365.936420
 30
0.0
 10
548.377060
 20
370.075805
 30
0.0
 10
548.914240
 20
374.848604
 30
0.0
 10
546.859200
 20
386.078484
 30
0.0
 10
542.050420
 20
394.865413
 30
0.0
 10
534.682160
 20
398.533772
 30
0.0
 10
515.251130
 20
397.450515
 30
0.0
 10
496.836800
 20
392.351332
 30
0.0
 10
491.146400
 20
388.575645
 30
0.0
 10
489.478160
 20
384.799748
 30
0.0
 10
492.514240
 20
381.872100
 30
0.0
 10
496.991360
 20
380.226628
 30
0.0
 10
500.914240
 20
371.430220
 30
0.0
 10
499.661790
 20
367.746324
 30
0.0
 10
493.514240
 20
362.023148
 30
0.0
 10
490.514240
 20
357.713732
 30
0.0
 10
493.975750
 20
353.000059
 30
0.0
 10
500.514240
 20
351.306876
 30
0.0
 10
509.314240
 20
352.475740
 30
0.0
 10
509.314240
 20
352.475740
 30
0.0
  0
LWPOLYLINE
  5
10e
100
AcDbEntity
  8
Layer_1
 62
7
100
AcDbPolyline
 90
24
 70
0
 10
568.345760
 20
326.221020
 30
0.0
 10
576.296480
 20
332.952340
 30
0.0
 10
584.955810
 20
341.279045
 30
0.0
 10
592.346320
 20
344.457156
 30
0.0
 10
598.320400
 20
346.510372
 30
0.0
 10
604.739700
 20
351.883102
 30
0.0
 10
611.831120
 20
363.481732
 30
0.0
 10
618.282960
 20
373.740178
 30
0.0
 10
624.484000
 20
378.758908
 30
0.0
 10
628.114240
 20
381.141220
 30
0.0
 10
622.454640
 20
389.574412
 30
0.0
 10
615.894480
 20
384.374412
 30
0.0
 10
607.651680
 20
377.291660
 30
0.0
 10
604.114240
 20
375.157300
 30
0.0
 10
582.543680
 20
366.442284
 30
0.0
 10
579.454180
 20
364.219092
 30
0.0
 10
578.125200
 20
358.723188
 30
0.0
 10
575.075120
 20
351.603828
 30
0.0
 10
571.714240
 20
346.939196
 30
0.0
 10
565.914240
 20
340.243556
 30
0.0
 10
560.829520
 20
333.042164
 30
0.0
 10
561.440720
 20
325.857156
 30
0.0
 10
568.345760
 20
326.221020
 30
0.0
 10
568.345760
 20
326.221020
 30
0.0
  0
LWPOLYLINE
  5
10f
100
AcDbEntity
  8
Layer_1
 62
7
100
AcDbPolyline
 90
31
 70
0
 10
431.671536
 20
337.663804
 30
0.0
 10
452.909680
 20
339.568268
 30
0.0
 10
450.450880
 20
347.657156
 30
0.0
 10
444.130400
 20
376.257156
 30
0.0
 10
432.714240
 20
377.264412
 30
0.0
 10
411.006064
 20
378.485276
 30
0.0
 10
387.884560
 20
382.594604
 30
0.0
 10
382.454840
 20
383.887932
 30
0.0
 10
376.284560
 20
380.695508
 30
0.0
 10
367.148560
 20
376.950308
 30
0.0
 10
360.348560
 20
374.667252
 30
0.0
 10
345.674400
 20
372.610684
 30
0.0
 10
319.245158
 20
374.576340
 30
0.0
 10
297.534568
 20
380.906852
 30
0.0
 10
291.134568
 20
383.557468
 30
0.0
 10
267.714272
 20
394.218052
 30
0.0
 10
259.714272
 20
397.954772
 30
0.0
 10
239.123760
 20
407.740188
 30
0.0
 10
234.931160
 20
409.909132
 30
0.0
 10
233.096640
 20
398.167244
 30
0.0
 10
232.613416
 20
395.104076
 30
0.0
 10
233.722360
 20
389.379522
 30
0.0
 10
240.306720
 20
382.779238
 30
0.0
 10
273.714272
 20
364.072980
 30
0.0
 10
315.314272
 20
350.440852
 30
0.0
 10
326.500576
 20
347.559452
 30
0.0
 10
376.114272
 20
339.643084
 30
0.0
 10
388.514272
 20
338.313508
 30
0.0
 10
415.271536
 20
337.029428
 30
0.0
 10
431.671536
 20
337.663804
 30
0.0
 10
431.671536
 20
337.663804
 30
0.0
  0
LWPOLYLINE
  5
110
100
AcDbEntity
  8
Layer_1
 62
7
100
AcDbPolyline
 90
16
 70
0
 10
586.514240
 20
374.385228
 30
0.0
 10
605.813280
 20
382.663684
 30
0.0
 10
615.293520
 20
393.107060
 30
0.0
 10
618.710370
 20
401.783929
 30
0.0
 10
619.253520
 20
409.017060
 30
0.0
 10
617.597050
 20
410.581978
 30
0.0
 10
610.727600
 20
410.438348
 30
0.0
 10
588.657020
 20
408.218380
 30
0.0
 10
577.504640
 20
403.722780
 30
0.0
 10
575.006810
 20
401.491866
 30
0.0
 10
574.997600
 20
398.457156
 30
0.0
 10
576.251520
 20
393.826916
 30
0.0
 10
579.314240
 20
376.386780
 30
0.0
 10
580.234340
 20
372.688356
 30
0.0
 10
586.514240
 20
374.385228
 30
0.0
 10
586.514240
 20
374.385228
 30
0.0
  0
LWPOLYLINE
  5
111
100
AcDbEntity
  8
Layer_1
 62
7
100
AcDbPolyline
 90
55
 70
0
 10
76.662680
 20
379.438988
 30
0.0
 10
87.767400
 20
384.924196
 30
0.0
 10
97.714272
 20
395.223148
 30
0.0
 10
99.111320
 20
398.079148
 30
0.0
 10
103.495552
 20
409.132220
 30
0.0
 10
110.757485
 20
425.247945
 30
0.0
 10
121.292424
 20
432.365140
 30
0.0
 10
132.732096
 20
439.781748
 30
0.0
 10
134.762032
 20
442.217836
 30
0.0
 10
139.957724
 20
451.941685
 30
0.0
 10
141.451344
 20
463.573564
 30
0.0
 10
138.599326
 20
472.701555
 30
0.0
 10
132.679952
 20
482.657156
 30
0.0
 10
129.178432
 20
486.857156
 30
0.0
 10
129.377880
 20
482.057156
 30
0.0
 10
128.638152
 20
477.257156
 30
0.0
 10
124.559419
 20
484.173965
 30
0.0
 10
122.514272
 20
497.968484
 30
0.0
 10
117.942872
 20
522.235052
 30
0.0
 10
112.276213
 20
530.192715
 30
0.0
 10
105.672144
 20
535.232236
 30
0.0
 10
99.714272
 20
537.643988
 30
0.0
 10
88.914272
 20
540.821596
 30
0.0
 10
68.276632
 20
545.328660
 30
0.0
 10
64.791000
 20
546.057156
 30
0.0
 10
56.041688
 20
549.620050
 30
0.0
 10
43.953040
 20
559.410956
 30
0.0
 10
31.102297
 20
569.403307
 30
0.0
 10
26.630012
 20
569.931010
 30
0.0
 10
22.022464
 20
568.045644
 30
0.0
 10
10.729832
 20
555.257156
 30
0.0
 10
9.998402
 20
542.239011
 30
0.0
 10
15.995456
 20
528.959884
 30
0.0
 10
24.927549
 20
522.581680
 30
0.0
 10
38.222224
 20
517.702204
 30
0.0
 10
48.348094
 20
513.355239
 30
0.0
 10
55.995352
 20
507.601700
 30
0.0
 10
56.567496
 20
503.793516
 30
0.0
 10
53.459704
 20
504.615508
 30
0.0
 10
47.885741
 20
508.454361
 30
0.0
 10
41.946288
 20
509.570492
 30
0.0
 10
29.709569
 20
500.418019
 30
0.0
 10
16.206496
 20
484.993812
 30
0.0
 10
8.415145
 20
471.083430
 30
0.0
 10
3.721479
 20
457.003999
 30
0.0
 10
2.109909
 20
442.685310
 30
0.0
 10
3.564848
 20
428.057156
 30
0.0
 10
9.958856
 20
403.657156
 30
0.0
 10
12.929296
 20
398.457156
 30
0.0
 10
19.924512
 20
390.208212
 30
0.0
 10
29.221406
 20
382.879691
 30
0.0
 10
41.714272
 20
378.286060
 30
0.0
 10
59.314272
 20
376.770076
 30
0.0
 10
76.662680
 20
379.438988
 30
0.0
 10
76.662680
 20
379.438988
 30
0.0
  0
LWPOLYLINE
  5
112
100
AcDbEntity
  8
Layer_1
 62
7
100
AcDbPolyline
 90
102
 70
0
 10
358.114272
 20
382.881988
 30
0.0
 10
375.970096
 20
387.752668
 30
0.0
 10
382.307096
 20
390.057156
 30
0.0
 10
384.851288
 20
391.178684
 30
0.0
 10
401.779256
 20
397.231668
 30
0.0
 10
407.851983
 20
397.908714
 30
0.0
 10
410.114272
 20
396.057156
 30
0.0
 10
406.514272
 20
394.232996
 30
0.0
 10
396.918912
 20
391.045812
 30
0.0
 10
390.923552
 20
388.082788
 30
0.0
 10
394.118912
 20
387.466876
 30
0.0
 10
424.914272
 20
383.714428
 30
0.0
 10
442.532000
 20
384.961500
 30
0.0
 10
444.064560
 20
392.411748
 30
0.0
 10
447.472530
 20
404.769778
 30
0.0
 10
454.865280
 20
413.040404
 30
0.0
 10
465.115120
 20
419.001748
 30
0.0
 10
470.114240
 20
421.146348
 30
0.0
 10
470.055840
 20
428.294260
 30
0.0
 10
469.149600
 20
437.081087
 30
0.0
 10
465.666000
 20
444.062028
 30
0.0
 10
461.709440
 20
451.088844
 30
0.0
 10
460.713040
 20
458.957812
 30
0.0
 10
461.052770
 20
462.822147
 30
0.0
 10
458.843040
 20
465.675044
 30
0.0
 10
456.052960
 20
469.686326
 30
0.0
 10
454.182320
 20
480.080252
 30
0.0
 10
449.726400
 20
494.449668
 30
0.0
 10
448.902080
 20
496.304372
 30
0.0
 10
447.704110
 20
498.991432
 30
0.0
 10
443.259360
 20
500.085396
 30
0.0
 10
426.433360
 20
503.580462
 30
0.0
 10
411.863888
 20
510.839940
 30
0.0
 10
407.598280
 20
513.226796
 30
0.0
 10
404.770632
 20
510.095244
 30
0.0
 10
390.914296
 20
499.654076
 30
0.0
 10
386.325152
 20
497.958948
 30
0.0
 10
375.934720
 20
497.711472
 30
0.0
 10
361.714296
 20
500.845116
 30
0.0
 10
346.188544
 20
509.975108
 30
0.0
 10
343.635656
 20
511.657156
 30
0.0
 10
341.459072
 20
513.293212
 30
0.0
 10
339.853816
 20
513.732300
 30
0.0
 10
335.154384
 20
510.103756
 30
0.0
 10
325.161960
 20
507.664660
 30
0.0
 10
307.378591
 20
512.570004
 30
0.0
 10
292.260344
 20
525.996548
 30
0.0
 10
287.685080
 20
532.251644
 30
0.0
 10
284.224664
 20
530.819220
 30
0.0
 10
269.663599
 20
528.324702
 30
0.0
 10
256.557552
 20
535.426812
 30
0.0
 10
251.538462
 20
542.309810
 30
0.0
 10
248.354064
 20
550.892780
 30
0.0
 10
247.258428
 20
560.118566
 30
0.0
 10
248.505624
 20
568.930012
 30
0.0
 10
249.494330
 20
574.048925
 30
0.0
 10
246.166360
 20
574.857156
 30
0.0
 10
240.245933
 20
575.909349
 30
0.0
 10
234.268776
 20
580.599708
 30
0.0
 10
226.621417
 20
591.096652
 30
0.0
 10
222.514280
 20
600.933956
 30
0.0
 10
221.914280
 20
602.852260
 30
0.0
 10
212.173648
 20
594.381164
 30
0.0
 10
193.984126
 20
579.057058
 30
0.0
 10
177.714280
 20
569.151540
 30
0.0
 10
172.200272
 20
566.339668
 30
0.0
 10
177.076584
 20
561.554692
 30
0.0
 10
193.009304
 20
540.658060
 30
0.0
 10
195.879984
 20
530.019828
 30
0.0
 10
194.487720
 20
522.428884
 30
0.0
 10
192.625256
 20
520.446380
 30
0.0
 10
194.769768
 20
518.207996
 30
0.0
 10
196.914280
 20
515.111340
 30
0.0
 10
198.111736
 20
513.259260
 30
0.0
 10
201.123563
 20
506.259832
 30
0.0
 10
202.508232
 20
495.372884
 30
0.0
 10
201.031964
 20
480.981414
 30
0.0
 10
194.434984
 20
469.657156
 30
0.0
 10
192.385008
 20
466.138878
 30
0.0
 10
192.497024
 20
460.975340
 30
0.0
 10
193.764536
 20
454.058734
 30
0.0
 10
198.034064
 20
453.545292
 30
0.0
 10
218.514272
 20
457.225308
 30
0.0
 10
237.492474
 20
460.555450
 30
0.0
 10
251.288008
 20
460.095884
 30
0.0
 10
260.930654
 20
458.178233
 30
0.0
 10
266.314272
 20
455.039660
 30
0.0
 10
267.362168
 20
448.886756
 30
0.0
 10
263.948960
 20
450.758412
 30
0.0
 10
258.101064
 20
453.928988
 30
0.0
 10
241.507456
 20
454.601940
 30
0.0
 10
236.842120
 20
449.280516
 30
0.0
 10
234.095388
 20
439.712928
 30
0.0
 10
234.827072
 20
432.052716
 30
0.0
 10
242.642840
 20
416.793340
 30
0.0
 10
253.556394
 20
408.780353
 30
0.0
 10
266.069728
 20
402.848652
 30
0.0
 10
277.714272
 20
398.491540
 30
0.0
 10
318.114272
 20
385.211124
 30
0.0
 10
330.514272
 20
383.230812
 30
0.0
 10
358.114272
 20
382.881988
 30
0.0
 10
358.114272
 20
382.881988
 30
0.0
  0
LWPOLYLINE
  5
113
100
AcDbEntity
  8
Layer_1
 62
7
100
AcDbPolyline
 90
81
 70
0
 10
583.066560
 20
413.880364
 30
0.0
 10
594.914240
 20
416.441004
 30
0.0
 10
615.714240
 20
419.526964
 30
0.0
 10
624.282970
 20
424.537253
 30
0.0
 10
627.314240
 20
432.344676
 30
0.0
 10
624.972560
 20
445.400966
 30
0.0
 10
620.151440
 20
457.657156
 30
0.0
 10
612.681280
 20
472.857156
 30
0.0
 10
605.143360
 20
502.457156
 30
0.0
 10
600.814640
 20
523.859972
 30
0.0
 10
591.173440
 20
550.566116
 30
0.0
 10
577.066880
 20
575.677628
 30
0.0
 10
571.940560
 20
583.857924
 30
0.0
 10
558.374320
 20
601.296924
 30
0.0
 10
542.523300
 20
621.792858
 30
0.0
 10
539.593457
 20
630.339843
 30
0.0
 10
538.604000
 20
640.509876
 30
0.0
 10
540.010670
 20
655.552067
 30
0.0
 10
547.065920
 20
679.657156
 30
0.0
 10
558.145440
 20
721.553652
 30
0.0
 10
559.779440
 20
740.353652
 30
0.0
 10
559.297350
 20
757.058626
 30
0.0
 10
555.565120
 20
774.057157
 30
0.0
 10
548.519920
 20
788.124331
 30
0.0
 10
538.057840
 20
796.056936
 30
0.0
 10
530.857840
 20
801.292976
 30
0.0
 10
524.523020
 20
806.869034
 30
0.0
 10
517.375200
 20
808.870448
 30
0.0
 10
503.414720
 20
812.160472
 30
0.0
 10
489.579950
 20
813.889856
 30
0.0
 10
472.647920
 20
809.340168
 30
0.0
 10
468.129680
 20
807.657160
 30
0.0
 10
453.914320
 20
798.929064
 30
0.0
 10
451.336560
 20
796.057160
 30
0.0
 10
453.790720
 20
792.869600
 30
0.0
 10
457.819360
 20
787.641256
 30
0.0
 10
463.165120
 20
782.863024
 30
0.0
 10
472.748530
 20
776.471182
 30
0.0
 10
478.044160
 20
769.885997
 30
0.0
 10
484.292000
 20
759.200740
 30
0.0
 10
503.018800
 20
740.057156
 30
0.0
 10
511.286160
 20
722.986196
 30
0.0
 10
510.749680
 20
716.718188
 30
0.0
 10
510.330880
 20
713.669268
 30
0.0
 10
513.703600
 20
708.457156
 30
0.0
 10
521.579370
 20
695.024700
 30
0.0
 10
525.799040
 20
680.192828
 30
0.0
 10
525.823680
 20
671.223179
 30
0.0
 10
522.249520
 20
665.557124
 30
0.0
 10
519.874320
 20
663.558524
 30
0.0
 10
523.535120
 20
651.807844
 30
0.0
 10
528.055120
 20
635.817780
 30
0.0
 10
528.003920
 20
610.776532
 30
0.0
 10
520.482960
 20
601.592468
 30
0.0
 10
517.862480
 20
600.497548
 30
0.0
 10
518.212560
 20
595.477356
 30
0.0
 10
518.862400
 20
586.860572
 30
0.0
 10
518.427440
 20
578.701956
 30
0.0
 10
517.420320
 20
571.799684
 30
0.0
 10
508.547040
 20
549.657156
 30
0.0
 10
505.962400
 20
546.457156
 30
0.0
 10
509.816960
 20
539.373556
 30
0.0
 10
518.196480
 20
519.484276
 30
0.0
 10
520.011000
 20
513.848765
 30
0.0
 10
523.873680
 20
510.406092
 30
0.0
 10
528.260800
 20
506.148622
 30
0.0
 10
529.714400
 20
500.206844
 30
0.0
 10
531.397280
 20
495.982116
 30
0.0
 10
537.159050
 20
485.654486
 30
0.0
 10
536.537120
 20
473.321500
 30
0.0
 10
537.174720
 20
466.589996
 30
0.0
 10
542.458920
 20
452.542550
 30
0.0
 10
543.428640
 20
438.638468
 30
0.0
 10
542.827520
 20
433.219772
 30
0.0
 10
548.070960
 20
430.290388
 30
0.0
 10
563.497920
 20
416.526380
 30
0.0
 10
567.925280
 20
409.901908
 30
0.0
 10
570.600160
 20
406.146652
 30
0.0
 10
574.509600
 20
409.101908
 30
0.0
 10
583.066640
 20
413.880364
 30
0.0
 10
583.066560
 20
413.880364
 30
0.0
  0
LWPOLYLINE
  5
114
100
AcDbEntity
  8
Layer_1
 62
7
100
AcDbPolyline
 90
34
 70
0
 10
484.914240
 20
426.560436
 30
0.0
 10
495.314240
 20
429.344044
 30
0.0
 10
527.580000
 20
432.987452
 30
0.0
 10
535.812750
 20
433.699174
 30
0.0
 10
537.780000
 20
435.429972
 30
0.0
 10
537.906090
 20
446.031254
 30
0.0
 10
532.950000
 20
462.457156
 30
0.0
 10
530.908560
 20
472.862668
 30
0.0
 10
529.878300
 20
483.703185
 30
0.0
 10
524.726400
 20
493.172588
 30
0.0
 10
522.798640
 20
498.079156
 30
0.0
 10
520.110160
 20
506.458460
 30
0.0
 10
513.715600
 20
516.661828
 30
0.0
 10
506.138100
 20
536.493587
 30
0.0
 10
499.673360
 20
543.845148
 30
0.0
 10
486.201040
 20
544.401628
 30
0.0
 10
482.166480
 20
545.877260
 30
0.0
 10
480.184000
 20
540.057156
 30
0.0
 10
469.135710
 20
517.796632
 30
0.0
 10
455.103200
 20
503.325596
 30
0.0
 10
451.465280
 20
501.193596
 30
0.0
 10
454.241280
 20
497.068500
 30
0.0
 10
458.780950
 20
488.815232
 30
0.0
 10
460.793600
 20
480.224308
 30
0.0
 10
462.547660
 20
473.104544
 30
0.0
 10
466.737120
 20
467.107740
 30
0.0
 10
467.361440
 20
461.453588
 30
0.0
 10
468.420320
 20
454.003004
 30
0.0
 10
474.872880
 20
439.352900
 30
0.0
 10
476.130640
 20
433.752900
 30
0.0
 10
477.324400
 20
428.194012
 30
0.0
 10
479.172800
 20
424.851148
 30
0.0
 10
484.914320
 20
426.560436
 30
0.0
 10
484.914240
 20
426.560436
 30
0.0
  0
LWPOLYLINE
  5
115
100
AcDbEntity
  8
Layer_1
 62
7
100
AcDbPolyline
 90
52
 70
0
 10
153.117176
 20
437.076860
 30
0.0
 10
157.895928
 20
439.956844
 30
0.0
 10
167.532424
 20
441.537140
 30
0.0
 10
176.193497
 20
442.642215
 30
0.0
 10
181.391640
 20
447.287476
 30
0.0
 10
184.269728
 20
459.103932
 30
0.0
 10
185.932529
 20
471.280164
 30
0.0
 10
189.738392
 20
478.558620
 30
0.0
 10
194.343301
 20
487.408880
 30
0.0
 10
195.074736
 20
498.210100
 30
0.0
 10
193.360672
 20
506.805892
 30
0.0
 10
192.114280
 20
509.132268
 30
0.0
 10
185.319248
 20
520.452484
 30
0.0
 10
183.442123
 20
523.036821
 30
0.0
 10
184.954320
 20
526.113404
 30
0.0
 10
186.155419
 20
530.587811
 30
0.0
 10
183.994664
 20
539.108132
 30
0.0
 10
179.032032
 20
548.742354
 30
0.0
 10
170.457376
 20
556.799836
 30
0.0
 10
161.065160
 20
565.000148
 30
0.0
 10
155.403350
 20
569.724186
 30
0.0
 10
149.601152
 20
571.657156
 30
0.0
 10
145.653728
 20
573.760260
 30
0.0
 10
140.529395
 20
577.210939
 30
0.0
 10
133.977008
 20
576.855020
 30
0.0
 10
122.822616
 20
576.599228
 30
0.0
 10
116.455500
 20
576.396590
 30
0.0
 10
109.232304
 20
571.508876
 30
0.0
 10
105.026873
 20
568.081497
 30
0.0
 10
101.035384
 20
568.040500
 30
0.0
 10
92.611660
 20
565.854723
 30
0.0
 10
89.714272
 20
556.530068
 30
0.0
 10
88.875424
 20
552.033148
 30
0.0
 10
89.102278
 20
550.338496
 30
0.0
 10
93.129376
 20
548.941996
 30
0.0
 10
98.914272
 20
547.363532
 30
0.0
 10
115.489992
 20
538.383314
 30
0.0
 10
123.639096
 20
528.935708
 30
0.0
 10
127.329409
 20
516.438290
 30
0.0
 10
128.901104
 20
500.964644
 30
0.0
 10
128.914304
 20
493.872140
 30
0.0
 10
134.776032
 20
488.164644
 30
0.0
 10
145.675558
 20
474.425049
 30
0.0
 10
149.478704
 20
459.749268
 30
0.0
 10
148.920541
 20
449.581415
 30
0.0
 10
145.633296
 20
440.298364
 30
0.0
 10
144.099264
 20
437.291412
 30
0.0
 10
146.306784
 20
436.804308
 30
0.0
 10
149.314304
 20
436.050340
 30
0.0
 10
150.317200
 20
435.720316
 30
0.0
 10
153.117200
 20
437.076860
 30
0.0
 10
153.117176
 20
437.076860
 30
0.0
  0
LWPOLYLINE
  5
116
100
AcDbEntity
  8
Layer_1
 62
7
100
AcDbPolyline
 90
163
 70
0
 10
387.714272
 20
509.971020
 30
0.0
 10
392.564520
 20
512.953444
 30
0.0
 10
399.554480
 20
523.057156
 30
0.0
 10
402.405884
 20
524.408344
 30
0.0
 10
406.774184
 20
521.920324
 30
0.0
 10
421.118182
 20
513.317910
 30
0.0
 10
439.596000
 20
510.769892
 30
0.0
 10
449.827120
 20
512.893487
 30
0.0
 10
458.442560
 20
517.068260
 30
0.0
 10
470.369910
 20
533.846295
 30
0.0
 10
476.914240
 20
552.344836
 30
0.0
 10
477.854930
 20
556.249261
 30
0.0
 10
480.833280
 20
556.109956
 30
0.0
 10
496.772560
 20
554.455292
 30
0.0
 10
504.644660
 20
557.559839
 30
0.0
 10
508.710240
 20
567.353300
 30
0.0
 10
511.419640
 20
588.981342
 30
0.0
 10
509.262080
 20
608.180284
 30
0.0
 10
508.335260
 20
613.504753
 30
0.0
 10
512.117840
 20
613.805860
 30
0.0
 10
517.629600
 20
614.950540
 30
0.0
 10
520.201310
 20
620.173112
 30
0.0
 10
520.821100
 20
628.398249
 30
0.0
 10
516.168320
 20
654.857156
 30
0.0
 10
509.426640
 20
673.035412
 30
0.0
 10
508.036460
 20
677.751264
 30
0.0
 10
511.349920
 20
678.046940
 30
0.0
 10
516.333040
 20
677.525987
 30
0.0
 10
516.742480
 20
683.213300
 30
0.0
 10
512.441440
 20
696.960700
 30
0.0
 10
497.867360
 20
717.803924
 30
0.0
 10
496.070080
 20
721.603924
 30
0.0
 10
498.526640
 20
722.857156
 30
0.0
 10
500.421520
 20
724.103796
 30
0.0
 10
496.307440
 20
737.257156
 30
0.0
 10
484.114320
 20
749.755948
 30
0.0
 10
470.523520
 20
757.491380
 30
0.0
 10
468.542690
 20
758.610514
 30
0.0
 10
470.022000
 20
761.602620
 30
0.0
 10
471.294240
 20
765.014501
 30
0.0
 10
454.810000
 20
777.997557
 30
0.0
 10
447.083750
 20
782.222951
 30
0.0
 10
448.627920
 20
784.500360
 30
0.0
 10
450.871600
 20
785.353400
 30
0.0
 10
447.292960
 20
788.781136
 30
0.0
 10
430.245952
 20
797.583424
 30
0.0
 10
427.177632
 20
798.155296
 30
0.0
 10
427.694088
 20
801.910432
 30
0.0
 10
425.811704
 20
807.963816
 30
0.0
 10
420.869915
 20
810.172061
 30
0.0
 10
412.837280
 20
809.308384
 30
0.0
 10
402.428584
 20
808.476720
 30
0.0
 10
395.542904
 20
808.457120
 30
0.0
 10
395.084872
 20
801.857120
 30
0.0
 10
395.400112
 20
794.980600
 30
0.0
 10
402.165488
 20
787.234368
 30
0.0
 10
403.531656
 20
783.657120
 30
0.0
 10
411.171936
 20
783.657120
 30
0.0
 10
425.762095
 20
781.750377
 30
0.0
 10
440.114240
 20
775.589741
 30
0.0
 10
444.914240
 20
770.111133
 30
0.0
 10
442.612220
 20
765.204951
 30
0.0
 10
436.192880
 20
761.888356
 30
0.0
 10
434.931040
 20
757.216644
 30
0.0
 10
431.949787
 20
747.061205
 30
0.0
 10
424.589272
 20
739.253404
 30
0.0
 10
411.956664
 20
735.494724
 30
0.0
 10
411.907679
 20
738.524536
 30
0.0
 10
415.369024
 20
741.592988
 30
0.0
 10
426.282024
 20
751.137412
 30
0.0
 10
427.577048
 20
758.984012
 30
0.0
 10
428.383770
 20
764.420343
 30
0.0
 10
432.914320
 20
766.360133
 30
0.0
 10
436.503680
 20
767.950117
 30
0.0
 10
436.503680
 20
770.888533
 30
0.0
 10
421.511573
 20
776.768461
 30
0.0
 10
400.789880
 20
777.012173
 30
0.0
 10
385.411230
 20
771.748833
 30
0.0
 10
371.708656
 20
764.117989
 30
0.0
 10
369.875129
 20
762.166153
 30
0.0
 10
370.767144
 20
759.454196
 30
0.0
 10
372.137950
 20
751.389652
 30
0.0
 10
369.729776
 20
743.257116
 30
0.0
 10
362.997335
 20
734.881143
 30
0.0
 10
352.450640
 20
728.045052
 30
0.0
 10
335.521536
 20
720.888683
 30
0.0
 10
320.680253
 20
718.199005
 30
0.0
 10
307.951421
 20
719.976832
 30
0.0
 10
297.359672
 20
726.222980
 30
0.0
 10
292.871624
 20
730.223116
 30
0.0
 10
287.092952
 20
728.447948
 30
0.0
 10
267.609427
 20
720.467305
 30
0.0
 10
253.467624
 20
709.535844
 30
0.0
 10
246.656267
 20
701.422295
 30
0.0
 10
244.914280
 20
695.417044
 30
0.0
 10
246.113896
 20
690.348499
 30
0.0
 10
251.685280
 20
689.257156
 30
0.0
 10
258.108560
 20
687.948588
 30
0.0
 10
258.565704
 20
685.788588
 30
0.0
 10
257.714272
 20
683.184020
 30
0.0
 10
264.484120
 20
679.066660
 30
0.0
 10
278.114272
 20
679.226724
 30
0.0
 10
284.681121
 20
680.310521
 30
0.0
 10
285.714272
 20
678.457156
 30
0.0
 10
284.408696
 20
676.457156
 30
0.0
 10
280.208696
 20
674.657156
 30
0.0
 10
267.714272
 20
672.857156
 30
0.0
 10
256.778502
 20
673.923611
 30
0.0
 10
252.112912
 20
679.259972
 30
0.0
 10
247.073624
 20
683.278148
 30
0.0
 10
240.114280
 20
688.098652
 30
0.0
 10
239.001304
 20
689.984932
 30
0.0
 10
238.152136
 20
699.497524
 30
0.0
 10
250.314280
 20
715.912620
 30
0.0
 10
254.253546
 20
720.516532
 30
0.0
 10
253.114280
 20
722.082596
 30
0.0
 10
249.753286
 20
723.714264
 30
0.0
 10
248.386488
 20
728.268388
 30
0.0
 10
248.154752
 20
732.670100
 30
0.0
 10
245.201728
 20
734.670100
 30
0.0
 10
242.289184
 20
736.057156
 30
0.0
 10
240.601728
 20
733.715860
 30
0.0
 10
227.291600
 20
719.782916
 30
0.0
 10
221.830432
 20
715.531396
 30
0.0
 10
223.384184
 20
711.290236
 30
0.0
 10
223.862496
 20
705.941756
 30
0.0
 10
221.372296
 20
702.457156
 30
0.0
 10
220.108824
 20
693.491235
 30
0.0
 10
226.633520
 20
684.943676
 30
0.0
 10
228.416640
 20
683.694724
 30
0.0
 10
226.756104
 20
680.275940
 30
0.0
 10
223.926806
 20
665.370812
 30
0.0
 10
225.183496
 20
651.156236
 30
0.0
 10
237.139376
 20
641.271412
 30
0.0
 10
239.026166
 20
639.888522
 30
0.0
 10
237.827120
 20
637.190588
 30
0.0
 10
232.923469
 20
627.710269
 30
0.0
 10
230.526096
 20
615.305316
 30
0.0
 10
235.195768
 20
595.176828
 30
0.0
 10
242.748222
 20
586.219868
 30
0.0
 10
252.927536
 20
583.093468
 30
0.0
 10
259.077904
 20
581.519212
 30
0.0
 10
257.663232
 20
576.241276
 30
0.0
 10
255.781192
 20
564.457156
 30
0.0
 10
257.391004
 20
551.379803
 30
0.0
 10
262.293856
 20
542.687076
 30
0.0
 10
274.023704
 20
537.341604
 30
0.0
 10
280.095403
 20
537.269001
 30
0.0
 10
286.773840
 20
541.126620
 30
0.0
 10
291.333965
 20
543.054983
 30
0.0
 10
293.160616
 20
539.194132
 30
0.0
 10
299.048336
 20
529.181044
 30
0.0
 10
312.514272
 20
520.297196
 30
0.0
 10
327.879592
 20
517.653804
 30
0.0
 10
334.766639
 20
519.106584
 30
0.0
 10
336.926520
 20
523.075596
 30
0.0
 10
338.603066
 20
527.434859
 30
0.0
 10
342.060808
 20
524.853124
 30
0.0
 10
348.943922
 20
517.484781
 30
0.0
 10
360.584328
 20
512.069660
 30
0.0
 10
368.914272
 20
509.312332
 30
0.0
 10
387.714272
 20
509.971020
 30
0.0
 10
387.714272
 20
509.971020
 30
0.0
  0
LWPOLYLINE
  5
117
100
AcDbEntity
  8
Layer_1
 62
7
100
AcDbPolyline
 90
13
 70
0
 10
370.914272
 20
668.981108
 30
0.0
 10
367.514272
 20
669.703548
 30
0.0
 10
366.314272
 20
672.544860
 30
0.0
 10
369.382088
 20
672.844596
 30
0.0
 10
376.752372
 20
675.629427
 30
0.0
 10
380.114272
 20
680.635164
 30
0.0
 10
381.714272
 20
682.057156
 30
0.0
 10
383.260600
 20
680.270315
 30
0.0
 10
381.270936
 20
674.771628
 30
0.0
 10
376.496640
 20
669.598228
 30
0.0
 10
373.139976
 20
668.549956
 30
0.0
 10
370.914272
 20
668.981108
 30
0.0
 10
370.914272
 20
668.981108
 30
0.0
  0
LWPOLYLINE
  5
118
100
AcDbEntity
  8
Layer_1
 62
7
100
AcDbPolyline
 90
27
 70
0
 10
347.501520
 20
683.289156
 30
0.0
 10
337.101528
 20
687.719036
 30
0.0
 10
326.585840
 20
692.592756
 30
0.0
 10
323.057400
 20
694.110404
 30
0.0
 10
320.942072
 20
692.083780
 30
0.0
 10
318.123088
 20
690.057156
 30
0.0
 10
313.985640
 20
688.394884
 30
0.0
 10
309.199344
 20
686.994884
 30
0.0
 10
307.685915
 20
688.519358
 30
0.0
 10
310.907944
 20
690.938180
 30
0.0
 10
317.228416
 20
695.305895
 30
0.0
 10
319.314280
 20
700.518692
 30
0.0
 10
320.978632
 20
703.657156
 30
0.0
 10
323.899984
 20
700.457156
 30
0.0
 10
326.779999
 20
697.351519
 30
0.0
 10
337.710496
 20
697.156692
 30
0.0
 10
361.161344
 20
702.576580
 30
0.0
 10
374.302958
 20
711.984890
 30
0.0
 10
383.666600
 20
724.257156
 30
0.0
 10
387.115582
 20
729.493361
 30
0.0
 10
389.289600
 20
729.297076
 30
0.0
 10
387.336232
 20
723.897076
 30
0.0
 10
378.005000
 20
702.195924
 30
0.0
 10
373.524416
 20
692.366516
 30
0.0
 10
364.300576
 20
683.219420
 30
0.0
 10
347.501520
 20
683.289180
 30
0.0
 10
347.501520
 20
683.289156
 30
0.0
  0
LWPOLYLINE
  5
119
100
AcDbEntity
  8
Layer_1
 62
7
100
AcDbPolyline
 90
7
 70
0
 10
365.024632
 20
689.564404
 30
0.0
 10
366.068151
 20
690.683874
 30
0.0
 10
362.731664
 20
690.857156
 30
0.0
 10
349.999872
 20
688.272060
 30
0.0
 10
356.361841
 20
687.810284
 30
0.0
 10
365.024624
 20
689.564404
 30
0.0
 10
365.024632
 20
689.564404
 30
0.0
  0
LWPOLYLINE
  5
11a
100
AcDbEntity
  8
Layer_1
 62
7
100
AcDbPolyline
 90
45
 70
0
 10
177.068968
 20
616.539948
 30
0.0
 10
180.691261
 20
623.271809
 30
0.0
 10
178.914280
 20
631.657156
 30
0.0
 10
177.041569
 20
634.939347
 30
0.0
 10
179.021464
 20
635.657156
 30
0.0
 10
189.914280
 20
639.540980
 30
0.0
 10
192.099176
 20
644.148069
 30
0.0
 10
191.177464
 20
650.534284
 30
0.0
 10
188.387556
 20
653.866006
 30
0.0
 10
182.676632
 20
654.869404
 30
0.0
 10
177.825814
 20
655.571538
 30
0.0
 10
177.663672
 20
657.596180
 30
0.0
 10
179.767616
 20
658.857156
 30
0.0
 10
182.878384
 20
660.657156
 30
0.0
 10
184.095440
 20
665.420764
 30
0.0
 10
181.326872
 20
669.814722
 30
0.0
 10
177.161288
 20
671.657156
 30
0.0
 10
170.514280
 20
665.878868
 30
0.0
 10
169.052192
 20
665.618918
 30
0.0
 10
165.849960
 20
669.612884
 30
0.0
 10
160.966594
 20
674.887704
 30
0.0
 10
156.130832
 20
676.062412
 30
0.0
 10
151.741312
 20
671.693980
 30
0.0
 10
149.704080
 20
665.683996
 30
0.0
 10
149.360008
 20
658.857156
 30
0.0
 10
145.489136
 20
660.459988
 30
0.0
 10
139.643408
 20
661.008828
 30
0.0
 10
134.714272
 20
656.436492
 30
0.0
 10
132.914272
 20
651.132252
 30
0.0
 10
136.544634
 20
645.872145
 30
0.0
 10
145.467056
 20
643.676244
 30
0.0
 10
148.455480
 20
642.639350
 30
0.0
 10
146.880928
 20
639.142324
 30
0.0
 10
145.176912
 20
632.357844
 30
0.0
 10
146.235544
 20
627.672923
 30
0.0
 10
149.212136
 20
625.648276
 30
0.0
 10
153.978638
 20
625.102921
 30
0.0
 10
157.455056
 20
627.359740
 30
0.0
 10
160.152376
 20
629.257156
 30
0.0
 10
162.884848
 20
623.434924
 30
0.0
 10
164.278296
 20
620.958532
 30
0.0
 10
164.586872
 20
620.574628
 30
0.0
 10
167.992328
 20
616.294420
 30
0.0
 10
177.068968
 20
616.539948
 30
0.0
 10
177.068968
 20
616.539948
 30
0.0
  0
LWPOLYLINE
  5
11b
100
AcDbEntity
  8
Layer_1
 62
7
100
AcDbPolyline
 90
70
 70
0
 10
161.981464
 20
686.395380
 30
0.0
 10
168.508352
 20
710.198516
 30
0.0
 10
170.514280
 20
715.229972
 30
0.0
 10
183.407200
 20
734.203060
 30
0.0
 10
187.915531
 20
742.078363
 30
0.0
 10
186.270640
 20
748.581556
 30
0.0
 10
183.282056
 20
756.703612
 30
0.0
 10
184.570112
 20
768.303613
 30
0.0
 10
189.102128
 20
778.657157
 30
0.0
 10
191.397864
 20
782.857160
 30
0.0
 10
186.924200
 20
782.857160
 30
0.0
 10
179.428888
 20
784.398688
 30
0.0
 10
174.113776
 20
790.174360
 30
0.0
 10
174.544427
 20
792.819225
 30
0.0
 10
176.978808
 20
791.772200
 30
0.0
 10
184.645805
 20
788.786984
 30
0.0
 10
191.333128
 20
790.087664
 30
0.0
 10
192.339248
 20
803.916008
 30
0.0
 10
193.813257
 20
819.356677
 30
0.0
 10
196.832680
 20
827.095560
 30
0.0
 10
198.673745
 20
826.473837
 30
0.0
 10
198.207504
 20
818.195592
 30
0.0
 10
198.931640
 20
794.173136
 30
0.0
 10
204.075912
 20
798.129744
 30
0.0
 10
226.514280
 20
814.311544
 30
0.0
 10
228.914280
 20
815.561496
 30
0.0
 10
246.914280
 20
822.918256
 30
0.0
 10
258.714280
 20
828.288512
 30
0.0
 10
261.259585
 20
830.562343
 30
0.0
 10
261.714280
 20
834.181344
 30
0.0
 10
264.979480
 20
841.635232
 30
0.0
 10
271.305890
 20
846.570288
 30
0.0
 10
278.335368
 20
849.001904
 30
0.0
 10
289.483280
 20
849.568296
 30
0.0
 10
298.250825
 20
850.645706
 30
0.0
 10
303.026624
 20
855.991697
 30
0.0
 10
317.059176
 20
867.011129
 30
0.0
 10
330.426106
 20
869.804777
 30
0.0
 10
352.196192
 20
869.403600
 30
0.0
 10
365.796192
 20
869.196744
 30
0.0
 10
368.514272
 20
869.782544
 30
0.0
 10
365.427264
 20
872.748192
 30
0.0
 10
349.870576
 20
883.657160
 30
0.0
 10
343.611056
 20
887.295526
 30
0.0
 10
325.898480
 20
896.205372
 30
0.0
 10
308.514008
 20
901.283973
 30
0.0
 10
276.193600
 20
903.584834
 30
0.0
 10
272.723264
 20
903.375210
 30
0.0
 10
243.314280
 20
899.124491
 30
0.0
 10
227.364367
 20
894.345408
 30
0.0
 10
217.714280
 20
889.303171
 30
0.0
 10
213.114280
 20
886.899780
 30
0.0
 10
210.514280
 20
885.341104
 30
0.0
 10
205.633832
 20
881.238160
 30
0.0
 10
188.137816
 20
864.978209
 30
0.0
 10
171.001344
 20
843.953928
 30
0.0
 10
157.714280
 20
820.786680
 30
0.0
 10
156.460136
 20
817.686808
 30
0.0
 10
153.766384
 20
809.914952
 30
0.0
 10
150.948896
 20
800.857160
 30
0.0
 10
146.052552
 20
785.257160
 30
0.0
 10
142.890920
 20
768.676325
 30
0.0
 10
141.263168
 20
757.352364
 30
0.0
 10
141.352864
 20
725.198068
 30
0.0
 10
150.876688
 20
687.705468
 30
0.0
 10
152.914272
 20
681.619748
 30
0.0
 10
157.206544
 20
680.685724
 30
0.0
 10
161.498816
 20
680.685724
 30
0.0
 10
161.981456
 20
686.395380
 30
0.0
 10
161.981464
 20
686.395380
 30
0.0
  0
LWPOLYLINE
  5
11c
100
AcDbEntity
  8
Layer_1
 62
7
100
AcDbPolyline
 90
50
 70
0
 10
219.984840
 20
724.144308
 30
0.0
 10
227.201894
 20
729.238229
 30
0.0
 10
235.695448
 20
740.474356
 30
0.0
 10
242.514280
 20
751.188092
 30
0.0
 10
259.527320
 20
779.257160
 30
0.0
 10
271.034648
 20
791.426040
 30
0.0
 10
285.917088
 20
803.308656
 30
0.0
 10
314.914280
 20
814.102864
 30
0.0
 10
325.314280
 20
816.699624
 30
0.0
 10
350.514272
 20
815.978392
 30
0.0
 10
416.362416
 20
816.403216
 30
0.0
 10
423.762416
 20
819.806744
 30
0.0
 10
426.570019
 20
825.487716
 30
0.0
 10
423.734496
 20
833.948104
 30
0.0
 10
421.008544
 20
844.563264
 30
0.0
 10
419.417184
 20
852.670753
 30
0.0
 10
413.327816
 20
857.685729
 30
0.0
 10
403.108072
 20
859.401137
 30
0.0
 10
394.573416
 20
860.681825
 30
0.0
 10
386.929409
 20
865.171043
 30
0.0
 10
380.699200
 20
864.257585
 30
0.0
 10
360.914248
 20
862.991793
 30
0.0
 10
324.607000
 20
861.734801
 30
0.0
 10
312.402896
 20
856.887513
 30
0.0
 10
309.488896
 20
854.609689
 30
0.0
 10
305.259080
 20
849.638736
 30
0.0
 10
300.468333
 20
845.373330
 30
0.0
 10
290.137384
 20
844.457160
 30
0.0
 10
278.493474
 20
843.224833
 30
0.0
 10
271.868912
 20
838.593656
 30
0.0
 10
268.570680
 20
832.452432
 30
0.0
 10
266.484821
 20
826.552146
 30
0.0
 10
261.084040
 20
823.219752
 30
0.0
 10
226.514248
 20
805.961448
 30
0.0
 10
214.914248
 20
798.082152
 30
0.0
 10
200.614880
 20
782.556240
 30
0.0
 10
197.253816
 20
776.844453
 30
0.0
 10
191.565176
 20
758.857156
 30
0.0
 10
192.882608
 20
750.657004
 30
0.0
 10
197.654824
 20
748.940444
 30
0.0
 10
201.256262
 20
748.157304
 30
0.0
 10
200.230440
 20
744.932788
 30
0.0
 10
196.114248
 20
737.264780
 30
0.0
 10
199.514248
 20
733.249692
 30
0.0
 10
205.883608
 20
730.579140
 30
0.0
 10
210.345711
 20
730.456972
 30
0.0
 10
210.096224
 20
726.806084
 30
0.0
 10
209.390616
 20
722.733588
 30
0.0
 10
219.984808
 20
724.144308
 30
0.0
 10
219.984840
 20
724.144308
 30
0.0
  0
LWPOLYLINE
  5
11d
100
AcDbEntity
  8
Layer_1
 62
7
100
AcDbPolyline
 90
52
 70
0
 10
280.514280
 20
732.550516
 30
0.0
 10
290.765930
 20
735.637968
 30
0.0
 10
293.290336
 20
740.120084
 30
0.0
 10
296.458722
 20
744.218798
 30
0.0
 10
298.532072
 20
737.005076
 30
0.0
 10
301.249018
 20
730.529649
 30
0.0
 10
310.378896
 20
726.529684
 30
0.0
 10
323.853248
 20
726.016540
 30
0.0
 10
332.514280
 20
727.695220
 30
0.0
 10
348.138430
 20
733.571207
 30
0.0
 10
361.583728
 20
743.532060
 30
0.0
 10
364.910170
 20
748.295207
 30
0.0
 10
365.714272
 20
754.475548
 30
0.0
 10
362.652024
 20
761.823468
 30
0.0
 10
357.712856
 20
766.117533
 30
0.0
 10
356.329645
 20
768.730053
 30
0.0
 10
359.289168
 20
770.057157
 30
0.0
 10
361.739408
 20
769.457157
 30
0.0
 10
363.808792
 20
767.367469
 30
0.0
 10
365.914751
 20
766.363263
 30
0.0
 10
368.383656
 20
768.214397
 30
0.0
 10
382.914272
 20
778.351925
 30
0.0
 10
387.714272
 20
780.480384
 30
0.0
 10
393.507000
 20
782.515992
 30
0.0
 10
396.996702
 20
783.954801
 30
0.0
 10
397.196688
 20
785.946864
 30
0.0
 10
393.991208
 20
790.057160
 30
0.0
 10
392.403576
 20
791.257160
 30
0.0
 10
390.882600
 20
792.457160
 30
0.0
 10
389.240408
 20
794.749263
 30
0.0
 10
389.320672
 20
802.129480
 30
0.0
 10
389.880800
 20
808.457160
 30
0.0
 10
386.797536
 20
808.595112
 30
0.0
 10
376.514272
 20
808.528232
 30
0.0
 10
360.914272
 20
809.202240
 30
0.0
 10
315.672008
 20
808.859824
 30
0.0
 10
308.514272
 20
806.941760
 30
0.0
 10
302.114272
 20
804.462624
 30
0.0
 10
292.914272
 20
800.237840
 30
0.0
 10
279.033360
 20
789.864496
 30
0.0
 10
277.795560
 20
789.257184
 30
0.0
 10
266.619396
 20
777.052418
 30
0.0
 10
251.316528
 20
753.661228
 30
0.0
 10
245.041672
 20
740.996452
 30
0.0
 10
249.314272
 20
738.821964
 30
0.0
 10
252.839554
 20
736.492706
 30
0.0
 10
253.744192
 20
732.540172
 30
0.0
 10
256.791200
 20
726.157628
 30
0.0
 10
259.408280
 20
724.021668
 30
0.0
 10
266.361280
 20
727.425220
 30
0.0
 10
280.514280
 20
732.550516
 30
0.0
 10
280.514280
 20
732.550516
 30
0.0
  0
LWPOLYLINE
  5
11e
100
AcDbEntity
  8
Layer_1
 62
7
100
AcDbPolyline
 90
11
 70
0
 10
289.539816
 20
761.057156
 30
0.0
 10
286.236160
 20
768.306909
 30
0.0
 10
286.999789
 20
773.969121
 30
0.0
 10
290.950936
 20
777.724029
 30
0.0
 10
295.845088
 20
778.028883
 30
0.0
 10
300.714280
 20
773.852053
 30
0.0
 10
303.314280
 20
765.348653
 30
0.0
 10
302.035923
 20
758.145670
 30
0.0
 10
296.582616
 20
756.457156
 30
0.0
 10
292.341696
 20
756.457156
 30
0.0
 10
289.539816
 20
761.057156
 30
0.0
  0
LWPOLYLINE
  5
11f
100
AcDbEntity
  8
Layer_1
 62
7
100
AcDbPolyline
 90
6
 70
0
 10
294.148360
 20
768.257157
 30
0.0
 10
290.789944
 20
772.199493
 30
0.0
 10
291.557960
 20
768.847109
 30
0.0
 10
293.751747
 20
766.085839
 30
0.0
 10
294.148360
 20
768.257157
 30
0.0
 10
294.148360
 20
768.257157
 30
0.0
  0
LWPOLYLINE
  5
120
100
AcDbEntity
  8
Layer_1
 62
7
100
AcDbPolyline
 90
11
 70
0
 10
333.342704
 20
777.586621
 30
0.0
 10
329.476587
 20
783.408193
 30
0.0
 10
329.444056
 20
789.513432
 30
0.0
 10
333.524424
 20
792.766768
 30
0.0
 10
339.711512
 20
791.313504
 30
0.0
 10
343.668198
 20
787.311179
 30
0.0
 10
345.310984
 20
782.457160
 30
0.0
 10
344.217725
 20
776.487004
 30
0.0
 10
339.704976
 20
774.057157
 30
0.0
 10
333.342704
 20
777.586621
 30
0.0
 10
333.342704
 20
777.586621
 30
0.0
  0
LWPOLYLINE
  5
121
100
AcDbEntity
  8
Layer_1
 62
7
100
AcDbPolyline
 90
6
 70
0
 10
336.482320
 20
783.857160
 30
0.0
 10
333.329712
 20
787.539264
 30
0.0
 10
333.788928
 20
784.586888
 30
0.0
 10
335.847785
 20
782.026798
 30
0.0
 10
336.482320
 20
783.857160
 30
0.0
 10
336.482320
 20
783.857160
 30
0.0
  0
LWPOLYLINE
  5
122
100
AcDbEntity
  8
Layer_1
 62
7
100
AcDbPolyline
 90
9
 70
0
 10
281.184688
 20
780.243896
 30
0.0
 10
280.629867
 20
785.491360
 30
0.0
 10
284.837816
 20
787.508472
 30
0.0
 10
289.049192
 20
787.042240
 30
0.0
 10
286.856384
 20
783.314120
 30
0.0
 10
284.914272
 20
780.041920
 30
0.0
 10
283.659494
 20
777.256002
 30
0.0
 10
281.184688
 20
780.243896
 30
0.0
 10
281.184688
 20
780.243896
 30
0.0
  0
LWPOLYLINE
  5
123
100
AcDbEntity
  8
Layer_1
 62
7
100
AcDbPolyline
 90
9
 70
0
 10
336.638944
 20
800.367840
 30
0.0
 10
329.949312
 20
800.272744
 30
0.0
 10
328.115192
 20
800.126795
 30
0.0
 10
327.314272
 20
802.446312
 30
0.0
 10
332.910520
 20
807.657160
 30
0.0
 10
341.435064
 20
802.156680
 30
0.0
 10
341.550176
 20
799.859424
 30
0.0
 10
336.638952
 20
800.367840
 30
0.0
 10
336.638944
 20
800.367840
 30
0.0
  0
LWPOLYLINE
  5
124
100
AcDbEntity
  8
Layer_1
 62
7
100
AcDbPolyline
 90
39
 70
0
 10
568.619600
 20
772.591493
 30
0.0
 10
573.898440
 20
779.872379
 30
0.0
 10
575.314240
 20
787.583928
 30
0.0
 10
578.250720
 20
798.071960
 30
0.0
 10
581.555680
 20
809.366072
 30
0.0
 10
580.938620
 20
817.762322
 30
0.0
 10
577.287600
 20
824.857160
 30
0.0
 10
572.524000
 20
832.857160
 30
0.0
 10
561.008190
 20
850.479535
 30
0.0
 10
551.495360
 20
857.546753
 30
0.0
 10
544.424960
 20
858.048353
 30
0.0
 10
536.024960
 20
860.470241
 30
0.0
 10
528.114320
 20
864.519697
 30
0.0
 10
522.191360
 20
867.306616
 30
0.0
 10
511.866880
 20
868.457160
 30
0.0
 10
501.068240
 20
866.323745
 30
0.0
 10
494.781280
 20
865.123745
 30
0.0
 10
481.087580
 20
865.803773
 30
0.0
 10
469.248960
 20
862.487929
 30
0.0
 10
460.527440
 20
852.857161
 30
0.0
 10
458.495840
 20
844.313624
 30
0.0
 10
458.934720
 20
834.216352
 30
0.0
 10
458.631280
 20
826.698872
 30
0.0
 10
456.413120
 20
819.416082
 30
0.0
 10
457.679040
 20
813.326272
 30
0.0
 10
460.738320
 20
810.706912
 30
0.0
 10
477.626560
 20
817.826848
 30
0.0
 10
481.381040
 20
818.965112
 30
0.0
 10
502.914320
 20
817.982008
 30
0.0
 10
514.914320
 20
815.727360
 30
0.0
 10
524.677980
 20
813.500341
 30
0.0
 10
532.384960
 20
807.350312
 30
0.0
 10
542.914320
 20
799.420000
 30
0.0
 10
549.564380
 20
795.214208
 30
0.0
 10
555.035920
 20
788.057160
 30
0.0
 10
562.123840
 20
772.662477
 30
0.0
 10
564.278940
 20
769.088698
 30
0.0
 10
568.619600
 20
772.591517
 30
0.0
 10
568.619600
 20
772.591493
 30
0.0
  0
LWPOLYLINE
  5
125
100
AcDbEntity
  8
Layer_1
 62
7
100
AcDbPolyline
 90
46
 70
0
 10
577.283360
 20
838.807144
 30
0.0
 10
604.514240
 20
852.886185
 30
0.0
 10
623.042299
 20
862.339786
 30
0.0
 10
637.698370
 20
874.662150
 30
0.0
 10
647.286976
 20
888.560376
 30
0.0
 10
650.612640
 20
902.741561
 30
0.0
 10
646.869760
 20
918.954613
 30
0.0
 10
632.235280
 20
935.177140
 30
0.0
 10
617.914160
 20
941.279507
 30
0.0
 10
601.314240
 20
943.041972
 30
0.0
 10
586.914240
 20
941.696636
 30
0.0
 10
566.914240
 20
935.251668
 30
0.0
 10
560.914240
 20
932.763740
 30
0.0
 10
537.314240
 20
921.065299
 30
0.0
 10
531.556800
 20
917.540676
 30
0.0
 10
530.951920
 20
914.266596
 30
0.0
 10
532.109360
 20
911.150977
 30
0.0
 10
536.227600
 20
906.657892
 30
0.0
 10
539.622960
 20
902.717375
 30
0.0
 10
538.267040
 20
901.257663
 30
0.0
 10
526.869920
 20
911.428858
 30
0.0
 10
518.917460
 20
927.291529
 30
0.0
 10
510.463520
 20
936.000188
 30
0.0
 10
497.890870
 20
942.933327
 30
0.0
 10
483.624000
 20
945.491932
 30
0.0
 10
474.424000
 20
943.660852
 30
0.0
 10
469.978780
 20
939.486188
 30
0.0
 10
468.932080
 20
933.923484
 30
0.0
 10
470.774770
 20
925.280976
 30
0.0
 10
477.039520
 20
916.595938
 30
0.0
 10
483.551860
 20
907.553813
 30
0.0
 10
484.324720
 20
895.957319
 30
0.0
 10
484.876910
 20
883.959065
 30
0.0
 10
488.408880
 20
875.482384
 30
0.0
 10
492.959570
 20
871.963124
 30
0.0
 10
500.789200
 20
873.429624
 30
0.0
 10
515.274950
 20
876.010435
 30
0.0
 10
529.477680
 20
870.752672
 30
0.0
 10
542.400400
 20
866.515961
 30
0.0
 10
553.069020
 20
863.681068
 30
0.0
 10
561.314240
 20
859.055553
 30
0.0
 10
571.301760
 20
847.257160
 30
0.0
 10
573.285280
 20
842.257160
 30
0.0
 10
575.625300
 20
838.420095
 30
0.0
 10
577.283360
 20
838.807144
 30
0.0
 10
577.283360
 20
838.807144
 30
0.0
  0
LWPOLYLINE
  5
126
100
AcDbEntity
  8
Layer_1
 62
7
100
AcDbPolyline
 90
10
 70
0
 10
544.472800
 20
882.924208
 30
0.0
 10
547.025840
 20
888.095745
 30
0.0
 10
555.422640
 20
892.412981
 30
0.0
 10
572.261760
 20
891.951740
 30
0.0
 10
576.914240
 20
889.060905
 30
0.0
 10
573.114240
 20
888.152006
 30
0.0
 10
563.314240
 20
888.775161
 30
0.0
 10
551.124480
 20
885.449368
 30
0.0
 10
544.472800
 20
882.924208
 30
0.0
 10
544.472800
 20
882.924208
 30
0.0
  0
ENDSEC
  0
SECTION
  2
OBJECTS
  0
DICTIONARY
  5
C
330
0
100
AcDbDictionary
  3
ACAD_GROUP
350
D
  3
ACAD_MLINESTYLE
350
17
  0
DICTIONARY
  5
D
330
C
100
AcDbDictionary
  0
DICTIONARY
  5
1A
330
C
100
AcDbDictionary
  0
DICTIONARY
  5
17
330
C
100
AcDbDictionary
  3
STANDARD
350
18
  0
DICTIONARY
  5
19
330
C
100
AcDbDictionary
  0
ENDSEC
  0
EOF
